<?xml version="1.0" encoding="utf-8"?>
<!-- Generator: Adobe Illustrator 22.0.1, SVG Export Plug-In . SVG Version: 6.00 Build 0)  -->
<svg version="1.1" id="图层_1" xmlns="http://www.w3.org/2000/svg" xmlns:xlink="http://www.w3.org/1999/xlink" x="0px" y="0px"
	 viewBox="0 0 718.4 241" style="enable-background:new 0 0 718.4 241;" xml:space="preserve">
<style type="text/css">
	.st0{fill:#A0A0A0;}
	.st1{fill:#113A8C;}
	.st2{fill:#2287FF;}
	.st3{fill:none;stroke:#CAE2FF;stroke-width:4;stroke-linecap:round;stroke-miterlimit:10;}
	.st4{fill:none;stroke:#94C5FF;stroke-width:4;stroke-linecap:round;stroke-miterlimit:10;}
	.st5{fill:none;stroke:#79B4FA;stroke-width:4;stroke-linecap:round;stroke-miterlimit:10;}
	.st6{fill:none;stroke:#67AAF9;stroke-width:5;stroke-linecap:round;stroke-miterlimit:10;}
	.st7{fill:none;stroke:#5AA2F8;stroke-width:6;stroke-linecap:round;stroke-miterlimit:10;}
	.st8{fill:none;stroke:#4295F7;stroke-width:7;stroke-linecap:round;stroke-miterlimit:10;}
	.st9{fill:none;stroke:#1F7EF1;stroke-width:8;stroke-linejoin:round;stroke-miterlimit:10;}
</style>
<g id="XMLID_664_">
	<path id="XMLID_868_" class="st0" d="M10.9,130.5c1.1,0,2.1,0.1,3.1,0.3c1,0.2,1.9,0.6,2.6,1.1c0.8,0.5,1.4,1.1,1.8,2
		c0.5,0.8,0.7,1.8,0.7,3c0,0.7-0.1,1.3-0.3,2c-0.2,0.6-0.5,1.2-0.9,1.7c-0.4,0.5-0.9,1-1.4,1.3c-0.5,0.4-1.2,0.6-1.8,0.8v0.1
		c1.7,0.2,3,0.9,4,2c1,1.1,1.5,2.6,1.5,4.3c0,0.4,0,0.9-0.1,1.4c-0.1,0.5-0.2,1-0.4,1.6c-0.2,0.5-0.5,1.1-0.9,1.6
		c-0.4,0.5-1,1-1.6,1.4c-0.7,0.4-1.5,0.7-2.5,1c-1,0.3-2.2,0.4-3.6,0.4H0v-25.9H10.9z M10.9,141.9c1,0,1.8-0.1,2.6-0.3
		c0.7-0.2,1.3-0.5,1.8-0.9s0.8-0.9,1.1-1.4c0.2-0.5,0.4-1.1,0.4-1.7c0-3.2-1.9-4.9-5.8-4.9H2.5v9.2H10.9z M10.9,154.3
		c0.9,0,1.8-0.1,2.6-0.2c0.8-0.2,1.5-0.4,2.2-0.9c0.6-0.4,1.1-1,1.5-1.6c0.4-0.7,0.5-1.6,0.5-2.6c0-1.7-0.6-2.9-1.8-3.7
		c-1.2-0.8-2.9-1.2-5.1-1.2H2.5v10.3H10.9z"/>
	<path id="XMLID_866_" class="st0" d="M25.8,137.7v4.4h0.1c0.6-1.5,1.5-2.7,2.7-3.5c1.2-0.8,2.7-1.2,4.4-1.1v2.3c-1,0-2,0.1-2.8,0.4
		c-0.8,0.3-1.6,0.8-2.2,1.4c-0.6,0.6-1.1,1.3-1.4,2.2c-0.3,0.8-0.5,1.7-0.5,2.7v10h-2.3v-18.7H25.8z"/>
	<path id="XMLID_863_" class="st0" d="M37.4,130.5v3.7h-2.3v-3.7H37.4z M37.4,137.7v18.7h-2.3v-18.7H37.4z"/>
	<path id="XMLID_861_" class="st0" d="M44.1,137.7v3.2h0.1c0.4-1.1,1.2-2,2.3-2.7c1.1-0.7,2.3-1,3.7-1c1.3,0,2.4,0.2,3.3,0.5
		c0.9,0.3,1.6,0.8,2.1,1.4c0.5,0.6,0.9,1.4,1.1,2.3c0.2,0.9,0.3,1.9,0.3,3v12h-2.3v-11.7c0-0.8-0.1-1.5-0.2-2.2s-0.4-1.3-0.8-1.8
		c-0.4-0.5-0.9-0.9-1.5-1.2c-0.6-0.3-1.4-0.4-2.3-0.4c-0.9,0-1.7,0.2-2.4,0.5c-0.7,0.3-1.3,0.8-1.8,1.3c-0.5,0.6-0.9,1.2-1.2,2
		c-0.3,0.8-0.4,1.6-0.5,2.6v10.9h-2.3v-18.7H44.1z"/>
	<path id="XMLID_858_" class="st0" d="M76.6,158.6c-0.3,1.1-0.8,2.1-1.4,2.8c-0.7,0.8-1.5,1.4-2.6,1.8c-1,0.4-2.3,0.6-3.9,0.6
		c-0.9,0-1.9-0.1-2.8-0.3s-1.7-0.6-2.4-1c-0.7-0.5-1.3-1-1.8-1.8s-0.7-1.6-0.8-2.6h2.3c0.1,0.7,0.4,1.3,0.7,1.8
		c0.3,0.5,0.8,0.9,1.3,1.1c0.5,0.3,1,0.5,1.6,0.6c0.6,0.1,1.2,0.2,1.8,0.2c2.1,0,3.7-0.6,4.6-1.8c0.9-1.2,1.4-2.9,1.4-5.2v-2.5h-0.1
		c-0.5,1.2-1.3,2.1-2.3,2.8s-2.2,1-3.6,1c-1.5,0-2.8-0.2-3.8-0.7c-1.1-0.5-1.9-1.2-2.6-2c-0.7-0.9-1.2-1.9-1.5-3.1
		c-0.3-1.2-0.5-2.4-0.5-3.7c0-1.3,0.2-2.5,0.6-3.6c0.4-1.1,0.9-2.1,1.6-3c0.7-0.9,1.6-1.5,2.6-2c1-0.5,2.3-0.7,3.6-0.7
		c0.7,0,1.4,0.1,2,0.3c0.6,0.2,1.2,0.5,1.7,0.8c0.5,0.4,1,0.8,1.4,1.2c0.4,0.5,0.7,0.9,0.9,1.4h0.1v-3.2H77v17.2
		C77,156.3,76.9,157.5,76.6,158.6z M71.4,153.6c0.7-0.4,1.4-1,1.9-1.7s0.9-1.5,1.1-2.4c0.3-0.9,0.4-1.8,0.4-2.8
		c0-0.9-0.1-1.8-0.3-2.8s-0.6-1.8-1-2.5c-0.5-0.7-1.1-1.4-1.9-1.8c-0.8-0.5-1.7-0.7-2.8-0.7s-2,0.2-2.8,0.7c-0.8,0.4-1.4,1-1.9,1.8
		s-0.9,1.6-1.1,2.5c-0.2,0.9-0.3,1.9-0.3,2.8c0,0.9,0.1,1.9,0.4,2.8c0.2,0.9,0.6,1.7,1.1,2.4s1.1,1.2,1.9,1.7
		c0.8,0.4,1.7,0.6,2.8,0.6C69.7,154.3,70.6,154,71.4,153.6z"/>
	<path id="XMLID_854_" class="st0" d="M102.8,130.5c1.1,0,2.1,0.1,3.1,0.3c1,0.2,1.9,0.6,2.6,1.1c0.8,0.5,1.4,1.1,1.8,2
		c0.5,0.8,0.7,1.8,0.7,3c0,0.7-0.1,1.3-0.3,2c-0.2,0.6-0.5,1.2-0.9,1.7c-0.4,0.5-0.9,1-1.4,1.3c-0.5,0.4-1.2,0.6-1.8,0.8v0.1
		c1.7,0.2,3,0.9,4,2c1,1.1,1.5,2.6,1.5,4.3c0,0.4,0,0.9-0.1,1.4c-0.1,0.5-0.2,1-0.4,1.6c-0.2,0.5-0.5,1.1-0.9,1.6
		c-0.4,0.5-1,1-1.6,1.4c-0.7,0.4-1.5,0.7-2.5,1c-1,0.3-2.2,0.4-3.6,0.4H91.9v-25.9H102.8z M102.8,141.9c1,0,1.8-0.1,2.6-0.3
		c0.7-0.2,1.3-0.5,1.8-0.9s0.8-0.9,1.1-1.4c0.2-0.5,0.4-1.1,0.4-1.7c0-3.2-1.9-4.9-5.8-4.9h-8.5v9.2H102.8z M102.8,154.3
		c0.9,0,1.8-0.1,2.6-0.2c0.8-0.2,1.5-0.4,2.2-0.9c0.6-0.4,1.1-1,1.5-1.6c0.4-0.7,0.5-1.6,0.5-2.6c0-1.7-0.6-2.9-1.8-3.7
		c-1.2-0.8-2.9-1.2-5.1-1.2h-8.5v10.3H102.8z"/>
	<path id="XMLID_852_" class="st0" d="M117.9,130.5v25.9h-2.3v-25.9H117.9z"/>
	<path id="XMLID_849_" class="st0" d="M134,138c1.1,0.5,2,1.2,2.8,2.1c0.7,0.9,1.3,1.9,1.7,3.1c0.4,1.2,0.6,2.5,0.6,3.8
		c0,1.4-0.2,2.6-0.6,3.8c-0.4,1.2-1,2.2-1.7,3.1c-0.7,0.9-1.7,1.6-2.8,2.1c-1.1,0.5-2.4,0.8-3.8,0.8c-1.4,0-2.7-0.3-3.8-0.8
		c-1.1-0.5-2-1.2-2.8-2.1c-0.7-0.9-1.3-1.9-1.7-3.1c-0.4-1.2-0.6-2.5-0.6-3.8c0-1.4,0.2-2.6,0.6-3.8c0.4-1.2,1-2.2,1.7-3.1
		c0.7-0.9,1.7-1.6,2.8-2.1c1.1-0.5,2.4-0.8,3.8-0.8C131.6,137.2,132.9,137.4,134,138z M127.3,139.8c-0.8,0.5-1.5,1.1-2,1.8
		c-0.5,0.7-1,1.6-1.2,2.6c-0.3,1-0.4,1.9-0.4,2.9c0,1,0.1,2,0.4,2.9c0.3,1,0.7,1.8,1.2,2.6s1.2,1.4,2,1.8c0.8,0.5,1.8,0.7,2.9,0.7
		c1.1,0,2-0.2,2.9-0.7c0.8-0.5,1.5-1.1,2-1.8c0.5-0.7,1-1.6,1.2-2.6c0.3-1,0.4-1.9,0.4-2.9c0-1-0.1-2-0.4-2.9
		c-0.3-1-0.7-1.8-1.2-2.6c-0.5-0.7-1.2-1.4-2-1.8c-0.8-0.5-1.8-0.7-2.9-0.7C129.1,139.1,128.2,139.3,127.3,139.8z"/>
	<path id="XMLID_847_" class="st0" d="M153.9,140.3c-0.8-0.8-2-1.2-3.5-1.2c-1.1,0-2,0.2-2.9,0.7c-0.8,0.5-1.5,1.1-2,1.8
		c-0.5,0.7-1,1.6-1.2,2.6c-0.3,1-0.4,1.9-0.4,2.9c0,1,0.1,2,0.4,2.9c0.3,1,0.7,1.8,1.2,2.6s1.2,1.4,2,1.8c0.8,0.5,1.8,0.7,2.9,0.7
		c0.7,0,1.4-0.1,2-0.4c0.6-0.3,1.2-0.6,1.7-1.1s0.9-1,1.2-1.7c0.3-0.7,0.5-1.4,0.6-2.1h2.3c-0.3,2.3-1.1,4-2.5,5.3
		c-1.4,1.3-3.1,1.9-5.2,1.9c-1.4,0-2.7-0.3-3.8-0.8c-1.1-0.5-2-1.2-2.8-2.1c-0.7-0.9-1.3-1.9-1.7-3.1c-0.4-1.2-0.6-2.5-0.6-3.8
		c0-1.4,0.2-2.6,0.6-3.8c0.4-1.2,1-2.2,1.7-3.1c0.7-0.9,1.7-1.6,2.8-2.1c1.1-0.5,2.4-0.8,3.8-0.8c2,0,3.7,0.5,5.1,1.6
		c1.4,1.1,2.2,2.7,2.5,4.8h-2.3C155.3,142.2,154.7,141.1,153.9,140.3z"/>
	<path id="XMLID_845_" class="st0" d="M163.5,130.5v16.2l10.4-9.1h3l-8,6.9l8.5,11.8h-2.9l-7.4-10.2l-3.7,3.1v7.1h-2.3v-25.9H163.5z
		"/>
	<path id="XMLID_843_" class="st0" d="M190.8,140.3c-0.8-0.8-2-1.2-3.5-1.2c-1.1,0-2,0.2-2.9,0.7c-0.8,0.5-1.5,1.1-2,1.8
		c-0.5,0.7-1,1.6-1.2,2.6c-0.3,1-0.4,1.9-0.4,2.9c0,1,0.1,2,0.4,2.9c0.3,1,0.7,1.8,1.2,2.6s1.2,1.4,2,1.8c0.8,0.5,1.8,0.7,2.9,0.7
		c0.7,0,1.4-0.1,2-0.4c0.6-0.3,1.2-0.6,1.7-1.1s0.9-1,1.2-1.7c0.3-0.7,0.5-1.4,0.6-2.1h2.3c-0.3,2.3-1.1,4-2.5,5.3
		c-1.4,1.3-3.1,1.9-5.2,1.9c-1.4,0-2.7-0.3-3.8-0.8c-1.1-0.5-2-1.2-2.8-2.1c-0.7-0.9-1.3-1.9-1.7-3.1c-0.4-1.2-0.6-2.5-0.6-3.8
		c0-1.4,0.2-2.6,0.6-3.8c0.4-1.2,1-2.2,1.7-3.1c0.7-0.9,1.7-1.6,2.8-2.1c1.1-0.5,2.4-0.8,3.8-0.8c2,0,3.7,0.5,5.1,1.6
		c1.4,1.1,2.2,2.7,2.5,4.8h-2.3C192.2,142.2,191.6,141.1,190.8,140.3z"/>
	<path id="XMLID_841_" class="st0" d="M200.4,130.5v10.4h0.1c0.4-1.1,1.2-2,2.3-2.7c1.1-0.7,2.3-1,3.7-1c1.3,0,2.4,0.2,3.3,0.5
		c0.9,0.3,1.6,0.8,2.1,1.4c0.5,0.6,0.9,1.4,1.1,2.3c0.2,0.9,0.3,1.9,0.3,3v12H211v-11.7c0-0.8-0.1-1.5-0.2-2.2s-0.4-1.3-0.8-1.8
		c-0.4-0.5-0.9-0.9-1.5-1.2c-0.6-0.3-1.4-0.4-2.3-0.4c-0.9,0-1.7,0.2-2.4,0.5c-0.7,0.3-1.3,0.8-1.8,1.3c-0.5,0.6-0.9,1.2-1.2,2
		c-0.3,0.8-0.4,1.6-0.5,2.6v10.9h-2.3v-25.9H200.4z"/>
	<path id="XMLID_838_" class="st0" d="M218,140.6c0.4-0.8,0.9-1.4,1.6-2c0.7-0.5,1.4-0.9,2.3-1.1c0.9-0.2,1.9-0.4,3-0.4
		c0.8,0,1.6,0.1,2.5,0.2c0.8,0.2,1.6,0.5,2.2,0.9c0.7,0.4,1.2,1,1.6,1.8c0.4,0.8,0.6,1.8,0.6,3.1v9.9c0,0.9,0.4,1.4,1.3,1.4
		c0.3,0,0.5,0,0.7-0.1v1.9c-0.3,0-0.5,0.1-0.7,0.1c-0.2,0-0.5,0-0.8,0c-0.6,0-1-0.1-1.4-0.2c-0.4-0.2-0.6-0.4-0.8-0.7
		c-0.2-0.3-0.3-0.6-0.4-1c-0.1-0.4-0.1-0.8-0.1-1.3h-0.1c-0.4,0.6-0.8,1.1-1.2,1.6s-0.9,0.9-1.4,1.2c-0.5,0.3-1.1,0.6-1.8,0.7
		c-0.7,0.2-1.5,0.3-2.4,0.3c-0.9,0-1.7-0.1-2.4-0.3c-0.8-0.2-1.4-0.5-2-1c-0.6-0.4-1-1-1.3-1.7c-0.3-0.7-0.5-1.5-0.5-2.4
		c0-1.3,0.3-2.3,0.9-3.1c0.6-0.7,1.3-1.3,2.3-1.7c1-0.4,2-0.7,3.2-0.8c1.2-0.2,2.4-0.3,3.6-0.5c0.5,0,0.9-0.1,1.3-0.2
		c0.4-0.1,0.7-0.2,0.9-0.4c0.2-0.2,0.4-0.4,0.6-0.7c0.1-0.3,0.2-0.7,0.2-1.2c0-0.8-0.1-1.4-0.4-1.9s-0.6-0.9-1-1.2
		c-0.4-0.3-1-0.5-1.6-0.6c-0.6-0.1-1.2-0.2-1.9-0.2c-1.4,0-2.6,0.3-3.5,1c-0.9,0.7-1.4,1.8-1.4,3.3h-2.3
		C217.4,142.3,217.7,141.4,218,140.6z M229.4,146.2c-0.1,0.3-0.4,0.5-0.8,0.6c-0.4,0.1-0.8,0.2-1.1,0.3c-1,0.2-2,0.3-3,0.5
		c-1,0.1-2,0.3-2.8,0.6c-0.8,0.3-1.5,0.6-2.1,1.1c-0.5,0.5-0.8,1.2-0.8,2.1c0,0.6,0.1,1.1,0.3,1.5c0.2,0.4,0.5,0.8,0.9,1.2
		c0.4,0.3,0.8,0.6,1.3,0.7c0.5,0.2,1,0.3,1.6,0.3c0.9,0,1.7-0.1,2.5-0.4c0.8-0.3,1.5-0.7,2.1-1.2c0.6-0.5,1.1-1.1,1.4-1.8
		c0.3-0.7,0.5-1.5,0.5-2.5L229.4,146.2L229.4,146.2z"/>
	<path id="XMLID_835_" class="st0" d="M238.7,130.5v3.7h-2.3v-3.7H238.7z M238.7,137.7v18.7h-2.3v-18.7H238.7z"/>
	<path id="XMLID_833_" class="st0" d="M245.3,137.7v3.2h0.1c0.4-1.1,1.2-2,2.3-2.7c1.1-0.7,2.3-1,3.7-1c1.3,0,2.4,0.2,3.3,0.5
		c0.9,0.3,1.6,0.8,2.1,1.4c0.5,0.6,0.9,1.4,1.1,2.3c0.2,0.9,0.3,1.9,0.3,3v12h-2.3v-11.7c0-0.8-0.1-1.5-0.2-2.2s-0.4-1.3-0.8-1.8
		c-0.4-0.5-0.9-0.9-1.5-1.2c-0.6-0.3-1.4-0.4-2.3-0.4c-0.9,0-1.7,0.2-2.4,0.5c-0.7,0.3-1.3,0.8-1.8,1.3c-0.5,0.6-0.9,1.2-1.2,2
		c-0.3,0.8-0.4,1.6-0.5,2.6v10.9H243v-18.7H245.3z"/>
	<path id="XMLID_826_" class="st0" d="M29.1,165.9v3.7h-2.3v-3.7H29.1z M29.1,173v18.7h-2.3V173H29.1z"/>
	<path id="XMLID_824_" class="st0" d="M34.9,173v3.2h0.1c0.4-1.1,1.2-2,2.3-2.7c1.1-0.7,2.3-1,3.7-1c1.3,0,2.4,0.2,3.3,0.5
		c0.9,0.3,1.6,0.8,2.1,1.4c0.5,0.6,0.9,1.4,1.1,2.3c0.2,0.9,0.3,1.9,0.3,3v12h-2.3V180c0-0.8-0.1-1.5-0.2-2.2s-0.4-1.3-0.8-1.8
		c-0.4-0.5-0.9-0.9-1.5-1.2c-0.6-0.3-1.4-0.4-2.3-0.4c-0.9,0-1.7,0.2-2.4,0.5c-0.7,0.3-1.3,0.8-1.8,1.3c-0.5,0.6-0.9,1.2-1.2,2
		c-0.3,0.8-0.4,1.6-0.5,2.6v10.9h-2.3V173H34.9z"/>
	<path id="XMLID_821_" class="st0" d="M58.6,173v1.9h-3.8v12.6c0,0.7,0.1,1.3,0.3,1.8c0.2,0.4,0.7,0.7,1.5,0.7c0.7,0,1.3,0,2-0.1
		v1.9c-0.3,0-0.7,0-1,0c-0.3,0-0.7,0-1,0c-1.5,0-2.6-0.3-3.2-0.9c-0.6-0.6-0.9-1.7-0.9-3.3v-12.8h-3.3V173h3.3v-5.6h2.3v5.6H58.6z"
		/>
	<path id="XMLID_815_" class="st0" d="M72.7,173.3c1.1,0.5,2,1.2,2.8,2.1c0.7,0.9,1.3,1.9,1.7,3.1c0.4,1.2,0.6,2.5,0.6,3.8
		c0,1.4-0.2,2.6-0.6,3.8c-0.4,1.2-1,2.2-1.7,3.1c-0.7,0.9-1.7,1.6-2.8,2.1c-1.1,0.5-2.4,0.8-3.8,0.8c-1.4,0-2.7-0.3-3.8-0.8
		c-1.1-0.5-2-1.2-2.8-2.1c-0.7-0.9-1.3-1.9-1.7-3.1c-0.4-1.2-0.6-2.5-0.6-3.8c0-1.4,0.2-2.6,0.6-3.8c0.4-1.2,1-2.2,1.7-3.1
		c0.7-0.9,1.7-1.6,2.8-2.1c1.1-0.5,2.4-0.8,3.8-0.8C70.3,172.5,71.6,172.7,72.7,173.3z M66,175.1c-0.8,0.5-1.5,1.1-2,1.8
		c-0.5,0.7-1,1.6-1.2,2.6c-0.3,1-0.4,1.9-0.4,2.9c0,1,0.1,2,0.4,2.9c0.3,1,0.7,1.8,1.2,2.6s1.2,1.4,2,1.8c0.8,0.5,1.8,0.7,2.9,0.7
		c1.1,0,2-0.2,2.9-0.7c0.8-0.5,1.5-1.1,2-1.8c0.5-0.7,1-1.6,1.2-2.6c0.3-1,0.4-1.9,0.4-2.9c0-1-0.1-2-0.4-2.9
		c-0.3-1-0.7-1.8-1.2-2.6c-0.5-0.7-1.2-1.4-2-1.8c-0.8-0.5-1.8-0.7-2.9-0.7C67.8,174.4,66.8,174.6,66,175.1z"/>
	<path id="XMLID_804_" class="st0" d="M93.3,165.9l8.6,22.7l8.9-22.7h3.6v25.9H112v-22.3h-0.1l-8.8,22.3h-2.3l-8.5-22.3h-0.1v22.3
		h-2.5v-25.9H93.3z"/>
	<path id="XMLID_780_" class="st0" d="M118.7,175.9c0.4-0.8,0.9-1.4,1.6-2c0.7-0.5,1.4-0.9,2.3-1.1c0.9-0.2,1.9-0.4,3-0.4
		c0.8,0,1.6,0.1,2.5,0.2c0.8,0.2,1.6,0.5,2.2,0.9c0.7,0.4,1.2,1,1.6,1.8c0.4,0.8,0.6,1.8,0.6,3.1v9.9c0,0.9,0.4,1.4,1.3,1.4
		c0.3,0,0.5,0,0.7-0.1v1.9c-0.3,0-0.5,0.1-0.7,0.1c-0.2,0-0.5,0-0.8,0c-0.6,0-1-0.1-1.4-0.2c-0.4-0.2-0.6-0.4-0.8-0.7
		c-0.2-0.3-0.3-0.6-0.4-1c-0.1-0.4-0.1-0.8-0.1-1.3h-0.1c-0.4,0.6-0.8,1.1-1.2,1.6s-0.9,0.9-1.4,1.2c-0.5,0.3-1.1,0.6-1.8,0.7
		c-0.7,0.2-1.5,0.3-2.4,0.3c-0.9,0-1.7-0.1-2.4-0.3c-0.8-0.2-1.4-0.5-2-1c-0.6-0.4-1-1-1.3-1.7c-0.3-0.7-0.5-1.5-0.5-2.4
		c0-1.3,0.3-2.3,0.9-3.1c0.6-0.7,1.3-1.3,2.3-1.7c1-0.4,2-0.7,3.2-0.8c1.2-0.2,2.4-0.3,3.6-0.5c0.5,0,0.9-0.1,1.3-0.2
		c0.4-0.1,0.7-0.2,0.9-0.4c0.2-0.2,0.4-0.4,0.6-0.7c0.1-0.3,0.2-0.7,0.2-1.2c0-0.8-0.1-1.4-0.4-1.9s-0.6-0.9-1-1.2
		c-0.4-0.3-1-0.5-1.6-0.6c-0.6-0.1-1.2-0.2-1.9-0.2c-1.4,0-2.6,0.3-3.5,1c-0.9,0.7-1.4,1.8-1.4,3.3H118
		C118,177.7,118.3,176.7,118.7,175.9z M130.1,181.5c-0.1,0.3-0.4,0.5-0.8,0.6c-0.4,0.1-0.8,0.2-1.1,0.3c-1,0.2-2,0.3-3,0.5
		c-1,0.1-2,0.3-2.8,0.6c-0.8,0.3-1.5,0.6-2.1,1.1c-0.5,0.5-0.8,1.2-0.8,2.1c0,0.6,0.1,1.1,0.3,1.5c0.2,0.4,0.5,0.8,0.9,1.2
		c0.4,0.3,0.8,0.6,1.3,0.7c0.5,0.2,1,0.3,1.6,0.3c0.9,0,1.7-0.1,2.5-0.4c0.8-0.3,1.5-0.7,2.1-1.2c0.6-0.5,1.1-1.1,1.4-1.8
		c0.3-0.7,0.5-1.5,0.5-2.5L130.1,181.5L130.1,181.5z"/>
	<path id="XMLID_777_" class="st0" d="M138.4,165.9v3.7h-2.3v-3.7H138.4z M138.4,173v18.7h-2.3V173H138.4z"/>
	<path id="XMLID_775_" class="st0" d="M144.1,173v3.2h0.1c0.4-1.1,1.2-2,2.3-2.7c1.1-0.7,2.3-1,3.7-1c1.3,0,2.4,0.2,3.3,0.5
		c0.9,0.3,1.6,0.8,2.1,1.4c0.5,0.6,0.9,1.4,1.1,2.3c0.2,0.9,0.3,1.9,0.3,3v12h-2.3V180c0-0.8-0.1-1.5-0.2-2.2s-0.4-1.3-0.8-1.8
		c-0.4-0.5-0.9-0.9-1.5-1.2c-0.6-0.3-1.4-0.4-2.3-0.4c-0.9,0-1.7,0.2-2.4,0.5c-0.7,0.3-1.3,0.8-1.8,1.3c-0.5,0.6-0.9,1.2-1.2,2
		c-0.3,0.8-0.4,1.6-0.5,2.6v10.9h-2.3V173H144.1z"/>
	<path id="XMLID_773_" class="st0" d="M171.2,176.7c-0.3-0.5-0.6-0.9-1.1-1.3s-1-0.6-1.5-0.7c-0.6-0.2-1.2-0.2-1.8-0.2
		c-0.5,0-1,0.1-1.5,0.2c-0.5,0.1-1,0.3-1.4,0.5c-0.4,0.3-0.8,0.6-1,1c-0.3,0.4-0.4,0.9-0.4,1.5c0,0.5,0.1,0.9,0.4,1.3
		c0.3,0.4,0.6,0.6,1,0.9c0.4,0.2,0.8,0.4,1.3,0.6c0.5,0.2,0.9,0.3,1.3,0.4l3,0.7c0.7,0.1,1.3,0.3,1.9,0.5c0.6,0.3,1.2,0.6,1.7,1
		c0.5,0.4,0.9,0.9,1.2,1.5c0.3,0.6,0.5,1.3,0.5,2.1c0,1-0.2,1.9-0.7,2.6c-0.5,0.7-1,1.3-1.8,1.7c-0.7,0.4-1.5,0.8-2.4,1
		c-0.9,0.2-1.8,0.3-2.6,0.3c-2.2,0-4-0.5-5.3-1.6c-1.4-1-2.1-2.7-2.3-5h2.3c0.1,1.5,0.7,2.7,1.7,3.5c1,0.8,2.3,1.2,3.8,1.2
		c0.6,0,1.1-0.1,1.7-0.2c0.6-0.1,1.1-0.3,1.6-0.6s0.9-0.7,1.2-1.1c0.3-0.4,0.5-1,0.5-1.6c0-0.6-0.1-1-0.3-1.4
		c-0.2-0.4-0.5-0.7-0.9-0.9c-0.4-0.3-0.8-0.5-1.3-0.6c-0.5-0.2-1-0.3-1.5-0.4l-2.9-0.7c-0.7-0.2-1.4-0.4-2.1-0.7
		c-0.6-0.3-1.2-0.6-1.6-0.9c-0.5-0.4-0.8-0.8-1.1-1.4s-0.4-1.2-0.4-2c0-0.9,0.2-1.8,0.6-2.4c0.4-0.7,1-1.2,1.6-1.6
		c0.7-0.4,1.4-0.7,2.3-0.9c0.8-0.2,1.7-0.3,2.5-0.3c0.9,0,1.8,0.1,2.6,0.4c0.8,0.2,1.5,0.6,2.1,1.1c0.6,0.5,1.1,1.1,1.5,1.9
		c0.4,0.7,0.6,1.6,0.6,2.6h-2.3C171.6,177.8,171.4,177.2,171.2,176.7z"/>
	<path id="XMLID_771_" class="st0" d="M184.3,173v1.9h-3.8v12.6c0,0.7,0.1,1.3,0.3,1.8c0.2,0.4,0.7,0.7,1.5,0.7c0.7,0,1.3,0,2-0.1
		v1.9c-0.3,0-0.7,0-1,0c-0.3,0-0.7,0-1,0c-1.5,0-2.6-0.3-3.2-0.9c-0.6-0.6-0.9-1.7-0.9-3.3v-12.8H175V173h3.3v-5.6h2.3v5.6H184.3z"
		/>
	<path id="XMLID_769_" class="st0" d="M188.8,173v4.4h0.1c0.6-1.5,1.5-2.7,2.7-3.5c1.2-0.8,2.7-1.2,4.4-1.1v2.3c-1,0-2,0.1-2.8,0.4
		c-0.8,0.3-1.6,0.8-2.2,1.4c-0.6,0.6-1.1,1.3-1.4,2.2c-0.3,0.8-0.5,1.7-0.5,2.7v10h-2.3V173H188.8z"/>
	<path id="XMLID_671_" class="st0" d="M198.3,185.5c0.2,0.9,0.6,1.7,1.1,2.4c0.5,0.7,1.1,1.3,1.9,1.7c0.8,0.5,1.7,0.7,2.8,0.7
		c1.7,0,3-0.4,3.9-1.3c0.9-0.9,1.6-2,2-3.5h2.3c-0.5,2.1-1.4,3.8-2.7,4.9c-1.3,1.2-3.1,1.7-5.5,1.7c-1.5,0-2.7-0.3-3.8-0.8
		c-1.1-0.5-1.9-1.2-2.6-2.1c-0.7-0.9-1.2-2-1.5-3.2c-0.3-1.2-0.5-2.5-0.5-3.8c0-1.2,0.2-2.4,0.5-3.6c0.3-1.2,0.8-2.2,1.5-3.2
		c0.7-0.9,1.6-1.7,2.6-2.2c1.1-0.6,2.3-0.9,3.8-0.9c1.5,0,2.8,0.3,3.8,0.9c1.1,0.6,1.9,1.4,2.6,2.4s1.1,2.1,1.4,3.4
		c0.3,1.3,0.4,2.6,0.4,3.9h-14.4C197.9,183.8,198,184.7,198.3,185.5z M209.6,178.6c-0.3-0.8-0.7-1.5-1.2-2.1
		c-0.5-0.6-1.1-1.1-1.8-1.5c-0.7-0.4-1.5-0.6-2.5-0.6c-0.9,0-1.8,0.2-2.5,0.6c-0.7,0.4-1.3,0.9-1.8,1.5c-0.5,0.6-0.9,1.3-1.2,2.1
		c-0.3,0.8-0.5,1.6-0.6,2.5H210C210,180.2,209.8,179.4,209.6,178.6z"/>
	<path id="XMLID_667_" class="st0" d="M214.9,175.9c0.4-0.8,0.9-1.4,1.6-2c0.7-0.5,1.4-0.9,2.3-1.1c0.9-0.2,1.9-0.4,3-0.4
		c0.8,0,1.6,0.1,2.5,0.2c0.8,0.2,1.6,0.5,2.2,0.9c0.7,0.4,1.2,1,1.6,1.8c0.4,0.8,0.6,1.8,0.6,3.1v9.9c0,0.9,0.4,1.4,1.3,1.4
		c0.3,0,0.5,0,0.7-0.1v1.9c-0.3,0-0.5,0.1-0.7,0.1c-0.2,0-0.5,0-0.8,0c-0.6,0-1-0.1-1.4-0.2c-0.4-0.2-0.6-0.4-0.8-0.7
		c-0.2-0.3-0.3-0.6-0.4-1c-0.1-0.4-0.1-0.8-0.1-1.3h-0.1c-0.4,0.6-0.8,1.1-1.2,1.6s-0.9,0.9-1.4,1.2c-0.5,0.3-1.1,0.6-1.8,0.7
		c-0.7,0.2-1.5,0.3-2.4,0.3c-0.9,0-1.7-0.1-2.4-0.3c-0.8-0.2-1.4-0.5-2-1c-0.6-0.4-1-1-1.3-1.7c-0.3-0.7-0.5-1.5-0.5-2.4
		c0-1.3,0.3-2.3,0.9-3.1c0.6-0.7,1.3-1.3,2.3-1.7c1-0.4,2-0.7,3.2-0.8c1.2-0.2,2.4-0.3,3.6-0.5c0.5,0,0.9-0.1,1.3-0.2
		c0.4-0.1,0.7-0.2,0.9-0.4c0.2-0.2,0.4-0.4,0.6-0.7c0.1-0.3,0.2-0.7,0.2-1.2c0-0.8-0.1-1.4-0.4-1.9s-0.6-0.9-1-1.2
		c-0.4-0.3-1-0.5-1.6-0.6c-0.6-0.1-1.2-0.2-1.9-0.2c-1.4,0-2.6,0.3-3.5,1c-0.9,0.7-1.4,1.8-1.4,3.3h-2.3
		C214.3,177.7,214.5,176.7,214.9,175.9z M226.3,181.5c-0.1,0.3-0.4,0.5-0.8,0.6c-0.4,0.1-0.8,0.2-1.1,0.3c-1,0.2-2,0.3-3,0.5
		c-1,0.1-2,0.3-2.8,0.6c-0.8,0.3-1.5,0.6-2.1,1.1c-0.5,0.5-0.8,1.2-0.8,2.1c0,0.6,0.1,1.1,0.3,1.5c0.2,0.4,0.5,0.8,0.9,1.2
		c0.4,0.3,0.8,0.6,1.3,0.7c0.5,0.2,1,0.3,1.6,0.3c0.9,0,1.7-0.1,2.5-0.4c0.8-0.3,1.5-0.7,2.1-1.2c0.6-0.5,1.1-1.1,1.4-1.8
		c0.3-0.7,0.5-1.5,0.5-2.5L226.3,181.5L226.3,181.5z"/>
	<path id="XMLID_665_" class="st0" d="M234.4,173v3.1h0.1c0.6-1.2,1.4-2.1,2.4-2.7c1-0.7,2.2-1,3.7-1c1.2,0,2.3,0.3,3.3,0.9
		c1,0.6,1.7,1.5,2,2.8c0.6-1.2,1.4-2.1,2.5-2.8c1.1-0.6,2.2-0.9,3.5-0.9c4.1,0,6.2,2.2,6.2,6.6v12.7h-2.3v-12.6c0-1.5-0.3-2.7-1-3.5
		s-1.8-1.2-3.4-1.2c-1,0-1.8,0.2-2.5,0.6c-0.7,0.4-1.2,0.9-1.6,1.5c-0.4,0.6-0.7,1.3-0.8,2.2c-0.2,0.8-0.2,1.6-0.2,2.5v10.6h-2.3
		V179c0-0.6-0.1-1.2-0.2-1.8c-0.1-0.6-0.4-1.1-0.7-1.5c-0.3-0.4-0.7-0.8-1.2-1c-0.5-0.2-1.1-0.4-1.8-0.4c-1,0-1.8,0.2-2.5,0.5
		c-0.7,0.4-1.3,0.8-1.7,1.4c-0.4,0.6-0.8,1.3-1,2.2c-0.2,0.8-0.3,1.7-0.3,2.7v10.4h-2.3V173H234.4z"/>
</g>
<g id="XMLID_659_">
	<path class="st1" d="M156,101v16.6H89.5V17.9h16.6v83H156z"/>
</g>
<g id="XMLID_654_">
	<path class="st1" d="M391.9,101v16.6h-16.6V17.9h16.6V101L391.9,101z"/>
</g>
<g id="XMLID_646_">
	<path class="st1" d="M213.9,17.8c6.6,0,12.9,1.3,18.9,3.8c6,2.6,11.2,6.1,15.8,10.5c4.6,4.5,8.2,9.7,10.9,15.8c2.7,6,4,12.6,4,19.5
		c0,6.6-1.3,12.9-3.8,18.9c-2.6,6-6.1,11.2-10.5,15.8c-4.5,4.6-9.7,8.2-15.8,10.9c-6,2.7-12.6,4-19.5,4c-6.6,0-12.9-1.3-18.9-3.8
		c-6-2.6-11.3-6.1-15.8-10.6c-4.5-4.5-8.2-9.8-10.9-15.8c-2.7-6-4-12.5-4-19.4c0-6.7,1.3-13,3.8-19c2.6-6,6.1-11.2,10.5-15.7
		c4.5-4.5,9.7-8.1,15.8-10.7C200.4,19.4,206.9,18,213.9,17.8z M213.9,100.6c4.3,0,8.5-0.9,12.5-2.6c4-1.7,7.5-4.1,10.6-7.1
		c3-3,5.5-6.5,7.3-10.5c1.8-4,2.7-8.3,2.7-12.9c0-4.4-0.9-8.6-2.6-12.6c-1.7-4-4.1-7.5-7.1-10.6c-3-3-6.5-5.5-10.5-7.3
		c-4-1.8-8.3-2.7-12.9-2.7c-4.4,0-8.6,0.9-12.6,2.6c-4,1.7-7.5,4.1-10.6,7.1c-3,3-5.5,6.5-7.3,10.6c-1.8,4.1-2.7,8.4-2.7,12.9
		c0,4.5,0.9,8.7,2.6,12.6s4.1,7.4,7.1,10.4c3,3,6.5,5.4,10.5,7.1C204.9,99.4,209.3,100.4,213.9,100.6z"/>
</g>
<g id="XMLID_636_">
	<path class="st1" d="M360.8,102.1c-4.7,4.6-10,8.2-16,10.8c-6,2.6-12.3,3.9-18.8,3.9c-6.4,0-12.6-1.3-18.6-3.9
		c-6-2.6-11.2-6.2-15.8-10.7c-4.6-4.5-8.3-9.8-11-15.8c-2.7-6-4.1-12.4-4.1-19.2c0-6.4,1.3-12.6,3.9-18.6c2.6-6,6.2-11.2,10.7-15.8
		c4.5-4.6,9.8-8.3,15.8-11c6-2.7,12.4-4.1,19.2-4.1c6.5,0,12.8,1.3,18.8,3.9c6,2.6,11.3,6.3,16,10.9l-11,11c-3.6-2.7-7.3-5-11.2-6.7
		s-8.1-2.6-12.6-2.6c-4.6,0-8.9,0.9-12.9,2.6c-4,1.7-7.5,4.1-10.5,7.1c-3,3-5.3,6.5-7,10.5c-1.7,4-2.6,8.3-2.6,12.9
		s0.9,8.9,2.6,12.9c1.7,4,4.1,7.5,7,10.4c3,3,6.4,5.3,10.5,7c4,1.7,8.3,2.6,12.9,2.6c4.6,0,8.7-0.8,12.4-2.5
		c3.7-1.7,6.9-3.9,9.7-6.6L360.8,102.1z"/>
</g>
<g id="XMLID_631_">
	<path class="st1" d="M458.9,17.7l-39.7,48.5l39.7,51h-21.8l-39.7-51l39.7-48.5H458.9z"/>
</g>
<g id="XMLID_623_">
	<path class="st2" d="M269.3,126.1h20.1l29.7,62.5l29.5-62.5h20.1l-49.7,99.4L269.3,126.1z"/>
</g>
<g id="XMLID_614_">
	<path class="st2" d="M456.1,210.6c-4.7,4.6-10,8.2-16,10.8c-6,2.6-12.3,3.9-18.8,3.9c-6.4,0-12.6-1.3-18.6-3.9
		c-6-2.6-11.2-6.2-15.8-10.7c-4.6-4.5-8.3-9.8-11-15.8c-2.7-6-4.1-12.4-4.1-19.2c0-6.4,1.3-12.6,3.9-18.6c2.6-6,6.2-11.2,10.7-15.8
		c4.5-4.6,9.8-8.3,15.8-11c6-2.7,12.4-4.1,19.2-4.1c6.5,0,12.8,1.3,18.8,3.9c6,2.6,11.3,6.3,16,10.9l-11,11c-3.6-2.7-7.3-5-11.2-6.7
		s-8.1-2.6-12.6-2.6c-4.6,0-8.9,0.9-12.9,2.6c-4,1.7-7.5,4.1-10.5,7.1c-3,3-5.3,6.5-7,10.5c-1.7,4-2.6,8.3-2.6,12.9
		s0.9,8.9,2.6,12.9c1.7,4,4.1,7.5,7,10.4c3,3,6.4,5.3,10.5,7c4,1.7,8.3,2.6,12.9,2.6c4.6,0,8.7-0.8,12.4-2.5
		c3.7-1.7,6.9-3.9,9.7-6.6L456.1,210.6z"/>
</g>
<g id="XMLID_606_">
	<path class="st1" d="M75.5,79.8c-0.9-2.6-2-4.9-3.3-6.8c-1.3-1.9-2.7-3.6-4.3-4.9s-3-2.4-4.3-3.2c0.9-1.3,1.7-2.8,2.5-4.5
		c0.7-1.5,1.3-3.3,1.9-5.5c0.5-2.2,0.8-4.7,0.8-7.6c0-3.7-0.4-7-1.1-9.7s-1.7-5.2-2.9-7.3c-1.2-2.1-2.5-3.8-4-5.2
		c-1.5-1.4-3-2.6-4.6-3.6c-3.6-2.2-7.8-3.4-12.3-3.7H15.6H4.6H1.2v99.3h3.3h11.1h34.7c4.9-0.3,9.4-1.5,13.2-3.6
		c1.7-0.9,3.3-2,4.9-3.4c1.6-1.4,3-3,4.2-5c1.2-2,2.2-4.3,3-7c0.7-2.7,1.1-5.8,1.1-9.5C76.9,85.4,76.4,82.4,75.5,79.8z M58.8,95.3
		c-1,1.5-2.2,2.7-3.4,3.4c-1.3,0.8-2.9,1.3-5,1.5H15.6V34.6h26.5c1.9,0.1,3.5,0.6,5,1.6c1.2,0.8,2.4,2.1,3.4,3.8
		c1.1,1.8,1.6,4.2,1.6,7.4c0,3.1-0.5,5.5-1.6,7.2c-1.1,1.7-2.2,2.9-3.4,3.6c-1.5,1-3.2,1.5-5,1.5h-19v16.8h27.2
		c1.8,0.1,3.4,0.6,4.9,1.5c1.2,0.7,2.4,1.9,3.4,3.6c1.1,1.7,1.6,4,1.6,7C60.3,91.6,59.8,93.8,58.8,95.3z"/>
</g>
<g id="XMLID_600_">
	<line id="XMLID_605_" class="st3" x1="697.8" y1="108.6" x2="652.8" y2="85.3"/>
	<line id="XMLID_602_" class="st3" x1="631" y1="170" x2="673" y2="143.5"/>
	<line id="XMLID_601_" class="st3" x1="611" y1="82.1" x2="613.3" y2="131"/>
</g>
<g id="XMLID_596_">
	<line id="XMLID_599_" class="st4" x1="633.4" y1="80.9" x2="701.8" y2="96.1"/>
	<line id="XMLID_598_" class="st4" x1="687.3" y1="127.9" x2="640.1" y2="179.4"/>
	<line id="XMLID_597_" class="st4" x1="619.7" y1="151.5" x2="598.8" y2="84.9"/>
</g>
<g id="XMLID_588_">
	<line id="XMLID_595_" class="st5" x1="706.9" y1="79.4" x2="612.5" y2="81.4"/>
	<line id="XMLID_594_" class="st5" x1="651.7" y1="192.3" x2="697.3" y2="109.4"/>
	<line id="XMLID_589_" class="st5" x1="581.5" y1="88.5" x2="630.3" y2="169.2"/>
</g>
<g id="XMLID_572_">
	<line id="XMLID_587_" class="st6" x1="585.2" y1="87.6" x2="710.3" y2="61.9"/>
	<line id="XMLID_584_" class="st6" x1="706.1" y1="83.3" x2="665.8" y2="204.5"/>
	<line id="XMLID_583_" class="st6" x1="649.1" y1="190.4" x2="563.8" y2="94.4"/>
</g>
<g id="XMLID_557_">
	<line id="XMLID_571_" class="st7" x1="559.2" y1="96.7" x2="713.7" y2="42.4"/>
	<line id="XMLID_567_" class="st7" x1="711.1" y1="56" x2="680.9" y2="216.8"/>
	<line id="XMLID_566_" class="st7" x1="669.9" y1="208.4" x2="545.7" y2="101.8"/>
</g>
<g id="XMLID_274_">
	<line id="XMLID_370_" class="st8" x1="714" y1="22.7" x2="529.3" y2="110.9"/>
	<line id="XMLID_344_" class="st8" x1="697.9" y1="226.8" x2="713.9" y2="22.7"/>
	<line id="XMLID_343_" class="st8" x1="528.4" y1="111.2" x2="697.2" y2="227.1"/>
</g>
<polygon id="XMLID_272_" class="st9" points="714.1,4 512.5,120.7 714.4,237 "/>
</svg>
