<?xml version="1.0" encoding="utf-8"?>
<!-- Generator: Adobe Illustrator 21.1.0, SVG Export Plug-In . SVG Version: 6.00 Build 0)  -->
<svg version="1.1" id="图层_1" xmlns="http://www.w3.org/2000/svg" xmlns:xlink="http://www.w3.org/1999/xlink" x="0px" y="0px"
	 viewBox="0 0 217 80" style="enable-background:new 0 0 217 80;" xml:space="preserve">
<style type="text/css">
	.st0{fill:#FFFFFF;}
	.st1{fill:#000045;}
</style>
<rect class="st0" width="217" height="80"/>
<g>
	<path class="st1" d="M30.2,56.9c-0.7,1.8-1.3,3.4-1.9,5C28,62.5,28,63.7,27,63.3c-1.1-0.4-0.5-1.4-0.2-2.1c0.7-1.9,1.4-3.7,2.1-5.6
		c0.2-0.5,0.3-1.2,0.1-1.7c-3-8.5,0.8-16.4,7.5-21c0.7-0.5,1.4-1.3,1.7-2.2c2.2-5.5,4.2-11.1,6.3-16.6c0.2-0.6,0.5-1.4,1.2-1.6
		c0.5,0.1,1.2,0.9,1.4,1.5c1.7,4.4,3.4,8.9,5,13.4c0.4,1.2,0.2,1.5,1.3,1.7c3.3,0.4,7.3,1.7,10.1,3.4c0,0.1,2.1,0.9,1.5,2.1
		c-0.3,0.5-1.2,0.2-1.6,0c-1.7-0.8-3.3-1.8-5-2.5c-1.4-0.6-3-0.8-4.8-1.3c0.2,0.7,0.3,1.1,0.4,1.5c3.6,9.5,7.1,19,10.7,28.5
		c0.7,2,0.8,2-1.1,3.1c-11.8,6.9-26.7,3.1-32.8-6.6C30.6,57.2,30.5,57.1,30.2,56.9z M63,62.1c0-0.3,0-0.4-0.1-0.6
		c-3.7-10-7.5-19.9-11.3-29.9c-0.2-0.4-0.9-0.8-1.3-0.8c-3.6-0.1-7,0.7-10.1,2.3c-0.7,0.3-1.3,1.1-1.6,1.8c-2.3,6-4.6,12-6.8,18.1
		c-0.3,0.7-0.2,1.7,0.2,2.4c2.4,4.3,6,7.2,10.6,8.8C49.7,66.7,56.5,66,63,62.1z M50.5,28.5c-1.5-4.1-3.1-8.2-4.8-12.7
		c-2,5.3-3.8,10.1-5.5,14.7C44.2,29.1,46.1,28.7,50.5,28.5z M30.6,50.9c1.9-5,3.8-10,5.7-15.3C31.6,38.8,29.1,45.2,30.6,50.9z"/>
	<path class="st1" d="M131.1,65.5c-1.8,0.3-2.5,0.6-2.9-0.9c-0.2,0.1-0.4,0.3-0.6,0.4c-2.7,1.8-5.9,1-7.3-1.9c-1.2-2.5-1.1-5,0-7.5
		c1.4-2.9,4.2-3.7,7.7-2.1c0-1.8,0.1-3.5,0-5.2c-0.1-1.3,0.8-1.2,1.6-1.2c0.9,0,1.6-0.1,1.6,1.2c0,5.6,0,11.2,0.1,16.7
		C131.2,65.2,131.1,65.4,131.1,65.5z M128.1,59.4H128c0-0.7,0.1-1.3,0-2c-0.2-1.1-0.8-2-2-2.2s-2.1,0.2-2.6,1.3
		c-0.9,1.8-1,3.8,0,5.5c0.4,0.7,1.5,1.4,2.3,1.3c0.8,0,1.6-0.9,2.1-1.6C128.1,61.1,128,60.2,128.1,59.4z"/>
	<path class="st1" d="M109.1,65.5c-0.4,0.1-0.5,0.2-0.6,0.2c-2.4,0.2-2.4,0.2-2.4-2.2c0-3.5,0-7,0-10.6c1.1,0.2,2.4-0.9,2.9,1.1
		c0.4-0.3,0.8-0.5,1.1-0.8c2.8-1.6,6.1-0.2,6.5,2.9c0.4,2.9,0.2,5.9,0.2,8.8c0,1.3-1.2,0.7-1.9,0.7c-0.4,0-1.1-0.6-1.1-0.9
		c-0.1-2.2,0-4.4-0.1-6.5c0-2-0.7-3-2-3c-1.5-0.1-2.5,1.2-2.6,3.1C109.1,60.7,109.1,63.1,109.1,65.5z"/>
	<path class="st1" d="M102.6,65.7c-1.1-0.1-2.4,0.9-2.8-0.9c-0.1,0-0.2,0-0.3,0c-1.6,1.3-3.4,1.7-5.2,0.8c-1.9-0.9-2.2-2.8-2.3-4.7
		c0-2.6,0-5.2,0-7.8c0.3-0.1,0.3-0.2,0.4-0.2c2.6-0.2,2.6-0.2,2.6,2.5c0,1.8,0,3.6,0,5.3c0.1,1.8,0.8,2.7,2.1,2.7
		c1.3,0,2.4-1.1,2.4-2.8c0-2.1,0.1-4.3,0-6.4c-0.1-1.2,0.5-1.4,1.5-1.4s1.6,0.1,1.6,1.4C102.5,58,102.6,61.7,102.6,65.7z"/>
	<path class="st1" d="M88.9,48.1c0,0.8,0,1.5,0,2.5c-2.1,0-4.1,0-6.2,0c0,1.7,0,3.2,0,4.9c1.9,0,3.8,0,5.6,0
		c0.7,2.4,0.5,2.7-1.7,2.7c-1.1,0-2.2,0-3.3,0c-0.1,0-0.3,0.1-0.6,0.2c0,2.4,0,4.8,0,7.3c-1.1,0-2,0-3,0c0-5.9,0-11.7,0-17.6
		C82.7,48.1,85.7,48.1,88.9,48.1z"/>
	<path class="st1" d="M94.4,38.9c-1.6,0.5-2.2-0.1-2.6-1.5c-1.1-3.6-1.2-3.6-4.9-3.6c-0.3,0-0.5,0-0.8,0c-3.8,0-3.8,0-5.1,3.7
		c-0.6,1.7-0.6,1.7-2.5,1.3c2.2-5.5,4.4-10.9,6.6-16.3c0.1-0.3,0.8-0.6,1.3-0.6c0.4,0,1.1,0.3,1.3,0.7C90,27.9,92.1,33.4,94.4,38.9z
		 M89.8,32.2c-1.2-3-2.2-5.7-3.4-8.7c-1.2,3.1-2.3,5.9-3.4,8.8c2,0,3.7,0,5.5,0C88.8,32.3,89.2,32.2,89.8,32.2z"/>
	<path class="st1" d="M157.4,26.2c-0.6,0.2-1.1,0.3-1.6,0.5c-0.7-1.7-1.8-3-3.6-3.4c-3.1-0.7-6,0.7-6.8,3.8c-0.5,1.9-0.5,4-0.2,6
		c0.4,2.9,2.7,4.6,5.4,4.7c2.6,0.1,4.3-1.1,5.5-4.1c0.5,0.1,1,0.2,2,0.5c-0.8,1.3-1.3,2.5-2.2,3.3c-3.4,3.3-9.8,2.1-11.8-2.1
		c-1.4-3-1.5-6.2-0.2-9.3c1.2-3,3.8-4.6,7.1-4.5C154.3,21.7,156.3,23.1,157.4,26.2z"/>
	<path class="st1" d="M103.6,43.6c-0.6,0-1.1,0-1.7,0c0-5.6,0-11.1,0-16.7c0.5,0,1,0,1.6,0c0,0.5,0.1,1,0.1,1.7
		c1.7-1.7,3.6-2.4,5.8-1.9c0.4,0.1,0.8,0.2,1.2,0.4c2.4,1.1,3.1,3.2,3.1,5.6c0,2.5-0.6,4.7-3,5.9c-2.2,1.1-4.4,0.8-6.4-0.9
		c-0.2-0.1-0.3-0.3-0.5-0.4c0,0-0.1,0-0.2,0C103.6,39.4,103.6,41.4,103.6,43.6z M112,32.9c0-3.1-1.5-4.9-4-4.9
		c-2.6,0-4.4,1.9-4.4,4.8s1.8,4.9,4.4,4.9C110.4,37.7,112,35.8,112,32.9z"/>
	<path class="st1" d="M140,38.9c-1.1,0.3-1.9,0.3-1.8-0.8c-1.7,0.3-3.3,0.9-5,1c-1.8,0.1-3-1.1-3.3-2.6c-0.3-1.8,0.4-3.5,2.2-4
		c1.6-0.5,3.4-0.7,5-1c0.3-0.1,0.6-0.1,1-0.1c0.2-1.3,0.4-2.6-1.1-3.3c-1.5-0.8-3.9-0.3-4.7,1c-0.6,1.1-1.2,0.9-2.1,0.5
		c0.6-3.8,7.2-4,8.7-2c0.5,0.7,0.8,1.7,0.8,2.5C140.1,33.1,140,35.9,140,38.9z M138.1,32.6c-1.7,0.4-3.5,0.6-5.2,1.2
		c-1,0.3-1.5,1.4-1.2,2.5s1.1,1.5,2.2,1.6C136.8,38,138.8,35.8,138.1,32.6z"/>
	<path class="st1" d="M118.2,38.9c-0.3,0-0.6,0.1-0.9,0.1c-0.2,0-0.5-0.1-0.7-0.1c-0.1-0.2-0.1-0.3-0.1-0.4c0-5.5,0-11,0-16.6
		c0.6,0,1.2,0,1.8,0c0,2.3,0,4.5,0,6.7c1.4-1.2,2.2-1.5,3.4-1.8c2.5-0.4,5.3,0.9,5.4,4.2c0,2.5,0,5.1,0,7.6c0,0.1-0.1,0.2-0.2,0.4
		c-0.4,0-0.9,0.1-1.6,0.1c0-1.4,0-2.8,0-4.1s0-2.5,0-3.8c-0.1-2.7-2.4-3.9-4.7-2.5c-1.5,1-2.4,2.3-2.4,4.2
		C118.2,34.8,118.2,36.8,118.2,38.9z"/>
	<path class="st1" d="M171.9,33c0,3.8-2.4,6.3-5.9,6.3c-3.8,0-6.1-2.5-6.1-6.5c0-3.9,2.4-6.3,6.2-6.2
		C169.7,26.6,171.9,29.1,171.9,33z M161.7,32.8c0,3.1,1.6,5,4.3,5c2.6,0,4.3-1.9,4.3-4.9s-1.6-4.9-4.2-4.9
		C163.3,28,161.7,29.7,161.7,32.8z"/>
	<path class="st1" d="M181.9,38.9c-0.6,0-1.1,0-1.7,0c0-4,0-8,0-12c0.5,0,1,0,1.6,0c0,0.6,0.1,1.2,0.1,1.5c1.4-0.6,2.7-1.5,4.1-1.7
		c2.7-0.4,4.5,1.3,4.6,4s0,5.4,0,8.2c-0.5,0-1,0.1-1.7,0.1c0-2.3,0-4.5,0-6.7c0-3.1-0.7-4.2-2.7-4.2c-2.1,0-4.3,2.1-4.3,4.5
		c0,1.1,0,2.1,0,3.2C181.9,36.7,181.9,37.7,181.9,38.9z"/>
	<path class="st1" d="M98.3,38.9c-0.6,0-1,0-1.6,0c0-5.6,0-11.2,0-17c0.5,0,1,0,1.6-0.1C98.3,27.5,98.3,33.1,98.3,38.9z"/>
	<path class="st1" d="M176.6,38.9c-0.6,0-1,0.1-1.6,0.1c0-4,0-8,0-12.1c0.5,0,1.1,0,1.6,0C176.6,31,176.6,34.9,176.6,38.9z"/>
	<path class="st1" d="M174.7,23.7c0-0.6,0-1.1,0-1.8c0.7,0,1.3,0,2,0c0,0.6,0,1.1,0,1.8C176.1,23.7,175.5,23.7,174.7,23.7z"/>
</g>
</svg>
