<?xml version="1.0" encoding="utf-8"?>
<!-- Generator: Adobe Illustrator 21.1.0, SVG Export Plug-In . SVG Version: 6.00 Build 0)  -->
<svg version="1.1" id="图层_1" xmlns="http://www.w3.org/2000/svg" xmlns:xlink="http://www.w3.org/1999/xlink" x="0px" y="0px"
	 viewBox="0 0 217 80" style="enable-background:new 0 0 217 80;" xml:space="preserve">
<style type="text/css">
	.st0{fill:#FFFFFF;}
	.st1{fill:#333333;}
	.st2{fill:#193B70;}
	.st3{fill:#4471B7;}
	.st4{fill:#5FA8DF;}
</style>
<rect y="0" class="st0" width="217" height="80"/>
<g>
	<g>
		<path class="st1" d="M109,33c2.5,0,4.9,0.5,7.1,1.9c0.6,0.4,1,0.8,0.3,1.4c-0.2,0.2-0.4,0.5-0.6,0.7c-0.5,0.7-1,1.6-1.7,2
			c-0.8,0.5-1.5-0.6-2.3-0.8c-1.5-0.3-3-0.6-4.5-0.1c-0.7,0.2-1.2,0.6-1.3,1.4c0,0.8,0.5,1.3,1.3,1.5c1.4,0.3,2.9,0.5,4.3,0.7
			c1.2,0.2,2.4,0.7,3.5,1.3c4.2,2.4,4.3,8.2,0.3,10.8c-4.3,2.8-11.7,2.1-15.4-1.5c-0.5-0.5-0.6-0.8-0.1-1.3c0.8-0.8,1.6-1.7,2.3-2.6
			c0.4-0.5,0.6-0.5,1.1-0.1c2,1.6,4.3,2.1,6.8,1.8c0.4-0.1,0.9-0.2,1.3-0.4c0.6-0.3,1-0.7,1-1.4s-0.4-1.1-1-1.4
			c-0.9-0.5-2-0.6-3-0.7c-1.6-0.2-3.1-0.4-4.6-1.1c-2.3-1-3.5-2.8-3.6-5.3c-0.2-2.5,0.8-4.4,3-5.7C104.8,33.4,106.8,33,109,33z"/>
		<path class="st1" d="M157.3,45.1c-0.2-3.8-0.1-7.2-0.2-10.7c0-0.7,0.1-1,0.9-1c1.4,0.1,2.9,0.1,4.3,0c0.7,0,0.9,0.1,0.9,0.8
			c0,6.6,0,13.2,0,19.8c0,0.6-0.2,0.9-0.8,0.8h-0.1c-1.4,0-3,0.4-4.2-0.2c-1.1-0.5-1.8-2-2.6-3.1c-2-2.5-3.9-5-5.9-7.6
			c-0.4-0.5-0.8-0.8-1.5-0.7c-1.4,0.1-2.8,0-4.2,0c-0.7,0-0.9-0.1-0.9-0.8c0-2.7,0-5.5,0-8.2c0-0.6,0.1-0.9,0.8-0.8
			c0.1,0,0.1,0,0.2,0c1.4,0,2.9-0.4,4.1,0.2c1.1,0.5,1.8,2,2.6,3.1C152.9,39.5,155,42.2,157.3,45.1z"/>
		<path class="st1" d="M98.4,54.9c-2.1,0-4,0-5.9,0c-0.7,0-0.8-0.4-1-0.9c-1.9-4.7-3.8-9.5-5.7-14.3c-0.4,0.2-0.4,0.7-0.6,1
			c-1.8,4.4-3.6,8.8-5.3,13.3c-0.3,0.6-0.5,0.9-1.3,0.9c-1.8-0.1-3.6,0-5.3,0c-0.2-0.4,0.1-0.7,0.2-0.9c2.9-6.5,5.9-13,8.8-19.6
			c0.3-0.7,0.6-1,1.4-0.9c1.5,0.1,3,0,4.5,0c0.4,0,0.8,0,1,0.5C92.1,40.9,95.2,47.8,98.4,54.9z"/>
		<path class="st1" d="M177.5,55.4c-1.2,0-2.4-0.1-3.6-0.4c-5.2-1.3-8.2-5.6-7.9-11.2c0.3-4.6,2.3-8.1,6.6-9.8
			c4.6-1.8,8.9-1.3,12.8,1.9c0.5,0.4,0.5,0.7,0,1.1c-0.9,0.8-1.8,1.7-2.6,2.6c-0.4,0.4-0.7,0.5-1.2,0.1c-1.1-1-2.5-1.4-4-1.4
			c-2.3,0-4.1,1-5,3.2c-1,2.4-1,4.9,0.7,7c1.5,1.9,3.6,2.1,5.8,1.7c1.1-0.2,2.1-0.7,3-1.4c0.6-0.5,0.9-0.4,1.3,0.1
			c0.8,0.9,1.6,1.9,2.5,2.7c0.5,0.5,0.4,0.7-0.1,1.1C183.3,54.7,180.6,55.5,177.5,55.4z"/>
		<path class="st1" d="M118.1,33.5c2.3,0,4.4,0,6.4,0c0.6,0,0.7,0.4,1,0.7c1.3,2.1,2.6,4.3,4,6.6c1.4-2.2,2.7-4.3,4-6.4
			c0.4-0.7,0.8-1,1.7-0.9c1.7,0.1,3.3,0,5,0c0.2,0,0.6-0.1,0.7,0.2c0.1,0.3-0.2,0.5-0.3,0.7c-2.5,3.8-5.1,7.5-7.6,11.2
			c-0.4,0.5-0.6,1.1-0.6,1.7c0,2.2,0,4.5,0,6.7c0,0.8-0.2,1-1,1c-1.4-0.1-2.8-0.1-4.2,0c-0.7,0-0.9-0.2-0.9-0.9c0-2.2,0-4.5,0-6.7
			c0-0.7-0.2-1.3-0.6-1.9c-2.4-3.6-4.7-7.3-7-10.9C118.6,34.3,118.4,34,118.1,33.5z"/>
		<path class="st1" d="M192.5,49.1c1,0,2.3-0.4,2.8,0.1c0.6,0.6,0.2,1.9,0.2,2.9c0,0.9,0.4,2.1-0.2,2.7c-0.5,0.4-1.7,0.2-2.6,0.1
			c-1.1,0-2.6,0.5-3.2-0.2c-0.5-0.6-0.2-2-0.2-3.1c0-2.5,0-2.5,2.5-2.5C192,49.1,192.3,49.1,192.5,49.1L192.5,49.1z"/>
	</g>
	<g>
		<polygon class="st2" points="17.1,46.2 23.8,46.2 32.9,30.9 39.1,41.6 45.2,41.6 32.5,19.5 		"/>
		<polygon class="st3" points="32.9,39.7 20.1,61.7 49,61.7 49,56.1 29.2,56.1 35.8,44.6 		"/>
		<polygon class="st4" points="36.9,51.8 40,46.2 53,46.2 44.1,30.7 50.7,30.7 62.7,51.8 		"/>
	</g>
</g>
<rect x="143" y="49.2" class="st1" width="5.9" height="5.7"/>
</svg>
