<?xml version="1.0" encoding="utf-8"?>
<!-- Generator: Adobe Illustrator 21.1.0, SVG Export Plug-In . SVG Version: 6.00 Build 0)  -->
<svg version="1.1" id="图层_1" xmlns="http://www.w3.org/2000/svg" xmlns:xlink="http://www.w3.org/1999/xlink" x="0px" y="0px"
	 viewBox="0 0 217 80" style="enable-background:new 0 0 217 80;" xml:space="preserve">
<style type="text/css">
	.st0{fill:#FFFFFF;}
	.st1{fill:#1C1C1B;}
</style>
<rect class="st0" width="217" height="80"/>
<g>
	<path class="st1" d="M13.1,51.2V27.7h19.2c5.2,0,7.2,1.9,7.2,5.1v2.2c0,2-1.1,3.6-2.8,3.9c1.8,0.5,3.1,1.6,3.1,3.9v3.4
		c0,2.7-1.6,5.1-7.5,5.1H13.1z M35.1,33c0-1.3-0.7-1.8-2.8-1.8H17.6v6.1h14.7c2.1,0,2.8-0.5,2.8-1.8V33z M35.4,42.8c0-1.5-1.2-2-3-2
		H17.6v7h14.8c1.8,0,3-0.5,3-2.4V42.8z"/>
	<path class="st1" d="M45,51.2V27.7h4.5v23.6H45z"/>
	<path class="st1" d="M65.8,51.2V31.1H53.4v-3.5h28.8v3.5h-12v20.1H65.8z"/>
	<path class="st1" d="M117.9,51.2V34.7l-12,16.5h-3.7l-12-16.5v16.5h-4.1V27.7h4.2l14,19.3l13.9-19.3h3.8v23.6H117.9z"/>
	<path class="st1" d="M154.4,51.2l-12.2-19l-12.4,19h-5l15.7-23.6h3.3l15.6,23.6H154.4z"/>
	<path class="st1" d="M162.6,51.2V27.7h4.5v23.6H162.6z"/>
	<path class="st1" d="M201.5,51.2l-25.2-18.4v18.4h-3.9V27.7h3.9l23.5,17.5V27.7h3.9v23.6H201.5z"/>
</g>
</svg>
