<?xml version="1.0" encoding="utf-8"?>
<!-- Generator: Adobe Illustrator 21.1.0, SVG Export Plug-In . SVG Version: 6.00 Build 0)  -->
<svg version="1.1" id="图层_1" xmlns="http://www.w3.org/2000/svg" xmlns:xlink="http://www.w3.org/1999/xlink" x="0px" y="0px"
	 viewBox="0 0 217 80" style="enable-background:new 0 0 217 80;" xml:space="preserve">
<style type="text/css">
	.st0{fill:#FFFFFF;}
	.st1{fill:none;}
	.st2{fill:#E49D23;}
	.st3{fill:#3E3A39;}
</style>
<g>
	<rect x="1.4" y="1.4" class="st0" width="214.2" height="77.2"/>
	<path class="st1" d="M214.2,2.8v74.3H2.8V2.8H214.2 M217,0H0v80h217V0L217,0z"/>
</g>
<g>
	<g>
		<path class="st2" d="M26.5,43.9c-1.8,6.1-7.8,10.5-14.4,10.5h22.2C34.3,49.5,31,45.3,26.5,43.9z"/>
		<path class="st2" d="M12.1,25.5v27.3c6.2,0,11.4-4.1,13.1-9.8c0.3-1.2,0.5-2.5,0.5-3.8C25.8,31.6,19.7,25.5,12.1,25.5z"/>
	</g>
	<path class="st3" d="M38.3,54.4V31h6.8c2.2,0,4,0.6,5.3,1.9c0.6,0.6,1.1,1.2,1.4,1.9c0.3,0.7,0.5,1.5,0.5,2.3c0,1-0.2,1.9-0.7,2.7
		c-0.4,0.7-0.9,1.3-1.5,1.7c0.2,0.1,0.4,0.1,0.6,0.2c1.1,0.5,2.1,1.3,2.9,2.3c0.8,1.1,1.2,2.2,1.2,3.6c0,0.9-0.2,1.7-0.6,2.5
		c-0.4,0.8-0.9,1.6-1.6,2.2S51,53.5,50,53.9c-1,0.3-2,0.5-3.1,0.5H38.3L38.3,54.4z M46.9,52.2c1.1,0,2.1-0.2,3-0.7
		c0.9-0.4,1.5-1,2-1.7c0.4-0.7,0.7-1.4,0.7-2.1c0-0.8-0.2-1.6-0.8-2.3c-0.5-0.7-1.2-1.2-1.9-1.6c-1.1-0.5-2.5-0.7-4.1-0.7h-5.3v9
		L46.9,52.2L46.9,52.2z M45,40.9c0.6,0,1.1,0,1.5-0.1s0.8-0.2,1.2-0.3c0.5-0.2,1.1-0.6,1.6-1.3c0.5-0.6,0.7-1.3,0.7-2.1
		c0-0.7-0.2-1.3-0.6-1.9c-0.4-0.6-0.9-1.1-1.7-1.5s-1.7-0.6-2.8-0.6h-4.6v7.7L45,40.9L45,40.9z"/>
	<path class="st2" d="M141.9,54.4V31.1h7.1c1.6,0,3.2,0.3,4.6,0.9c1.4,0.6,2.7,1.5,3.7,2.6s1.7,2.3,2.3,3.7c0.5,1.4,0.8,2.9,0.8,4.4
		c0,1.6-0.2,3-0.8,4.4c-0.5,1.4-1.3,2.6-2.3,3.7c-1,1.2-2.3,2-3.7,2.7c-1.4,0.6-3,0.9-4.6,0.9C149,54.4,141.9,54.4,141.9,54.4z
		 M149,51.2c2.4,0,4.4-0.8,5.9-2.5c0.7-0.8,1.3-1.6,1.6-2.7c0.4-1,0.6-2.1,0.6-3.3c0-1.1-0.2-2.2-0.6-3.2c-0.4-1-0.9-1.9-1.6-2.7
		c-1.6-1.6-3.5-2.5-5.9-2.5h-3.8v16.8L149,51.2L149,51.2z"/>
	<path class="st2" d="M193.3,54.2c-2.1,0-4-0.5-5.8-1.6s-3.2-2.5-4.2-4.3s-1.6-3.7-1.6-5.9c0-2.1,0.5-4.1,1.6-5.9
		c1-1.8,2.5-3.2,4.2-4.3c1.8-1,3.7-1.6,5.8-1.6s4,0.5,5.8,1.6c1.8,1,3.2,2.5,4.2,4.3s1.6,3.8,1.6,5.9s-0.5,4.1-1.6,5.9
		s-2.5,3.2-4.2,4.3C197.3,53.6,195.4,54.2,193.3,54.2z M193.3,34c-1.5,0-2.9,0.4-4.2,1.1c-1.3,0.8-2.3,1.8-3.1,3.1s-1.1,2.7-1.1,4.3
		s0.4,3,1.1,4.3c0.8,1.3,1.8,2.3,3.1,3.1s2.7,1.1,4.2,1.1s2.9-0.4,4.2-1.1c1.3-0.8,2.3-1.8,3.1-3.1c0.7-1.3,1.1-2.7,1.1-4.3
		s-0.4-3-1.1-4.3c-0.7-1.3-1.8-2.3-3.1-3.1C196.2,34.4,194.8,34,193.3,34z"/>
	<path class="st2" d="M179.1,54.4l-7.8-17.6l-8.2,17.6h-3.7l10.4-22.3c0.3-0.6,0.9-1,1.6-1c0.7,0,1.3,0.4,1.6,1l9.8,22.3H179.1z"/>
	<path class="st3" d="M136.9,54.4l-7.8-9.3l0,0l-6.5,9c-0.1,0.2-0.3,0.3-0.5,0.3c-0.4,0-0.7-0.3-0.7-0.7V32.2c0-0.6,0.4-1.1,1-1.2
		c0.6,0,1.2,0.4,1.2,1.1V49l0,0l13.1-18l0,0h1.1c0.3,0,0.6,0.2,0.7,0.4c0.1,0.3,0.1,0.6,0,0.9l-7.9,10.9l0,0l8.2,9.8
		c0.2,0.2,0.2,0.6,0.1,0.9c-0.1,0.3-0.4,0.5-0.8,0.5L136.9,54.4C137,54.4,137,54.4,136.9,54.4z"/>
	<path class="st3" d="M57.5,54.4V32.3c0-0.6,0.4-1.1,1-1.2c0.7,0,1.2,0.4,1.2,1.1v20h14.5c0.6,0,1.1,0.4,1.2,1
		c0,0.7-0.4,1.2-1.1,1.2C74.3,54.4,57.5,54.4,57.5,54.4z"/>
	<path class="st3" d="M84.9,54.4c-1.9,0-3.8-0.5-5.5-1.5c-1.6-1-3-2.3-4-4s-1.5-3.5-1.5-5.5s0.5-3.8,1.5-5.5s2.3-3.1,4-4
		c1.6-1,3.5-1.5,5.5-1.5c1.9,0,3.8,0.5,5.5,1.5c1.6,1,3,2.3,4,4s1.5,3.5,1.5,5.5s-0.5,3.8-1.5,5.5s-2.3,3-4,4
		C88.7,53.9,86.9,54.4,84.9,54.4z M84.9,34.5c-1.6,0-3.1,0.4-4.4,1.2c-1.4,0.8-2.4,1.9-3.2,3.2c-0.8,1.4-1.2,2.9-1.2,4.5
		s0.4,3.1,1.2,4.5c0.8,1.4,1.9,2.4,3.2,3.2c1.4,0.8,2.8,1.2,4.4,1.2s3.1-0.4,4.4-1.2c1.4-0.8,2.4-1.9,3.2-3.2
		c0.8-1.4,1.2-2.9,1.2-4.5s-0.4-3.1-1.2-4.5c-0.8-1.4-1.8-2.4-3.2-3.2C88,34.9,86.5,34.5,84.9,34.5z"/>
	<path class="st3" d="M108.9,54.4c-3.1,0-6.1-1.4-8.2-3.7c-2.1-2.4-3.1-5.4-2.7-8.6c0.6-5.1,4.7-9.2,9.8-9.7c0.4,0,0.8,0,1.1,0
		c4,0,7.7,2.2,9.6,5.8c0.1,0.3,0.1,0.7,0,1c-0.2,0.3-0.5,0.5-0.8,0.5l0,0c-0.3,0-0.7-0.2-0.9-0.5c-1.6-2.9-4.6-4.7-7.9-4.7
		c-0.2,0-0.4,0-0.6,0c-4.3,0.3-7.8,3.7-8.3,7.9c-0.3,2.6,0.5,5.1,2.2,7s4.2,3,6.7,3c3.2,0,6.3-1.8,7.8-4.7c0.2-0.3,0.5-0.5,0.9-0.5
		s0.7,0.2,0.9,0.5c0.2,0.3,0.2,0.7,0,1C116.6,52.2,112.9,54.4,108.9,54.4z"/>
</g>
</svg>
