<?xml version="1.0" encoding="utf-8"?>
<!-- Generator: Adobe Illustrator 21.1.0, SVG Export Plug-In . SVG Version: 6.00 Build 0)  -->
<svg version="1.1" id="图层_1" xmlns="http://www.w3.org/2000/svg" xmlns:xlink="http://www.w3.org/1999/xlink" x="0px" y="0px"
	 viewBox="0 0 217 80" style="enable-background:new 0 0 217 80;" xml:space="preserve">
<style type="text/css">
	.st0{fill:#FFFFFF;}
	.st1{fill:url(#XMLID_2_);}
	.st2{fill:url(#XMLID_3_);}
	.st3{fill:url(#XMLID_4_);}
	.st4{fill:url(#XMLID_5_);}
	.st5{fill:url(#XMLID_6_);}
	.st6{fill:url(#XMLID_7_);}
	.st7{fill:url(#XMLID_8_);}
	.st8{fill:url(#XMLID_9_);}
	.st9{fill:url(#XMLID_10_);}
	.st10{fill:url(#XMLID_11_);}
	.st11{fill:url(#XMLID_12_);}
	.st12{fill:url(#XMLID_13_);}
	.st13{fill:url(#XMLID_14_);}
	.st14{fill:url(#XMLID_15_);}
	.st15{fill:url(#XMLID_16_);}
	.st16{fill:url(#XMLID_17_);}
	.st17{fill:url(#XMLID_18_);}
	.st18{fill:url(#XMLID_19_);}
</style>
<rect class="st0" width="217" height="80"/>
<g>
	<g id="XMLID_817_">
		<g id="XMLID_819_">
			
				<radialGradient id="XMLID_2_" cx="41.1729" cy="53.0495" r="30.5548" gradientTransform="matrix(-0.8069 -0.5907 0.9405 -1.2847 24.5025 145.5209)" gradientUnits="userSpaceOnUse">
				<stop  offset="0" style="stop-color:#FFFFFF"/>
				<stop  offset="0.2014" style="stop-color:#1A1A1A"/>
				<stop  offset="0.5419" style="stop-color:#ADADAD"/>
				<stop  offset="0.6534" style="stop-color:#7A7A7A"/>
				<stop  offset="0.7611" style="stop-color:#505050"/>
				<stop  offset="0.8581" style="stop-color:#323232"/>
				<stop  offset="0.941" style="stop-color:#202020"/>
				<stop  offset="1" style="stop-color:#1A1A1A"/>
			</radialGradient>
			<path id="XMLID_826_" class="st1" d="M62.5,46.7c-2,5.6-6.5,10.1-12.1,12.2c1.5-1.6,2.1-3.2,2.6-5.5c1.4-6.8-5.2-12.2-8.5-14.6
				c-2.9-2.1-8.8-6.3-7.8-11.2c2.4-7.4,10.2-8.5,16.7-5c4.2,2.4,7.4,6.2,9.1,10.8h3.1c-0.7-2.3-1.8-4.4-3.1-6.4v0l0,0
				c-4.2-6-11.1-9.9-18.9-9.9c-12.7,0-23,10.3-23,23s10.3,23,23,23c10.3,0,19.1-6.9,22-16.3H62.5z M50.2,52.6
				c-1,4.3-4.6,6.3-8.8,6.3c-12.8,0-17.8-12.1-17.8-19c0-8.7,5.6-16.1,13.3-18.9c-1.5,1.6-2.6,3.6-3,5.9c-1.4,6.8,5.6,11.8,8.9,14.2
				C45.6,43.2,51.3,47.7,50.2,52.6z"/>
			<radialGradient id="XMLID_3_" cx="66.3773" cy="38.075" r="6.7098" gradientUnits="userSpaceOnUse">
				<stop  offset="0" style="stop-color:#FFFFFF"/>
				<stop  offset="0.1168" style="stop-color:#ECECEC"/>
				<stop  offset="0.3546" style="stop-color:#B9B9B9"/>
				<stop  offset="0.6886" style="stop-color:#6A6A6A"/>
				<stop  offset="1" style="stop-color:#1A1A1A"/>
			</radialGradient>
			<path id="XMLID_825_" class="st2" d="M66.6,41l2.9-1l-2.9-1c-0.1-1.2-0.2-2.4-0.4-3.6l0,0l-2.1,2.8l-3.3-1l2,2.9l-2,2.9l3.3-1
				l2.1,2.8l0-0.1C66.4,43.4,66.6,42.2,66.6,41z"/>
			<radialGradient id="XMLID_4_" cx="60.5027" cy="48.9214" r="16.0198" gradientUnits="userSpaceOnUse">
				<stop  offset="0" style="stop-color:#FFFFFF"/>
				<stop  offset="1" style="stop-color:#1F1F1F"/>
			</radialGradient>
			<path id="XMLID_824_" class="st3" d="M62.5,46.7c-2,5.6-6.5,10.1-12.1,12.2l-4.8,1.8c0,0-4.7,1.1-6.6,1.8c1.5,0.3,3,0.5,4.6,0.5
				C60.6,61.4,62.5,46.7,62.5,46.7z"/>
			<radialGradient id="XMLID_5_" cx="23.3401" cy="63.7373" r="45.6331" gradientUnits="userSpaceOnUse">
				<stop  offset="0" style="stop-color:#FFFFFF"/>
				<stop  offset="3.655281e-02" style="stop-color:#F0F0F0"/>
				<stop  offset="0.1069" style="stop-color:#C9C9C9"/>
				<stop  offset="0.2037" style="stop-color:#898989"/>
				<stop  offset="0.3225" style="stop-color:#333333"/>
				<stop  offset="0.3322" style="stop-color:#2B2B2B"/>
				<stop  offset="0.3736" style="stop-color:#373737"/>
				<stop  offset="0.4486" style="stop-color:#575757"/>
				<stop  offset="0.5477" style="stop-color:#8A8A8A"/>
				<stop  offset="0.6347" style="stop-color:#BDBDBD"/>
				<stop  offset="0.6649" style="stop-color:#9E9E9E"/>
				<stop  offset="0.7042" style="stop-color:#7D7D7D"/>
				<stop  offset="0.7467" style="stop-color:#626262"/>
				<stop  offset="0.7927" style="stop-color:#4D4D4D"/>
				<stop  offset="0.844" style="stop-color:#3E3E3E"/>
				<stop  offset="0.905" style="stop-color:#363636"/>
				<stop  offset="1" style="stop-color:#333333"/>
			</radialGradient>
			<path id="XMLID_823_" class="st4" d="M40.1,62.7c16,2.7,19.1-13.5,5.2-23.3c0,0,13.1,10.5,4,18.2c-6,5.1-25,0.7-25.8-17.6
				C22.9,43.9,25.4,60.2,40.1,62.7z"/>
			<radialGradient id="XMLID_6_" cx="60.8373" cy="38.0229" r="5.4236" gradientUnits="userSpaceOnUse">
				<stop  offset="0" style="stop-color:#FFFFFF"/>
				<stop  offset="1" style="stop-color:#333333"/>
			</radialGradient>
			<path id="XMLID_822_" class="st5" d="M66.2,35.4L66.2,35.4l-2.1,2.8l-3.3-1l2,2.9l-2,2.9l0,0C63.8,41.6,66,38.8,66.2,35.4
				C66.2,35.4,66.2,35.4,66.2,35.4z"/>
			<radialGradient id="XMLID_7_" cx="31.4761" cy="19.704" r="24.4914" gradientUnits="userSpaceOnUse">
				<stop  offset="0" style="stop-color:#FFFFFF"/>
				<stop  offset="1" style="stop-color:#333333"/>
			</radialGradient>
			<path id="XMLID_821_" class="st6" d="M36.9,21.1l7.5-2.2l6.8-0.7c-2.4-0.8-4.9-1.3-7.5-1.3c-3.6,0-6.9,0.8-10,2.3
				C26,23,20.6,30.9,20.6,40C21.6,31.5,27.8,23.9,36.9,21.1z"/>
			<radialGradient id="XMLID_8_" cx="47.8735" cy="15.7867" r="25.5601" gradientUnits="userSpaceOnUse">
				<stop  offset="0" style="stop-color:#FFFFFF"/>
				<stop  offset="0.3719" style="stop-color:#4A4A4A"/>
				<stop  offset="0.7383" style="stop-color:#BDBDBD"/>
				<stop  offset="1" style="stop-color:#333333"/>
			</radialGradient>
			<path id="XMLID_820_" class="st7" d="M33.8,26.9c-1.2,6.3,4.3,10.7,8.1,13.6c-4.5-3.4-10.6-11.8-3.6-18.1
				c5.3-4.7,19.2-3,24.1,10.8c0.9,0,2.3,0,3.1,0c-0.8-3.4-5.1-12.1-14.5-15.1C42.5,15.4,35.1,20.3,33.8,26.9z"/>
		</g>
		
			<radialGradient id="XMLID_9_" cx="66.8881" cy="44.664" r="3.6066" gradientTransform="matrix(-0.9586 -0.2848 1.1147 -3.7521 81.2173 231.2992)" gradientUnits="userSpaceOnUse">
			<stop  offset="0" style="stop-color:#000000"/>
			<stop  offset="1" style="stop-color:#1A1A1A;stop-opacity:0"/>
		</radialGradient>
		<path id="XMLID_818_" class="st8" d="M54.4,56.9v3.4c5.3-2.8,9.4-7.7,11.2-13.6h-3.1C61,50.9,58.1,54.5,54.4,56.9z"/>
	</g>
	<g id="XMLID_829_">
		<linearGradient id="XMLID_10_" gradientUnits="userSpaceOnUse" x1="84.9959" y1="25.8798" x2="84.9959" y2="56.8236">
			<stop  offset="0" style="stop-color:#FFFFFF"/>
			<stop  offset="1" style="stop-color:#333333"/>
		</linearGradient>
		<path id="XMLID_853_" class="st9" d="M95.3,48.4c-0.4,0.6-0.9,1.1-1.5,1.7c-0.6,0.5-1.2,1-2,1.4c-0.7,0.4-1.5,0.7-2.4,0.9
			c-0.9,0.2-1.8,0.3-2.7,0.3c-1.7,0-3.3-0.3-4.8-0.9c-1.5-0.6-2.7-1.5-3.8-2.5c-1.1-1.1-1.9-2.4-2.5-3.8c-0.6-1.5-0.9-3.1-0.9-4.9
			c0-1.8,0.3-3.4,0.9-4.9c0.6-1.5,1.5-2.8,2.5-3.8c1.1-1.1,2.3-1.9,3.8-2.5c1.5-0.6,3.1-0.9,4.8-0.9c1.4,0,2.9,0.3,4.3,0.8
			c1.4,0.6,2.7,1.5,3.7,2.8l-2.1,1.5c-0.2-0.4-0.6-0.7-1-1.1c-0.4-0.4-0.9-0.7-1.4-1c-0.5-0.3-1.1-0.5-1.7-0.7
			c-0.6-0.2-1.2-0.3-1.8-0.3c-1.5,0-2.8,0.3-4,0.8c-1.2,0.5-2.2,1.3-3,2.2c-0.8,0.9-1.4,2-1.9,3.2c-0.4,1.2-0.7,2.5-0.7,3.8
			c0,1.3,0.2,2.6,0.7,3.8c0.4,1.2,1.1,2.3,1.9,3.2c0.8,0.9,1.8,1.6,3,2.2c1.2,0.5,2.5,0.8,4,0.8c0.6,0,1.2-0.1,1.8-0.2
			c0.6-0.1,1.2-0.3,1.8-0.6c0.6-0.3,1.1-0.6,1.6-1.1c0.5-0.4,1-1,1.4-1.7L95.3,48.4z"/>
		<linearGradient id="XMLID_11_" gradientUnits="userSpaceOnUse" x1="103.7988" y1="25.8798" x2="103.7988" y2="56.8236">
			<stop  offset="0" style="stop-color:#FFFFFF"/>
			<stop  offset="1" style="stop-color:#333333"/>
		</linearGradient>
		<path id="XMLID_850_" class="st10" d="M111.9,44.4c0,1.2-0.2,2.2-0.6,3.2c-0.4,1-1,1.8-1.7,2.5c-0.7,0.7-1.6,1.3-2.6,1.7
			c-1,0.4-2.1,0.6-3.3,0.6c-1.2,0-2.3-0.2-3.2-0.6c-1-0.4-1.8-1-2.6-1.7c-0.7-0.7-1.3-1.6-1.7-2.5c-0.4-1-0.6-2-0.6-3.2
			c0-1.2,0.2-2.2,0.6-3.2c0.4-1,1-1.8,1.7-2.5c0.7-0.7,1.6-1.3,2.6-1.7c1-0.4,2.1-0.6,3.2-0.6c1.2,0,2.3,0.2,3.3,0.6
			c1,0.4,1.8,1,2.6,1.7c0.7,0.7,1.3,1.6,1.7,2.5C111.7,42.2,111.9,43.2,111.9,44.4z M109.6,44.4c0-0.8-0.1-1.6-0.4-2.4
			c-0.3-0.7-0.7-1.4-1.2-1.9c-0.5-0.5-1.1-1-1.8-1.3c-0.7-0.3-1.5-0.5-2.4-0.5c-0.9,0-1.7,0.2-2.4,0.5c-0.7,0.3-1.3,0.7-1.8,1.3
			c-0.5,0.5-0.9,1.2-1.1,1.9c-0.3,0.7-0.4,1.5-0.4,2.4c0,0.8,0.1,1.6,0.4,2.4c0.3,0.7,0.7,1.4,1.1,1.9c0.5,0.5,1.1,1,1.8,1.3
			c0.7,0.3,1.5,0.5,2.4,0.5c0.9,0,1.7-0.2,2.4-0.5c0.7-0.3,1.3-0.7,1.8-1.3c0.5-0.5,0.9-1.2,1.2-1.9C109.4,46,109.6,45.2,109.6,44.4
			z"/>
		<linearGradient id="XMLID_12_" gradientUnits="userSpaceOnUse" x1="115.4158" y1="25.8798" x2="115.4158" y2="56.8236">
			<stop  offset="0" style="stop-color:#FFFFFF"/>
			<stop  offset="1" style="stop-color:#333333"/>
		</linearGradient>
		<path id="XMLID_848_" class="st11" d="M116.5,52h-2.2V27.4h2.2V52z"/>
		<linearGradient id="XMLID_13_" gradientUnits="userSpaceOnUse" x1="121.2813" y1="25.8798" x2="121.2813" y2="56.8236">
			<stop  offset="0" style="stop-color:#FFFFFF"/>
			<stop  offset="1" style="stop-color:#333333"/>
		</linearGradient>
		<path id="XMLID_846_" class="st12" d="M122.4,52h-2.2V27.4h2.2V52z"/>
		<linearGradient id="XMLID_14_" gradientUnits="userSpaceOnUse" x1="127.1467" y1="25.8798" x2="127.1467" y2="56.8236">
			<stop  offset="0" style="stop-color:#FFFFFF"/>
			<stop  offset="1" style="stop-color:#333333"/>
		</linearGradient>
		<path id="XMLID_843_" class="st13" d="M128.7,30.9c0,0.5-0.2,0.8-0.5,1.1c-0.3,0.3-0.7,0.4-1.1,0.4c-0.4,0-0.7-0.1-1.1-0.4
			c-0.3-0.3-0.5-0.7-0.5-1.1s0.2-0.8,0.5-1.1c0.3-0.3,0.7-0.4,1.1-0.4c0.4,0,0.7,0.1,1.1,0.4C128.5,30.1,128.7,30.5,128.7,30.9z
			 M128.2,52h-2.2V36.8h2.2V52z"/>
		<linearGradient id="XMLID_15_" gradientUnits="userSpaceOnUse" x1="137.9002" y1="25.8798" x2="137.9002" y2="56.8236">
			<stop  offset="0" style="stop-color:#FFFFFF"/>
			<stop  offset="1" style="stop-color:#333333"/>
		</linearGradient>
		<path id="XMLID_841_" class="st14" d="M133.5,36.8c0,0.4,0.1,0.8,0.1,1.2c0,0.4,0,0.8,0,1.2h0.1c0.2-0.4,0.5-0.8,0.9-1.1
			c0.4-0.3,0.8-0.6,1.2-0.9c0.5-0.2,0.9-0.4,1.5-0.6c0.5-0.1,1-0.2,1.5-0.2c2,0,3.4,0.5,4.3,1.5c0.9,1,1.4,2.5,1.4,4.4V52h-2.2v-8.4
			c0-1.7-0.3-3-0.9-3.9c-0.6-0.9-1.7-1.4-3.3-1.4c-0.1,0-0.4,0-0.9,0.1c-0.5,0.1-1,0.3-1.6,0.7c-0.6,0.4-1,1-1.5,1.8
			c-0.4,0.8-0.7,1.9-0.7,3.3V52h-2.2V40.1c0-0.4,0-0.9,0-1.6c0-0.6-0.1-1.2-0.1-1.8H133.5z"/>
		<linearGradient id="XMLID_16_" gradientUnits="userSpaceOnUse" x1="154.3243" y1="25.8798" x2="154.3243" y2="56.8236">
			<stop  offset="0" style="stop-color:#FFFFFF"/>
			<stop  offset="1" style="stop-color:#333333"/>
		</linearGradient>
		<path id="XMLID_839_" class="st15" d="M159.3,32.8c-1-1.5-2.5-2.2-4.5-2.2c-0.6,0-1.2,0.1-1.8,0.2c-0.6,0.2-1.1,0.4-1.6,0.7
			c-0.5,0.3-0.8,0.8-1.1,1.3c-0.3,0.5-0.4,1.2-0.4,1.9c0,1,0.3,1.9,0.9,2.4c0.6,0.6,1.3,1,2.2,1.4c0.9,0.4,1.8,0.7,2.9,1
			c1,0.3,2,0.7,2.9,1.2c0.9,0.5,1.6,1.1,2.2,1.9c0.6,0.8,0.9,1.9,0.9,3.3c0,1-0.2,2-0.7,2.8c-0.4,0.8-1,1.5-1.8,2.1
			c-0.7,0.6-1.5,1-2.4,1.3c-0.9,0.3-1.8,0.5-2.7,0.5c-1.4,0-2.8-0.3-4-0.8c-1.3-0.5-2.4-1.4-3.2-2.6l2.2-1.5c0.5,0.8,1.2,1.5,2.1,2
			c0.9,0.5,1.9,0.8,3.2,0.8c0.6,0,1.2-0.1,1.8-0.3c0.6-0.2,1.1-0.5,1.6-0.8c0.5-0.4,0.8-0.8,1.2-1.3c0.3-0.5,0.5-1.1,0.5-1.8
			c0-0.8-0.2-1.5-0.5-2c-0.3-0.5-0.8-1-1.3-1.3c-0.6-0.4-1.2-0.7-1.9-0.9c-0.7-0.2-1.4-0.5-2.2-0.7c-0.7-0.2-1.5-0.5-2.2-0.8
			c-0.7-0.3-1.3-0.7-1.9-1.2c-0.6-0.5-1-1.1-1.3-1.8c-0.3-0.7-0.5-1.6-0.5-2.7c0-1.1,0.2-2.1,0.6-2.9c0.4-0.8,1-1.5,1.7-2.1
			c0.7-0.5,1.5-0.9,2.4-1.2c0.9-0.3,1.8-0.4,2.7-0.4c1.3,0,2.5,0.2,3.6,0.6c1.1,0.4,2.1,1.1,3,2.2L159.3,32.8z"/>
		<linearGradient id="XMLID_17_" gradientUnits="userSpaceOnUse" x1="166.838" y1="25.8798" x2="166.838" y2="56.8236">
			<stop  offset="0" style="stop-color:#FFFFFF"/>
			<stop  offset="1" style="stop-color:#333333"/>
		</linearGradient>
		<path id="XMLID_837_" class="st16" d="M171.7,38.7h-4.4v9c0,0.6,0.1,1,0.2,1.4c0.1,0.4,0.3,0.6,0.5,0.8c0.2,0.2,0.4,0.3,0.7,0.4
			c0.3,0.1,0.6,0.1,0.9,0.1c0.4,0,0.7-0.1,1.1-0.2c0.4-0.1,0.7-0.2,1.1-0.4l0.1,2c-0.8,0.4-1.8,0.6-2.9,0.6c-0.4,0-0.8-0.1-1.3-0.2
			c-0.4-0.1-0.9-0.3-1.2-0.6c-0.4-0.3-0.7-0.7-0.9-1.2c-0.2-0.5-0.4-1.2-0.4-2.1v-9.6h-3.2v-2h3.2v-4.3h2.2v4.3h4.4V38.7z"/>
		<linearGradient id="XMLID_18_" gradientUnits="userSpaceOnUse" x1="178.341" y1="25.8798" x2="178.341" y2="56.8236">
			<stop  offset="0" style="stop-color:#FFFFFF"/>
			<stop  offset="1" style="stop-color:#333333"/>
		</linearGradient>
		<path id="XMLID_833_" class="st17" d="M182.4,42.7v-0.4c0-2.6-1.3-3.9-3.9-3.9c-1.8,0-3.3,0.6-4.7,1.8l-1.3-1.5
			c1.4-1.5,3.6-2.2,6.5-2.2c0.7,0,1.5,0.1,2.1,0.3c0.7,0.2,1.3,0.5,1.8,1c0.5,0.4,0.9,1,1.2,1.7c0.3,0.7,0.5,1.5,0.5,2.4v6.8
			c0,0.6,0,1.2,0.1,1.8c0.1,0.6,0.1,1.2,0.2,1.6h-2.1c-0.1-0.4-0.1-0.8-0.1-1.2c0-0.4,0-0.9,0-1.3h-0.1c-0.6,1-1.4,1.8-2.2,2.2
			c-0.9,0.4-1.9,0.7-3.1,0.7c-0.7,0-1.3-0.1-2-0.3c-0.6-0.2-1.2-0.5-1.7-0.8c-0.5-0.4-0.9-0.8-1.2-1.4c-0.3-0.6-0.4-1.2-0.4-1.9
			c0-1.2,0.3-2.2,1-2.9c0.6-0.7,1.4-1.2,2.4-1.6c1-0.3,2-0.6,3.1-0.7c1.1-0.1,2.1-0.1,3-0.1H182.4z M181.3,44.4c-0.5,0-1.2,0-2,0.1
			c-0.8,0.1-1.6,0.2-2.3,0.4c-0.7,0.2-1.4,0.5-1.9,1c-0.5,0.4-0.8,1-0.8,1.8c0,0.5,0.1,0.9,0.3,1.3c0.2,0.4,0.5,0.7,0.8,0.9
			c0.3,0.2,0.7,0.4,1.2,0.5c0.4,0.1,0.9,0.1,1.3,0.1c0.8,0,1.5-0.1,2-0.4c0.6-0.3,1.1-0.6,1.5-1.1c0.4-0.4,0.7-1,0.9-1.6
			c0.2-0.6,0.3-1.2,0.3-1.9v-1.1H181.3z"/>
		<linearGradient id="XMLID_19_" gradientUnits="userSpaceOnUse" x1="192.0277" y1="25.8798" x2="192.0277" y2="56.8236">
			<stop  offset="0" style="stop-color:#FFFFFF"/>
			<stop  offset="1" style="stop-color:#333333"/>
		</linearGradient>
		<path id="XMLID_831_" class="st18" d="M187.8,41.5c0-0.7,0-1.4,0-2.1c0-0.7-0.1-1.6-0.1-2.7h2.1v2.8h0.1c0.2-0.4,0.4-0.8,0.7-1.2
			c0.3-0.4,0.6-0.7,1-1c0.4-0.3,0.9-0.5,1.4-0.7c0.5-0.2,1.1-0.3,1.8-0.3c0.6,0,1.1,0.1,1.6,0.2l-0.4,2.1c-0.3-0.1-0.7-0.2-1.2-0.2
			c-0.8,0-1.5,0.2-2.1,0.5c-0.6,0.3-1.1,0.7-1.5,1.2c-0.4,0.5-0.7,1-0.9,1.6c-0.2,0.6-0.3,1.1-0.3,1.6V52h-2.2V41.5z"/>
	</g>
</g>
</svg>
