<?xml version="1.0" encoding="utf-8"?>
<!-- Generator: Adobe Illustrator 21.1.0, SVG Export Plug-In . SVG Version: 6.00 Build 0)  -->
<svg version="1.1" id="图层_1" xmlns="http://www.w3.org/2000/svg" xmlns:xlink="http://www.w3.org/1999/xlink" x="0px" y="0px"
	 viewBox="0 0 217 80" style="enable-background:new 0 0 217 80;" xml:space="preserve">
<style type="text/css">
	.st0{fill:#FFFFFF;}
	.st1{fill:#FEFEFE;}
	.st2{fill:#FE2548;}
	.st3{fill:#CA142D;}
	.st4{fill:#C6C7C9;}
	.st5{fill:#FE3A59;}
	.st6{fill:#FE6E85;}
	.st7{fill:#FE8699;}
	.st8{fill:#4B4F56;}
	.st9{fill:#4C5057;}
	.st10{fill:#FDFDFD;}
	.st11{fill:#FCFCFC;}
	.st12{fill:#FAFAFA;}
	.st13{fill:#FAFBFB;}
	.st14{fill:#F7F7F7;}
</style>
<rect class="st0" width="217" height="80"/>
<g>
	<path class="st1" d="M203,37.2c0,8.8,0,17.7,0,26.5c0,0.8-0.2,1-1,1c-56,0-112,0-168,0c-0.1-0.7,0.4-0.8,0.8-1.1
		c6.5-4.1,11.8-9.4,15.7-16c3.7-6.1,5.8-12.8,6.5-19.9c0.2-2.1,0.2-4.2,0.2-6.3c0-1-0.2-1.1-1-0.6c-2.8,2-5.1,4.4-6.7,7.5
		c-0.2,0.3-0.4,0.7-0.4,1c-0.2,2.1-1.4,3.5-2.6,5.1c-2.3,3-3.6,6.6-4.7,10.2c-0.3,1.1-0.6,2.1-1,3.2c-0.7,2.4-2.6,3.9-4.6,5.3
		c-0.8,0.5-1.6,1-2.6,1.2c-1.8,0.2-3-0.7-3.8-2.2c-1.2-2.3-1.6-4.7-1.3-7.2c0.3-2.2,0.4-4.4,0.1-6.7c-0.1-0.9-0.3-1.8-0.7-2.6
		c-0.6-1.2-1.7-1.5-2.7-0.7c-2.2,1.9-4.7,1.8-7.3,1.5c-1.8-0.2-2.4-1-2.1-2.8c0.1-1,0.2-2-0.1-2.9c-0.1-0.3-0.2-0.8,0.2-1
		c0.3-0.2,0.7-0.1,0.9,0.1c1.3,0.8,2.3,0.3,3.2-0.7c1.8-1.8,4.1-2.6,6.6-2.5c0.7,0,1.3,0.1,1,1.1c-0.2,0.6,0.2,0.8,0.6,1.1
		c3.4,2.3,5,5.6,5.6,9.5c0.3,2.6-0.1,5.2,0.3,8c1.1-1.4,1.8-2.7,2.4-4.1c2-4.5,3.5-9.2,5.8-13.5c1.9-3.6,4.1-6.9,6.9-9.7
		c0.9-0.9,0.9-1-0.4-1.3c-4.5-1.2-9-2.4-13.5-3.6c-0.4-0.1-0.9-0.2-1.2-0.5c-0.1-0.1-0.1-0.2,0-0.3c55.9,0,111.8,0,167.7,0
		c0.9,0,1.1,0.2,1.1,1.1c0,6.7,0,13.5,0,20.2c-0.1,0.1-0.2,0.2-0.4,0.2c-2.9,0.3-5.8,0.1-8.7,0.1c-0.7,0-1.2-0.4-1.2-1.1
		c-0.1-1.3-0.1-2.6,0-3.8c0-1,0.7-1.2,1.5-1.3c1.8-0.3,3.6-0.8,5.4-1.3c0.4-0.1,1.3-0.1,1.1-0.8c-0.2-0.7-0.9-1.2-1.7-0.9
		c-2.4,0.8-4.9,1.4-7.4,2c-0.9,0.2-0.9,0.8-0.9,1.5c0,3.3,0,6.6,0,9.9c0,3.6-0.4,7.2-2,10.5c-0.2,0.5-0.4,0.9,0.1,1.4
		c0.6,0.7,1.1,0.6,1.5-0.1c0.8-1.4,1.2-3,1.6-4.5c0.6-2.4,0.6-4.9,0.8-7.4c0.1-1.5,0.3-1.8,1.9-1.8c2.8-0.1,2.9,0,2.9,2.8
		c0,3.6,0,7.3,0,10.9c0,0.5-0.1,1.1,0.6,1.4c0.8,0.3,1.4-0.1,1.4-1.1c0-1.9,0-3.7,0-5.6c0-2.1,0-4.2,0-6.3c0-1.8,0.3-2,2.1-2
		c0.4,0,0.7,0,1.1,0.1C202.8,37,202.9,37.1,203,37.2z"/>
	<path class="st2" d="M33.7,38.4c-0.5-2.3-1.2-4.6-2.6-6.5c-0.9-1.2-2-2.1-3.2-2.9c-1.1-0.8-1.1-0.8-0.3-1.9
		c-2.8-0.2-5.3,0.1-7.2,2.3c-1.3,1.4-2.7,1.8-4.5,0.3c0.8,1.7,0.4,3.2,0.3,4.8c-0.1,1.1,0.7,1.5,1.5,1.6c2,0.4,4,0.1,6-0.3
		c0.4-0.1,0.7-0.5,1-0.8c1.6-1.5,3.2-1.1,3.9,1c0.9,2.8,0.8,5.7,0.5,8.6c-0.3,2.3-0.1,4.6,0.9,6.8c0.7,1.7,1.9,2.8,3.9,2.6
		c0.3,0.2,0.4,0.6,0.4,0.9c0,3,0.2,6.1-0.1,9.1c-0.5,0.9-1.1,0.4-1.6,0.1c-2.6-1.6-5-3.4-7.2-5.4c-4.3-4-7.8-8.5-10.4-13.7
		c-2.6-5.3-4.5-10.8-4.7-16.8c0-0.2,0-0.3-0.1-0.5c0-0.3,0-0.7,0-1c0.2-0.2,0.1-0.4,0.1-0.6c0-0.3,0.1-0.6-0.1-0.9
		c0-0.8,0-1.7,0-2.5c0.2-0.6,0.2-1.2,0-1.7c0-0.5,0-1,0-1.5c0.4-0.4,0.9-0.5,1.4-0.7c6.3-1.7,12.6-3.3,18.8-5.1
		c0.8-0.2,1.7-0.4,2.5-0.5c0.4-0.1,0.9-0.2,1.2,0.3c0.2,0.6,0.2,1.1,0.2,1.7c0,7,0,14.1,0,21.1C34.2,37.1,34.3,37.9,33.7,38.4z"/>
	<path class="st3" d="M33.8,64.5c0-3.5,0-6.9,0-10.4c2-0.9,3.8-2,5.3-3.7c0.8-0.9,1.3-1.8,1.7-3c1.1-4.2,2.6-8.3,4.8-12.1
		c0.6-1.1,1.4-2.1,2.3-2.9c0.3-0.2,0.5-0.4,0.5-0.8c0.2-3.1,1.8-5.5,3.8-7.7c1.3-1.4,2.7-2.6,4.3-3.7c0.8-0.6,1-0.3,1,0.6
		c0.4,11-2.4,21-8.7,30c-3.8,5.4-8.5,9.8-14,13.2c-0.3,0.2-0.7,0.2-0.8,0.7c-0.1,0-0.2,0-0.2,0C33.7,64.6,33.7,64.6,33.8,64.5
		C33.7,64.5,33.7,64.5,33.8,64.5z"/>
	<path class="st1" d="M33.8,64.5c0,0.1,0,0.1,0,0.2c-7.6,0-15.3,0-22.9,0c-0.8,0-0.9-0.2-0.9-1c0-12,0-24,0-36
		c0.6,1.2,0.5,2.5,0.7,3.7c2.7,14.3,10.3,25.2,22.6,32.9C33.4,64.4,33.6,64.4,33.8,64.5z"/>
	<path class="st1" d="M33.8,13.3c-3.6,0.9-7.3,1.9-10.9,2.8c-4.3,1.1-8.6,2.2-12.8,3.4c0-1.9,0-3.8,0-5.7c0-0.6,0.1-0.8,0.8-0.8
		c7.8,0,15.7,0,23.5,0c0,0.1,0,0.1,0,0.2C34.1,13.5,33.9,13.5,33.8,13.3z"/>
	<path class="st4" d="M202.8,34.5c0.1,0,0.2,0,0.3,0c0,0.9,0,1.8,0,2.7c-0.1,0-0.2,0-0.3-0.1C202.3,36.2,202.3,35.3,202.8,34.5z"/>
	<path class="st5" d="M10,21c0.4,0.6,0.4,1.2,0,1.7C10,22.2,10,21.6,10,21z"/>
	<path class="st6" d="M10,25.3c0.4,0.3,0.2,0.7,0.2,1c-0.1,0.1-0.2,0.1-0.2,0C10,25.9,10,25.6,10,25.3z"/>
	<path class="st7" d="M10,26.3c0.1,0,0.1,0,0.2,0c0,0.2,0,0.4-0.2,0.5C10,26.6,10,26.4,10,26.3z"/>
	<path class="st3" d="M33.8,13.3c0.2,0,0.3,0,0.5,0c5.5,1.5,11.1,3,16.8,4.6c-2.1,2-3.9,4-5.5,6.2c-3.2,4.7-5.2,10-7.3,15.2
		c-0.8,2.1-1.7,4.2-2.9,6.1c-0.3,0.5-0.7,1-1.2,1.7c-0.7-3.1-0.2-5.9-0.4-8.7C33.8,30.1,33.8,21.7,33.8,13.3z"/>
	<path class="st8" d="M151.8,43.1c0.6,0,1.1-0.1,1.7,0c1.3,0.2,1.8-0.5,1.9-1.6c0.6-3.6,0.6-3.6-3.1-3.6c-2.4,0-2.4,0-2.4,2.4
		c0,2.6,0,5.2,0,7.8c0,1,0.4,1.4,1.4,1.4c1.7,0,3.4,0,5.1,0c0.9,0,1.4-0.4,1.5-1.3c0.1-0.9,0.2-1.7,0.3-2.6c0.2-0.1,0.4,0,0.5,0.1
		c0.7,0.5,2.1,0.2,1.8,1.9c-0.5,2.9-1.1,4-2.9,4.2c-2.7,0.3-5.5,0.3-8.3-0.1c-1.5-0.2-2.2-1.1-2.2-2.8c-0.1-3.9,0-7.8,0-11.6
		c0-0.4,0-0.8,0-1.2c-0.1,0-0.2-0.1-0.2-0.1c-0.5,0.1-0.9,1-1.3,0.7c-0.7-0.4-1.1-1-1.7-1.6c-0.4-0.4,0-0.5,0.2-0.7
		c3.4-2.6,6-5.8,7.8-9.8c0.2-0.5,0.5-0.6,0.9-0.3c0.6,0.4,2.4-0.1,1.5,1.7c-0.2,0.4,0.3,0.6,0.6,0.9c1.8,1.9,3.5,3.7,5.1,5.8
		c0.4,0.5,1.1,1,0.9,1.5c-0.4,0.7-1.1,1.4-1.8,1.6c-0.6,0.2-0.5,0.4-0.5,0.8c-0.2,2-0.2,4-0.6,6c-0.4,1.9-1.1,2.6-3.1,2.6
		C152.4,45.5,152.4,45.5,151.8,43.1z"/>
	<path class="st8" d="M101.3,38.6c-2.5,0-5,0-7.6,0c-0.7,0-0.9-0.2-0.9-0.9c0-2,0.1-4,0-5.9c0-0.9,0.3-1,1.1-1c1.4,0.1,2.9,0,4.3,0
		c1.1,0,0.9-0.7,1-1.3c0.1-0.9-0.6-0.5-0.9-0.5c-1.9,0-3.8-0.1-5.7,0c-0.9,0-1-0.4-1-1.1c0-0.6-0.2-1.3,0.9-1.3c2,0.1,4,0,5.9,0
		c0.8,0,1.2-0.2,1.2-1.1c0-0.4-0.3-1.2,0.4-1.2c0.8-0.1,1.7-0.1,2.4,0.1c0.4,0.1,0.1,0.8,0,1.2c-0.2,0.8,0.1,1,0.8,1
		c2.1,0,4.2,0,6.3,0c1.1,0,0.9,0.6,1,1.3c0,0.7,0,1.1-1,1.1c-2.2-0.1-4.4,0-6.6,0c-0.9,0-1.2,0.3-1.3,1.2c-0.1,1.1,0.7,0.7,1.2,0.7
		c1.9,0,3.8,0,5.7,0c0.7,0,0.9,0.2,0.9,0.9c0,2,0,4,0,6.1c0,0.7-0.2,0.9-0.9,0.9C106.3,38.6,103.8,38.6,101.3,38.6z"/>
	<path class="st8" d="M202.8,34.5c0,0.9,0,1.8,0,2.6c-2.9,0-2.9,0-2.9,2.9c0,3.8-0.1,7.5,0,11.3c0,1.3-0.8,1-1.4,1
		c-0.7,0-1.4,0.3-1.4-1c0.1-4.3,0-8.7,0-13c0-0.9-0.2-1.2-1.1-1.2c-2.7,0-2.7,0-2.8,2.6c-0.2,3.5-0.5,6.9-1.9,10.1
		c0,0.1-0.1,0.2-0.2,0.3c-0.9,2-1.4,2.1-2.9,0.5c-0.3-0.3-0.2-0.5-0.1-0.7c1.8-3.1,2.2-6.6,2.3-10.1c0.1-3.8,0.1-7.7,0-11.5
		c0-0.8,0.3-1.1,1.1-1.3c2.6-0.4,5.1-1,7.5-1.9c0.7-0.2,2.7,0.9,2.8,1.6c0.1,0.5-0.5,0.4-0.7,0.5c-2.3,0.8-4.6,1.3-6.9,1.7
		c-0.8,0.1-1.1,0.4-1.1,1.2c0.1,1.1,0.1,2.3,0,3.5c0,0.7,0.2,0.9,0.9,0.9C196.9,34.4,199.8,34.5,202.8,34.5z"/>
	<path class="st8" d="M113.7,50.6c1.8-0.9,2.7-2.4,3-4.3c0.1-0.6-0.1-0.8-0.7-0.8c-0.4,0-0.8,0-1.1,0c-1.1,0.2-1.4-0.2-1.4-1.3
		c0-1,0.3-1.2,1.2-1.1c2.4,0.1,4.7,0,7.1,0c0.9,0,0.9-0.4,1-1.1c0-0.8-0.2-1-1-1c-1.8,0.1-3.5,0-5.3,0c-0.8,0-1.1-0.2-1.1-1
		c0-4.1,0.1-8.2,0-12.3c0-1.2,0.7-1.1,1.4-1.1c0.7,0,1.4-0.2,1.4,1.1c-0.1,3.3,0,6.5-0.1,9.8c0,1,0.3,1.2,1.3,1.2
		c1.7-0.1,3.4,0,5.1,0c0.7,0,1,0.1,1,0.9c0,3.9,0,7.8,0,11.8c0,0.6-0.1,0.9-0.8,0.9c-2,0.1-2,0.1-2-1.8c0-1.4,0-2.8,0-4.2
		c0-0.6-0.1-0.9-0.7-0.8c0,0-0.1,0-0.1,0c-2.3-0.1-2.3-0.1-2.9,2.2c-0.4,1.9-1.4,3.5-3.1,4.6c-0.6,0.4-0.9,0.4-1.2-0.3
		C114.5,51.5,114.1,51.1,113.7,50.6z"/>
	<path class="st8" d="M185.2,29.7c0,0,0,0.1,0.1,0.1c2.1,0.6,2.1,0.6,1.3,2.7c-0.2,0.5-0.4,1.1-0.7,1.7c1,0,1.9,0.1,2.7,0
		c1.1-0.1,0.8,0.7,0.8,1.2c0,0.5,0.3,1.3-0.8,1.2c-1.4-0.1-2.7,0-4.1,0c-0.7,0-1,0.2-1,1c0,1.8,0,1.8,1.8,1.8c0.7,0,1.4,0,2.1,0
		c1.5,0,1.9,0.6,1.5,2c-0.1,0.5-0.4,0.4-0.7,0.4c-1.2,0-2.4,0.1-3.6,0c-0.8,0-1.1,0.2-1.1,1.1c0.1,2.1,0,4.3,0,6.4
		c0,1.8-2.6,3.3-4.2,2.4c-0.7-0.4-0.5-1.4-0.9-2c0.2-0.1,0.2-0.2,0.3-0.2c2.2-0.1,2.2-0.1,2.2-2.3c0-1.5,0-3,0-4.5
		c0-0.7-0.2-0.9-0.9-0.9c-1.4,0-2.7-0.1-4.1,0c-1,0.1-0.9-0.5-0.9-1.2c0-0.6-0.3-1.4,0.9-1.3c1.4,0.1,2.7,0,4.1,0c0.8,0,1-0.2,0.9-1
		c0-0.3,0-0.7,0-1c0.1-0.7-0.2-0.9-0.8-0.8c-1.4,0-2.8-0.1-4.2,0c-1,0.1-1-0.5-1-1.2c0-0.6-0.2-1.4,0.9-1.2c0.2,0,0.4,0,0.6,0
		c1.9,0,1.9,0,1.5-1.7c-0.2-0.7-0.7-1.4-0.5-2c0.2-0.6,1.3-0.3,1.8-0.8c0.1-0.1,0.2-0.1,0.3-0.1c1.2,1.4,1.6,3.6,0.9,4.3
		c0,0,0.1,0,0.1,0c2.3,0.2,3.2-1.1,3.6-3.1c0.1-0.4,0.2-0.7,0.5-1C184.8,29.7,185,29.6,185.2,29.7z"/>
	<path class="st8" d="M139.3,34c0,2.1,0,4.1,0,6.2c0,0.7-0.2,0.9-0.9,0.9c-1.8,0-3.6,0-5.3,0c-0.7,0-1.3-0.1-1.3,1
		c0,1.2,0.6,1.1,1.4,1.1c1.9,0,3.9,0,5.8,0c0.9,0,1.1,0.3,1.1,1.1c-0.1,2.4,0,4.8,0,7.2c0,0.7-0.1,1-0.9,1c-2.3-0.1-1.8,0.2-1.8-1.8
		c0-1.4,0-2.8,0-4.2c0-0.6-0.2-0.8-0.8-0.8c-1.3,0-2.6,0-4,0c-0.6,0-0.8,0.3-0.7,0.8c0,1.7-0.1,3.3,0,5c0.1,1.1-0.6,1.1-1.3,1
		c-0.6-0.1-1.5,0.4-1.5-0.9c0.1-3.9,0-7.8,0-11.8c0-0.7,0.2-0.9,0.9-0.9c1.8,0,3.6,0,5.3,0c0.9,0,1.3-0.2,1.3-1.2
		c-0.1-3.2,0-6.4-0.1-9.7c0-1.2,0.6-1.2,1.4-1.2c0.8,0,1.5-0.1,1.4,1.2C139.3,30,139.3,32,139.3,34z"/>
	<path class="st8" d="M127.5,25.2c1.9,0,3.8,0,5.7,0c0.7,0,1,0.1,1,0.9c0,3.5,0,6.9,0,10.4c0,0.8-0.3,0.9-1,0.9c-3.8,0-7.7,0-11.5,0
		c-0.9,0-1-0.3-1-1.1c0-3.4,0-6.8,0-10.1c0-0.9,0.3-1.1,1.1-1.1C123.7,25.3,125.6,25.2,127.5,25.2z"/>
	<path class="st8" d="M162.7,49.7c1.3,0,2.5,0,3.7,0c1.2,0.1,1.7-0.4,1.6-1.6c-0.1-7.3,0-14.7,0-22c0-0.4-0.3-1.1,0.3-1.2
		c0.7-0.1,1.6-0.1,2.3,0c0.3,0,0.2,0.5,0.2,0.8c0,7.9,0,15.8,0,23.7c0,1.7-0.6,2.4-2.3,2.8c-1.5,0.4-3,0.2-4.4,0.3
		c-0.4,0-0.6-0.2-0.7-0.5C163.2,51.1,163,50.4,162.7,49.7z"/>
	<path class="st8" d="M86.5,40.1c-0.7,0.8-1.3,1.5-2,2.2c-0.1,0.1-0.3,0.3-0.5,0.4c-0.5-0.7-0.9-1.4-1.4-2.1
		c-0.2-0.3-0.1-0.5,0.1-0.7c2.5-2.5,4.6-5.3,6.2-8.4c0.5-0.9,1-0.2,1.4-0.1c1.4,0.4,1.5,0.6,0.7,1.8c-1.5,2.1-1.8,4.3-1.8,6.9
		c0.1,3.7,0,7.4,0.1,11.1c0,1-0.1,1.4-1.3,1.4c-1.2,0-1.4-0.4-1.4-1.5c0.1-3.2,0-6.4,0-9.7C86.6,41,86.8,40.6,86.5,40.1z"/>
	<path class="st8" d="M101.1,42.6c0.6,1.1,1.2,2,1.7,2.9c0.2,0.3,0.6,0.8-0.1,0.9c-0.6,0.1-1.3,1.2-2,0.1c-0.4-0.6-0.6-1.4-1.1-1.9
		c-0.7-1-0.7-1.6,0.6-2c-0.7,0-1.4,0-2.1,0c-1.8,0-3.6-0.1-5.4,0c-1.1,0.1-1.4-0.2-1.4-1.3c0-0.9,0.4-1,1.1-1c5.8,0,11.6,0,17.5,0
		c0.9,0,1.1,0.3,1.1,1.1c0,0.8-0.1,1.2-1.1,1.2C106.9,42.6,104.1,42.6,101.1,42.6z"/>
	<path class="st8" d="M164.9,36.4c0,2.5,0,4.9,0,7.4c0,0.7-0.1,1-0.9,1c-1.8,0-1.8,0-1.8-1.8c0-4.7,0.1-9.4,0-14.1
		c0-1.4,0.7-1.1,1.5-1.2c1-0.1,1.3,0.2,1.3,1.3C164.8,31.5,164.9,33.9,164.9,36.4z"/>
	<path class="st8" d="M179.5,29.7c-0.1,0-0.2,0-0.3,0c-0.9,0-1.7,0-2.6,0c-0.4,0-1,0.2-1.1-0.2c-0.1-0.6-0.1-1.2,0-1.8
		c0-0.3,0.5-0.2,0.8-0.2c1.3,0,2.6,0,3.8,0c0.7,0,1-0.2,0.6-0.9c0-0.1-0.1-0.2-0.1-0.2c-0.6-1.6-0.3-2,1.4-2.1
		c0.6,0,0.7,0.4,0.8,0.7c0.5,2.3,2,2.8,4.1,2.4c0.2,0,0.4,0,0.6,0c1.2,0,1.8,0.9,1.3,2c-0.2,0.4-0.4,0.3-0.7,0.3c-1,0-2,0-3,0
		c-0.2,0.1-0.3,0.2-0.5,0.2C183,30.1,181.2,30.4,179.5,29.7z"/>
	<path class="st8" d="M101,52.1c-1.1,0-2.2,0-3.3-0.2c-1.2-0.1-1.9-0.9-1.9-2.2c0-1.4,0-2.8,0-4.2c0-1,0.7-0.7,1.2-0.7
		c0.5,0,1.3-0.5,1.3,0.7c0,1,0.1,2,0,3c-0.1,1.1,0.4,1.4,1.4,1.3c1-0.1,2-0.1,3,0c1.2,0.1,1.6-0.4,1.7-1.5c0-0.3-0.2-1.1,0.4-0.9
		c0.6,0.2,1.8,0,1.8,1.1c0,2.3-0.8,3.7-3.2,3.6C102.5,52,101.7,52,101,52.1C101,52,101,52.1,101,52.1z"/>
	<path class="st8" d="M91.3,25.4c-2.1,2.8-4.3,5.3-6.8,7.6c-0.4,0.4-0.6,0.3-0.8-0.2c0-0.1-0.1-0.2-0.1-0.2c-1-1.1-0.8-1.8,0.4-2.7
		c1.6-1.3,3-2.8,4.1-4.6c0.5-0.8,1-1,1.9-0.5C90.3,25,90.7,25.2,91.3,25.4z"/>
	<path class="st9" d="M111,49.9c-0.4,0.5-1.1,0.6-1.7,0.9c-0.6,0.3-0.6-0.2-0.7-0.6c-0.6-1.5-1.4-3-2.3-4.4
		c-0.2-0.3-0.7-0.7-0.1-0.9c0.6-0.2,1.4-1.1,1.9-0.5c1.2,1.5,2.2,3.3,2.9,5.1C110.9,49.7,110.9,49.7,111,49.9z"/>
	<path class="st9" d="M92,51.2c-0.5-0.3-1-0.5-1.5-0.9c-0.8-0.6,0.1-1,0.3-1.4c0.6-1.2,1.2-2.4,1.5-3.7c0.1-0.4,0.3-1,0.9-0.6
		c0.5,0.4,1.7,0,1.3,1.3c-0.5,1.6-1.1,3.2-1.9,4.6C92.5,50.8,92.4,51.2,92,51.2z"/>
	<path class="st9" d="M174.8,47.7c1.1-1.3,1.9-2.7,2.5-4.3c0.5-1.2,1.3-0.1,1.9-0.1c0.9,0,0.3,0.6,0.2,1c-0.5,1.4-1.3,2.7-2.1,3.9
		c-0.5,0.7-0.9,1-1.6,0.3C175.5,48.2,175.1,48,174.8,47.7z"/>
	<path class="st9" d="M186.2,42.8c0.4,0,0.5,0.3,0.7,0.6c0.6,1.1,1.2,2.1,1.8,3.2c0.7,1.2-0.7,1.1-1.1,1.5c-0.7,0.6-0.7-0.3-0.9-0.6
		c-0.5-0.9-1-1.9-1.5-2.9c-0.2-0.3-0.7-0.7-0.3-1C185.1,43.2,185.7,43,186.2,42.8z"/>
	<path class="st10" d="M153,28.7c1.9,2.1,3.7,4.2,5.4,6.6c-3.6,0-7,0-10.6,0C149.8,33.2,151.5,31.1,153,28.7z"/>
	<path class="st11" d="M102.5,34.7c0,1.9,0,1.9-1.9,1.8c-0.6,0-0.9-0.2-0.9-0.8c0-0.4,0-0.7,0-1.1c0-1.5,0.9-2.1,2.4-1.6
		c0.3,0.1,0.3,0.3,0.3,0.5C102.5,33.9,102.5,34.3,102.5,34.7z"/>
	<path class="st10" d="M107.3,34.7c0,0.3,0,0.7,0,1c0.1,0.7-0.2,0.9-0.9,0.8c-0.5,0-0.9,0-1.4,0c-0.5,0-0.6-0.3-0.6-0.7
		c0-0.6,0.1-1.2,0-1.9c-0.1-0.9,0.3-1,1-1C107.3,33,107.3,32.9,107.3,34.7z"/>
	<path class="st1" d="M97.7,34.8c0,1.8,0,1.8-1.8,1.7c-0.6,0-0.9-0.2-0.8-0.8c0-0.4,0-0.7,0-1.1c0-1.6,0.7-2.1,2.2-1.6
		c0.3,0.1,0.4,0.2,0.4,0.5C97.7,33.9,97.7,34.3,97.7,34.8z"/>
	<path class="st10" d="M179.5,29.7c1.4,0,2.8,0,4.2,0c0.3,0,0.8-0.2,1,0.2c-0.4,1.1-0.7,2.2-1.1,3.3c-0.2,0.7-0.6,1.1-1.4,1
		c-0.8-0.1-1.5,0-2.4-0.1c1-0.2,0.9-0.7,0.7-1.4C180.2,31.8,179.9,30.7,179.5,29.7z"/>
	<path class="st12" d="M127.3,30.5c1.1,0,2.1,0,3.2,0c0.7,0,0.7,0.3,0.7,0.8c0,0.5-0.1,0.9-0.7,0.9c-2.1,0-4.3,0-6.4,0
		c-0.7,0-0.7-0.3-0.7-0.9c0-0.5,0.1-0.9,0.7-0.8C125.2,30.5,126.3,30.5,127.3,30.5z"/>
	<path class="st13" d="M127.4,33.9c1,0,2.1,0,3.1,0c0.7,0,0.7,0.3,0.7,0.8c0,0.5,0,0.9-0.7,0.9c-2.1,0-4.3,0-6.4,0
		c-0.7,0-0.7-0.4-0.7-0.9c0-0.5,0.1-0.9,0.7-0.8C125.2,34,126.3,33.9,127.4,33.9z"/>
	<path class="st14" d="M127.3,28.7c-1,0-2,0-3,0c-0.6,0-0.9-0.1-0.9-0.8c0-0.6,0.2-0.9,0.9-0.9c2.1,0,4.1,0,6.2,0
		c0.6,0,0.8,0.2,0.9,0.9c0,0.7-0.4,0.8-0.9,0.8C129.3,28.7,128.3,28.7,127.3,28.7z"/>
</g>
</svg>
