<?xml version="1.0" encoding="utf-8"?>
<!-- Generator: Adobe Illustrator 21.1.0, SVG Export Plug-In . SVG Version: 6.00 Build 0)  -->
<svg version="1.1" id="图层_1" xmlns="http://www.w3.org/2000/svg" xmlns:xlink="http://www.w3.org/1999/xlink" x="0px" y="0px"
	 viewBox="0 0 217 80" style="enable-background:new 0 0 217 80;" xml:space="preserve">
<style type="text/css">
	.st0{fill:#FFFFFF;}
	.st1{fill:none;}
</style>
<g>
	<rect x="1.4" y="1.4" class="st0" width="214.2" height="77.2"/>
	<path class="st1" d="M214.2,2.8v74.3H2.8V2.8H214.2 M217,0H0v80h217V0L217,0z"/>
</g>
<g>
	<path class="st0" d="M28.4,56.6c0,0.1-0.1,0.2-0.1,0.3c0,2.1,0,4.2,0,6.3c0,0.5,0.3,0.5,0.7,0.5c6.8,0,13.5,0,20.3-0.1
		c3.3,0,6.2-1.4,8.6-3.6c5.6-5.3,5.7-14,0.3-19.5c-0.4-0.5-0.4-0.7,0-1.1c1.8-1.7,3-3.9,3.5-6.3c1.1-5.1-0.2-9.6-4-13.3
		c-2.3-2.2-5.1-3.4-8.3-3.5c-2.9-0.1-5.8,0-8.7,0c-0.5,0-0.5,0.2-0.5,0.6c0,1.9,0,3.8,0,5.8c0,0.5,0.2,0.7,0.7,0.7
		c2.5,0,4.9,0,7.4,0c2,0,3.7,0.7,5,2.1c1.7,1.9,2.2,4.1,1.5,6.4c-0.8,2.3-2.4,3.9-4.9,4.4c-1.2,0.2-2.4,0.1-3.6,0.2
		c-0.8,0-0.8,0-0.8,0.8c0,1.8,0,3.5,0,5.3c0,0.9,0,0.9,0.9,0.9c1.3,0.1,2.6,0,3.9,0.3c3.3,0.9,5.2,4,4.7,7.3
		c-0.5,3.2-3.3,5.5-6.6,5.5c-6.4,0-12.8,0-19.2,0C28.9,56.6,28.7,56.6,28.4,56.6z M14.2,46.1c0,5.6,0,11.2,0,16.8
		c0,0.9,0,0.9,0.9,0.9c1.8,0,3.6,0,5.3,0c0.9,0,0.9,0,0.9-0.9c0-6.2,0-12.4,0-18.5c0-0.8,0-0.8,0.9-0.8c5.2,0,10.4,0,15.6,0
		c0.6,0,0.8-0.2,0.7-0.7c0-1.8,0-3.6,0-5.5c0-0.8,0-0.8-0.9-0.8c-5.2,0-10.4,0-15.6,0c-0.5,0-0.7-0.1-0.7-0.7c0-2,0-4,0-6
		c0-0.4,0-0.9,0.1-1.3c0.8-3.2,3.3-5.1,6.6-5.2c1.5,0,3.1,0,4.6,0c0.5,0,0.6-0.1,0.6-0.6c0-1.9,0-3.9,0-5.8c0-0.5-0.2-0.6-0.6-0.6
		c-1.8,0-3.6,0-5.5,0c-2,0-3.9,0.5-5.6,1.5c-4.8,2.7-7.3,6.8-7.4,12.3C14.2,35.4,14.2,40.7,14.2,46.1z M62.8,63.6
		c0.3,0,0.6,0.1,0.8,0.1c3.3,0,6.7,0,10,0c2.2,0,4.3-0.4,6.3-1.4c4.6-2.3,7.3-6,7.6-11.2c0.3-4.7,0.1-9.5,0.1-14.2
		c0-0.5-0.3-0.5-0.6-0.5c-6.5,0-12.9,0-19.4,0c-0.6,0-0.7,0.2-0.7,0.7c0,1.8,0,3.7,0,5.5c0,0.8,0,0.8,0.8,0.8c4.1,0,8.1,0,12.2,0
		c0.6,0,0.7,0.2,0.7,0.8c0,1.9,0,3.7,0,5.6c0,4-2.9,6.8-6.8,6.8c-2,0-4,0-6.1,0c-0.4,0-0.7,0.1-0.8,0.5c-0.8,2.1-2,4.1-3.5,5.8
		C63.2,63.2,63.1,63.4,62.8,63.6z M156.3,26.3c0.1-0.1,0.3-0.2,0.5-0.2c3-1,3.8-4.2,2.6-6.7c-0.9-1.8-2.5-2.5-4.4-2.6
		c-2.7-0.2-5.5-0.1-8.3-0.2c-0.5,0-0.5,0.2-0.5,0.6c0,6.4,0,12.8,0,19.1c0,0.4,0.1,0.6,0.6,0.6c1.7,0,3.4,0,5.1,0
		c1.3,0,2.6,0,3.8-0.2c2.7-0.4,4.5-2.2,4.7-4.8c0.2-1.8-0.2-3.4-1.8-4.5C157.9,26.9,157.1,26.7,156.3,26.3z M201.9,20.4
		c0.1-1,0.2-2,0.2-3c0-0.1-0.2-0.4-0.4-0.4c-3.1-0.8-6.3-1-9.4-0.2c-2.9,0.8-5.1,2.5-6.3,5.3c-0.9,2.1-1.1,4.4-0.8,6.7
		c0.5,4.4,3.3,7.1,7.3,8.1c3.3,0.8,6.6,0.3,9.9-0.6c0.3-0.1,0.4-0.2,0.4-0.5c0-3.3,0-6.6,0-10c0-0.4-0.2-0.5-0.5-0.5
		c-2.4,0-4.8,0-7.3,0c-0.3,0-0.5,0.1-0.5,0.5c0,0.7,0,1.4,0,2.2c0,0.5,0.2,0.6,0.6,0.6c1,0,2,0,3.1,0c0.4,0,0.6,0.1,0.6,0.6
		c0,1.4,0,2.8,0,4.2c0,0.4-0.2,0.6-0.5,0.6c-0.5,0.1-1,0.1-1.5,0.1c-2.6,0.1-4.9-0.6-6.3-2.9c-1.3-2-1.5-4.2-0.9-6.5
		c0.6-2.2,1.9-3.8,4-4.6c1.5-0.6,3.1-0.7,4.7-0.4C199.5,19.8,200.6,20.1,201.9,20.4z M80.6,29.9c0.3,0,0.5,0,0.7,0
		c1.8,0,3.6,0,5.3,0c1,0,1,0,0.9-0.9c0-0.1,0-0.2,0-0.2c-0.3-3.7-1.9-6.8-4.8-9.2c-2.3-1.9-4.9-3.1-7.9-3.2c-3.9-0.1-7.7,0-11.6,0
		c-0.1,0-0.2,0-0.3,0.1c0,0.1,0,0.1,0,0.2c0.1,0.1,0.1,0.2,0.2,0.2c1.6,1.8,2.8,3.9,3.7,6.1c0.1,0.3,0.3,0.4,0.7,0.4
		c2.1,0,4.1,0,6.2,0c1.9,0,3.5,0.6,4.9,1.9C79.9,26.5,80.5,28,80.6,29.9z M121.3,24.8c-0.3,0-0.6,0-0.8,0c-1.8,0-3.6,0-5.3,0
		c-0.5,0-0.7-0.2-0.7-0.7c0-1.2,0-2.4,0-3.6c0-0.5,0.1-0.7,0.7-0.7c1.9,0,3.9,0,5.8,0c0.6,0,0.8-0.2,0.7-0.8c0-0.6,0-1.2,0-1.8
		c0-0.6-0.2-0.7-0.8-0.7c-3.3,0-6.5,0-9.8,0c-0.8,0-0.8,0-0.8,0.8c0,3.8,0,7.5,0,11.3c0,2.5,0,5,0,7.6c0,0.5,0.2,0.7,0.7,0.7
		c0.9,0,1.9,0,2.8,0c0.6,0,0.7-0.2,0.7-0.7c0-2.5,0-5,0-7.4c0-0.6,0.2-0.8,0.8-0.8c1.8,0,3.7,0,5.5,0c0.2,0,0.5-0.2,0.5-0.3
		C121.3,26.8,121.3,25.8,121.3,24.8z M141.2,63.4c-0.2-0.6-0.4-1.1-0.6-1.5c-2-5-3.9-9.9-5.9-14.9c-0.1-0.4-0.3-0.5-0.7-0.5
		c-0.9,0-1.8,0-2.6,0c-0.5,0-0.8,0.2-1,0.7c-1.7,4.4-3.5,8.9-5.2,13.3c-0.4,1-0.7,2-1.2,3c1,0,1.9,0,2.8,0c0.6,0,0.9-0.2,1-0.7
		c0.3-0.9,0.7-1.7,1-2.6c0.1-0.4,0.4-0.5,0.8-0.5c1.9,0,3.8,0,5.8,0c0.4,0,0.6,0.2,0.7,0.5c0.3,1,0.7,1.9,1.1,2.9
		c0.1,0.2,0.2,0.4,0.4,0.4C138.8,63.4,139.9,63.4,141.2,63.4z M190.5,63.4c0-0.2,0-0.3-0.1-0.5c-2.1-5.3-4.2-10.7-6.3-16
		c-0.1-0.4-0.3-0.5-0.7-0.5c-0.9,0-1.9,0-2.8,0c-0.4,0-0.6,0.1-0.7,0.5c-1.8,4.6-3.6,9.3-5.4,13.9c-0.3,0.8-0.6,1.6-1,2.5
		c1.2,0,2.2,0,3.3,0c0.1,0,0.3-0.2,0.4-0.4c0.4-0.9,0.8-1.9,1.1-2.8c0.2-0.5,0.4-0.7,0.9-0.6c1.9,0,3.7,0,5.6,0
		c0.5,0,0.7,0.2,0.9,0.6c0.3,1,0.7,1.9,1.1,2.9c0.1,0.2,0.3,0.3,0.4,0.4C188.2,63.4,189.3,63.4,190.5,63.4z M143.1,54.9
		c0,2.6,0,5.3,0,7.9c0,0.5,0.1,0.6,0.6,0.6c0.7,0,1.5,0,2.2,0c0.5,0,0.6-0.1,0.6-0.6c0-1.7,0-3.4,0-5.2c0-0.5,0.2-0.6,0.7-0.7
		c0.9,0,1.7-0.1,2.6-0.2c1.2-0.2,2.3-0.5,3.2-1.4c1.6-1.5,1.7-3.3,1.3-5.3c-0.3-1.4-1.1-2.3-2.4-2.9c-1.1-0.5-2.3-0.8-3.5-0.8
		c-1.5,0-3.1,0-4.6-0.1c-0.6,0-0.8,0.1-0.8,0.7C143.1,49.7,143.1,52.3,143.1,54.9z M123.2,60.4c-1,0.2-2,0.4-3,0.5
		c-2.7,0.4-5.1-1-6-3.5c-0.5-1.4-0.6-2.8-0.3-4.2c0.5-2,1.6-3.4,3.5-4.1c1.6-0.6,3.2-0.4,4.8,0.2c0.2,0.1,0.5,0.2,0.8,0.3
		c0.1-0.9,0.1-1.6,0.2-2.4c0-0.4-0.1-0.6-0.5-0.7c-2.1-0.6-4.3-0.7-6.4-0.1c-2.6,0.7-4.6,2.2-5.5,4.8c-0.7,1.8-0.8,3.7-0.5,5.6
		c0.4,2.4,1.5,4.3,3.7,5.5c2.9,1.5,5.9,1.5,9,0.8c0.2,0,0.4-0.3,0.4-0.4C123.3,62,123.2,61.2,123.2,60.4z M170.1,63.4
		c0-0.3,0-0.5,0-0.8c0-4.2,0-8.4,0-12.6c0-0.6,0.2-0.8,0.8-0.8c1.1,0,2.3,0,3.4,0c0.5,0,0.7-0.1,0.7-0.6s0-1.1,0-1.6
		c0-0.4-0.1-0.5-0.5-0.5c-4.1,0-8.1,0-12.2,0c-0.4,0-0.5,0.1-0.5,0.5c0,0.6,0,1.1,0,1.7c0,0.5,0.2,0.6,0.6,0.6c1.2,0,2.4,0,3.5,0
		c0.6,0,0.8,0.2,0.8,0.8c0,4.2,0,8.5,0,12.7c0,0.2,0,0.5,0,0.7C167.9,63.4,169,63.4,170.1,63.4z M192.7,54.9c0,2.6,0,5.2,0,7.9
		c0,0.5,0.1,0.7,0.6,0.7c1.1,0,2.3,0,3.4,0c1.8,0,3.5,0,5.3,0c0.5,0,0.8-0.1,0.7-0.7c-0.1-0.5,0-0.9,0-1.4s-0.2-0.6-0.7-0.6
		c-1.5,0-3,0-4.4,0c-1.5,0-1.5,0-1.5-1.5c0-4,0-8.1,0-12.1c0-0.5-0.2-0.7-0.7-0.7c-0.7,0-1.4,0-2,0s-0.7,0.2-0.7,0.8
		C192.7,49.7,192.7,52.3,192.7,54.9z M156.6,55c0,2.6,0,5.2,0,7.8c0,0.5,0.1,0.7,0.6,0.7c0.7,0,1.4,0,2.1,0c0.6,0,0.7-0.2,0.7-0.7
		c0-2.7,0-5.3,0-8c0-2.5,0-5,0-7.6c0-0.6-0.1-0.8-0.7-0.8c-0.6,0-1.2,0-1.9,0c-0.8,0-0.8,0-0.8,0.8C156.6,49.8,156.6,52.4,156.6,55z
		 M173.8,26.7c0-2.9,0-5.8,0-8.7c0-1.3,0-1.3-1.3-1.3c-0.8,0-0.8,0-0.8,0.8c0,5.9,0,11.8,0,17.7c0,1.3,0,1.3,1.3,1.4
		c0.6,0,0.8-0.2,0.8-0.8C173.8,32.8,173.8,29.8,173.8,26.7z M132.9,26.7c0,2.9,0,5.8,0,8.8c0,1.4-0.2,1.2,1.3,1.2
		c0.8,0,0.8,0,0.8-0.8c0-5.9,0-11.8,0-17.7c0-1.4,0-1.3-1.4-1.4c-0.6,0-0.7,0.2-0.7,0.7C132.9,20.5,132.9,23.6,132.9,26.7z"/>
	<path d="M28.4,56.6c0.3,0,0.5,0,0.8,0c6.4,0,12.8,0,19.2,0c3.3,0,6.2-2.3,6.6-5.5c0.5-3.3-1.5-6.5-4.7-7.3
		c-1.2-0.3-2.6-0.2-3.9-0.3c-0.9,0-0.9,0-0.9-0.9c0-1.8,0-3.5,0-5.3c0-0.8,0-0.8,0.8-0.8c1.2,0,2.5,0,3.6-0.2c2.5-0.5,4.1-2,4.9-4.4
		c0.8-2.4,0.2-4.6-1.5-6.4c-1.3-1.5-3.1-2.1-5-2.1c-2.5,0-4.9,0-7.4,0c-0.5,0-0.7-0.1-0.7-0.7c0-1.9,0-3.8,0-5.8
		c0-0.4,0.1-0.6,0.5-0.6c2.9,0,5.8-0.1,8.7,0c3.2,0.1,6,1.4,8.3,3.5c3.9,3.6,5.1,8.1,4,13.3c-0.5,2.4-1.7,4.5-3.5,6.3
		c-0.4,0.4-0.5,0.6,0,1.1c5.4,5.4,5.2,14.2-0.3,19.5c-2.4,2.3-5.3,3.6-8.6,3.6c-6.8,0.1-13.5,0.1-20.3,0.1c-0.3,0-0.7,0-0.7-0.5
		c0-2.1,0-4.2,0-6.3C28.3,56.9,28.4,56.8,28.4,56.6z"/>
	<path d="M14.2,46.1c0-5.3,0-10.6,0-15.9c0-5.5,2.5-9.7,7.4-12.3c1.7-1,3.6-1.5,5.6-1.5c1.8,0,3.6,0,5.5,0c0.5,0,0.6,0.1,0.6,0.6
		c0,1.9,0,3.9,0,5.8c0,0.5-0.2,0.6-0.6,0.6c-1.5,0-3.1,0-4.6,0c-3.3,0-5.8,2-6.6,5.2c-0.1,0.4-0.1,0.9-0.1,1.3c0,2,0,4,0,6
		c0,0.5,0.2,0.7,0.7,0.7c5.2,0,10.4,0,15.6,0c0.9,0,0.9,0,0.9,0.8c0,1.8,0,3.6,0,5.5c0,0.6-0.2,0.7-0.7,0.7c-5.2,0-10.4,0-15.6,0
		c-0.9,0-0.9,0-0.9,0.8c0,6.2,0,12.4,0,18.5c0,0.9,0,0.9-0.9,0.9c-1.8,0-3.6,0-5.3,0c-0.8,0-0.9,0-0.9-0.9
		C14.2,57.3,14.2,51.7,14.2,46.1z"/>
	<path d="M62.8,63.6c0.2-0.3,0.4-0.5,0.5-0.7c1.5-1.8,2.7-3.7,3.5-5.8c0.2-0.4,0.4-0.5,0.8-0.5c2,0,4,0,6.1,0c4,0,6.8-2.9,6.8-6.8
		c0-1.9,0-3.7,0-5.6c0-0.6-0.1-0.8-0.7-0.8c-4.1,0-8.1,0-12.2,0c-0.8,0-0.8,0-0.8-0.8c0-1.8,0-3.7,0-5.5c0-0.5,0.1-0.7,0.7-0.7
		c6.5,0,12.9,0,19.4,0c0.4,0,0.6,0,0.6,0.5c0,4.7,0.2,9.5-0.1,14.2c-0.3,5.1-3,8.8-7.6,11.2c-2,1-4.1,1.4-6.3,1.4c-3.3,0-6.7,0-10,0
		C63.4,63.7,63.2,63.7,62.8,63.6z"/>
	<path d="M156.3,26.3c0.8,0.3,1.6,0.6,2.3,1.1c1.6,1,2,2.6,1.8,4.5c-0.3,2.6-2,4.4-4.7,4.8c-1.3,0.2-2.5,0.2-3.8,0.2
		c-1.7,0-3.4,0-5.1,0c-0.4,0-0.6-0.1-0.6-0.6c0-6.4,0-12.8,0-19.1c0-0.4,0.1-0.6,0.5-0.6c2.8,0.1,5.5,0,8.3,0.2
		c1.8,0.1,3.5,0.8,4.4,2.6c1.2,2.5,0.5,5.7-2.6,6.7C156.6,26.2,156.4,26.3,156.3,26.3z M150.3,30.7c0,0.8,0,1.6,0,2.4
		c0,0.4,0.1,0.6,0.5,0.6c1-0.1,2.1-0.1,3.1-0.2c1.4-0.2,2.3-1.2,2.4-2.4c0.1-1.5-0.5-2.6-2-2.9c-1.2-0.3-2.4-0.2-3.7-0.3
		c-0.1,0-0.3,0.3-0.3,0.5C150.3,29.2,150.3,30,150.3,30.7z M150.3,22.3c0,0.7,0,1.4,0,2c0,0.3,0.1,0.5,0.4,0.4
		c1.1-0.1,2.1-0.1,3.2-0.3c1.2-0.2,1.8-1,1.9-2.1c0-1.3-0.4-2.1-1.7-2.4c-1.1-0.2-2.3-0.2-3.4-0.2c-0.1,0-0.3,0.3-0.3,0.5
		C150.3,21,150.3,21.7,150.3,22.3z"/>
	<path d="M201.9,20.4c-1.2-0.3-2.4-0.6-3.5-0.8c-1.6-0.3-3.2-0.2-4.7,0.4c-2.1,0.8-3.5,2.4-4,4.6c-0.6,2.3-0.4,4.5,0.9,6.5
		c1.5,2.3,3.7,3.1,6.3,2.9c0.5,0,1-0.1,1.5-0.1c0.3,0,0.5-0.2,0.5-0.6c0-1.4,0-2.8,0-4.2c0-0.5-0.2-0.6-0.6-0.6c-1,0-2,0-3.1,0
		c-0.4,0-0.7-0.1-0.6-0.6c0-0.7,0-1.4,0-2.2c0-0.3,0.1-0.5,0.5-0.5c2.4,0,4.8,0,7.3,0c0.4,0,0.5,0.1,0.5,0.5c0,3.3,0,6.6,0,10
		c0,0.3-0.1,0.5-0.4,0.5c-3.3,0.9-6.5,1.3-9.9,0.6c-4.1-0.9-6.8-3.6-7.3-8.1c-0.3-2.3-0.1-4.5,0.8-6.7c1.2-2.8,3.4-4.6,6.3-5.3
		c3.1-0.8,6.3-0.6,9.4,0.2c0.2,0,0.4,0.3,0.4,0.4C202.1,18.4,202,19.4,201.9,20.4z"/>
	<path d="M80.6,29.9c-0.1-1.9-0.7-3.4-2-4.6c-1.4-1.3-3-1.9-4.9-1.9c-2.1,0-4.1,0-6.2,0c-0.3,0-0.5-0.1-0.7-0.4
		c-0.9-2.3-2.2-4.3-3.7-6.1c-0.1-0.1-0.1-0.2-0.2-0.2c0,0,0-0.1,0-0.2c0.1,0,0.2-0.1,0.3-0.1c3.9,0,7.7-0.1,11.6,0
		c3,0.1,5.6,1.2,7.9,3.2c2.8,2.4,4.4,5.5,4.8,9.2c0,0.1,0,0.2,0,0.2c0,0.9,0,0.9-0.9,0.9c-1.8,0-3.6,0-5.3,0
		C81.1,29.9,80.9,29.9,80.6,29.9z"/>
	<path d="M121.3,24.8c0,1,0,1.9,0,2.9c0,0.1-0.3,0.3-0.5,0.3c-1.8,0-3.7,0-5.5,0c-0.6,0-0.8,0.2-0.8,0.8c0,2.5,0,5,0,7.4
		c0,0.5-0.1,0.7-0.7,0.7c-0.9,0-1.9,0-2.8,0c-0.5,0-0.7-0.1-0.7-0.7c0-2.5,0-5,0-7.6c0-3.8,0-7.5,0-11.3c0-0.8,0-0.8,0.8-0.8
		c3.3,0,6.5,0,9.8,0c0.6,0,0.8,0.2,0.8,0.7c0,0.6,0,1.2,0,1.8c0,0.6-0.2,0.8-0.7,0.8c-1.9,0-3.9,0-5.8,0c-0.5,0-0.7,0.2-0.7,0.7
		c0,1.2,0,2.4,0,3.6c0,0.5,0.1,0.7,0.7,0.7c1.8,0,3.6,0,5.3,0C120.7,24.8,120.9,24.8,121.3,24.8z"/>
	<path d="M141.2,63.4c-1.3,0-2.4,0-3.6,0c-0.1,0-0.3-0.2-0.4-0.4c-0.4-1-0.7-1.9-1.1-2.9c-0.1-0.4-0.3-0.5-0.7-0.5
		c-1.9,0-3.8,0-5.8,0c-0.4,0-0.6,0.1-0.8,0.5c-0.3,0.9-0.7,1.7-1,2.6c-0.2,0.6-0.5,0.7-1,0.7c-0.9,0-1.8,0-2.8,0
		c0.4-1.1,0.8-2,1.2-3c1.7-4.4,3.5-8.9,5.2-13.3c0.2-0.5,0.4-0.7,1-0.7c0.9,0,1.8,0,2.6,0c0.4,0,0.6,0.1,0.7,0.5
		c1.9,5,3.9,9.9,5.9,14.9C140.8,62.3,140.9,62.8,141.2,63.4z M132.4,50c-0.8,2.1-1.5,4.2-2.2,6.3c-0.1,0.3,0.1,0.5,0.4,0.5
		c1.3,0,2.6,0,3.8,0c0.3,0,0.5-0.1,0.4-0.5c-0.7-2-1.4-4-2.1-6C132.7,50.3,132.6,50.2,132.4,50z"/>
	<path d="M190.5,63.4c-1.2,0-2.3,0-3.4,0c-0.1,0-0.3-0.2-0.4-0.4c-0.4-0.9-0.7-1.9-1.1-2.9c-0.2-0.5-0.4-0.7-0.9-0.6
		c-1.9,0-3.7,0-5.6,0c-0.5,0-0.7,0.2-0.9,0.6c-0.3,1-0.7,1.9-1.1,2.8c-0.1,0.2-0.3,0.4-0.4,0.4c-1.1,0-2.1,0-3.3,0
		c0.3-0.9,0.6-1.7,1-2.5c1.8-4.6,3.6-9.3,5.4-13.9c0.1-0.4,0.3-0.5,0.7-0.5c0.9,0,1.9,0,2.8,0c0.4,0,0.6,0.1,0.7,0.5
		c2.1,5.3,4.2,10.7,6.3,16C190.5,63.1,190.5,63.2,190.5,63.4z M182,50.1c-0.1,0-0.1,0-0.2,0c-0.8,2.2-1.5,4.4-2.3,6.6
		c1.7,0,3.2,0,4.9,0C183.5,54.5,182.8,52.3,182,50.1z"/>
	<path d="M143.1,54.9c0-2.6,0-5.2,0-7.7c0-0.6,0.2-0.7,0.8-0.7c1.5,0,3.1,0,4.6,0.1c1.2,0,2.4,0.3,3.5,0.8c1.2,0.6,2.1,1.5,2.4,2.9
		c0.4,1.9,0.2,3.8-1.3,5.3c-0.9,0.9-2,1.2-3.2,1.4c-0.8,0.1-1.7,0.2-2.6,0.2c-0.5,0-0.7,0.1-0.7,0.7c0,1.7,0,3.4,0,5.2
		c0,0.5-0.1,0.6-0.6,0.6c-0.7,0-1.5,0-2.2,0c-0.5,0-0.6-0.2-0.6-0.6C143.1,60.2,143.1,57.5,143.1,54.9z M146.5,51.7
		c0,0.7,0,1.4,0,2.1c0,0.3,0,0.5,0.4,0.5c0.8-0.1,1.6-0.1,2.3-0.2c1.1-0.3,1.6-1.1,1.6-2.1c0-1.3-0.5-2.2-1.5-2.5
		c-0.7-0.2-1.5-0.2-2.3-0.3c-0.4,0-0.5,0.2-0.5,0.5C146.5,50.3,146.5,51,146.5,51.7z"/>
	<path d="M123.2,60.4c0,0.8,0.1,1.6,0.1,2.3c0,0.1-0.2,0.4-0.4,0.4c-3.1,0.7-6.1,0.7-9-0.8c-2.2-1.2-3.3-3.1-3.7-5.5
		c-0.3-1.9-0.2-3.8,0.5-5.6c1-2.6,2.9-4.2,5.5-4.8c2.1-0.5,4.3-0.5,6.4,0.1c0.4,0.1,0.5,0.3,0.5,0.7c-0.1,0.7-0.1,1.5-0.2,2.4
		c-0.4-0.1-0.6-0.2-0.8-0.3c-1.6-0.6-3.2-0.7-4.8-0.2c-2,0.7-3.1,2.2-3.5,4.1c-0.3,1.4-0.3,2.8,0.3,4.2c0.9,2.5,3.3,3.8,6,3.5
		C121.2,60.8,122.1,60.6,123.2,60.4z"/>
	<path d="M170.1,63.4c-1.2,0-2.2,0-3.4,0c0-0.3,0-0.5,0-0.7c0-4.2,0-8.5,0-12.7c0-0.6-0.2-0.8-0.8-0.8c-1.2,0-2.4,0-3.5,0
		c-0.4,0-0.6-0.1-0.6-0.6c0-0.6,0-1.1,0-1.7c0-0.4,0.1-0.5,0.5-0.5c4.1,0,8.1,0,12.2,0c0.4,0,0.5,0.1,0.5,0.5c0,0.5,0,1.1,0,1.6
		s-0.2,0.6-0.7,0.6c-1.1,0-2.3,0-3.4,0c-0.6,0-0.8,0.2-0.8,0.8c0,4.2,0,8.4,0,12.6C170.1,62.8,170.1,63.1,170.1,63.4z"/>
	<path d="M192.7,54.9c0-2.6,0-5.2,0-7.7c0-0.6,0.1-0.8,0.7-0.8c0.7,0,1.4,0,2,0c0.5,0,0.7,0.2,0.7,0.7c0,4,0,8.1,0,12.1
		c0,1.5,0,1.5,1.5,1.5s3,0,4.4,0c0.5,0,0.7,0.1,0.7,0.6s-0.1,0.9,0,1.4c0.1,0.6-0.2,0.7-0.7,0.7c-1.8,0-3.5,0-5.3,0
		c-1.1,0-2.3,0-3.4,0c-0.5,0-0.6-0.2-0.6-0.7C192.7,60.1,192.7,57.5,192.7,54.9z"/>
	<path d="M156.6,55c0-2.6,0-5.2,0-7.7c0-0.8,0-0.8,0.8-0.8c0.6,0,1.2,0,1.9,0c0.6,0,0.7,0.2,0.7,0.8c0,2.5,0,5,0,7.6
		c0,2.7,0,5.3,0,8c0,0.5-0.1,0.8-0.7,0.7c-0.7,0-1.4,0-2.1,0c-0.5,0-0.6-0.2-0.6-0.7C156.6,60.2,156.6,57.6,156.6,55z"/>
	<path d="M173.8,26.7c0,3.1,0,6.1,0,9.2c0,0.6-0.1,0.8-0.8,0.8c-1.3,0-1.3,0-1.3-1.4c0-5.9,0-11.8,0-17.7c0-0.8,0-0.8,0.8-0.8
		c1.3,0,1.3,0,1.3,1.3C173.8,20.9,173.8,23.8,173.8,26.7z"/>
	<path d="M132.9,26.7c0-3.1,0-6.2,0-9.2c0-0.5,0.1-0.7,0.7-0.7c1.4,0,1.4,0,1.4,1.4c0,5.9,0,11.8,0,17.7c0,0.8,0,0.8-0.8,0.8
		c-1.4,0-1.2,0.2-1.3-1.2C132.9,32.5,132.9,29.6,132.9,26.7z"/>
	<path class="st0" d="M150.3,30.7c0-0.8,0-1.6,0-2.3c0-0.2,0.2-0.5,0.3-0.5c1.2,0,2.5,0,3.7,0.3c1.5,0.3,2.1,1.4,2,2.9
		c-0.1,1.2-1,2.2-2.4,2.4c-1,0.1-2.1,0.1-3.1,0.2c-0.4,0-0.5-0.2-0.5-0.6C150.3,32.3,150.3,31.5,150.3,30.7z"/>
	<path class="st0" d="M150.3,22.3c0-0.7,0-1.3,0-2c0-0.2,0.2-0.5,0.3-0.5c1.1,0,2.3,0,3.4,0.2c1.3,0.3,1.7,1,1.7,2.4
		c0,1.1-0.7,1.9-1.9,2.1c-1,0.2-2.1,0.2-3.2,0.3c-0.3,0-0.4-0.1-0.4-0.4C150.3,23.7,150.3,23,150.3,22.3z"/>
	<path class="st0" d="M132.4,50c0.1,0.2,0.2,0.2,0.3,0.3c0.7,2,1.4,4,2.1,6c0.1,0.3,0,0.5-0.4,0.5c-1.3,0-2.6,0-3.8,0
		c-0.3,0-0.5-0.1-0.4-0.5C130.9,54.3,131.7,52.2,132.4,50z"/>
	<path class="st0" d="M182,50.1c0.8,2.2,1.5,4.4,2.3,6.7c-1.6,0-3.2,0-4.9,0c0.8-2.3,1.6-4.5,2.3-6.6
		C181.9,50.1,181.9,50.1,182,50.1z"/>
	<path class="st0" d="M146.5,51.7c0-0.7,0-1.3,0-2c0-0.4,0.1-0.6,0.5-0.5c0.8,0.1,1.6,0.1,2.3,0.3c1.1,0.3,1.6,1.2,1.5,2.5
		c0,1.1-0.6,1.9-1.6,2.1c-0.7,0.2-1.5,0.2-2.3,0.2c-0.4,0-0.4-0.2-0.4-0.5C146.5,53.1,146.5,52.4,146.5,51.7z"/>
</g>
</svg>
