<?xml version="1.0" encoding="utf-8"?>
<!-- Generator: Adobe Illustrator 21.1.0, SVG Export Plug-In . SVG Version: 6.00 Build 0)  -->
<svg version="1.1" id="图层_1" xmlns="http://www.w3.org/2000/svg" xmlns:xlink="http://www.w3.org/1999/xlink" x="0px" y="0px"
	 viewBox="0 0 217 80" style="enable-background:new 0 0 217 80;" xml:space="preserve">
<style type="text/css">
	.st0{fill:#FFFFFF;}
</style>
<rect class="st0" width="217" height="80"/>
<g>
	<path d="M59.6,62.4l0-13.4c0-0.2-0.1-0.3-0.3-0.3c-0.1,0-0.3,0.1-0.3,0.2c-0.1,0.2-0.2,0.4-0.2,0.6c-0.4,1.7-1,3.2-1.8,4.8
		c-0.7,1.4-1.5,2.6-2.6,3.8c-1.3,1.4-2.8,2.4-4.7,2.9c-1,0.3-2.1,0.5-3.1,0.6c-4.1,0-8.2,0-12.3,0c-0.2,0-0.3,0-0.5-0.1
		c0-0.3,0-0.5,0-0.7c0-5.7,0-11.4,0-17.2c0-8.1,0-16.2,0-24.3c0-0.2,0-0.3,0-0.5c0-0.2,0.1-0.3,0.3-0.3c0.1,0,0.3,0,0.4,0
		c1.9,0,4.5,0,6.4,0l0-0.9c-6.4,0-14.2,0-20.7,0l0,0.9c2.4,0,4.7,0,7.1,0c0,7.2,0,14.4,0,21.5c0,7.1,0,14.3,0,21.5
		c-2.4,0-4.7,0-7.1,0c0,0.3,0,0.5,0,0.8c0.3,0,0.5,0,0.6,0C33.6,62.4,46.9,62.4,59.6,62.4"/>
	<path d="M104.6,35.2c0-0.1-0.1-0.4-0.1-0.4c-0.1-0.5-0.2-1.1-0.4-1.6c-0.7-2.5-1.8-4.7-3.3-6.8c-0.9-1.2-1.9-2.3-3-3.2
		c-1.1-0.9-2.2-1.7-3.4-2.3c-1.3-0.7-2.7-1.3-4.2-1.8c-1.2-0.4-2.5-0.8-3.8-1c-1-0.2-2-0.3-3-0.4c-0.7-0.1-1.4-0.1-2-0.1
		c-1.1,0-2.3-0.1-3.4-0.1c-0.7,0-1.4,0.1-2.1,0.1c-0.6,0-1.2,0.1-1.9,0.1c0.1,0.8,0.1,0.8,0.8,0.8c0.8,0,1.7-0.1,2.5-0.1
		c2,0,3.9,0,5.9,0.4c0.9,0.2,1.8,0.3,2.7,0.6c1.1,0.3,2.2,0.8,3.2,1.3c1.2,0.7,2.3,1.5,3.3,2.4c1.4,1.5,2.5,3.2,3.3,5.1
		c0.8,2.1,1.3,4.2,1.6,6.4c0,0.2,0.1,0.8,0.1,0.8L104.6,35.2z"/>
	<path d="M104.7,44c0,0,0,0.2-0.1,0.5c-0.3,1.6-0.7,3.2-1.4,4.7c-0.7,1.6-1.5,3.1-2.5,4.5c-1.2,1.6-2.6,3.1-4.3,4.2
		c-1.1,0.8-2.3,1.6-3.5,2.2c-1.5,0.8-3.1,1.4-4.8,1.8c-1.3,0.3-2.6,0.5-3.8,0.6c-2.7,0.2-5.5,0.1-8.2,0.1c-0.4,0-0.8,0-1.3-0.1
		c-0.7-0.1-0.7-0.2-0.5-0.7c0.9,0,1.7,0,2.5,0c1.5,0,3,0.1,4.5-0.1c1.5-0.1,3.1-0.2,4.6-0.6c2.3-0.6,4.2-1.7,5.9-3.3
		c0.9-0.9,1.7-1.9,2.2-3c0.5-0.9,0.9-1.8,1.4-2.7c0.6-1.3,1.1-2.8,1.4-4.2c0.2-1.2,0.4-2.3,0.5-3.5c0-0.1,0-0.4,0-0.4L104.7,44z"/>
	<rect x="67.6" y="6" width="1.4" height="68"/>
	<g id="_x39_5Lvxl_1_">
		<g>
			<path class="st0" d="M114.9,42.1c0,0,0,0.1,0,0.1c-9.1,0-18.1,0-27.2,0c0,0,0.1,0,0.1,0c0.4,0,0.8-0.2,1.1-0.6
				c0.3-0.3,0.4-0.7,0.5-1.1c-0.2,0-0.3,0-0.5,0c-0.1,0.1-0.1,0.3-0.1,0.4c-0.2,0.5-0.6,0.8-1.1,0.8c-0.5,0-1-0.2-1.3-0.6
				c-0.5-0.8-0.5-1.6-0.1-2.4c0.2-0.3,0.4-0.6,0.8-0.8c0.7-0.3,1.5,0,1.9,0.7c0,0.1,0.1,0.1,0.1,0.1c0.1,0,0.3,0,0.5,0
				c-0.2-0.6-0.5-1.1-1.2-1.3c-0.2-0.1-0.3-0.1-0.5-0.1c9.1,0,18.1,0,27.2,0c0,1.4,0,2.8,0,4.2c-0.8,0-1.5,0-2.3,0c0-1.4,0-2.7,0-4
				c-0.2,0-0.3,0-0.5,0c0,1.5,0,3,0,4.5C113.1,42.1,114,42.1,114.9,42.1z M94.4,42.1c0-0.1,0-0.1-0.1-0.2c-0.5-1.3-0.9-2.6-1.4-3.8
				c-0.1-0.2-0.1-0.4-0.2-0.4c-0.1-0.1-0.3,0-0.5,0c-0.1,0-0.2,0.1-0.2,0.2c-0.4,1.2-0.8,2.3-1.3,3.5c-0.1,0.3-0.2,0.6-0.3,0.9
				c0.2,0,0.4,0,0.5,0c0.2-0.4,0.3-0.8,0.4-1.2c0-0.1,0.1-0.1,0.2-0.1c0.6,0,1.1,0,1.7,0c0.1,0,0.1,0,0.2,0.1
				c0.1,0.4,0.3,0.8,0.4,1.1c0,0,0.1,0.1,0.1,0.1C94.1,42.1,94.3,42.1,94.4,42.1z M107.6,42.1c0.1-0.4,0.3-0.8,0.4-1.2
				c0-0.1,0.1-0.1,0.2-0.1c0.5,0,1.1,0,1.6,0c0.1,0,0.2,0,0.2,0.1c0.1,0.4,0.3,0.7,0.4,1.1c0,0,0.1,0.1,0.1,0.1c0.1,0,0.3,0,0.4,0
				c0,0,0,0,0-0.1c-0.5-1.4-1.1-2.9-1.6-4.3c0-0.1-0.1-0.1-0.1-0.1c-0.1,0-0.3,0-0.4,0c-0.1,0-0.2,0-0.2,0.1c-0.5,1.4-1,2.8-1.5,4.2
				c0,0,0,0.1,0,0.2C107.2,42.1,107.4,42.1,107.6,42.1z M96.1,40.2c0.4,0,0.8,0,1.2,0c0.1,0,0.2,0,0.2,0c0.7-0.1,1.2-0.7,1.1-1.4
				c-0.1-0.7-0.6-1.2-1.3-1.2c-0.5,0-1.1,0-1.6,0c0,0-0.1,0-0.1,0c0,1.5,0,3,0,4.5c0.2,0,0.3,0,0.5,0C96.1,41.5,96.1,40.9,96.1,40.2
				z M104.5,42.1c0-1.4,0-2.7,0-4.1c0.5,0,1,0,1.5,0c0-0.2,0-0.3,0-0.4c-1.2,0-2.3,0-3.4,0c0,0.1,0,0.3,0,0.4c0.5,0,1,0,1.5,0
				c0,1.4,0,2.7,0,4C104.2,42.1,104.3,42.1,104.5,42.1z M100.8,42.1c0-1.5,0-3,0-4.5c-0.2,0-0.3,0-0.5,0c0,1.5,0,3,0,4.5
				C100.5,42.1,100.7,42.1,100.8,42.1z"/>
			<path d="M87.8,37.5c0.2,0,0.3,0.1,0.5,0.1c0.6,0.2,1,0.7,1.2,1.3c-0.2,0-0.3,0-0.5,0c0,0-0.1-0.1-0.1-0.1
				c-0.3-0.7-1.1-1.1-1.9-0.7c-0.3,0.2-0.6,0.4-0.8,0.8c-0.4,0.8-0.3,1.6,0.1,2.4c0.3,0.4,0.7,0.7,1.3,0.6c0.5,0,0.9-0.3,1.1-0.8
				c0.1-0.1,0.1-0.3,0.1-0.4c0.2,0,0.3,0,0.5,0c-0.1,0.4-0.2,0.8-0.5,1.1c-0.3,0.3-0.7,0.5-1.1,0.6c0,0-0.1,0-0.1,0
				c-0.1,0-0.3,0-0.4,0c0,0-0.1,0-0.1,0c-0.6-0.1-1-0.3-1.3-0.8c-0.5-0.8-0.5-1.6-0.3-2.4c0.2-0.7,0.6-1.2,1.4-1.4
				c0.1,0,0.2-0.1,0.3-0.1C87.5,37.5,87.6,37.5,87.8,37.5z"/>
			<path d="M114.9,42.1c-0.9,0-1.8,0-2.7,0c0-1.5,0-3,0-4.5c0.2,0,0.3,0,0.5,0c0,1.3,0,2.7,0,4c0.8,0,1.5,0,2.3,0
				C114.9,41.8,114.9,42,114.9,42.1z"/>
			<path class="st0" d="M87.3,37.5c-0.1,0-0.2,0-0.3,0.1c-0.7,0.2-1.2,0.7-1.4,1.4c-0.2,0.8-0.2,1.7,0.3,2.4
				c0.3,0.5,0.8,0.8,1.3,0.8c0,0,0.1,0,0.1,0c-0.6,0-1.2,0-1.8,0c0-1.6,0-3.2,0-4.8C86.1,37.5,86.7,37.5,87.3,37.5z"/>
			<path d="M94.4,42.1c-0.2,0-0.3,0-0.4,0c0,0-0.1-0.1-0.1-0.1c-0.1-0.4-0.3-0.8-0.4-1.1c0-0.1-0.1-0.1-0.2-0.1c-0.6,0-1.1,0-1.7,0
				c-0.1,0-0.1,0-0.2,0.1c-0.1,0.4-0.3,0.8-0.4,1.2c-0.2,0-0.3,0-0.5,0c0.1-0.3,0.2-0.6,0.3-0.9c0.4-1.2,0.9-2.3,1.3-3.5
				c0-0.1,0.1-0.2,0.2-0.2c0.2,0,0.4,0,0.5,0c0.1,0.1,0.1,0.3,0.2,0.4c0.5,1.3,0.9,2.6,1.4,3.8C94.4,42,94.4,42.1,94.4,42.1z
				 M92.5,38.1c-0.3,0.8-0.5,1.5-0.8,2.2c0.5,0,1,0,1.6,0C93,39.6,92.7,38.9,92.5,38.1z"/>
			<path d="M107.6,42.1c-0.2,0-0.3,0-0.5,0c0-0.1,0-0.1,0-0.2c0.5-1.4,1-2.8,1.5-4.2c0-0.1,0.1-0.1,0.2-0.1c0.1,0,0.3,0,0.4,0
				c0.1,0,0.1,0,0.1,0.1c0.5,1.4,1.1,2.9,1.6,4.3c0,0,0,0,0,0.1c-0.2,0-0.3,0-0.4,0c0,0-0.1-0.1-0.1-0.1c-0.1-0.4-0.3-0.7-0.4-1.1
				c0-0.1-0.1-0.2-0.2-0.1c-0.5,0-1.1,0-1.6,0c-0.1,0-0.2,0-0.2,0.1C107.9,41.3,107.7,41.7,107.6,42.1z M109.8,40.3
				c-0.3-0.7-0.5-1.5-0.8-2.2c-0.3,0.8-0.5,1.5-0.8,2.2C108.8,40.3,109.3,40.3,109.8,40.3z"/>
			<path d="M96.1,40.2c0,0.6,0,1.3,0,1.9c-0.2,0-0.3,0-0.5,0c0-1.5,0-3,0-4.5c0,0,0.1,0,0.1,0c0.5,0,1.1,0,1.6,0
				c0.7,0,1.3,0.5,1.3,1.2c0.1,0.7-0.4,1.3-1.1,1.4c-0.1,0-0.2,0-0.2,0C96.9,40.2,96.5,40.2,96.1,40.2z M96.1,38.1
				c0,0.6,0,1.1,0,1.7c0,0,0,0,0.1,0c0.4,0,0.8,0,1.2,0c0.4,0,0.8-0.4,0.8-0.8c0-0.4-0.3-0.8-0.8-0.8C97,38.1,96.5,38.1,96.1,38.1z"
				/>
			<path d="M104.5,42.1c-0.2,0-0.3,0-0.5,0c0-1.3,0-2.7,0-4c-0.5,0-1,0-1.5,0c0-0.1,0-0.3,0-0.4c1.1,0,2.3,0,3.4,0
				c0,0.1,0,0.3,0,0.4c-0.5,0-1,0-1.5,0C104.5,39.4,104.5,40.8,104.5,42.1z"/>
			<path d="M100.8,42.1c-0.2,0-0.3,0-0.5,0c0-1.5,0-3,0-4.5c0.1,0,0.3,0,0.5,0C100.8,39.1,100.8,40.6,100.8,42.1z"/>
			<path class="st0" d="M92.5,38.1c0.3,0.8,0.5,1.5,0.8,2.2c-0.5,0-1,0-1.6,0C91.9,39.6,92.2,38.9,92.5,38.1z"/>
			<path class="st0" d="M109.8,40.3c-0.5,0-1.1,0-1.6,0c0.3-0.7,0.5-1.5,0.8-2.2C109.3,38.9,109.6,39.6,109.8,40.3z"/>
			<path class="st0" d="M96.1,38.1c0.4,0,0.9,0,1.3,0c0.5,0,0.8,0.4,0.8,0.8c0,0.4-0.4,0.8-0.8,0.8c-0.4,0-0.8,0-1.2,0
				c0,0,0,0-0.1,0C96.1,39.2,96.1,38.7,96.1,38.1z"/>
		</g>
	</g>
	<g id="Uzgq66_1_">
		<g>
			<path class="st0" d="M117.5,32.5c0-0.5,0-1.1,0-1.6c16.4,0,32.7,0,49.1,0c-0.6,1.7-1.6,3.1-2.9,4.4c0.3,0.3,0.5,0.5,0.8,0.8
				c0.6-0.7,1.1-1.5,1.7-2.2c0.1-0.2,0.3-0.3,0.5-0.3c0.7,0,1.5,0,2.2,0c0.1,0,0.2,0,0.3,0c-0.1,0.9-0.4,1.7-1,2.3
				c-0.9,1-2,1.6-3.2,2c-0.5,0.2-1.1,0.3-1.6,0.5c0.2,0.3,0.4,0.6,0.6,0.9c1-0.4,2.1-0.8,3.1-1.3c1.2-0.6,2.1-1.4,2.6-2.6
				c0,0,0,0,0.1,0c1.1,2.3,3.1,3.3,5.4,4c0.2-0.3,0.3-0.6,0.5-0.9c-0.8-0.3-1.6-0.5-2.3-0.9c-1.5-0.7-2.6-1.8-3.2-3.3
				c-0.2-0.5,0-0.7,0.4-0.7c1,0,2,0,3,0c0.1,0,0.2,0,0.4,0c-0.3,0.6-0.7,1.2-1,1.9c0.3,0.1,0.6,0.2,1,0.4c0.3-1.1,1.2-1.9,1-3.1
				c-2.7,0-5.4,0-8.2,0c0.2-0.5,0.5-1,0.7-1.4c-0.3-0.1-0.6-0.2-0.9-0.4c10,0,20,0,30,0c0,5.8,0,11.7,0,17.6c-26.4,0-52.8,0-79.2,0
				c0-5,0-9.9,0-14.9c0,0,0,0,0.1,0c4.6,0,9.2,0,13.9,0c0.1,0,0.2,0,0.3,0c-0.1,0.1-0.2,0.2-0.3,0.2c-1.9,1.2-3.7,2.4-5.6,3.6
				c-0.2,0.1-0.3,0.3-0.3,0.5c0,2.4,0,4.9,0,7.3c0,0.8-0.4,1.4-1.2,1.5c-0.6,0.1-1.1,0-1.7,0c-0.6,0-1.3,0-1.9,0
				c0.1,0.4,0.1,0.8,0.2,1.1c1.3,0,2.5,0.1,3.8,0c0.8,0,1.5-0.5,1.8-1.3c0.2-0.5,0.2-1,0.2-1.5c0-2.2,0-4.3,0-6.5
				c0-0.3,0.1-0.4,0.3-0.6c2-1.4,4-2.7,6.1-4.1c0.1-0.1,0.3-0.2,0.3-0.3c0-0.4,0-0.7,0-1.1c-0.2,0-0.3,0-0.5,0c-4.9,0-9.9,0-14.8,0
				C117.8,32.5,117.7,32.5,117.5,32.5z M180,45.2c3.5-2.5,6-5.9,7.4-9.9c0,2.8,0,5.7,0,8.6c-1.4,0-2.8,0-4.2,0c0,0.3,0,0.6,0,1
				c1.4,0,2.8,0,4.3,0c0,1.2,0,2.4,0,3.5c0.4,0,0.7,0,1.1,0c0-1.2,0-2.3,0-3.5c1.4,0,2.7,0,4.1,0c0-0.3,0-0.6,0-1
				c-1.4,0-2.7,0-4.1,0c0-2.9,0-5.7,0-8.6c1.5,4,3.9,7.2,7.4,9.7c0.3-0.3,0.5-0.6,0.8-1c-3.4-2.2-5.8-5.1-7.4-8.8c2.3,0,4.4,0,6.6,0
				c0-0.3,0-0.6,0-0.9c-2.5,0-5,0-7.5,0c0-1.1,0-2.2,0-3.2c-0.4,0-0.7,0-1.1,0c0,1.1,0,2.2,0,3.3c-2.5,0-5,0-7.5,0
				c0,0.3,0,0.6,0,0.9c2.2,0,4.4,0,6.6,0c-1.6,3.8-3.9,6.8-7.3,9.2C179.5,44.6,179.7,44.9,180,45.2z M144.6,38.2c3,0,6,0,9,0
				c0-2.1,0-4.2,0-6.3c-3,0-6,0-9,0C144.6,34,144.6,36,144.6,38.2z M154.8,40c-3.7,0-7.4,0-11.1,0c0,0.3,0,0.5,0,0.9
				c2.6,0,5.3,0,7.9,0c0,0.6,0,1.2,0,1.8c-2.9,0-5.8,0-8.6,0c0,0.3,0,0.6,0,0.9c2.9,0,5.8,0,8.7,0c0,0.9,0,1.7,0,2.5
				c0,0.8-0.3,1.1-1.1,1.1c-0.8,0-1.5,0-2.3-0.1c-0.1,0-0.2,0-0.4,0c0.1,0.4,0.2,0.7,0.3,0.9c1.1,0,2.1,0.1,3.1,0
				c0.8-0.1,1.3-0.6,1.4-1.4c0-0.6,0-1.2,0-1.8c0-0.4,0-0.8,0-1.3c0.9,0,1.7,0,2.6,0c0-0.3,0-0.6,0-0.9c-0.9,0-1.7,0-2.5,0
				c0-0.6,0-1.2,0-1.8c0.7,0,1.5,0,2.2,0C154.8,40.5,154.8,40.2,154.8,40z M162.2,45.1c0-1.4,0-2.9,0-4.3c3.4,0,6.7,0,10.1,0
				c0,1.5,0,2.9,0,4.3c0.3,0,0.6,0,0.9,0c0-1.7,0-3.5,0-5.2c-4,0-8,0-12.1,0c0,1.7,0,3.5,0,5.2C161.5,45.1,161.8,45.1,162.2,45.1z
				 M166.8,41.8c0,0.3,0,0.5,0,0.8c0,1.6-0.7,2.7-2.2,3.3c-0.8,0.3-1.7,0.6-2.5,0.9c-1,0.3-2,0.4-3,0.6c0.2,0.3,0.3,0.7,0.5,1
				c2.1-0.4,4.2-0.9,6-1.9c0.4-0.2,0.9-0.6,1.2-0.9c0.2-0.2,0.4-0.3,0.7-0.2c1.3,0.5,2.6,1,3.9,1.5c1.1,0.4,2.2,0.9,3.3,1.4
				c0.2-0.3,0.4-0.6,0.6-1c-2.6-1-5.2-1.9-7.7-2.9c0.1-0.9,0.2-1.7,0.2-2.6C167.4,41.8,167.1,41.8,166.8,41.8z M140.2,40.1
				c0,2.8,0,5.5,0,8.2c0.3,0,0.6,0,1,0c0-0.2,0-0.3,0-0.5c0-2.6,0-5.3,0-7.9c0-0.8,0.1-1.5,0.6-2.1c0.4-0.5,0.7-1.2,1.1-1.8
				c-0.3-0.2-0.6-0.3-0.9-0.4c0,0-0.1,0-0.1,0c-1.2,2.1-2.6,4-4.3,5.7c-0.1,0.1-0.1,0.2-0.1,0.3c0.1,0.3,0.2,0.5,0.4,0.9
				C138.8,41.6,139.5,40.9,140.2,40.1z M138.4,36.6c1.8-1.5,3.3-3.2,4.6-5.1c-0.2-0.1-0.3-0.2-0.4-0.3c-0.1-0.1-0.3-0.2-0.5-0.3
				c-1.2,1.9-2.6,3.4-4.3,4.8C138.1,36.1,138.3,36.3,138.4,36.6z M162.9,35.2c-1.5,1.1-2.9,2.2-4.4,3.3c0.2,0.3,0.5,0.6,0.7,0.9
				c1.4-1.1,2.8-2.2,4.1-3.3C163.2,35.7,163,35.4,162.9,35.2z M159.3,32c1,0.7,1.9,1.5,2.8,2.2c0.2-0.3,0.5-0.5,0.7-0.8
				c-1-0.7-1.9-1.4-2.9-2.1C159.7,31.6,159.5,31.8,159.3,32z M144.4,44.6c0.7,0.7,1.4,1.3,2.1,1.9c0.2-0.1,0.4-0.3,0.7-0.5
				c-0.7-0.7-1.4-1.4-2-2C145,44.2,144.7,44.4,144.4,44.6z"/>
			<path d="M117.5,32.5c0.1,0,0.3,0,0.4,0c4.9,0,9.9,0,14.8,0c0.1,0,0.3,0,0.5,0c0,0.4,0,0.8,0,1.1c0,0.1-0.2,0.2-0.3,0.3
				c-2,1.4-4,2.7-6.1,4.1c-0.2,0.1-0.3,0.3-0.3,0.6c0,2.2,0,4.3,0,6.5c0,0.5-0.1,1-0.2,1.5c-0.3,0.8-0.9,1.3-1.8,1.3
				c-1.2,0.1-2.5,0-3.8,0c-0.1-0.4-0.1-0.7-0.2-1.1c0.6,0,1.3,0,1.9,0c0.6,0,1.1,0,1.7,0c0.8-0.1,1.2-0.6,1.2-1.5c0-2.4,0-4.9,0-7.3
				c0-0.3,0.1-0.4,0.3-0.5c1.9-1.2,3.7-2.4,5.6-3.6c0.1-0.1,0.2-0.1,0.3-0.2c-0.1,0-0.2,0-0.3,0c-4.6,0-9.2,0-13.9,0c0,0,0,0-0.1,0
				C117.5,33.2,117.5,32.8,117.5,32.5z"/>
			<path d="M166.7,30.8c0.3,0.1,0.6,0.2,0.9,0.4c-0.2,0.5-0.4,0.9-0.7,1.4c2.7,0,5.4,0,8.2,0c0.2,1.2-0.7,2.1-1,3.1
				c-0.4-0.1-0.7-0.2-1-0.4c0.3-0.6,0.6-1.2,1-1.9c-0.2,0-0.3,0-0.4,0c-1,0-2,0-3,0c-0.5,0-0.6,0.3-0.4,0.7c0.7,1.5,1.7,2.6,3.2,3.3
				c0.7,0.3,1.5,0.6,2.3,0.9c-0.1,0.3-0.3,0.6-0.5,0.9c-2.2-0.7-4.3-1.7-5.4-4c0,0-0.1,0-0.1,0c-0.5,1.2-1.5,2.1-2.6,2.6
				c-1,0.5-2,0.9-3.1,1.3c-0.2-0.4-0.4-0.6-0.6-0.9c0.5-0.2,1.1-0.3,1.6-0.5c1.2-0.4,2.4-1,3.2-2c0.6-0.7,0.9-1.4,1-2.3
				c-0.1,0-0.2,0-0.3,0c-0.7,0-1.5,0-2.2,0c-0.2,0-0.4,0.1-0.5,0.3c-0.5,0.7-1.1,1.5-1.7,2.2c-0.3-0.3-0.6-0.5-0.8-0.8
				C165,34,166,32.5,166.7,30.8C166.7,30.8,166.7,30.8,166.7,30.8z"/>
			<path d="M180,45.2c-0.3-0.3-0.5-0.6-0.7-0.9c3.3-2.3,5.7-5.4,7.3-9.2c-2.2,0-4.4,0-6.6,0c0-0.3,0-0.6,0-0.9c2.5,0,5,0,7.5,0
				c0-1.1,0-2.2,0-3.3c0.4,0,0.7,0,1.1,0c0,1.1,0,2.1,0,3.2c2.5,0,5,0,7.5,0c0,0.3,0,0.6,0,0.9c-2.2,0-4.4,0-6.6,0
				c1.5,3.7,4,6.7,7.4,8.8c-0.3,0.3-0.5,0.6-0.8,1c-3.5-2.5-5.9-5.7-7.4-9.7c0,2.8,0,5.7,0,8.6c1.4,0,2.7,0,4.1,0c0,0.3,0,0.6,0,1
				c-1.4,0-2.7,0-4.1,0c0,1.2,0,2.3,0,3.5c-0.4,0-0.7,0-1.1,0c0-1.1,0-2.3,0-3.5c-1.4,0-2.8,0-4.3,0c0-0.3,0-0.6,0-1
				c1.4,0,2.8,0,4.2,0c0-2.9,0-5.7,0-8.6C185.9,39.3,183.5,42.7,180,45.2z"/>
			<path d="M144.6,38.2c0-2.1,0-4.2,0-6.3c3,0,6,0,9,0c0,2.1,0,4.2,0,6.3C150.7,38.2,147.7,38.2,144.6,38.2z M145.6,34.5
				c2.4,0,4.7,0,7.1,0c0-0.6,0-1.2,0-1.8c-2.4,0-4.7,0-7.1,0C145.6,33.3,145.6,33.9,145.6,34.5z M145.6,37.3c2.4,0,4.7,0,7.1,0
				c0-0.6,0-1.2,0-1.8c-2.4,0-4.7,0-7.1,0C145.6,36.1,145.6,36.7,145.6,37.3z"/>
			<path d="M154.8,40c0,0.3,0,0.5,0,0.8c-0.7,0-1.5,0-2.2,0c0,0.6,0,1.2,0,1.8c0.9,0,1.7,0,2.5,0c0,0.3,0,0.6,0,0.9
				c-0.8,0-1.7,0-2.6,0c0,0.5,0,0.9,0,1.3c0,0.6,0,1.2,0,1.8c-0.1,0.8-0.5,1.4-1.4,1.4c-1,0.1-2.1,0-3.1,0c-0.1-0.2-0.2-0.6-0.3-0.9
				c0.1,0,0.3,0,0.4,0c0.8,0,1.5,0.1,2.3,0.1c0.8,0,1.1-0.3,1.1-1.1c0-0.8,0-1.7,0-2.5c-2.9,0-5.8,0-8.7,0c0-0.3,0-0.6,0-0.9
				c2.9,0,5.7,0,8.6,0c0-0.6,0-1.2,0-1.8c-2.6,0-5.3,0-7.9,0c0-0.3,0-0.6,0-0.9C147.3,40,151,40,154.8,40z"/>
			<path d="M162.2,45.1c-0.4,0-0.7,0-1,0c0-1.7,0-3.4,0-5.2c4,0,8,0,12.1,0c0,1.7,0,3.4,0,5.2c-0.3,0-0.6,0-0.9,0c0-1.4,0-2.8,0-4.3
				c-3.4,0-6.7,0-10.1,0C162.2,42.2,162.2,43.6,162.2,45.1z"/>
			<path d="M166.8,41.8c0.4,0,0.6,0,1,0c-0.1,0.9-0.2,1.7-0.2,2.6c2.5,0.9,5.1,1.9,7.7,2.9c-0.2,0.3-0.4,0.7-0.6,1
				c-1.1-0.5-2.2-0.9-3.3-1.4c-1.3-0.5-2.6-1-3.9-1.5c-0.3-0.1-0.5-0.1-0.7,0.2c-0.4,0.4-0.8,0.7-1.2,0.9c-1.9,1-3.9,1.5-6,1.9
				c-0.2-0.3-0.3-0.7-0.5-1c1-0.2,2.1-0.3,3-0.6c0.9-0.2,1.7-0.5,2.5-0.9c1.4-0.6,2.2-1.7,2.2-3.3C166.8,42.3,166.8,42.1,166.8,41.8
				z"/>
			<path d="M140.2,40.1c-0.8,0.8-1.4,1.6-2.1,2.3c-0.2-0.3-0.3-0.6-0.4-0.9c0-0.1,0-0.2,0.1-0.3c1.7-1.7,3.1-3.6,4.3-5.7
				c0,0,0,0,0.1,0c0.3,0.1,0.5,0.3,0.9,0.4c-0.4,0.6-0.7,1.2-1.1,1.8c-0.5,0.6-0.6,1.3-0.6,2.1c0,2.6,0,5.3,0,7.9c0,0.1,0,0.3,0,0.5
				c-0.3,0-0.6,0-1,0C140.2,45.6,140.2,42.9,140.2,40.1z"/>
			<path d="M138.4,36.6c-0.2-0.3-0.3-0.5-0.5-0.8c1.7-1.4,3.1-2.9,4.3-4.8c0.2,0.1,0.3,0.2,0.5,0.3c0.1,0.1,0.3,0.2,0.4,0.3
				C141.7,33.4,140.2,35.1,138.4,36.6z"/>
			<path d="M162.9,35.2c0.1,0.3,0.3,0.6,0.5,0.9c-1.4,1.1-2.7,2.2-4.1,3.3c-0.2-0.3-0.5-0.6-0.7-0.9
				C159.9,37.4,161.4,36.3,162.9,35.2z"/>
			<path d="M159.3,32c0.2-0.2,0.4-0.5,0.6-0.7c1,0.7,1.9,1.4,2.9,2.1c-0.3,0.3-0.5,0.5-0.7,0.8C161.2,33.5,160.2,32.8,159.3,32z"/>
			<path d="M144.4,44.6c0.3-0.2,0.5-0.4,0.8-0.6c0.7,0.7,1.3,1.3,2,2c-0.3,0.2-0.5,0.4-0.7,0.5C145.9,45.9,145.2,45.2,144.4,44.6z"
				/>
			<path class="st0" d="M145.6,34.5c0-0.6,0-1.2,0-1.8c2.4,0,4.7,0,7.1,0c0,0.6,0,1.2,0,1.8C150.4,34.5,148,34.5,145.6,34.5z"/>
			<path class="st0" d="M145.6,37.3c0-0.6,0-1.2,0-1.8c2.4,0,4.7,0,7.1,0c0,0.6,0,1.2,0,1.8C150.4,37.3,148,37.3,145.6,37.3z"/>
		</g>
	</g>
</g>
</svg>
