<?xml version="1.0" encoding="utf-8"?>
<!-- Generator: Adobe Illustrator 21.1.0, SVG Export Plug-In . SVG Version: 6.00 Build 0)  -->
<svg version="1.1" id="图层_1" xmlns="http://www.w3.org/2000/svg" xmlns:xlink="http://www.w3.org/1999/xlink" x="0px" y="0px"
	 viewBox="0 0 217 80" style="enable-background:new 0 0 217 80;" xml:space="preserve">
<style type="text/css">
	.st0{fill:#FFFFFF;}
	.st1{fill:#A0A0A0;}
	.st2{fill:#113A8C;}
	.st3{fill:#2287FF;}
	.st4{fill:#CAE2FF;}
	.st5{fill:#94C5FF;}
	.st6{fill:#79B4FA;}
	.st7{fill:#67AAF9;}
	.st8{fill:#5AA2F8;}
	.st9{fill:#4295F7;}
	.st10{fill:#1F7EF1;}
</style>
<rect class="st0" width="217" height="80"/>
<g>
	<g id="XMLID_664_">
		<path id="XMLID_868_" class="st1" d="M22.3,42.5c0.3,0,0.5,0,0.8,0.1c0.2,0.1,0.5,0.1,0.7,0.3c0.2,0.1,0.3,0.3,0.5,0.5
			c0.1,0.2,0.2,0.4,0.2,0.7c0,0.2,0,0.3-0.1,0.5c-0.1,0.2-0.1,0.3-0.2,0.4c-0.1,0.1-0.2,0.2-0.3,0.3c-0.1,0.1-0.3,0.2-0.5,0.2v0
			c0.4,0.1,0.7,0.2,1,0.5c0.2,0.3,0.4,0.6,0.4,1.1c0,0.1,0,0.2,0,0.3c0,0.1-0.1,0.3-0.1,0.4c-0.1,0.1-0.1,0.3-0.2,0.4
			c-0.1,0.1-0.2,0.2-0.4,0.3c-0.2,0.1-0.4,0.2-0.6,0.2c-0.2,0.1-0.5,0.1-0.9,0.1h-2.7v-6.4H22.3z M22.3,45.3c0.2,0,0.5,0,0.6-0.1
			c0.2-0.1,0.3-0.1,0.4-0.2c0.1-0.1,0.2-0.2,0.3-0.3c0.1-0.1,0.1-0.3,0.1-0.4c0-0.8-0.5-1.2-1.4-1.2h-2.1v2.3H22.3z M22.3,48.4
			c0.2,0,0.4,0,0.6-0.1c0.2,0,0.4-0.1,0.5-0.2c0.2-0.1,0.3-0.2,0.4-0.4c0.1-0.2,0.1-0.4,0.1-0.6c0-0.4-0.1-0.7-0.4-0.9
			c-0.3-0.2-0.7-0.3-1.3-0.3h-2.1v2.6H22.3z"/>
		<path id="XMLID_866_" class="st1" d="M26,44.3v1.1h0c0.1-0.4,0.4-0.7,0.7-0.9c0.3-0.2,0.7-0.3,1.1-0.3v0.6c-0.3,0-0.5,0-0.7,0.1
			c-0.2,0.1-0.4,0.2-0.5,0.3c-0.2,0.1-0.3,0.3-0.4,0.5C26,46,26,46.2,26,46.4v2.5h-0.6v-4.6H26z"/>
		<path id="XMLID_863_" class="st1" d="M28.8,42.5v0.9h-0.6v-0.9H28.8z M28.8,44.3v4.6h-0.6v-4.6H28.8z"/>
		<path id="XMLID_861_" class="st1" d="M30.5,44.3v0.8h0c0.1-0.3,0.3-0.5,0.6-0.7c0.3-0.2,0.6-0.3,0.9-0.3c0.3,0,0.6,0,0.8,0.1
			c0.2,0.1,0.4,0.2,0.5,0.4c0.1,0.2,0.2,0.3,0.3,0.6c0.1,0.2,0.1,0.5,0.1,0.7v3h-0.6V46c0-0.2,0-0.4-0.1-0.6c0-0.2-0.1-0.3-0.2-0.4
			c-0.1-0.1-0.2-0.2-0.4-0.3c-0.2-0.1-0.3-0.1-0.6-0.1c-0.2,0-0.4,0-0.6,0.1c-0.2,0.1-0.3,0.2-0.4,0.3c-0.1,0.1-0.2,0.3-0.3,0.5
			c-0.1,0.2-0.1,0.4-0.1,0.6v2.7h-0.6v-4.6H30.5z"/>
		<path id="XMLID_858_" class="st1" d="M38.5,49.4c-0.1,0.3-0.2,0.5-0.4,0.7c-0.2,0.2-0.4,0.3-0.6,0.4c-0.3,0.1-0.6,0.2-1,0.2
			c-0.2,0-0.5,0-0.7-0.1c-0.2-0.1-0.4-0.1-0.6-0.3c-0.2-0.1-0.3-0.3-0.4-0.4c-0.1-0.2-0.2-0.4-0.2-0.6h0.6c0,0.2,0.1,0.3,0.2,0.4
			c0.1,0.1,0.2,0.2,0.3,0.3c0.1,0.1,0.3,0.1,0.4,0.2c0.1,0,0.3,0,0.5,0c0.5,0,0.9-0.1,1.1-0.4c0.2-0.3,0.3-0.7,0.3-1.3v-0.6h0
			c-0.1,0.3-0.3,0.5-0.6,0.7c-0.3,0.2-0.6,0.3-0.9,0.3c-0.4,0-0.7-0.1-1-0.2c-0.3-0.1-0.5-0.3-0.7-0.5c-0.2-0.2-0.3-0.5-0.4-0.8
			c-0.1-0.3-0.1-0.6-0.1-0.9c0-0.3,0-0.6,0.1-0.9c0.1-0.3,0.2-0.5,0.4-0.7c0.2-0.2,0.4-0.4,0.7-0.5c0.3-0.1,0.6-0.2,0.9-0.2
			c0.2,0,0.3,0,0.5,0.1c0.2,0,0.3,0.1,0.4,0.2c0.1,0.1,0.2,0.2,0.3,0.3c0.1,0.1,0.2,0.2,0.2,0.4h0v-0.8h0.6v4.2
			C38.6,48.9,38.6,49.2,38.5,49.4z M37.2,48.2c0.2-0.1,0.3-0.2,0.5-0.4s0.2-0.4,0.3-0.6c0.1-0.2,0.1-0.4,0.1-0.7
			c0-0.2,0-0.5-0.1-0.7c-0.1-0.2-0.1-0.4-0.3-0.6c-0.1-0.2-0.3-0.3-0.5-0.4c-0.2-0.1-0.4-0.2-0.7-0.2c-0.3,0-0.5,0.1-0.7,0.2
			c-0.2,0.1-0.3,0.3-0.5,0.4c-0.1,0.2-0.2,0.4-0.3,0.6c-0.1,0.2-0.1,0.5-0.1,0.7c0,0.2,0,0.5,0.1,0.7c0.1,0.2,0.2,0.4,0.3,0.6
			s0.3,0.3,0.5,0.4c0.2,0.1,0.4,0.2,0.7,0.2C36.8,48.4,37,48.3,37.2,48.2z"/>
		<path id="XMLID_854_" class="st1" d="M45,42.5c0.3,0,0.5,0,0.8,0.1c0.2,0.1,0.5,0.1,0.7,0.3c0.2,0.1,0.3,0.3,0.5,0.5
			c0.1,0.2,0.2,0.4,0.2,0.7c0,0.2,0,0.3-0.1,0.5c-0.1,0.2-0.1,0.3-0.2,0.4c-0.1,0.1-0.2,0.2-0.3,0.3c-0.1,0.1-0.3,0.2-0.5,0.2v0
			c0.4,0.1,0.7,0.2,1,0.5c0.2,0.3,0.4,0.6,0.4,1.1c0,0.1,0,0.2,0,0.3c0,0.1-0.1,0.3-0.1,0.4c-0.1,0.1-0.1,0.3-0.2,0.4
			c-0.1,0.1-0.2,0.2-0.4,0.3c-0.2,0.1-0.4,0.2-0.6,0.2c-0.2,0.1-0.5,0.1-0.9,0.1h-2.7v-6.4H45z M45,45.3c0.2,0,0.5,0,0.6-0.1
			c0.2-0.1,0.3-0.1,0.4-0.2s0.2-0.2,0.3-0.3c0.1-0.1,0.1-0.3,0.1-0.4c0-0.8-0.5-1.2-1.4-1.2h-2.1v2.3H45z M45,48.4
			c0.2,0,0.4,0,0.6-0.1c0.2,0,0.4-0.1,0.5-0.2c0.2-0.1,0.3-0.2,0.4-0.4c0.1-0.2,0.1-0.4,0.1-0.6c0-0.4-0.1-0.7-0.4-0.9
			c-0.3-0.2-0.7-0.3-1.3-0.3h-2.1v2.6H45z"/>
		<path id="XMLID_852_" class="st1" d="M48.8,42.5v6.4h-0.6v-6.4H48.8z"/>
		<path id="XMLID_849_" class="st1" d="M52.7,44.3c0.3,0.1,0.5,0.3,0.7,0.5c0.2,0.2,0.3,0.5,0.4,0.8c0.1,0.3,0.1,0.6,0.1,0.9
			c0,0.3,0,0.7-0.1,0.9c-0.1,0.3-0.2,0.6-0.4,0.8c-0.2,0.2-0.4,0.4-0.7,0.5C52.5,49,52.2,49,51.8,49c-0.4,0-0.7-0.1-0.9-0.2
			c-0.3-0.1-0.5-0.3-0.7-0.5c-0.2-0.2-0.3-0.5-0.4-0.8c-0.1-0.3-0.1-0.6-0.1-0.9c0-0.3,0-0.7,0.1-0.9c0.1-0.3,0.2-0.6,0.4-0.8
			c0.2-0.2,0.4-0.4,0.7-0.5c0.3-0.1,0.6-0.2,0.9-0.2C52.2,44.1,52.5,44.2,52.7,44.3z M51.1,44.8c-0.2,0.1-0.4,0.3-0.5,0.4
			c-0.1,0.2-0.2,0.4-0.3,0.6c-0.1,0.2-0.1,0.5-0.1,0.7c0,0.2,0,0.5,0.1,0.7c0.1,0.2,0.2,0.4,0.3,0.6c0.1,0.2,0.3,0.3,0.5,0.4
			c0.2,0.1,0.4,0.2,0.7,0.2c0.3,0,0.5-0.1,0.7-0.2c0.2-0.1,0.4-0.3,0.5-0.4c0.1-0.2,0.2-0.4,0.3-0.6c0.1-0.2,0.1-0.5,0.1-0.7
			c0-0.2,0-0.5-0.1-0.7c-0.1-0.2-0.2-0.4-0.3-0.6c-0.1-0.2-0.3-0.3-0.5-0.4c-0.2-0.1-0.4-0.2-0.7-0.2C51.5,44.6,51.3,44.7,51.1,44.8
			z"/>
		<path id="XMLID_847_" class="st1" d="M57.7,44.9c-0.2-0.2-0.5-0.3-0.9-0.3c-0.3,0-0.5,0.1-0.7,0.2c-0.2,0.1-0.4,0.3-0.5,0.4
			c-0.1,0.2-0.2,0.4-0.3,0.6c-0.1,0.2-0.1,0.5-0.1,0.7c0,0.2,0,0.5,0.1,0.7c0.1,0.2,0.2,0.4,0.3,0.6c0.1,0.2,0.3,0.3,0.5,0.4
			c0.2,0.1,0.4,0.2,0.7,0.2c0.2,0,0.3,0,0.5-0.1c0.2-0.1,0.3-0.2,0.4-0.3c0.1-0.1,0.2-0.3,0.3-0.4c0.1-0.2,0.1-0.3,0.1-0.5h0.6
			c-0.1,0.6-0.3,1-0.6,1.3c-0.3,0.3-0.8,0.5-1.3,0.5c-0.4,0-0.7-0.1-0.9-0.2c-0.3-0.1-0.5-0.3-0.7-0.5c-0.2-0.2-0.3-0.5-0.4-0.8
			c-0.1-0.3-0.1-0.6-0.1-0.9c0-0.3,0-0.7,0.1-0.9c0.1-0.3,0.2-0.6,0.4-0.8c0.2-0.2,0.4-0.4,0.7-0.5c0.3-0.1,0.6-0.2,0.9-0.2
			c0.5,0,0.9,0.1,1.3,0.4c0.3,0.3,0.5,0.7,0.6,1.2h-0.6C58,45.4,57.9,45.1,57.7,44.9z"/>
		<path id="XMLID_845_" class="st1" d="M60,42.5v4l2.6-2.2h0.8l-2,1.7l2.1,2.9h-0.7L61,46.4L60,47.1v1.8h-0.6v-6.4H60z"/>
		<path id="XMLID_843_" class="st1" d="M66.8,44.9c-0.2-0.2-0.5-0.3-0.9-0.3c-0.3,0-0.5,0.1-0.7,0.2c-0.2,0.1-0.4,0.3-0.5,0.4
			c-0.1,0.2-0.2,0.4-0.3,0.6c-0.1,0.2-0.1,0.5-0.1,0.7c0,0.2,0,0.5,0.1,0.7c0.1,0.2,0.2,0.4,0.3,0.6c0.1,0.2,0.3,0.3,0.5,0.4
			c0.2,0.1,0.4,0.2,0.7,0.2c0.2,0,0.3,0,0.5-0.1c0.2-0.1,0.3-0.2,0.4-0.3c0.1-0.1,0.2-0.3,0.3-0.4c0.1-0.2,0.1-0.3,0.1-0.5h0.6
			c-0.1,0.6-0.3,1-0.6,1.3c-0.3,0.3-0.8,0.5-1.3,0.5c-0.4,0-0.7-0.1-0.9-0.2c-0.3-0.1-0.5-0.3-0.7-0.5c-0.2-0.2-0.3-0.5-0.4-0.8
			c-0.1-0.3-0.1-0.6-0.1-0.9c0-0.3,0-0.7,0.1-0.9c0.1-0.3,0.2-0.6,0.4-0.8c0.2-0.2,0.4-0.4,0.7-0.5c0.3-0.1,0.6-0.2,0.9-0.2
			c0.5,0,0.9,0.1,1.3,0.4c0.3,0.3,0.5,0.7,0.6,1.2h-0.6C67.2,45.4,67,45.1,66.8,44.9z"/>
		<path id="XMLID_841_" class="st1" d="M69.2,42.5v2.6h0c0.1-0.3,0.3-0.5,0.6-0.7c0.3-0.2,0.6-0.3,0.9-0.3c0.3,0,0.6,0,0.8,0.1
			c0.2,0.1,0.4,0.2,0.5,0.4c0.1,0.2,0.2,0.3,0.3,0.6c0.1,0.2,0.1,0.5,0.1,0.7v3h-0.6V46c0-0.2,0-0.4-0.1-0.6c0-0.2-0.1-0.3-0.2-0.4
			c-0.1-0.1-0.2-0.2-0.4-0.3c-0.2-0.1-0.3-0.1-0.6-0.1c-0.2,0-0.4,0-0.6,0.1c-0.2,0.1-0.3,0.2-0.4,0.3c-0.1,0.1-0.2,0.3-0.3,0.5
			c-0.1,0.2-0.1,0.4-0.1,0.6v2.7h-0.6v-6.4H69.2z"/>
		<path id="XMLID_838_" class="st1" d="M73.6,45c0.1-0.2,0.2-0.4,0.4-0.5c0.2-0.1,0.4-0.2,0.6-0.3c0.2-0.1,0.5-0.1,0.7-0.1
			c0.2,0,0.4,0,0.6,0.1c0.2,0,0.4,0.1,0.5,0.2c0.2,0.1,0.3,0.3,0.4,0.5c0.1,0.2,0.2,0.4,0.2,0.8v2.5c0,0.2,0.1,0.3,0.3,0.3
			c0.1,0,0.1,0,0.2,0v0.5c-0.1,0-0.1,0-0.2,0c-0.1,0-0.1,0-0.2,0c-0.1,0-0.3,0-0.3-0.1c-0.1,0-0.2-0.1-0.2-0.2
			c0-0.1-0.1-0.2-0.1-0.3c0-0.1,0-0.2,0-0.3h0c-0.1,0.1-0.2,0.3-0.3,0.4c-0.1,0.1-0.2,0.2-0.3,0.3c-0.1,0.1-0.3,0.1-0.4,0.2
			C75.2,49,75,49,74.7,49c-0.2,0-0.4,0-0.6-0.1c-0.2-0.1-0.4-0.1-0.5-0.2c-0.1-0.1-0.3-0.3-0.3-0.4c-0.1-0.2-0.1-0.4-0.1-0.6
			c0-0.3,0.1-0.6,0.2-0.8c0.1-0.2,0.3-0.3,0.6-0.4c0.2-0.1,0.5-0.2,0.8-0.2c0.3,0,0.6-0.1,0.9-0.1c0.1,0,0.2,0,0.3,0
			c0.1,0,0.2,0,0.2-0.1c0.1,0,0.1-0.1,0.1-0.2c0-0.1,0-0.2,0-0.3c0-0.2,0-0.3-0.1-0.5s-0.1-0.2-0.3-0.3c-0.1-0.1-0.2-0.1-0.4-0.1
			c-0.1,0-0.3,0-0.5,0c-0.4,0-0.7,0.1-0.9,0.3c-0.2,0.2-0.3,0.4-0.4,0.8h-0.6C73.4,45.4,73.5,45.2,73.6,45z M76.4,46.4
			c0,0.1-0.1,0.1-0.2,0.1c-0.1,0-0.2,0.1-0.3,0.1c-0.2,0-0.5,0.1-0.7,0.1c-0.3,0-0.5,0.1-0.7,0.1c-0.2,0.1-0.4,0.2-0.5,0.3
			c-0.1,0.1-0.2,0.3-0.2,0.5c0,0.1,0,0.3,0.1,0.4c0.1,0.1,0.1,0.2,0.2,0.3c0.1,0.1,0.2,0.1,0.3,0.2c0.1,0,0.3,0.1,0.4,0.1
			c0.2,0,0.4,0,0.6-0.1c0.2-0.1,0.4-0.2,0.5-0.3c0.1-0.1,0.3-0.3,0.3-0.5c0.1-0.2,0.1-0.4,0.1-0.6L76.4,46.4L76.4,46.4z"/>
		<path id="XMLID_835_" class="st1" d="M78.7,42.5v0.9h-0.6v-0.9H78.7z M78.7,44.3v4.6h-0.6v-4.6H78.7z"/>
		<path id="XMLID_833_" class="st1" d="M80.3,44.3v0.8h0c0.1-0.3,0.3-0.5,0.6-0.7c0.3-0.2,0.6-0.3,0.9-0.3c0.3,0,0.6,0,0.8,0.1
			c0.2,0.1,0.4,0.2,0.5,0.4c0.1,0.2,0.2,0.3,0.3,0.6c0.1,0.2,0.1,0.5,0.1,0.7v3h-0.6V46c0-0.2,0-0.4-0.1-0.6c0-0.2-0.1-0.3-0.2-0.4
			c-0.1-0.1-0.2-0.2-0.4-0.3c-0.2-0.1-0.3-0.1-0.6-0.1c-0.2,0-0.4,0-0.6,0.1c-0.2,0.1-0.3,0.2-0.4,0.3c-0.1,0.1-0.2,0.3-0.3,0.5
			c-0.1,0.2-0.1,0.4-0.1,0.6v2.7h-0.6v-4.6H80.3z"/>
		<path id="XMLID_826_" class="st1" d="M26.8,51.2v0.9h-0.6v-0.9H26.8z M26.8,53v4.6h-0.6V53H26.8z"/>
		<path id="XMLID_824_" class="st1" d="M28.2,53v0.8h0c0.1-0.3,0.3-0.5,0.6-0.7c0.3-0.2,0.6-0.3,0.9-0.3c0.3,0,0.6,0,0.8,0.1
			c0.2,0.1,0.4,0.2,0.5,0.4c0.1,0.2,0.2,0.3,0.3,0.6c0.1,0.2,0.1,0.5,0.1,0.7v3h-0.6v-2.9c0-0.2,0-0.4-0.1-0.6
			c0-0.2-0.1-0.3-0.2-0.4c-0.1-0.1-0.2-0.2-0.4-0.3c-0.2-0.1-0.3-0.1-0.6-0.1c-0.2,0-0.4,0-0.6,0.1c-0.2,0.1-0.3,0.2-0.4,0.3
			c-0.1,0.1-0.2,0.3-0.3,0.5c-0.1,0.2-0.1,0.4-0.1,0.6v2.7h-0.6V53H28.2z"/>
		<path id="XMLID_821_" class="st1" d="M34.1,53v0.5h-0.9v3.1c0,0.2,0,0.3,0.1,0.4c0.1,0.1,0.2,0.2,0.4,0.2c0.2,0,0.3,0,0.5,0v0.5
			c-0.1,0-0.2,0-0.3,0c-0.1,0-0.2,0-0.3,0c-0.4,0-0.6-0.1-0.8-0.2c-0.1-0.1-0.2-0.4-0.2-0.8v-3.2h-0.8V53h0.8v-1.4h0.6V53H34.1z"/>
		<path id="XMLID_815_" class="st1" d="M37.5,53.1c0.3,0.1,0.5,0.3,0.7,0.5c0.2,0.2,0.3,0.5,0.4,0.8c0.1,0.3,0.1,0.6,0.1,0.9
			c0,0.3,0,0.7-0.1,0.9c-0.1,0.3-0.2,0.6-0.4,0.8c-0.2,0.2-0.4,0.4-0.7,0.5c-0.3,0.1-0.6,0.2-0.9,0.2c-0.4,0-0.7-0.1-0.9-0.2
			c-0.3-0.1-0.5-0.3-0.7-0.5c-0.2-0.2-0.3-0.5-0.4-0.8c-0.1-0.3-0.1-0.6-0.1-0.9c0-0.3,0-0.7,0.1-0.9c0.1-0.3,0.2-0.6,0.4-0.8
			c0.2-0.2,0.4-0.4,0.7-0.5c0.3-0.1,0.6-0.2,0.9-0.2C37,52.9,37.3,52.9,37.5,53.1z M35.9,53.5c-0.2,0.1-0.4,0.3-0.5,0.4
			c-0.1,0.2-0.2,0.4-0.3,0.6C35,54.8,35,55.1,35,55.3c0,0.2,0,0.5,0.1,0.7c0.1,0.2,0.2,0.4,0.3,0.6c0.1,0.2,0.3,0.3,0.5,0.4
			c0.2,0.1,0.4,0.2,0.7,0.2c0.3,0,0.5-0.1,0.7-0.2c0.2-0.1,0.4-0.3,0.5-0.4c0.1-0.2,0.2-0.4,0.3-0.6c0.1-0.2,0.1-0.5,0.1-0.7
			c0-0.2,0-0.5-0.1-0.7c-0.1-0.2-0.2-0.4-0.3-0.6c-0.1-0.2-0.3-0.3-0.5-0.4c-0.2-0.1-0.4-0.2-0.7-0.2C36.3,53.4,36.1,53.4,35.9,53.5
			z"/>
		<path id="XMLID_804_" class="st1" d="M42.7,51.2l2.1,5.6l2.2-5.6h0.9v6.4h-0.6v-5.5h0l-2.2,5.5h-0.6l-2.1-5.5h0v5.5h-0.6v-6.4
			H42.7z"/>
		<path id="XMLID_780_" class="st1" d="M48.9,53.7c0.1-0.2,0.2-0.4,0.4-0.5c0.2-0.1,0.4-0.2,0.6-0.3c0.2-0.1,0.5-0.1,0.7-0.1
			c0.2,0,0.4,0,0.6,0.1c0.2,0,0.4,0.1,0.5,0.2c0.2,0.1,0.3,0.3,0.4,0.5c0.1,0.2,0.2,0.4,0.2,0.8v2.5c0,0.2,0.1,0.3,0.3,0.3
			c0.1,0,0.1,0,0.2,0v0.5c-0.1,0-0.1,0-0.2,0c-0.1,0-0.1,0-0.2,0c-0.1,0-0.3,0-0.3-0.1c-0.1,0-0.2-0.1-0.2-0.2
			c0-0.1-0.1-0.2-0.1-0.3c0-0.1,0-0.2,0-0.3h0c-0.1,0.1-0.2,0.3-0.3,0.4c-0.1,0.1-0.2,0.2-0.3,0.3c-0.1,0.1-0.3,0.1-0.4,0.2
			c-0.2,0-0.4,0.1-0.6,0.1c-0.2,0-0.4,0-0.6-0.1c-0.2-0.1-0.4-0.1-0.5-0.2c-0.1-0.1-0.3-0.3-0.3-0.4c-0.1-0.2-0.1-0.4-0.1-0.6
			c0-0.3,0.1-0.6,0.2-0.8c0.1-0.2,0.3-0.3,0.6-0.4c0.2-0.1,0.5-0.2,0.8-0.2c0.3,0,0.6-0.1,0.9-0.1c0.1,0,0.2,0,0.3,0
			c0.1,0,0.2,0,0.2-0.1c0.1,0,0.1-0.1,0.1-0.2c0-0.1,0-0.2,0-0.3c0-0.2,0-0.3-0.1-0.5c-0.1-0.1-0.1-0.2-0.3-0.3
			c-0.1-0.1-0.2-0.1-0.4-0.1c-0.1,0-0.3,0-0.5,0c-0.4,0-0.7,0.1-0.9,0.3c-0.2,0.2-0.3,0.4-0.4,0.8h-0.6
			C48.8,54.2,48.8,53.9,48.9,53.7z M51.8,55.1c0,0.1-0.1,0.1-0.2,0.1c-0.1,0-0.2,0.1-0.3,0.1c-0.2,0-0.5,0.1-0.7,0.1
			c-0.3,0-0.5,0.1-0.7,0.1c-0.2,0.1-0.4,0.2-0.5,0.3c-0.1,0.1-0.2,0.3-0.2,0.5c0,0.1,0,0.3,0.1,0.4c0.1,0.1,0.1,0.2,0.2,0.3
			c0.1,0.1,0.2,0.1,0.3,0.2c0.1,0,0.3,0.1,0.4,0.1c0.2,0,0.4,0,0.6-0.1c0.2-0.1,0.4-0.2,0.5-0.3c0.1-0.1,0.3-0.3,0.3-0.5
			c0.1-0.2,0.1-0.4,0.1-0.6L51.8,55.1L51.8,55.1z"/>
		<path id="XMLID_777_" class="st1" d="M53.8,51.2v0.9h-0.6v-0.9H53.8z M53.8,53v4.6h-0.6V53H53.8z"/>
		<path id="XMLID_775_" class="st1" d="M55.2,53v0.8h0c0.1-0.3,0.3-0.5,0.6-0.7c0.3-0.2,0.6-0.3,0.9-0.3c0.3,0,0.6,0,0.8,0.1
			c0.2,0.1,0.4,0.2,0.5,0.4c0.1,0.2,0.2,0.3,0.3,0.6c0.1,0.2,0.1,0.5,0.1,0.7v3h-0.6v-2.9c0-0.2,0-0.4-0.1-0.6
			c0-0.2-0.1-0.3-0.2-0.4c-0.1-0.1-0.2-0.2-0.4-0.3c-0.2-0.1-0.3-0.1-0.6-0.1c-0.2,0-0.4,0-0.6,0.1c-0.2,0.1-0.3,0.2-0.4,0.3
			c-0.1,0.1-0.2,0.3-0.3,0.5c-0.1,0.2-0.1,0.4-0.1,0.6v2.7h-0.6V53H55.2z"/>
		<path id="XMLID_773_" class="st1" d="M61.9,53.9c-0.1-0.1-0.2-0.2-0.3-0.3c-0.1-0.1-0.2-0.1-0.4-0.2c-0.1,0-0.3-0.1-0.5-0.1
			c-0.1,0-0.3,0-0.4,0c-0.1,0-0.2,0.1-0.4,0.1c-0.1,0.1-0.2,0.1-0.3,0.2c-0.1,0.1-0.1,0.2-0.1,0.4c0,0.1,0,0.2,0.1,0.3
			c0.1,0.1,0.1,0.2,0.2,0.2c0.1,0.1,0.2,0.1,0.3,0.1c0.1,0,0.2,0.1,0.3,0.1l0.8,0.2c0.2,0,0.3,0.1,0.5,0.1c0.2,0.1,0.3,0.1,0.4,0.2
			c0.1,0.1,0.2,0.2,0.3,0.4c0.1,0.1,0.1,0.3,0.1,0.5c0,0.3-0.1,0.5-0.2,0.6c-0.1,0.2-0.3,0.3-0.4,0.4c-0.2,0.1-0.4,0.2-0.6,0.2
			c-0.2,0-0.4,0.1-0.7,0.1c-0.5,0-1-0.1-1.3-0.4c-0.3-0.3-0.5-0.7-0.6-1.2h0.6c0,0.4,0.2,0.7,0.4,0.9c0.3,0.2,0.6,0.3,0.9,0.3
			c0.1,0,0.3,0,0.4,0c0.1,0,0.3-0.1,0.4-0.2c0.1-0.1,0.2-0.2,0.3-0.3c0.1-0.1,0.1-0.2,0.1-0.4c0-0.1,0-0.3-0.1-0.3
			c-0.1-0.1-0.1-0.2-0.2-0.2c-0.1-0.1-0.2-0.1-0.3-0.2c-0.1,0-0.2-0.1-0.4-0.1l-0.7-0.2c-0.2,0-0.4-0.1-0.5-0.2
			c-0.2-0.1-0.3-0.1-0.4-0.2c-0.1-0.1-0.2-0.2-0.3-0.3c-0.1-0.1-0.1-0.3-0.1-0.5c0-0.2,0.1-0.4,0.2-0.6c0.1-0.2,0.2-0.3,0.4-0.4
			c0.2-0.1,0.4-0.2,0.6-0.2c0.2,0,0.4-0.1,0.6-0.1c0.2,0,0.4,0,0.7,0.1c0.2,0.1,0.4,0.2,0.5,0.3c0.2,0.1,0.3,0.3,0.4,0.5
			c0.1,0.2,0.1,0.4,0.2,0.7H62C62,54.2,62,54,61.9,53.9z"/>
		<path id="XMLID_771_" class="st1" d="M65.2,53v0.5h-0.9v3.1c0,0.2,0,0.3,0.1,0.4c0.1,0.1,0.2,0.2,0.4,0.2c0.2,0,0.3,0,0.5,0v0.5
			c-0.1,0-0.2,0-0.3,0c-0.1,0-0.2,0-0.3,0c-0.4,0-0.6-0.1-0.8-0.2c-0.1-0.1-0.2-0.4-0.2-0.8v-3.2h-0.8V53h0.8v-1.4h0.6V53H65.2z"/>
		<path id="XMLID_769_" class="st1" d="M66.3,53v1.1h0c0.1-0.4,0.4-0.7,0.7-0.9c0.3-0.2,0.7-0.3,1.1-0.3v0.6c-0.3,0-0.5,0-0.7,0.1
			c-0.2,0.1-0.4,0.2-0.5,0.3c-0.2,0.1-0.3,0.3-0.4,0.5c-0.1,0.2-0.1,0.4-0.1,0.7v2.5h-0.6V53H66.3z"/>
		<path id="XMLID_671_" class="st1" d="M68.7,56.1c0.1,0.2,0.1,0.4,0.3,0.6c0.1,0.2,0.3,0.3,0.5,0.4c0.2,0.1,0.4,0.2,0.7,0.2
			c0.4,0,0.7-0.1,1-0.3c0.2-0.2,0.4-0.5,0.5-0.9h0.6c-0.1,0.5-0.3,0.9-0.7,1.2c-0.3,0.3-0.8,0.4-1.4,0.4c-0.4,0-0.7-0.1-0.9-0.2
			c-0.3-0.1-0.5-0.3-0.7-0.5c-0.2-0.2-0.3-0.5-0.4-0.8C68,56,68,55.7,68,55.3c0-0.3,0-0.6,0.1-0.9c0.1-0.3,0.2-0.6,0.4-0.8
			c0.2-0.2,0.4-0.4,0.7-0.6c0.3-0.1,0.6-0.2,0.9-0.2c0.4,0,0.7,0.1,1,0.2c0.3,0.1,0.5,0.3,0.6,0.6c0.2,0.2,0.3,0.5,0.4,0.8
			c0.1,0.3,0.1,0.6,0.1,1h-3.6C68.6,55.7,68.6,55.9,68.7,56.1z M71.4,54.4c-0.1-0.2-0.2-0.4-0.3-0.5c-0.1-0.2-0.3-0.3-0.5-0.4
			c-0.2-0.1-0.4-0.1-0.6-0.1c-0.2,0-0.4,0-0.6,0.1c-0.2,0.1-0.3,0.2-0.5,0.4c-0.1,0.2-0.2,0.3-0.3,0.5c-0.1,0.2-0.1,0.4-0.1,0.6h3
			C71.6,54.8,71.5,54.6,71.4,54.4z"/>
		<path id="XMLID_667_" class="st1" d="M72.8,53.7c0.1-0.2,0.2-0.4,0.4-0.5c0.2-0.1,0.4-0.2,0.6-0.3c0.2-0.1,0.5-0.1,0.7-0.1
			c0.2,0,0.4,0,0.6,0.1c0.2,0,0.4,0.1,0.5,0.2c0.2,0.1,0.3,0.3,0.4,0.5c0.1,0.2,0.2,0.4,0.2,0.8v2.5c0,0.2,0.1,0.3,0.3,0.3
			c0.1,0,0.1,0,0.2,0v0.5c-0.1,0-0.1,0-0.2,0c-0.1,0-0.1,0-0.2,0c-0.1,0-0.3,0-0.3-0.1c-0.1,0-0.2-0.1-0.2-0.2
			c0-0.1-0.1-0.2-0.1-0.3c0-0.1,0-0.2,0-0.3h0c-0.1,0.1-0.2,0.3-0.3,0.4c-0.1,0.1-0.2,0.2-0.3,0.3c-0.1,0.1-0.3,0.1-0.4,0.2
			c-0.2,0-0.4,0.1-0.6,0.1c-0.2,0-0.4,0-0.6-0.1c-0.2-0.1-0.4-0.1-0.5-0.2c-0.1-0.1-0.3-0.3-0.3-0.4c-0.1-0.2-0.1-0.4-0.1-0.6
			c0-0.3,0.1-0.6,0.2-0.8c0.1-0.2,0.3-0.3,0.6-0.4c0.2-0.1,0.5-0.2,0.8-0.2c0.3,0,0.6-0.1,0.9-0.1c0.1,0,0.2,0,0.3,0
			c0.1,0,0.2,0,0.2-0.1c0.1,0,0.1-0.1,0.1-0.2c0-0.1,0-0.2,0-0.3c0-0.2,0-0.3-0.1-0.5c-0.1-0.1-0.1-0.2-0.3-0.3
			c-0.1-0.1-0.2-0.1-0.4-0.1c-0.1,0-0.3,0-0.5,0c-0.4,0-0.7,0.1-0.9,0.3c-0.2,0.2-0.3,0.4-0.4,0.8h-0.6
			C72.6,54.2,72.7,53.9,72.8,53.7z M75.6,55.1c0,0.1-0.1,0.1-0.2,0.1c-0.1,0-0.2,0.1-0.3,0.1c-0.2,0-0.5,0.1-0.7,0.1
			c-0.3,0-0.5,0.1-0.7,0.1c-0.2,0.1-0.4,0.2-0.5,0.3C73,56,73,56.2,73,56.4c0,0.1,0,0.3,0.1,0.4c0.1,0.1,0.1,0.2,0.2,0.3
			c0.1,0.1,0.2,0.1,0.3,0.2c0.1,0,0.3,0.1,0.4,0.1c0.2,0,0.4,0,0.6-0.1c0.2-0.1,0.4-0.2,0.5-0.3c0.1-0.1,0.3-0.3,0.3-0.5
			c0.1-0.2,0.1-0.4,0.1-0.6L75.6,55.1L75.6,55.1z"/>
		<path id="XMLID_665_" class="st1" d="M77.6,53v0.8h0c0.1-0.3,0.3-0.5,0.6-0.7c0.2-0.2,0.6-0.2,0.9-0.2c0.3,0,0.6,0.1,0.8,0.2
			c0.2,0.1,0.4,0.4,0.5,0.7c0.1-0.3,0.3-0.5,0.6-0.7c0.3-0.1,0.6-0.2,0.9-0.2c1,0,1.5,0.5,1.5,1.6v3.1h-0.6v-3.1
			c0-0.4-0.1-0.7-0.2-0.9c-0.2-0.2-0.4-0.3-0.9-0.3c-0.2,0-0.4,0-0.6,0.1c-0.2,0.1-0.3,0.2-0.4,0.4c-0.1,0.2-0.2,0.3-0.2,0.5
			c0,0.2-0.1,0.4-0.1,0.6v2.6H80v-3.1c0-0.2,0-0.3,0-0.4c0-0.1-0.1-0.3-0.2-0.4c-0.1-0.1-0.2-0.2-0.3-0.2c-0.1-0.1-0.3-0.1-0.5-0.1
			c-0.2,0-0.4,0-0.6,0.1c-0.2,0.1-0.3,0.2-0.4,0.4c-0.1,0.2-0.2,0.3-0.2,0.5c-0.1,0.2-0.1,0.4-0.1,0.7v2.6h-0.6V53H77.6z"/>
	</g>
	<g id="XMLID_659_">
		<path class="st2" d="M58.2,35.2v4.1H41.7V14.6h4.1v20.6H58.2z"/>
	</g>
	<g id="XMLID_654_">
		<path class="st2" d="M116.6,35.2v4.1h-4.1V14.6h4.1V35.2L116.6,35.2z"/>
	</g>
	<g id="XMLID_646_">
		<path class="st2" d="M72.5,14.6c1.6,0,3.2,0.3,4.7,1c1.5,0.6,2.8,1.5,3.9,2.6c1.1,1.1,2,2.4,2.7,3.9c0.7,1.5,1,3.1,1,4.8
			c0,1.6-0.3,3.2-1,4.7c-0.6,1.5-1.5,2.8-2.6,3.9c-1.1,1.1-2.4,2-3.9,2.7c-1.5,0.7-3.1,1-4.8,1c-1.6,0-3.2-0.3-4.7-1
			c-1.5-0.6-2.8-1.5-3.9-2.6c-1.1-1.1-2-2.4-2.7-3.9c-0.7-1.5-1-3.1-1-4.8c0-1.7,0.3-3.2,1-4.7c0.6-1.5,1.5-2.8,2.6-3.9
			c1.1-1.1,2.4-2,3.9-2.7C69.2,15,70.8,14.6,72.5,14.6z M72.5,35.1c1.1,0,2.1-0.2,3.1-0.6c1-0.4,1.9-1,2.6-1.8
			c0.8-0.7,1.4-1.6,1.8-2.6c0.4-1,0.7-2.1,0.7-3.2c0-1.1-0.2-2.1-0.6-3.1c-0.4-1-1-1.9-1.8-2.6c-0.7-0.8-1.6-1.4-2.6-1.8
			c-1-0.4-2.1-0.7-3.2-0.7c-1.1,0-2.1,0.2-3.1,0.6c-1,0.4-1.9,1-2.6,1.8c-0.8,0.7-1.4,1.6-1.8,2.6c-0.4,1-0.7,2.1-0.7,3.2
			c0,1.1,0.2,2.2,0.6,3.1c0.4,1,1,1.8,1.8,2.6c0.7,0.7,1.6,1.3,2.6,1.8C70.3,34.8,71.4,35,72.5,35.1z"/>
	</g>
	<g id="XMLID_636_">
		<path class="st2" d="M108.9,35.5c-1.2,1.1-2.5,2-4,2.7c-1.5,0.6-3,1-4.7,1c-1.6,0-3.1-0.3-4.6-1c-1.5-0.6-2.8-1.5-3.9-2.6
			c-1.1-1.1-2-2.4-2.7-3.9c-0.7-1.5-1-3.1-1-4.8c0-1.6,0.3-3.1,1-4.6c0.6-1.5,1.5-2.8,2.6-3.9c1.1-1.1,2.4-2,3.9-2.7
			c1.5-0.7,3.1-1,4.8-1c1.6,0,3.2,0.3,4.7,1c1.5,0.7,2.8,1.5,4,2.7l-2.7,2.7c-0.9-0.7-1.8-1.2-2.8-1.7s-2-0.6-3.1-0.6
			c-1.1,0-2.2,0.2-3.2,0.6c-1,0.4-1.9,1-2.6,1.8c-0.7,0.7-1.3,1.6-1.7,2.6c-0.4,1-0.6,2.1-0.6,3.2c0,1.1,0.2,2.2,0.6,3.2
			c0.4,1,1,1.9,1.7,2.6c0.7,0.7,1.6,1.3,2.6,1.7c1,0.4,2.1,0.6,3.2,0.6c1.1,0,2.2-0.2,3.1-0.6c0.9-0.4,1.7-1,2.4-1.6L108.9,35.5z"/>
	</g>
	<g id="XMLID_631_">
		<path class="st2" d="M133.2,14.5l-9.8,12l9.8,12.6h-5.4L118,26.5l9.8-12H133.2z"/>
	</g>
	<g id="XMLID_623_">
		<path class="st3" d="M86.2,41.4h5l7.3,15.5l7.3-15.5h5L98.6,66L86.2,41.4z"/>
	</g>
	<g id="XMLID_614_">
		<path class="st3" d="M132.5,62.3c-1.2,1.1-2.5,2-4,2.7c-1.5,0.6-3,1-4.7,1c-1.6,0-3.1-0.3-4.6-1c-1.5-0.6-2.8-1.5-3.9-2.6
			c-1.1-1.1-2-2.4-2.7-3.9c-0.7-1.5-1-3.1-1-4.8c0-1.6,0.3-3.1,1-4.6c0.6-1.5,1.5-2.8,2.6-3.9c1.1-1.1,2.4-2,3.9-2.7
			c1.5-0.7,3.1-1,4.8-1c1.6,0,3.2,0.3,4.7,1c1.5,0.7,2.8,1.5,4,2.7l-2.7,2.7c-0.9-0.7-1.8-1.2-2.8-1.7c-1-0.4-2-0.6-3.1-0.6
			c-1.1,0-2.2,0.2-3.2,0.6c-1,0.4-1.9,1-2.6,1.8c-0.7,0.7-1.3,1.6-1.7,2.6c-0.4,1-0.6,2.1-0.6,3.2s0.2,2.2,0.6,3.2
			c0.4,1,1,1.9,1.7,2.6c0.7,0.7,1.6,1.3,2.6,1.7c1,0.4,2.1,0.6,3.2,0.6c1.1,0,2.2-0.2,3.1-0.6c0.9-0.4,1.7-1,2.4-1.6L132.5,62.3z"/>
	</g>
	<g id="XMLID_606_">
		<path class="st2" d="M38.3,29.9c-0.2-0.6-0.5-1.2-0.8-1.7c-0.3-0.5-0.7-0.9-1.1-1.2c-0.4-0.3-0.7-0.6-1.1-0.8
			c0.2-0.3,0.4-0.7,0.6-1.1c0.2-0.4,0.3-0.8,0.5-1.4c0.1-0.5,0.2-1.2,0.2-1.9c0-0.9-0.1-1.7-0.3-2.4c-0.2-0.7-0.4-1.3-0.7-1.8
			c-0.3-0.5-0.6-0.9-1-1.3c-0.4-0.3-0.7-0.6-1.1-0.9c-0.9-0.5-1.9-0.9-3.1-0.9h-7h-2.7h-0.8v24.6h0.8h2.7H32
			c1.2-0.1,2.3-0.4,3.3-0.9c0.4-0.2,0.8-0.5,1.2-0.8c0.4-0.3,0.7-0.8,1-1.2c0.3-0.5,0.6-1.1,0.7-1.7c0.2-0.7,0.3-1.4,0.3-2.3
			C38.6,31.3,38.5,30.6,38.3,29.9z M34.1,33.8c-0.3,0.4-0.5,0.7-0.9,0.9c-0.3,0.2-0.7,0.3-1.2,0.4h-8.6V18.7H30
			c0.5,0,0.9,0.2,1.2,0.4c0.3,0.2,0.6,0.5,0.9,1c0.3,0.4,0.4,1,0.4,1.8c0,0.8-0.1,1.4-0.4,1.8c-0.3,0.4-0.5,0.7-0.9,0.9
			C30.9,24.8,30.5,25,30,25h-4.7v4.2H32c0.4,0,0.8,0.1,1.2,0.4c0.3,0.2,0.6,0.5,0.9,0.9c0.3,0.4,0.4,1,0.4,1.7
			C34.5,32.8,34.4,33.4,34.1,33.8z"/>
	</g>
	<g id="XMLID_600_">
		<path class="st4" d="M192.3,37.5c-0.1,0-0.2,0-0.2-0.1L181,31.7c-0.2-0.1-0.3-0.4-0.2-0.7c0.1-0.2,0.4-0.3,0.7-0.2l11.1,5.8
			c0.2,0.1,0.3,0.4,0.2,0.7C192.7,37.5,192.5,37.5,192.3,37.5z"/>
		<path class="st4" d="M175.8,52.8c-0.2,0-0.3-0.1-0.4-0.2c-0.1-0.2-0.1-0.5,0.2-0.7l10.4-6.6c0.2-0.1,0.5-0.1,0.7,0.2
			c0.1,0.2,0.1,0.5-0.2,0.7l-10.4,6.6C176,52.7,175.9,52.8,175.8,52.8z"/>
		<path class="st4" d="M171.4,43.1c-0.3,0-0.5-0.2-0.5-0.5l-0.6-12.1c0-0.3,0.2-0.5,0.5-0.5c0.3,0,0.5,0.2,0.5,0.5l0.6,12.1
			C171.9,42.9,171.7,43.1,171.4,43.1C171.4,43.1,171.4,43.1,171.4,43.1z"/>
	</g>
	<g id="XMLID_596_">
		<path class="st5" d="M193.3,34.5c0,0-0.1,0-0.1,0l-16.9-3.8c-0.3-0.1-0.4-0.3-0.4-0.6c0.1-0.3,0.3-0.4,0.6-0.4l16.9,3.8
			c0.3,0.1,0.4,0.3,0.4,0.6C193.8,34.3,193.6,34.5,193.3,34.5z"/>
		<path class="st5" d="M178.1,55.1c-0.1,0-0.2,0-0.3-0.1c-0.2-0.2-0.2-0.5,0-0.7l11.7-12.7c0.2-0.2,0.5-0.2,0.7,0
			c0.2,0.2,0.2,0.5,0,0.7l-11.7,12.7C178.3,55,178.2,55.1,178.1,55.1z"/>
		<path class="st5" d="M173,48.2c-0.2,0-0.4-0.1-0.5-0.3l-5.2-16.5c-0.1-0.3,0.1-0.5,0.3-0.6c0.3-0.1,0.5,0.1,0.6,0.3l5.2,16.5
			c0.1,0.3-0.1,0.5-0.3,0.6C173.1,48.2,173.1,48.2,173,48.2z"/>
	</g>
	<g id="XMLID_588_">
		<path class="st6" d="M171.2,30.8c-0.3,0-0.5-0.2-0.5-0.5c0-0.3,0.2-0.5,0.5-0.5l23.4-0.5c0.3,0,0.5,0.2,0.5,0.5
			c0,0.3-0.2,0.5-0.5,0.5L171.2,30.8C171.2,30.8,171.2,30.8,171.2,30.8z"/>
		<path class="st6" d="M180.9,58.3c-0.1,0-0.2,0-0.2-0.1c-0.2-0.1-0.3-0.4-0.2-0.7L191.8,37c0.1-0.2,0.4-0.3,0.7-0.2
			c0.2,0.1,0.3,0.4,0.2,0.7L181.4,58C181.3,58.2,181.1,58.3,180.9,58.3z"/>
		<path class="st6" d="M175.6,52.6c-0.2,0-0.3-0.1-0.4-0.2l-12.1-20c-0.1-0.2-0.1-0.5,0.2-0.7c0.2-0.1,0.5-0.1,0.7,0.2l12.1,20
			c0.1,0.2,0.1,0.5-0.2,0.7C175.8,52.5,175.7,52.6,175.6,52.6z"/>
	</g>
	<g id="XMLID_572_">
		<path class="st7" d="M164.5,32.5c-0.3,0-0.5-0.2-0.6-0.5c-0.1-0.3,0.1-0.7,0.5-0.7l31-6.4c0.3-0.1,0.7,0.1,0.7,0.5
			c0.1,0.3-0.1,0.7-0.5,0.7l-31,6.4C164.5,32.5,164.5,32.5,164.5,32.5z"/>
		<path class="st7" d="M184.4,61.4c-0.1,0-0.1,0-0.2,0c-0.3-0.1-0.5-0.5-0.4-0.8l10-30c0.1-0.3,0.5-0.5,0.8-0.4
			c0.3,0.1,0.5,0.5,0.4,0.8l-10,30C184.9,61.3,184.7,61.4,184.4,61.4z"/>
		<path class="st7" d="M180.3,57.9c-0.2,0-0.3-0.1-0.5-0.2L158.7,34c-0.2-0.3-0.2-0.6,0.1-0.9c0.3-0.2,0.6-0.2,0.9,0.1l21.1,23.8
			c0.2,0.3,0.2,0.6-0.1,0.9C180.6,57.9,180.4,57.9,180.3,57.9z"/>
	</g>
	<g id="XMLID_557_">
		<path class="st8" d="M158,34.8c-0.3,0-0.6-0.2-0.7-0.5c-0.1-0.4,0.1-0.8,0.5-0.9L196,20c0.4-0.1,0.8,0.1,0.9,0.5
			c0.1,0.4-0.1,0.8-0.5,0.9l-38.2,13.4C158.2,34.8,158.1,34.8,158,34.8z"/>
		<path class="st8" d="M188.2,64.6c0,0-0.1,0-0.1,0c-0.4-0.1-0.7-0.5-0.6-0.9l7.5-39.8c0.1-0.4,0.5-0.7,0.9-0.6
			c0.4,0.1,0.7,0.5,0.6,0.9L188.9,64C188.8,64.3,188.5,64.6,188.2,64.6z"/>
		<path class="st8" d="M185.4,62.5c-0.2,0-0.3-0.1-0.5-0.2l-30.8-26.4c-0.3-0.3-0.3-0.7-0.1-1c0.3-0.3,0.7-0.3,1-0.1l30.8,26.4
			c0.3,0.3,0.3,0.7,0.1,1C185.9,62.4,185.7,62.5,185.4,62.5z"/>
	</g>
	<g id="XMLID_274_">
		<path class="st9" d="M150.6,38.5c-0.3,0-0.6-0.2-0.8-0.5c-0.2-0.4,0-0.9,0.4-1.2L196,15c0.4-0.2,0.9,0,1.2,0.4
			c0.2,0.4,0,0.9-0.4,1.2L151,38.4C150.9,38.5,150.7,38.5,150.6,38.5z"/>
		<path class="st9" d="M192.4,67.2C192.4,67.2,192.3,67.2,192.4,67.2c-0.5,0-0.9-0.5-0.9-0.9l4-50.5c0-0.5,0.5-0.8,0.9-0.8
			c0.5,0,0.8,0.5,0.8,0.9l-4,50.5C193.2,66.8,192.8,67.2,192.4,67.2z"/>
		<path class="st9" d="M192.2,67.3c-0.2,0-0.3,0-0.5-0.2l-41.8-28.7c-0.4-0.3-0.5-0.8-0.2-1.2c0.3-0.4,0.8-0.5,1.2-0.2l41.8,28.7
			c0.4,0.3,0.5,0.8,0.2,1.2C192.8,67.1,192.5,67.3,192.2,67.3z"/>
	</g>
	<path class="st10" d="M196.4,69.8c-0.2,0-0.3,0-0.5-0.1l-50-28.8c-0.3-0.2-0.5-0.5-0.5-0.9c0-0.4,0.2-0.7,0.5-0.9l49.9-28.9
		c0.3-0.2,0.7-0.2,1,0c0.3,0.2,0.5,0.5,0.5,0.9l0.1,57.7c0,0.4-0.2,0.7-0.5,0.9C196.8,69.8,196.6,69.8,196.4,69.8z M148.4,40
		l47,27.1l-0.1-54.3L148.4,40z"/>
</g>
</svg>
