<?xml version="1.0" encoding="utf-8"?>
<!-- Generator: Adobe Illustrator 21.1.0, SVG Export Plug-In . SVG Version: 6.00 Build 0)  -->
<svg version="1.1" id="图层_1" xmlns="http://www.w3.org/2000/svg" xmlns:xlink="http://www.w3.org/1999/xlink" x="0px" y="0px"
	 viewBox="0 0 217 80" style="enable-background:new 0 0 217 80;" xml:space="preserve">
<style type="text/css">
	.st0{fill:#FFFFFF;}
	.st1{fill:#FDFDFD;}
	.st2{fill:#171717;}
	.st3{fill:#2C2C2C;}
	.st4{fill:#888888;}
	.st5{fill:#3A3A3A;}
	.st6{fill:#757575;}
	.st7{fill:#A9A9A9;}
	.st8{fill-rule:evenodd;clip-rule:evenodd;}
</style>
<rect class="st0" width="217" height="80"/>
<g>
	<g>
		<g>
			<path class="st0" d="M86.2,17.1c0-0.2,0-0.4,0-0.6c39.4,0,78.7,0,118.1,0c0,5.4,0,10.8,0,16.2c-39.4,0-78.7,0-118.1,0
				c0-0.2,0-0.4,0-0.6c0.2,0,0.3,0.1,0.5,0.1c0.6,0,1.1,0,1.7,0c0.5,0,0.5,0,0.5-0.5c0-1.9,0-3.8,0-5.7c0-0.1,0-0.3,0-0.4
				c2.2,0,4.4,0,6.6,0c0,0.2,0,0.3,0,0.5c0,1.9,0,3.9,0,5.8c0,0.3,0.1,0.5,0.5,0.5c0.6,0,1.1,0,1.7,0c0.5,0,0.6,0,0.6-0.5
				c0-2.7,0-5.5,0-8.2c0-2,0-3.9,0-5.9c0-0.4-0.1-0.5-0.5-0.5c-0.6,0-1.1,0-1.7,0c-0.4,0-0.5,0.1-0.5,0.5c0,1.8,0,3.5,0,5.3
				c0,0.1,0,0.3,0,0.4c-2.2,0-4.4,0-6.6,0c0-0.2,0-0.3,0-0.5c0-1.8,0-3.5,0-5.3c0-0.3-0.1-0.5-0.4-0.5c-0.4,0-0.8,0-1.2,0
				C86.9,17,86.6,17,86.2,17.1z M133.9,27.7c0.5,1.4,1,2.7,1.5,4.1c0.1,0.2,0.2,0.3,0.4,0.3c0.7,0,1.3,0,2,0c0.4,0,0.5-0.1,0.3-0.5
				c-1.7-4.8-3.5-9.6-5.2-14.4c-0.1-0.2-0.2-0.3-0.4-0.3c-0.8,0-1.6,0-2.4,0c-0.2,0-0.3,0.1-0.4,0.3c-1.8,4.8-3.5,9.6-5.3,14.4
				c-0.1,0.4-0.1,0.5,0.4,0.5c0.6,0,1.3,0,1.9,0c0.3,0,0.5-0.1,0.6-0.4c0.4-1.2,0.9-2.5,1.3-3.7c0-0.1,0.2-0.3,0.3-0.3
				C130.5,27.7,132.2,27.7,133.9,27.7z M184.6,17c-0.4,0-0.8,0-1.2,0c-0.2,0-0.3,0.1-0.4,0.3c-1.8,4.8-3.5,9.6-5.3,14.4
				c-0.1,0.4-0.1,0.5,0.4,0.5c0.6,0,1.2,0,1.9,0c0.3,0,0.5-0.1,0.6-0.4c0.4-1.2,0.9-2.4,1.3-3.6c0.1-0.2,0.2-0.3,0.5-0.3
				c1.5,0,3.1,0,4.6,0c0.3,0,0.4,0.1,0.4,0.3c0.4,1.3,0.9,2.5,1.3,3.8c0.1,0.2,0.2,0.3,0.4,0.3c0.7,0,1.3,0,2,0
				c0.4,0,0.5-0.1,0.3-0.5c-1.7-4.8-3.5-9.6-5.2-14.4c-0.1-0.2-0.2-0.3-0.4-0.3C185.4,17,185,17,184.6,17z M119,26.4
				c-0.3,0.7-0.4,1.3-0.7,1.8c-1.4,2.7-4.8,2.9-6.5,0.3c-0.6-0.9-0.9-1.9-1-3c-0.2-1.7,0-3.3,0.9-4.8c0.8-1.3,2-2.1,3.6-2
				s2.7,1,3.3,2.4c0.1,0.1,0.1,0.3,0.2,0.4c0.1,0.2,0.2,0.3,0.4,0.3c0.6,0,1.3,0,1.9,0c0.4,0,0.5-0.1,0.4-0.5
				c-0.9-2.7-2.7-4.4-5.6-4.8s-5.6,1-7,3.6c-1.1,2.2-1.2,4.5-0.7,6.8c0.3,1.5,1,2.8,2.1,3.9c1.7,1.6,3.8,2,6,1.5
				c2.8-0.6,4.5-2.8,5.1-5.6c0.1-0.3,0-0.4-0.3-0.4C120.5,26.4,119.7,26.4,119,26.4z M143.6,26c0.2,0,0.3,0,0.5,0c0.9,0,1.9,0,2.8,0
				c1.7,0,3.1-0.5,4.1-1.9s1.1-3,0.4-4.5c-0.8-1.6-2.2-2.5-4-2.5c-2-0.1-4,0-5.9,0c-0.3,0-0.5,0.1-0.4,0.4c0,0.6,0,1.2,0,1.8
				c0,4.1,0,8.2,0,12.4c0,0.5,0,0.5,0.5,0.5c0.6,0,1.1,0,1.7,0c0.4,0,0.5-0.1,0.5-0.5c0-1.7,0-3.4,0-5.1
				C143.6,26.3,143.6,26.2,143.6,26z M167.5,19.2c0,0.2,0,0.3,0,0.5c0,2.2,0,4.4,0,6.5c0,1.8,0,3.6,0,5.4c0,0.3,0.1,0.5,0.5,0.5
				c0.5,0,1.1,0,1.6,0c0.6,0,0.6,0,0.6-0.6c0-3.9,0-7.8,0-11.8c0-0.2,0-0.3,0-0.5c0.2,0,0.4,0,0.6,0c1.2,0,2.5,0,3.7,0
				c0.3,0,0.5-0.1,0.5-0.4c0-0.5,0-0.9,0-1.4c0-0.3-0.1-0.4-0.4-0.4c-0.3,0-0.6,0-0.9,0c-3.4,0-6.8,0-10.3,0c-0.4,0-0.5,0.1-0.5,0.5
				s0,0.8,0,1.3c0,0.4,0.1,0.5,0.5,0.5c1.3,0,2.5,0,3.8,0C167.2,19.2,167.4,19.2,167.5,19.2z M197,29.9c0-0.2,0-0.4,0-0.5
				c0-3.9,0-7.9,0-11.8c0-0.5,0-0.5-0.5-0.5c-0.6,0-1.1,0-1.7,0c-0.3,0-0.5,0.1-0.5,0.4c0,4.8,0,9.5,0,14.3c0,0.3,0.1,0.4,0.4,0.4
				c3,0,6,0,9.1,0c0.3,0,0.4-0.1,0.4-0.4c0-0.4,0-0.8,0-1.3s0-0.5-0.6-0.5c-1.8,0-3.6,0-5.4,0C197.9,29.9,197.5,29.9,197,29.9z
				 M158.8,24.5c0-2.3,0-4.7,0-7c0-0.5,0-0.5-0.6-0.5c-0.5,0-1.1,0-1.6,0s-0.5,0-0.5,0.5c0,2.3,0,4.7,0,7c0,2.4,0,4.7,0,7.1
				c0,0.5,0,0.5,0.5,0.5s1.1,0,1.6,0s0.6,0,0.6-0.5C158.8,29.2,158.8,26.9,158.8,24.5z M103.2,32.1c0.4,0,0.8,0,1.2,0
				c0.3,0,0.4-0.1,0.4-0.4c0-0.7,0-1.4,0-2.1c0-0.3-0.1-0.4-0.4-0.4c-0.8,0-1.5,0-2.3,0c-0.3,0-0.4,0.1-0.4,0.4c0,0.7,0,1.4,0,2.1
				c0,0.3,0.1,0.4,0.4,0.4S102.8,32.1,103.2,32.1z"/>
			<path d="M86.2,17.1c0.4,0,0.7-0.1,1.1-0.1s0.8,0,1.2,0c0.3,0,0.4,0.1,0.4,0.5c0,1.8,0,3.5,0,5.3c0,0.1,0,0.3,0,0.5
				c2.2,0,4.4,0,6.6,0c0-0.2,0-0.3,0-0.4c0-1.8,0-3.5,0-5.3c0-0.4,0.1-0.5,0.5-0.5c0.6,0,1.1,0,1.7,0c0.4,0,0.5,0.1,0.5,0.5
				c0,2,0,3.9,0,5.9c0,2.7,0,5.5,0,8.2c0,0.5,0,0.5-0.6,0.5s-1.1,0-1.7,0c-0.4,0-0.5-0.1-0.5-0.5c0-1.9,0-3.9,0-5.8
				c0-0.1,0-0.3,0-0.5c-2.2,0-4.4,0-6.6,0c0,0.2,0,0.3,0,0.4c0,1.9,0,3.8,0,5.7c0,0.5,0,0.5-0.5,0.5c-0.6,0-1.1,0-1.7,0
				c-0.2,0-0.3-0.1-0.5-0.1C86.2,27,86.2,22,86.2,17.1z"/>
			<path d="M133.9,27.7c-1.7,0-3.4,0-5,0c-0.1,0-0.3,0.2-0.3,0.3c-0.5,1.2-0.9,2.4-1.3,3.7c-0.1,0.3-0.2,0.4-0.6,0.4
				c-0.6,0-1.3,0-1.9,0c-0.4,0-0.5-0.1-0.4-0.5c1.8-4.8,3.5-9.6,5.3-14.4c0.1-0.2,0.2-0.3,0.4-0.3c0.8,0,1.6,0,2.4,0
				c0.2,0,0.3,0.1,0.4,0.3c1.7,4.8,3.5,9.6,5.2,14.4c0.1,0.4,0.1,0.5-0.3,0.5c-0.7,0-1.3,0-2,0c-0.2,0-0.3-0.1-0.4-0.3
				C134.9,30.5,134.4,29.1,133.9,27.7z M131.3,20.6C131.3,20.6,131.2,20.6,131.3,20.6c-0.7,1.6-1.3,3.2-1.9,4.9c1.2,0,2.4,0,3.6,0
				C132.5,23.9,131.9,22.3,131.3,20.6z"/>
			<path d="M184.6,17c0.4,0,0.8,0,1.2,0c0.2,0,0.3,0.1,0.4,0.3c1.7,4.8,3.5,9.6,5.2,14.4c0.1,0.4,0.1,0.5-0.3,0.5c-0.7,0-1.3,0-2,0
				c-0.2,0-0.3-0.1-0.4-0.3c-0.4-1.3-0.9-2.5-1.3-3.8c-0.1-0.2-0.2-0.3-0.4-0.3c-1.5,0-3.1,0-4.6,0c-0.3,0-0.4,0.1-0.5,0.3
				c-0.4,1.2-0.9,2.4-1.3,3.6c-0.1,0.3-0.3,0.4-0.6,0.4c-0.6,0-1.2,0-1.9,0c-0.4,0-0.5-0.1-0.4-0.5c1.8-4.8,3.5-9.6,5.3-14.4
				c0.1-0.2,0.2-0.3,0.4-0.3C183.8,17,184.2,17,184.6,17z M186.4,25.5c-0.6-1.7-1.2-3.3-1.8-4.9h-0.1c-0.6,1.6-1.2,3.2-1.8,4.9
				C184,25.5,185.1,25.5,186.4,25.5z"/>
			<path d="M119,26.4c0.7,0,1.5,0,2.2,0c0.3,0,0.4,0.2,0.3,0.4c-0.6,2.8-2.3,5-5.1,5.6c-2.2,0.5-4.3,0.1-6-1.5
				c-1.2-1-1.8-2.4-2.1-3.9c-0.5-2.3-0.4-4.6,0.7-6.8c1.3-2.6,4.1-4,7-3.6s4.7,2.1,5.6,4.8c0.1,0.4,0.1,0.5-0.4,0.5
				c-0.6,0-1.3,0-1.9,0c-0.2,0-0.4-0.1-0.4-0.3c0-0.2-0.1-0.3-0.2-0.4c-0.7-1.4-1.7-2.3-3.3-2.4c-1.6-0.1-2.8,0.6-3.6,2
				c-0.9,1.5-1.1,3.1-0.9,4.8c0.1,1.1,0.4,2.1,1,3c1.7,2.5,5.1,2.4,6.5-0.3C118.6,27.6,118.7,27,119,26.4z"/>
			<path d="M143.6,26c0,0.2,0,0.3,0,0.5c0,1.7,0,3.4,0,5.1c0,0.4-0.1,0.5-0.5,0.5c-0.6,0-1.1,0-1.7,0c-0.5,0-0.5,0-0.5-0.5
				c0-4.1,0-8.2,0-12.4c0-0.6,0-1.2,0-1.8c0-0.3,0.1-0.5,0.4-0.4c2,0,4,0,5.9,0c1.8,0.1,3.2,0.9,4,2.5s0.7,3.1-0.4,4.5
				c-1,1.4-2.4,1.9-4.1,1.9c-0.9,0-1.9,0-2.8,0C144,26,143.8,26,143.6,26z M143.7,23.8c1.2,0,2.3,0,3.5,0c1,0,1.9-1.1,2-2.1
				c0.1-1.2-0.6-2.3-1.7-2.4c-1.2-0.1-2.5,0-3.8,0C143.7,20.7,143.7,22.2,143.7,23.8z"/>
			<path d="M167.5,19.2c-0.2,0-0.3,0-0.5,0c-1.3,0-2.5,0-3.8,0c-0.4,0-0.5-0.1-0.5-0.5s0-0.8,0-1.3c0-0.4,0.1-0.5,0.5-0.5
				c3.4,0,6.8,0,10.3,0c0.3,0,0.6,0,0.9,0c0.3,0,0.4,0.1,0.4,0.4c0,0.5,0,0.9,0,1.4c0,0.3-0.1,0.4-0.5,0.4c-1.2,0-2.5,0-3.7,0
				c-0.2,0-0.3,0-0.6,0c0,0.2,0,0.4,0,0.5c0,3.9,0,7.8,0,11.8c0,0.6,0,0.6-0.6,0.6c-0.5,0-1.1,0-1.6,0c-0.4,0-0.5-0.1-0.5-0.5
				c0-1.8,0-3.6,0-5.4c0-2.2,0-4.4,0-6.5C167.5,19.6,167.5,19.4,167.5,19.2z"/>
			<path d="M197,29.9c0.4,0,0.8,0,1.2,0c1.8,0,3.6,0,5.4,0c0.5,0,0.6,0,0.6,0.5c0,0.4,0,0.8,0,1.3c0,0.3-0.1,0.4-0.4,0.4
				c-3,0-6,0-9.1,0c-0.3,0-0.4-0.1-0.4-0.4c0-4.8,0-9.5,0-14.3c0-0.3,0.1-0.4,0.5-0.4c0.6,0,1.1,0,1.7,0c0.5,0,0.5,0,0.5,0.5
				c0,3.9,0,7.9,0,11.8C197,29.5,197,29.6,197,29.9z"/>
			<path d="M158.8,24.5c0,2.3,0,4.7,0,7c0,0.5,0,0.5-0.6,0.5c-0.5,0-1.1,0-1.6,0s-0.5,0-0.5-0.5c0-2.4,0-4.7,0-7.1c0-2.3,0-4.7,0-7
				c0-0.5,0-0.5,0.5-0.5s1.1,0,1.6,0s0.6,0,0.6,0.5C158.8,19.8,158.8,22.2,158.8,24.5z"/>
			<path d="M103.2,32.1c-0.4,0-0.8,0-1.2,0c-0.3,0-0.4-0.1-0.4-0.4c0-0.7,0-1.4,0-2.1c0-0.3,0.1-0.4,0.4-0.4c0.8,0,1.5,0,2.3,0
				c0.3,0,0.4,0.1,0.4,0.4c0,0.7,0,1.4,0,2.1c0,0.3-0.1,0.4-0.4,0.4C104,32.1,103.6,32.1,103.2,32.1z"/>
			<path class="st0" d="M131.3,20.6c0.6,1.6,1.2,3.2,1.7,4.9c-1.2,0-2.4,0-3.6,0C130.1,23.9,130.6,22.3,131.3,20.6
				C131.2,20.6,131.3,20.6,131.3,20.6z"/>
			<path class="st0" d="M186.4,25.5c-1.2,0-2.4,0-3.6,0c0.6-1.6,1.2-3.3,1.8-4.9h0.1C185.2,22.2,185.8,23.9,186.4,25.5z"/>
			<path class="st0" d="M143.7,23.8c0-1.5,0-3,0-4.5c1.3,0,2.5-0.1,3.8,0c1.1,0.1,1.8,1.2,1.7,2.4c-0.1,1.1-1,2.1-2,2.1
				C146,23.8,144.8,23.8,143.7,23.8z"/>
		</g>
		<g id="_x37_JYRWd_1_">
			<g>
				<path class="st0" d="M86.4,53.4c0-5.9,0-11.7,0-17.6c24.2,0,48.3,0,72.5,0c-0.9,2.5-2.4,4.6-4.2,6.4c0.8,0.6,1.5,1.1,2.3,1.7
					c0.8-1.1,1.6-2.1,2.4-3.2c0.1-0.2,0.3-0.3,0.5-0.3c0.6,0,1.3,0,1.9,0c0.3,0,0.6,0,1,0c0,0.2,0,0.3,0,0.5
					c-0.2,1.3-0.9,2.3-1.9,3.1c-1.1,0.9-2.4,1.5-3.7,1.9c-0.8,0.3-1.6,0.5-2.5,0.7c0.5,0.8,1,1.6,1.5,2.4c1.5-0.6,2.9-1.1,4.4-1.7
					c1.2-0.5,2.4-1.3,3.3-2.3c0.2-0.3,0.4-0.5,0.6-0.8c2,3.1,5.2,4,8.4,4.9c0.5-0.9,0.9-1.7,1.3-2.6c-0.8-0.2-1.5-0.3-2.3-0.5
					c-1.7-0.5-3.3-1.1-4.7-2.3c-0.7-0.6-1.3-1.3-1.6-2.2c-0.1-0.3,0-0.7,0.1-1c0-0.1,0.3-0.1,0.5-0.1c1.1,0,2.3,0,3.4,0
					c0.1,0,0.2,0,0.4,0c-0.5,0.8-0.9,1.6-1.3,2.3c1,0.3,1.9,0.6,2.8,0.9c0.4-0.8,0.7-1.6,1.2-2.3c0.6-1,0.3-2.1,0.4-3.3
					c-4.1,0-8.2,0-12.2,0c0.3-0.7,0.5-1.3,0.8-1.9c-0.9-0.1-1.7-0.2-2.5-0.4c15.1,0,30.1,0,45.2,0c0,9,0,18.1,0,27.1
					c-39.3,0-78.7,0-118,0C86.4,59.8,86.4,56.6,86.4,53.4c0.2,0.6,0.5,1.1,0.7,1.6c0.2,0.4,0.3,0.8,0.5,1.2c1.6-1.3,3-2.7,4.2-4.3
					c0,0.1,0.1,0.1,0.1,0.1c0,1.9,0.1,3.7,0.1,5.6c-0.1,1.6-0.9,2.2-2.4,2.1c-0.8,0-1.6-0.1-2.3-0.1c0.2,1,0.3,1.9,0.5,2.8
					c1.2,0,2.3,0.1,3.4,0c2-0.2,3.2-1.3,3.5-3.3c0.1-0.9,0.1-1.8,0.1-2.7c0-2.7,0-5.3-0.3-8c-0.2-2-0.6-3.9-1.3-5.8
					c-0.1-0.2,0-0.3,0.1-0.5c0.8-1,1.6-1.9,2.3-2.9c0.3-0.4,0.5-0.8,0.8-1.2c-0.7-0.6-1.4-1.1-2.1-1.6c-0.9,1.2-1.7,2.3-2.6,3.5
					c-0.8-1.4-1.7-2.5-2.7-3.5c-0.7,0.5-1.4,1-2,1.5c0.9,1.3,1.7,2.5,2.6,3.7c0.2,0.3,0.2,0.5-0.1,0.8c-0.9,0.7-1.8,1.4-2.7,2.2
					c0.4,0.8,0.9,1.6,1.3,2.4c1-0.8,1.9-1.5,2.9-2.3c0.4,1,0.6,2.1,0.7,3.1c0,0.1,0,0.2-0.1,0.3C90.1,50.2,88.4,52,86.4,53.4z
					 M187.8,43.3c-2.5,5.1-6.1,8.9-10.8,11.9c0.5,1,1,2,1.6,3c4.5-3.2,8.2-7.1,10.5-12.1c0,3,0,6.1,0,9.2c-1.9,0-3.9,0-5.8,0
					c0,0.9,0,1.8,0,2.7c1.9,0,3.9,0,5.8,0c0,1.6,0,3.2,0,4.7c1,0,2,0,3,0c0-1.6,0-3.1,0-4.7c1.9,0,3.8,0,5.7,0c0-0.9,0-1.8,0-2.7
					c-1.9,0-3.8,0-5.7,0c0-3.1,0-6.2,0-9.3c2.4,5,6.1,8.8,10.5,11.9c0.5-1,1.1-2,1.6-3c-4.6-2.8-8.2-6.6-10.6-11.6
					c3.3,0,6.5,0,9.6,0c0-1,0-1.9,0-2.9c-3.7,0-7.4,0-11.1,0c0-1.5,0-2.9,0-4.3c-1,0-2,0-3,0c0,1.5,0,2.9,0,4.4c-3.7,0-7.3,0-11,0
					c0,1,0,1.9,0,2.9C181.3,43.3,184.5,43.3,187.8,43.3z M143.7,59.5c-0.2-0.1-0.3-0.2-0.5-0.2c-3.6-1.6-6.4-4-8.4-7.4
					c-1.4-2.4-2.2-4.9-2.7-7.6c-0.4-2-0.6-4-0.4-6c0.1-0.7,0-1.4,0-2.1c-1.1,0-2.1,0-3.3,0c0,0.1,0,0.3,0,0.4
					c-0.1,2.4-0.1,4.8-0.3,7.1c-0.3,3.1-1.2,6.1-3,8.7c-2,3.1-4.8,5.4-8,7.1c-0.2,0.1-0.3,0.2-0.5,0.2c0.7,1,1.4,1.9,2.1,2.8
					c5.8-3.3,10-7.9,11.4-14.7c1.3,6.7,5.4,11.2,11.2,14.3C142.2,61.4,143,60.5,143.7,59.5z M100,61.4c3.1,0,6.1,0,9.2,0
					c0,0.5,0,0.9,0,1.4c1,0,1.9,0,2.8,0c0-4.4,0-8.8,0-13.2c-4.9,0-9.9,0-14.8,0c0,4.4,0,8.8,0,13.2c0.9,0,1.8,0,2.8,0
					C100,62.4,100,61.9,100,61.4z M96.4,41.8c1,0,2,0,3,0c0,1.1,0,2.1,0,3.2c-1.2,0-2.4,0-3.6,0c0,0.8,0,1.6,0,2.4
					c6,0,11.9,0,17.8,0c0-0.8,0-1.6,0-2.5c-1.3,0-2.5,0-3.8,0c0-1.1,0-2.1,0-3.2c1,0,2.1,0,3.1,0c0-0.8,0-1.6,0-2.5
					c-1,0-2.1,0-3.1,0c0-1.1,0-2.1,0-3.1c-1,0-1.9,0-2.9,0c0,1,0,2.1,0,3.1c-1.5,0-3,0-4.5,0c0-1.1,0-2.1,0-3.1c-1,0-1.9,0-2.9,0
					c0,1,0,2.1,0,3.1c-1,0-2,0-3,0C96.4,40.1,96.4,40.9,96.4,41.8z M170.5,49.4c-6.6,0-13.2,0-19.9,0c0,2.8,0,5.5,0,8.3
					c1,0,1.9,0,2.9,0c0-1.9,0-3.9,0-5.8c4.6,0,9.3,0,13.9,0c0,1.9,0,3.8,0,5.7c1,0,2,0,3,0C170.5,54.8,170.5,52.1,170.5,49.4z
					 M147.4,60.1c0.4,0.9,0.7,1.7,1.1,2.5c0,0.1,0.2,0.2,0.4,0.2c2.5-0.4,4.9-0.8,7.3-1.6c1.4-0.5,2.8-1.1,3.9-2.2
					c0.2-0.2,0.4-0.2,0.6-0.1c2.5,0.9,5,1.7,7.4,2.6c1.3,0.5,2.6,1,4,1.5c0.4-0.9,0.9-1.7,1.4-2.6c-4-1.2-7.9-2.5-11.9-3.7
					c0.3-1.2,0.6-2.3,0.5-3.5c-1,0-2,0-3,0c0,0.5-0.1,1-0.1,1.4c-0.1,1.7-0.9,2.9-2.4,3.7c-0.4,0.2-0.7,0.3-1.1,0.5
					c-1.9,0.7-3.9,1.1-5.9,1.3C148.9,60,148.2,60.1,147.4,60.1z M148.7,49.2c2.1-1.6,4.2-3.1,6.3-4.7c-0.6-0.7-1.1-1.4-1.6-2.1
					c-2.2,1.6-4.3,3.1-6.4,4.6C147.5,47.7,148.1,48.5,148.7,49.2z M152.1,41.7c0.7-0.7,1.3-1.4,2.1-2.2c-1.5-1.1-2.9-2.1-4.2-3.1
					c-0.6,0.6-1.3,1.3-1.9,1.9C149.4,39.4,150.7,40.5,152.1,41.7z"/>
				<path d="M86.4,53.4c2-1.4,3.7-3.1,5-5.2c0.1-0.1,0.1-0.2,0.1-0.3c-0.1-1-0.3-2.1-0.7-3.1c-1,0.8-1.9,1.5-2.9,2.3
					c-0.5-0.8-0.9-1.6-1.3-2.4c0.9-0.7,1.8-1.5,2.7-2.2c0.3-0.2,0.4-0.4,0.1-0.8c-0.9-1.2-1.7-2.4-2.6-3.7c0.6-0.5,1.3-1,2-1.5
					c1.1,1,1.9,2.2,2.7,3.5c0.9-1.2,1.7-2.3,2.6-3.5c0.7,0.5,1.4,1.1,2.1,1.6c-0.3,0.4-0.5,0.8-0.8,1.2c-0.8,1-1.6,1.9-2.3,2.9
					c-0.1,0.2-0.2,0.3-0.1,0.5c0.8,1.8,1.1,3.8,1.3,5.8c0.3,2.7,0.4,5.3,0.3,8c0,0.9,0,1.8-0.1,2.7c-0.3,2-1.5,3.1-3.5,3.3
					c-1.1,0.1-2.3,0-3.4,0c-0.2-0.9-0.3-1.8-0.5-2.8c0.8,0,1.6,0.1,2.3,0.1c1.6,0.1,2.4-0.6,2.4-2.1c0.1-1.9,0-3.7-0.1-5.6
					c0,0,0-0.1-0.1-0.1c-1.2,1.6-2.6,3-4.2,4.3c-0.2-0.4-0.3-0.8-0.5-1.2C86.9,54.5,86.6,54,86.4,53.4L86.4,53.4z"/>
				<path d="M159.2,35.8c0.8,0.1,1.6,0.2,2.5,0.4c-0.2,0.6-0.5,1.2-0.8,1.9c4.1,0,8.1,0,12.2,0c-0.1,1.1,0.2,2.2-0.4,3.3
					c-0.5,0.7-0.8,1.6-1.2,2.3c-0.9-0.3-1.8-0.6-2.8-0.9c0.4-0.8,0.9-1.5,1.3-2.3c-0.2,0-0.3,0-0.4,0c-1.1,0-2.3,0-3.4,0
					c-0.2,0-0.5,0-0.5,0.1c-0.1,0.3-0.2,0.7-0.1,1c0.3,0.9,0.9,1.6,1.6,2.2c1.4,1.2,3,1.8,4.7,2.3c0.7,0.2,1.5,0.3,2.3,0.5
					c-0.4,0.8-0.9,1.7-1.3,2.6c-3.2-0.9-6.5-1.8-8.4-4.9c-0.2,0.3-0.4,0.5-0.6,0.8c-0.9,1-2,1.8-3.3,2.3c-1.4,0.6-2.9,1.1-4.4,1.7
					c-0.5-0.9-1-1.6-1.5-2.4c0.9-0.3,1.7-0.5,2.5-0.7c1.3-0.4,2.6-1,3.7-1.9c1-0.8,1.7-1.8,1.9-3.1c0-0.1,0-0.3,0-0.5
					c-0.3,0-0.7,0-1,0c-0.6,0-1.3,0-1.9,0c-0.3,0-0.4,0.1-0.5,0.3c-0.8,1.1-1.6,2.2-2.4,3.2c-0.8-0.6-1.6-1.2-2.3-1.7
					c1.9-1.8,3.3-3.9,4.2-6.4C159,35.8,159.1,35.8,159.2,35.8z"/>
				<path d="M187.8,43.3c-3.3,0-6.5,0-9.7,0c0-1,0-1.9,0-2.9c3.6,0,7.3,0,11,0c0-1.5,0-2.9,0-4.4c1,0,2,0,3,0c0,1.4,0,2.9,0,4.3
					c3.7,0,7.4,0,11.1,0c0,1,0,1.9,0,2.9c-3.2,0-6.4,0-9.6,0c2.4,4.9,6,8.8,10.6,11.6c-0.5,1-1,2-1.6,3c-4.4-3.1-8.1-6.9-10.5-11.9
					c0,3.1,0,6.2,0,9.3c1.9,0,3.8,0,5.7,0c0,0.9,0,1.8,0,2.7c-1.9,0-3.8,0-5.7,0c0,1.6,0,3.1,0,4.7c-1,0-2,0-3,0c0-1.6,0-3.1,0-4.7
					c-2,0-3.9,0-5.8,0c0-0.9,0-1.8,0-2.7c1.9,0,3.9,0,5.8,0c0-3.1,0-6.2,0-9.2c-2.4,5-6.1,8.9-10.5,12.1c-0.5-1-1-2-1.6-3
					C181.7,52.3,185.3,48.4,187.8,43.3z"/>
				<path d="M143.7,59.5c-0.8,0.9-1.5,1.9-2.3,2.8c-5.8-3.1-9.9-7.6-11.2-14.3c-1.4,6.8-5.6,11.4-11.4,14.7
					c-0.7-0.9-1.4-1.9-2.1-2.8c0.1-0.1,0.3-0.2,0.5-0.2c3.2-1.7,6-4,8-7.1c1.7-2.7,2.7-5.6,3-8.7c0.2-2.4,0.2-4.8,0.3-7.1
					c0-0.1,0-0.2,0-0.4c1.1,0,2.2,0,3.3,0c0,0.7,0.1,1.4,0,2.1c-0.2,2,0.1,4,0.4,6c0.5,2.7,1.3,5.2,2.7,7.6c2,3.4,4.8,5.8,8.4,7.4
					C143.4,59.4,143.6,59.4,143.7,59.5z"/>
				<path d="M100,61.4c0,0.5,0,0.9,0,1.4c-0.9,0-1.9,0-2.8,0c0-4.4,0-8.8,0-13.2c4.9,0,9.9,0,14.8,0c0,4.4,0,8.8,0,13.2
					c-0.9,0-1.8,0-2.8,0c0-0.5,0-0.9,0-1.4C106.2,61.4,103.1,61.4,100,61.4z M109.2,52.2c-3.1,0-6.1,0-9.2,0c0,0.8,0,1.6,0,2.5
					c3.1,0,6.1,0,9.2,0C109.2,53.8,109.2,53,109.2,52.2z M109.2,56.8c-3.1,0-6.1,0-9.2,0c0,0.8,0,1.6,0,2.4c3.1,0,6.1,0,9.2,0
					C109.2,58.4,109.2,57.6,109.2,56.8z"/>
				<path d="M96.4,41.8c0-0.9,0-1.7,0-2.5c1,0,2,0,3,0c0-1.1,0-2.1,0-3.1c1,0,1.9,0,2.9,0c0,1,0,2,0,3.1c1.5,0,3,0,4.5,0
					c0-1,0-2.1,0-3.1c1,0,1.9,0,2.9,0c0,1,0,2.1,0,3.1c1.1,0,2.1,0,3.1,0c0,0.8,0,1.6,0,2.5c-1,0-2.1,0-3.1,0c0,1.1,0,2.1,0,3.2
					c1.3,0,2.5,0,3.8,0c0,0.8,0,1.6,0,2.5c-5.9,0-11.9,0-17.8,0c0-0.8,0-1.6,0-2.4c1.2,0,2.4,0,3.6,0c0-1.1,0-2.1,0-3.2
					C98.4,41.8,97.4,41.8,96.4,41.8z M102.4,44.9c1.5,0,3,0,4.4,0c0-1.1,0-2.1,0-3.1c-1.5,0-3,0-4.4,0
					C102.4,42.9,102.4,43.9,102.4,44.9z"/>
				<path d="M170.5,49.4c0,2.7,0,5.4,0,8.2c-1,0-2,0-3,0c0-1.9,0-3.8,0-5.7c-4.7,0-9.3,0-13.9,0c0,1.9,0,3.8,0,5.8c-1,0-1.9,0-2.9,0
					c0-2.7,0-5.5,0-8.3C157.3,49.4,163.9,49.4,170.5,49.4z"/>
				<path d="M147.4,60.1c0.8-0.1,1.5-0.1,2.2-0.2c2-0.2,4-0.6,5.9-1.3c0.4-0.1,0.7-0.3,1.1-0.5c1.5-0.7,2.3-2,2.4-3.7
					c0-0.5,0.1-0.9,0.1-1.4c1,0,2,0,3,0c0.1,1.2-0.2,2.3-0.5,3.5c3.9,1.2,7.9,2.5,11.9,3.7c-0.5,0.9-0.9,1.7-1.4,2.6
					c-1.3-0.5-2.7-1-4-1.5c-2.5-0.9-5-1.7-7.4-2.6c-0.3-0.1-0.4-0.1-0.6,0.1c-1.1,1.1-2.5,1.7-3.9,2.2c-2.4,0.8-4.8,1.3-7.3,1.6
					c-0.1,0-0.3-0.1-0.4-0.2C148.1,61.8,147.8,61,147.4,60.1z"/>
				<path d="M148.7,49.2c-0.6-0.7-1.2-1.5-1.7-2.2c2.1-1.5,4.2-3.1,6.4-4.6c0.5,0.7,1.1,1.4,1.6,2.1
					C152.9,46.1,150.8,47.6,148.7,49.2z"/>
				<path d="M152.1,41.7c-1.4-1.2-2.7-2.3-4-3.4c0.6-0.6,1.2-1.2,1.9-1.9c1.3,1,2.8,2,4.2,3.1C153.5,40.3,152.8,41,152.1,41.7z"/>
				<path class="st0" d="M109.2,52.2c0,0.8,0,1.6,0,2.5c-3.1,0-6.1,0-9.2,0c0-0.8,0-1.6,0-2.5C103.1,52.2,106.1,52.2,109.2,52.2z"/>
				<path class="st0" d="M109.2,56.8c0,0.8,0,1.6,0,2.4c-3.1,0-6.1,0-9.2,0c0-0.8,0-1.6,0-2.4C103.1,56.8,106.1,56.8,109.2,56.8z"/>
				<path class="st0" d="M102.4,44.9c0-1.1,0-2.1,0-3.1c1.5,0,2.9,0,4.4,0c0,1,0,2.1,0,3.1C105.4,44.9,103.9,44.9,102.4,44.9z"/>
			</g>
		</g>
	</g>
	<g>
		<g>
			<g>
				<path class="st1" d="M47.7,6.4c10.1,0,20.2,0,30.2,0c0.2,0,0.2,0,0.2,0.2c0,22.1,0,44.2,0,66.4c0,0.2,0,0.2-0.2,0.2
					c-21.7,0-43.4,0-65.1,0c-0.2,0-0.2,0-0.2-0.2c0-22.2,0-44.4,0-66.6c10.6,0,21.1,0,31.7,0c0,0.1-0.1,0.1-0.2,0.1
					c-0.5,0.1-1.1,0.1-1.6,0.1c-1.7,0.2-3.4,0.5-5.1,1C35.1,8.2,33,9,30.9,10.1c-1.9,1-3.7,2.1-5.3,3.4c-1.4,1.1-2.6,2.2-3.8,3.5
					c-1.8,2-3.4,4.1-4.7,6.4c-1.2,2.1-2.1,4.3-2.8,6.6c-0.6,1.8-1,3.7-1.2,5.6c-0.2,1.7-0.3,3.3-0.2,5c0,1.1,0.1,2.2,0.3,3.3
					c0.2,1.8,0.6,3.5,1.1,5.2c0.4,1.4,0.9,2.8,1.6,4.2c1,2.3,2.3,4.4,3.8,6.5c1.1,1.5,2.4,2.9,3.8,4.2c1.9,1.7,3.9,3.3,6.1,4.5
					c3.3,1.9,6.8,3.2,10.6,3.9c1.2,0.2,2.4,0.4,3.6,0.5c1.2,0.1,2.3,0.1,3.5,0.1c2.3-0.1,4.5-0.4,6.7-0.9c1.8-0.4,3.6-1,5.3-1.7
					c3-1.3,5.7-3,8.2-5c1.1-0.9,2.1-1.9,3.1-2.9c1.3-1.4,2.5-2.9,3.6-4.5c1.7-2.5,3-5.3,3.9-8.2c0.1-0.2,0-0.2-0.2-0.2
					c-0.9,0-1.7,0-2.6,0c-0.4,0-0.4,0-0.5,0.3c-0.5,1.3-1,2.6-1.7,3.8c-1,1.9-2.1,3.6-3.5,5.2c-0.8,0.9-1.5,1.8-2.4,2.6
					c-2.2,2.1-4.7,3.9-7.5,5.3c-2.4,1.2-4.9,2-7.5,2.6c-1.1,0.2-2.2,0.4-3.4,0.5c-1.4,0.1-2.8,0.1-4.2,0.1c-2.4-0.1-4.8-0.5-7.2-1.2
					c-1.9-0.6-3.8-1.4-5.6-2.3c-1.9-1-3.6-2.2-5.2-3.6c-0.7-0.6-1.5-1.3-2.1-2c-1.9-1.9-3.5-4.1-4.8-6.4c-0.9-1.7-1.7-3.5-2.3-5.4
					c-0.6-1.8-1-3.7-1.2-5.6c-0.2-1.7-0.2-3.4-0.2-5.1c0-1.3,0.2-2.6,0.4-3.9c0.4-2.2,1-4.3,1.9-6.3c1.2-2.7,2.6-5.2,4.5-7.5
					c1-1.2,2.1-2.3,3.3-3.4c1.6-1.4,3.3-2.6,5.1-3.7c2.7-1.5,5.5-2.6,8.5-3.3c1.3-0.3,2.7-0.5,4-0.6c1.3-0.1,2.6-0.1,4,0
					c2.8,0.1,5.5,0.6,8.1,1.6c3.5,1.2,6.7,3,9.6,5.4c0.8,0.7,1.6,1.4,2.4,2.2c1.9,1.9,3.5,4.1,4.8,6.4c0.9,1.7,1.7,3.4,2.3,5.2
					c0.1,0.2,0.2,0.3,0.4,0.2c0.9,0,1.8,0,2.7,0c0.2,0,0.2,0,0.2-0.2c-0.4-1.2-0.8-2.5-1.3-3.7c-0.9-2-1.9-3.9-3.2-5.7
					c-0.9-1.2-1.8-2.4-2.8-3.5c-1.5-1.6-3.1-3.1-4.9-4.4c-2-1.5-4.1-2.7-6.3-3.7c-2.3-1-4.6-1.7-7.1-2.2c-1.3-0.3-2.6-0.4-3.9-0.5
					C48.2,6.5,47.9,6.5,47.7,6.4C47.7,6.4,47.7,6.4,47.7,6.4z"/>
				<path d="M47.7,6.4c15.7,0.8,27.1,12.1,30.4,24.1c-1.1,0-2.1,0-3.2,0c-0.2,0-0.1-0.1-0.2-0.2c-0.5-1.4-1-2.8-1.7-4.1
					c-3.7-7.3-9.4-12.3-17.1-15c-3.8-1.4-7.8-1.9-11.8-1.6c-6.2,0.4-11.8,2.5-16.6,6.3c-5.8,4.5-9.4,10.4-11,17.6
					c-0.6,2.7-0.7,5.3-0.6,8c0.4,6.6,2.7,12.4,7,17.5c4.3,5.1,9.6,8.4,16.1,10c2.8,0.7,5.7,1,8.6,0.8c6.5-0.3,12.3-2.5,17.4-6.6
					c4.5-3.6,7.7-8.1,9.6-13.6c0.1-0.2,0.1-0.2,0.3-0.2c1,0,2,0,3,0c0,0,0,0,0.1,0c-0.2,0.6-0.4,1.2-0.6,1.8
					c-3.8,9.8-10.7,16.5-20.6,20.1c-2.5,0.9-5.1,1.4-7.7,1.6c-6.7,0.6-13-0.7-18.9-3.9C22.3,64.8,17,58.3,14.2,49.9
					c-1.3-4-1.8-8-1.5-12.2c0.7-9.3,4.5-17,11.5-23.2c4.4-3.8,9.4-6.3,15.1-7.5c1.6-0.3,3.2-0.5,4.8-0.6c0.1,0,0.1,0,0.2-0.1
					c0.1,0,0.1,0,0.2,0c0.1,0,0.2,0,0.4,0c0,0,0.1,0,0.1,0c0.1,0.1,0.2,0,0.4,0c0.1,0,0.3,0,0.5,0c0.3,0,0.5,0,0.8,0
					c0.1,0,0.3,0,0.4,0c0,0,0.1,0,0.1,0c0.1,0.1,0.2,0,0.3,0C47.5,6.4,47.6,6.4,47.7,6.4z"/>
				<path class="st2" d="M45.8,6.4c-0.1,0.1-0.3,0-0.5,0c0,0,0,0,0,0c0,0,0,0,0,0C45.5,6.4,45.6,6.4,45.8,6.4z"/>
				<path class="st3" d="M47,6.4c-0.1,0.1-0.3,0.1-0.4,0C46.7,6.4,46.9,6.4,47,6.4z"/>
				<path class="st4" d="M44.9,6.4c-0.1,0.1-0.2,0.1-0.4,0C44.6,6.4,44.7,6.4,44.9,6.4z"/>
				<path class="st5" d="M45.3,6.4C45.3,6.4,45.3,6.4,45.3,6.4c-0.1,0-0.3,0.1-0.4,0C45.1,6.4,45.2,6.4,45.3,6.4z"/>
				<path class="st6" d="M47.4,6.4c-0.1,0-0.2,0-0.3,0C47.2,6.4,47.3,6.4,47.4,6.4C47.4,6.4,47.4,6.4,47.4,6.4
					C47.4,6.4,47.4,6.4,47.4,6.4z"/>
				<path class="st7" d="M47.4,6.4C47.4,6.4,47.4,6.4,47.4,6.4c0.1,0,0.2,0,0.3,0c0,0,0,0,0,0C47.6,6.4,47.5,6.4,47.4,6.4z"/>
			</g>
		</g>
		<g id="矩形_1_1_">
			<g>
				<rect x="33.6" y="9" class="st8" width="3.9" height="60.6"/>
			</g>
			<g>
				<polygon points="37.5,9 33.6,9 33.6,69.6 37.5,69.6 37.5,9 				"/>
			</g>
		</g>
		<g id="矩形_1_拷贝_1_">
			<g>
				<rect x="55" y="9" class="st8" width="3.9" height="60.6"/>
			</g>
			<g>
				<polygon points="58.9,9 55,9 55,69.6 58.9,69.6 58.9,9 				"/>
			</g>
		</g>
		<g id="矩形_1_拷贝_2_1_">
			<g>
				<rect x="35.4" y="27.9" class="st8" width="21.6" height="3.9"/>
			</g>
			<g>
				<polygon points="56.9,27.9 35.4,27.9 35.4,31.8 56.9,31.8 56.9,27.9 				"/>
			</g>
		</g>
		<g id="矩形_1_拷贝_3_1_">
			<g>
				<rect x="35.4" y="47.1" class="st8" width="21.6" height="3.9"/>
			</g>
			<g>
				<polygon points="56.9,47.1 35.4,47.1 35.4,51 56.9,51 56.9,47.1 				"/>
			</g>
		</g>
	</g>
</g>
</svg>
