<?xml version="1.0" encoding="utf-8"?>
<!-- Generator: Adobe Illustrator 21.1.0, SVG Export Plug-In . SVG Version: 6.00 Build 0)  -->
<svg version="1.1" id="图层_1" xmlns="http://www.w3.org/2000/svg" xmlns:xlink="http://www.w3.org/1999/xlink" x="0px" y="0px"
	 viewBox="0 0 217 80" style="enable-background:new 0 0 217 80;" xml:space="preserve">
<style type="text/css">
	.st0{fill:#FFFFFF;}
	.st1{fill:none;}
	.st2{fill:#1C2143;}
	.st3{fill:#339CD0;}
	.st4{fill:#339DD0;}
	.st5{fill:#349DD0;}
	.st6{fill:#1D2243;}
	.st7{fill:#FEFEFE;}
	.st8{fill:#FDFDFE;}
</style>
<g>
	<rect x="1.4" y="1.4" class="st0" width="214.2" height="77.2"/>
	<path class="st1" d="M214.2,2.8v74.3H2.8V2.8H214.2 M217,0H0v80h217V0L217,0z"/>
</g>
<g>
	<g>
		<path class="st2" d="M33.6,40.7c0-3.1,0-6.1,0-9.2c0-0.6,0.2-0.8,0.8-0.8c0.5,0,1,0,1.6,0c1,0,1.4,0.4,1.4,1.4c0,2,0,3.9,0,5.9
			c0,0.6,0.1,0.8,0.8,0.8c2.1,0,4.2,0,6.3,0c0.6,0,0.8-0.2,0.8-0.8c0-2.2,0-4.4,0-6.5c0-0.6,0.1-0.9,0.8-0.8c0.4,0.1,0.9,0,1.3,0
			c1.4,0,1.6,0.3,1.6,1.7c0,3.8,0,7.7,0,11.5c0,2.2,0,4.4,0,6.5c0,0.5-0.1,0.8-0.7,0.7c-0.6,0-1.2,0-1.7,0c-1,0-1.3-0.3-1.3-1.3
			c0-2.3,0-4.6,0-6.9c0-0.7-0.1-0.9-0.8-0.9c-2.1,0.1-4.2,0-6.3,0c-0.7,0-0.8,0.2-0.8,0.8c0,2.5,0,5,0,7.5c0,0.7-0.2,0.9-0.8,0.8
			c-0.5,0-1,0-1.5,0c-1.2,0-1.4-0.3-1.4-1.4C33.6,46.7,33.6,43.7,33.6,40.7z"/>
		<path class="st3" d="M87.4,34c0,0.8-0.3,1.8,0.1,2.2c0.5,0.5,1.3-0.2,2.1-0.3c4.6-0.6,8.2,2.5,8.2,7.1c0,1,0.1,2-0.1,2.9
			c-0.7,3.6-3.9,5.9-7.6,5.6c-3.7-0.3-6.4-3.1-6.4-6.9c-0.1-4.4,0-8.7,0-13.1c0-0.7,0.3-0.8,0.9-0.8c2.9,0,2.9,0,2.9,2.9
			C87.3,33.7,87.3,33.8,87.4,34L87.4,34z"/>
		<path class="st2" d="M150.7,50c0,1.7,0,3.4,0,5c0,0.6-0.1,0.8-0.7,0.7c-0.6-0.1-1.2,0-1.8,0c-0.7,0-1.2-0.4-1.2-1.1
			c0-4.4-0.1-8.9,0.1-13.3c0.1-3.5,3.5-6.3,7-6.3c3.6,0,6.8,2.9,7,6.5c0.1,1.4,0.2,2.8-0.3,4.1c-1.2,3.9-5.2,6-9.1,4.7
			C151.4,50.2,151.1,50.1,150.7,50z"/>
		<path class="st2" d="M128.6,36.2c-2.8-2.9-7.8-2.9-10.1-0.5c-2.3,2.4-2.4,7.4-0.2,10c2,2.5,6.8,2.8,10.1,0.1
			c0.4,3.2,0.4,4.1-2.8,5.1c-7,2-13.3-3.2-12.9-10.5c0.3-4.4,2.2-7.8,6.5-9.4c2.5-0.9,5.1-0.9,7.6,0c1.5,0.5,1.7,0.9,1.7,2.5
			C128.6,34.4,128.6,35.2,128.6,36.2z"/>
		<path class="st2" d="M195.6,44.4c0,1.5,0,2.8,0,4c0,1-0.4,1.8-1.3,2.1c-3.1,1.2-6.2,1.4-9.2,0.1c-3.3-1.5-3.5-6.2-0.5-8.2
			c1.8-1.2,3.8-1.4,5.8-1.3c0.4,0,1.1,0.4,1.3-0.1c0.2-0.7-0.1-1.5-0.8-1.9c-0.6-0.4-1.3-0.5-2-0.6c-1.5-0.1-3,0.3-4.4,0.6
			c-0.6,0.2-0.8-0.1-0.8-0.6c0.1-3.1-0.5-2.4,2.3-2.9c1.9-0.3,3.8-0.4,5.7,0.1c2.3,0.6,3.6,2.1,3.8,4.5
			C195.7,41.7,195.6,43.2,195.6,44.4z"/>
		<path class="st2" d="M144.2,44.5c0,1.3,0,2.6,0,3.9c0,1.1-0.5,1.8-1.5,2.3c-1.8,0.8-3.7,0.9-5.6,0.8c-0.9,0-1.8-0.2-2.7-0.5
			c-1.9-0.7-3.1-1.9-3.3-4c-0.2-2,0.6-3.6,2.3-4.7c1.8-1.1,3.9-1.3,5.9-1.2c1.2,0.1,1.3,0,0.9-1.2c-0.2-0.8-0.8-1.1-1.5-1.3
			c-1.7-0.4-3.3-0.1-4.9,0.3c-1.7,0.4-1.4,0.4-1.5-1.2c0-1.8,0-1.8,1.9-2.1c2-0.3,4.1-0.5,6.1,0c2.3,0.6,3.7,2.2,3.8,4.6
			C144.2,41.7,144.1,43.1,144.2,44.5L144.2,44.5z"/>
		<path class="st2" d="M18.7,24.2c0.7,0.5,1.1,1.1,1.5,1.7c1.3,2.1,1.9,4.4,1.9,6.8c0,1.1-0.3,2.1-0.9,3c-0.6,1-1.3,1.9-2,2.9
			c-0.5,0.7-0.9,1.3-1.4,1.9c-2.5,3.2-2.6,6.6-0.6,10c0.2,0.4,0.8,1,0.5,1.3c-0.4,0.4-1,0-1.5-0.2c-4.5-1.7-8.5-8.6-3.6-14.9
			c0.6-0.8,1.3-1.5,2-2.3c2.4-2.5,3.8-5.6,3.9-9.1C18.6,25.1,18.6,24.7,18.7,24.2z"/>
		<path class="st2" d="M81.1,43.7c0.1,1.3,0,2.6-0.6,3.8c-1.2,2.7-4.3,4.4-7.4,4c-3.3-0.5-5.6-2.7-6.1-5.8c-0.2-1.3-0.2-2.7,0-4
			c0.5-3.6,3.6-5.9,7.5-5.8c3.5,0.2,6.3,2.9,6.5,6.4C81.1,42.7,81.1,43.2,81.1,43.7z"/>
		<path class="st2" d="M51.7,41.3c0-1.6,0-3.2,0-4.8c0-0.5,0.1-0.7,0.7-0.7c0.5,0,1,0,1.5,0c1.3,0,1.6,0.3,1.6,1.5
			c0,2.6,0,5.3,0,7.9c0,2.3,2.3,3.6,4.2,2.4c0.9-0.6,1.2-1.5,1.2-2.5c0-2.9,0-5.7,0-8.6c0-0.6,0.1-0.9,0.8-0.8c0.6,0.1,1.2,0,1.7,0
			c0.8,0,1.2,0.4,1.2,1.1c0,3.1,0.1,6.1,0,9.2c-0.2,3.1-2.7,5.3-5.8,5.4c-0.9,0-1.7,0.1-2.6-0.1c-2.5-0.6-4.4-2.8-4.4-5.4
			C51.6,44.4,51.7,42.8,51.7,41.3L51.7,41.3z"/>
		<path class="st2" d="M170.6,39.3c0-3,0-5.5,0-8c0-0.5,0.1-0.8,0.7-0.8c0.6,0.1,1.2,0,1.8,0c0.8,0,1.2,0.4,1.2,1.2
			c0,1,0.1,1.9,0,2.9c-0.1,0.9,0.3,1,1,1c1-0.1,2,0,2.9,0c1,0,1.3,0.3,1.4,1.3c0.1,2.1,0.1,2.1-2.1,2.1c-0.9,0-1.8,0-2.7,0
			c-0.4,0-0.6,0.1-0.6,0.6c0,2,0,4,0,6c0,1.6,0.8,2.3,2.4,2.4c0.6,0,1.2,0,1.7,0c0.6,0,1,0.3,1.1,0.9c0.1,0.7,0,1.4,0,2.1
			c0,0.3-0.1,0.4-0.4,0.4c-1.6-0.1-3.1,0.2-4.7-0.2c-2.4-0.5-3.7-2.1-3.9-4.5C170.4,44.1,170.6,41.5,170.6,39.3z"/>
		<path class="st3" d="M24.6,35.5c5.2,4,4.7,12.1-0.9,15.2c-0.5,0.3-1,0.6-1.4,1.1c-0.3,0.4-0.5,0.2-0.7,0c-1.8-2-2.5-4.2-1.7-6.9
			c0.4-1.5,1.1-2.8,2-4.1C23,39.1,24,37.5,24.6,35.5z"/>
		<path class="st2" d="M198.5,38.7c0-2.5,0-5.1,0-7.6c0-0.6,0.1-0.8,0.7-0.8c0.5,0.1,1,0,1.6,0c1.2,0,1.5,0.3,1.5,1.5
			c0,3.9,0,7.9,0,11.8c0,1,0,2,0.1,2.9c0,0.8,0.4,1.2,1.2,1.2c0.6,0,1.3,0,1.9,0c0.7,0,1.1,0.4,1.1,1.2c0.1,2.3,0.1,2.3-2.2,2.3
			c-0.7,0-1.4,0-2,0c-2.1-0.2-3.4-1.3-3.7-3.4c-0.3-1.8-0.1-3.5-0.2-5.3C198.4,41.2,198.5,40,198.5,38.7z"/>
		<path class="st4" d="M103.9,44.1c0,2.1,0,4.2,0,6.3c0,0.6-0.2,0.9-0.8,0.8c-0.5,0-1.1,0-1.7,0c-0.9,0-1.3-0.4-1.3-1.2
			c0-4.4,0-8.7,0-13.1c0-0.4,0.2-0.5,0.5-0.5c0.6,0,1.2,0,1.8,0c1,0,1.4,0.3,1.4,1.4C103.9,39.9,103.9,42,103.9,44.1z"/>
		<path class="st2" d="M167.7,44c0,2.1,0,4.3,0,6.4c0,0.6-0.1,0.8-0.7,0.7c-0.6-0.1-1.2,0-1.8,0c-0.7,0-1.1-0.4-1.2-1.1
			c0-4.4,0-8.8,0-13.2c0-0.4,0.1-0.5,0.5-0.5c0.6,0,1.2,0,1.7,0c1.1,0,1.4,0.3,1.4,1.4C167.7,39.9,167.7,42,167.7,44z"/>
		<path class="st5" d="M104.1,32.8c0,1.1-1,2.1-2.1,2.1s-2.1-1-2.1-2.1c0-1.1,1-2.1,2-2.1C103.2,30.7,104.1,31.6,104.1,32.8z"/>
		<path class="st6" d="M167.9,32.8c0,1.2-0.9,2.1-2.1,2.1c-1.2,0-2.1-0.9-2-2.1c0-1.1,0.9-2.1,2-2.1C167,30.7,167.9,31.6,167.9,32.8
			z"/>
		<path class="st7" d="M94,43.7c0,0.4,0,0.8,0,1.2c0,1.5-0.7,2.5-2,3c-1.4,0.5-3,0.2-3.9-0.9c-1.1-1.2-1.1-5.5,0-6.7
			c0.9-1,2.5-1.3,3.8-0.9c1.3,0.4,2,1.5,2.1,3C94,42.8,94,43.2,94,43.7z"/>
		<path class="st7" d="M150.7,42.9c0-0.4,0-0.7,0-1.1c0-2.1,1.3-3.3,3.3-3.3s3.3,1.3,3.3,3.3c0,0.8,0,1.7,0,2.5
			c-0.1,1.8-1.5,3.1-3.4,3.1s-3.2-1.3-3.2-3.1C150.7,43.7,150.7,43.3,150.7,42.9z"/>
		<path class="st7" d="M191.8,46.2c0,2.1,0,2.2-2.1,2.2c-0.6,0-1.2,0-1.8-0.1c-0.9-0.2-1.4-0.8-1.5-1.8s0.3-1.7,1.2-2.1
			c1.3-0.5,2.6-0.4,3.9-0.3c0.4,0,0.3,0.3,0.3,0.5C191.8,45.2,191.8,45.7,191.8,46.2z"/>
		<path class="st8" d="M140.4,46.2c0,2.2,0,2.2-2.2,2.2c-0.5,0-1.1,0-1.6-0.1c-1-0.2-1.5-0.8-1.6-1.7c-0.1-1,0.3-1.8,1.3-2.1
			c1.3-0.5,2.6-0.4,3.9-0.3c0.3,0,0.3,0.3,0.3,0.5C140.4,45.1,140.4,45.7,140.4,46.2z"/>
		<path class="st7" d="M70.8,43.7c0-0.4,0-0.9,0-1.3c0.1-1.9,1.4-3.2,3.3-3.2s3.3,1.3,3.4,3.2c0,0.9,0,1.7,0,2.6
			c-0.1,1.9-1.4,3.1-3.4,3.1c-1.9,0-3.2-1.2-3.3-3.1C70.7,44.5,70.8,44.1,70.8,43.7z"/>
	</g>
</g>
</svg>
