<?xml version="1.0" encoding="utf-8"?>
<!-- Generator: Adobe Illustrator 21.1.0, SVG Export Plug-In . SVG Version: 6.00 Build 0)  -->
<svg version="1.1" id="图层_1" xmlns="http://www.w3.org/2000/svg" xmlns:xlink="http://www.w3.org/1999/xlink" x="0px" y="0px"
	 viewBox="0 0 217 80" style="enable-background:new 0 0 217 80;" xml:space="preserve">
<style type="text/css">
	.st0{fill:#FFFFFF;}
	.st1{fill:none;}
	.st2{fill:#1A1A1A;}
	.st3{fill:#7ABDF7;}
	.st4{fill:#0D74F5;}
	.st5{fill:#4494F7;}
	.st6{fill:#005CF4;}
	.st7{fill:#186EF9;}
	.st8{fill:#0246F2;}
	.st9{fill:#0046F8;}
	.st10{fill:#0729F1;}
</style>
<g>
	<rect x="1.4" y="1.4" class="st0" width="214.2" height="77.2"/>
	<path class="st1" d="M214.2,2.8v74.3H2.8V2.8H214.2 M217,0H0v80h217V0L217,0z"/>
</g>
<g>
	<g>
		<path class="st2" d="M100,40c0,1.6-0.3,3.2-0.8,4.6c-0.6,1.5-1.4,2.7-2.4,3.8c-1.1,1.1-2.4,1.9-3.9,2.6s-3.4,1-5.4,1
			s-3.7-0.3-5.3-0.9c-1.6-0.6-2.9-1.5-3.9-2.6c-1.1-1.1-1.9-2.4-2.4-3.8c-0.5-1.5-0.8-3-0.8-4.6s0.3-3.2,0.8-4.6
			c0.5-1.5,1.4-2.7,2.4-3.8c1.1-1.1,2.4-1.9,3.9-2.6c1.6-0.6,3.3-0.9,5.3-0.9s3.7,0.3,5.3,0.9c1.6,0.6,2.9,1.5,3.9,2.6
			c1.1,1.1,1.9,2.4,2.4,3.8C99.8,36.8,100,38.4,100,40z M87.6,48.2c1.2,0,2.3-0.2,3.2-0.6c0.9-0.4,1.7-1,2.3-1.7
			c0.6-0.7,1.1-1.6,1.4-2.6s0.4-2.1,0.4-3.2s-0.1-2.2-0.4-3.2s-0.7-1.9-1.4-2.6c-0.6-0.7-1.4-1.3-2.3-1.7s-2-0.6-3.2-0.6
			s-2.3,0.2-3.2,0.6c-0.9,0.4-1.7,1-2.3,1.7c-0.6,0.7-1.1,1.6-1.4,2.6s-0.4,2.1-0.4,3.2s0.1,2.2,0.4,3.2s0.7,1.9,1.4,2.6
			c0.6,0.7,1.4,1.3,2.3,1.7C85.3,47.9,86.3,48.2,87.6,48.2z"/>
		<path class="st2" d="M103.7,52V28.1h5.4v11.4l8.9-11.4h6.2l-9.4,11.8l10,12.1h-6.6l-9.1-11.7V52H103.7z"/>
		<path class="st2" d="M134.5,34.1c0,0.3-0.1,0.7-0.2,0.9c-0.2,0.3-0.4,0.5-0.7,0.7s-0.7,0.4-1.1,0.5c-0.4,0.1-0.9,0.2-1.4,0.2h-2.5
			v-8.3h2.7c0.4,0,0.8,0,1.2,0.1s0.7,0.2,0.9,0.4c0.3,0.2,0.4,0.4,0.6,0.6c0.1,0.2,0.2,0.5,0.2,0.8c0,0.5-0.2,0.9-0.5,1.2
			c-0.3,0.3-0.8,0.6-1.3,0.7c0.7,0.1,1.2,0.3,1.6,0.7C134.3,33.1,134.5,33.5,134.5,34.1z M130.9,31.7c0.3,0,0.6,0,0.8-0.1
			c0.3-0.1,0.5-0.2,0.7-0.3c0.2-0.1,0.3-0.3,0.4-0.4c0.1-0.2,0.2-0.4,0.2-0.6c0-0.4-0.2-0.7-0.5-0.9c-0.3-0.2-0.8-0.3-1.3-0.3h-1.5
			v2.6C129.7,31.7,130.9,31.7,130.9,31.7z M133.3,34.1c0-0.2-0.1-0.5-0.2-0.6c-0.1-0.2-0.3-0.3-0.5-0.5c-0.2-0.1-0.5-0.2-0.7-0.3
			c-0.3-0.1-0.6-0.1-0.9-0.1h-1.3v2.9h1.4c0.7,0,1.2-0.1,1.6-0.4C133.2,34.9,133.3,34.5,133.3,34.1z"/>
		<path class="st2" d="M137.4,28.1v7.3h3.7v0.9h-4.9V28L137.4,28.1L137.4,28.1z"/>
		<path class="st2" d="M146.3,36.7c-0.7,0-1.3-0.1-1.8-0.3s-1-0.5-1.4-0.9s-0.6-0.8-0.8-1.4c-0.2-0.5-0.3-1.1-0.3-1.6
			c0-0.6,0.1-1.1,0.3-1.6s0.5-1,0.8-1.4c0.4-0.4,0.8-0.7,1.4-0.9c0.5-0.2,1.2-0.3,1.8-0.3c0.7,0,1.3,0.1,1.8,0.3
			c0.5,0.2,1,0.5,1.4,0.9s0.6,0.8,0.8,1.4c0.2,0.5,0.3,1.1,0.3,1.6c0,0.6-0.1,1.1-0.3,1.6s-0.5,1-0.8,1.4c-0.4,0.4-0.8,0.7-1.4,0.9
			C147.6,36.6,147,36.7,146.3,36.7z M146.3,35.8c0.5,0,1-0.1,1.3-0.3c0.4-0.2,0.7-0.4,1-0.7s0.5-0.7,0.6-1.1
			c0.1-0.4,0.2-0.8,0.2-1.3s-0.1-0.9-0.2-1.3c-0.1-0.4-0.3-0.8-0.6-1.1c-0.3-0.3-0.6-0.5-1-0.7s-0.8-0.3-1.3-0.3s-1,0.1-1.3,0.3
			c-0.4,0.2-0.7,0.4-1,0.7c-0.3,0.3-0.5,0.7-0.6,1.1s-0.2,0.8-0.2,1.3s0.1,0.9,0.2,1.3c0.1,0.4,0.3,0.8,0.6,1.1s0.6,0.5,1,0.7
			C145.3,35.7,145.8,35.8,146.3,35.8z"/>
		<path class="st2" d="M156.4,28.1c0.4,0,0.8,0,1.2,0.1s0.8,0.2,1.1,0.3l-0.2,0.9c-0.3-0.1-0.6-0.2-1-0.2c-0.3-0.1-0.7-0.1-1-0.1
			c-1.1,0-2,0.3-2.6,0.9s-0.9,1.4-0.9,2.5c0,1.1,0.3,1.9,0.9,2.5c0.6,0.6,1.5,0.9,2.6,0.9c0.3,0,0.7,0,1-0.1s0.7-0.1,1-0.2l0.2,0.9
			c-0.3,0.1-0.7,0.2-1.1,0.3c-0.4,0.1-0.8,0.1-1.2,0.1c-0.7,0-1.4-0.1-1.9-0.3c-0.6-0.2-1.1-0.5-1.4-0.9c-0.4-0.4-0.7-0.8-0.9-1.4
			c-0.2-0.5-0.3-1.1-0.3-1.7c0-0.6,0.1-1.2,0.3-1.7s0.5-1,0.9-1.4s0.9-0.7,1.4-0.9C155,28.3,155.6,28.1,156.4,28.1z"/>
		<path class="st2" d="M160.4,36.4v-8.3h1.2v4l3.7-4h1.5l-3.8,4.1l4.1,4.2h-1.5l-3.9-4.1v4.1H160.4z"/>
		<path class="st2" d="M172.2,28.1c0.4,0,0.8,0,1.2,0.1s0.8,0.2,1.1,0.3l-0.2,0.9c-0.3-0.1-0.6-0.2-1-0.2c-0.3-0.1-0.7-0.1-1-0.1
			c-1.1,0-2,0.3-2.6,0.9s-0.9,1.4-0.9,2.5c0,1.1,0.3,1.9,0.9,2.5c0.6,0.6,1.5,0.9,2.6,0.9c0.3,0,0.7,0,1-0.1s0.7-0.1,1-0.2l0.2,0.9
			c-0.3,0.1-0.7,0.2-1.1,0.3c-0.4,0.1-0.8,0.1-1.2,0.1c-0.7,0-1.4-0.1-1.9-0.3c-0.6-0.2-1.1-0.5-1.4-0.9c-0.4-0.4-0.7-0.8-0.9-1.4
			c-0.2-0.5-0.3-1.1-0.3-1.7c0-0.6,0.1-1.2,0.3-1.7s0.5-1,0.9-1.4s0.9-0.7,1.4-0.9C170.9,28.3,171.5,28.1,172.2,28.1z"/>
		<path class="st2" d="M182,36.4v-3.7h-4.5v3.7h-1.2v-8.3h1.2v3.6h4.5v-3.6h1.2v8.3H182z"/>
		<path class="st2" d="M192.9,36.4h-1.2l-0.8-2h-4.1l-0.8,2h-1.3l3.5-8.3h1.2L192.9,36.4z M187.1,33.5h3.4l-1.7-4.3L187.1,33.5z"/>
		<path class="st2" d="M195.6,36.4h-1.2v-8.3h1.2V36.4z"/>
		<path class="st2" d="M203.9,36.4l-5-6.5v6.5h-1.2v-8.3h1.2l5,6.5v-6.5h1.2v8.3H203.9z"/>
		<path class="st2" d="M133.2,43.4c0.4,0,0.8,0,1.2,0.1s0.8,0.2,1.1,0.3l-0.2,0.9c-0.3-0.1-0.6-0.2-1-0.2c-0.3-0.1-0.7-0.1-1-0.1
			c-1.1,0-2,0.3-2.6,0.9c-0.6,0.6-0.9,1.4-0.9,2.5s0.3,1.9,0.9,2.5c0.6,0.6,1.5,0.9,2.6,0.9c0.3,0,0.7,0,1-0.1s0.7-0.1,1-0.2
			l0.2,0.9c-0.3,0.1-0.7,0.2-1.1,0.3c-0.4,0.1-0.9,0.1-1.2,0.1c-0.7,0-1.4-0.1-1.9-0.3c-0.6-0.2-1.1-0.5-1.4-0.9
			c-0.4-0.4-0.7-0.8-0.9-1.4c-0.2-0.5-0.3-1.1-0.3-1.7s0.1-1.2,0.3-1.7s0.5-1,0.9-1.4s0.9-0.7,1.4-0.9
			C131.8,43.6,132.4,43.4,133.2,43.4z"/>
		<path class="st2" d="M144.7,52h-1.2l-0.8-2h-4.1l-0.8,2h-1.2l3.5-8.3h1.2L144.7,52z M138.9,49.1h3.4l-1.7-4.3L138.9,49.1z"/>
		<path class="st2" d="M151.7,46.2c0,0.4-0.1,0.8-0.3,1.1s-0.4,0.6-0.8,0.8c-0.3,0.2-0.7,0.4-1.2,0.5s-0.9,0.2-1.5,0.2h-0.6V52h-1.2
			v-8.3h2.1c0.5,0,0.9,0,1.3,0.1c0.4,0.1,0.8,0.2,1.1,0.5c0.3,0.2,0.5,0.5,0.7,0.8C151.6,45.4,151.7,45.8,151.7,46.2z M150.5,46.1
			c0-0.3-0.1-0.5-0.2-0.7c-0.1-0.2-0.3-0.3-0.5-0.5c-0.2-0.1-0.4-0.2-0.7-0.3s-0.6-0.1-0.9-0.1h-0.9v3.2h0.7c0.4,0,0.7,0,1-0.1
			s0.6-0.2,0.8-0.3s0.4-0.3,0.5-0.5C150.4,46.7,150.5,46.4,150.5,46.1z"/>
		<path class="st2" d="M154.2,52H153v-8.3h1.2V52z"/>
		<path class="st2" d="M162.1,43.7v0.9h-2.6V52h-1.2v-7.3h-2.6v-0.9L162.1,43.7L162.1,43.7z"/>
		<path class="st2" d="M171,52h-1.2l-0.8-2h-4.1l-0.8,2h-1.3l3.5-8.3h1.2L171,52z M165.1,49.1h3.4l-1.7-4.3L165.1,49.1z"/>
		<path class="st2" d="M173.6,43.7V51h3.7v1h-4.9v-8.3H173.6z"/>
	</g>
	<g>
		<path class="st3" d="M36.3,37.1c0.9,0.2,1.9,0.4,2.9,0.4s2-0.1,2.9-0.4c1.1-4.5,4.6-8,9.1-9.1c0.2-0.9,0.4-1.9,0.4-2.9
			c0-6.8-5.6-12.4-12.4-12.4S26.9,18.2,26.9,25c0,1,0.1,2,0.4,2.9C31.7,29,35.2,32.6,36.3,37.1z"/>
		<path class="st4" d="M42.2,42.9c-0.9-0.2-1.9-0.4-2.9-0.4s-2,0.1-2.9,0.4c-1.1,4.5-4.6,8-9.1,9.1c-0.3,1-0.4,2-0.4,3
			c0,6.8,5.6,12.4,12.4,12.4S51.7,61.8,51.7,55c0-1-0.1-2-0.4-2.9C46.9,51,43.3,47.4,42.2,42.9z"/>
		<path class="st5" d="M54.3,27.6c-1,0-2,0.1-2.9,0.4c-1.1,4.5-4.6,8-9.1,9.1C42,38,41.9,39,41.9,40s0.1,2,0.4,2.9
			c4.5,1.1,8,4.6,9.1,9.1c0.9,0.2,1.9,0.4,2.9,0.4c6.8,0,12.4-5.6,12.4-12.4S61.1,27.6,54.3,27.6z"/>
		<path class="st6" d="M36.3,42.9c0.2-0.9,0.4-1.9,0.4-2.9s-0.1-2-0.4-2.9c-4.5-1.1-8-4.6-9.1-9.1c-0.9-0.2-1.9-0.4-2.9-0.4
			c-6.8,0-12.4,5.6-12.4,12.4s5.6,12.4,12.4,12.4c1,0,2-0.1,2.9-0.4C28.3,47.6,31.9,44,36.3,42.9z"/>
		<path class="st7" d="M42.2,37.1c4.5-1.1,8-4.6,9.1-9.1C46.9,29,43.3,32.6,42.2,37.1z"/>
		<path class="st8" d="M42.2,42.9c1.1,4.5,4.6,8,9.1,9.1C50.2,47.6,46.7,44,42.2,42.9z"/>
		<path class="st9" d="M36.3,37.1c-1.1-4.5-4.6-8-9.1-9.1C28.3,32.4,31.9,36,36.3,37.1z"/>
		<path class="st10" d="M36.3,42.9c-4.5,1.1-8,4.6-9.1,9.1C31.7,51,35.2,47.4,36.3,42.9z"/>
	</g>
</g>
</svg>
