<?xml version="1.0" encoding="utf-8"?>
<!-- Generator: Adobe Illustrator 21.1.0, SVG Export Plug-In . SVG Version: 6.00 Build 0)  -->
<svg version="1.1" id="图层_1" xmlns="http://www.w3.org/2000/svg" xmlns:xlink="http://www.w3.org/1999/xlink" x="0px" y="0px"
	 viewBox="0 0 217 80" style="enable-background:new 0 0 217 80;" xml:space="preserve">
<style type="text/css">
	.st0{fill:#FFFFFF;}
	.st1{fill:none;}
	.st2{fill:#F29600;}
	.st3{fill:#555555;}
</style>
<g>
	<rect x="1.4" y="1.4" class="st0" width="214.2" height="77.2"/>
	<path class="st1" d="M214.2,2.8v74.3H2.8V2.8H214.2 M217,0H0v80h217V0L217,0z"/>
</g>
<g>
	<g>
		<path class="st2" d="M47.9,22.5h-7.4c-0.4,0-0.7,0.3-0.7,0.7v24.9c0,0.4-0.3,0.7-0.7,0.7H14.2c-0.4,0-0.7,0.3-0.7,0.7v7.4
			c0,0.4,0.3,0.7,0.7,0.7h33.7h0.7v-0.7V23.2C48.6,22.8,48.2,22.5,47.9,22.5z"/>
		<path class="st2" d="M14.3,45.3h8.4c0.4,0,0.8-0.4,0.8-0.8v-8.4c0-0.4-0.4-0.8-0.8-0.8h-8.4c-0.4,0-0.8,0.4-0.8,0.8v8.4
			C13.5,44.9,13.8,45.3,14.3,45.3z"/>
		<path class="st2" d="M26.8,32.4h8.4c0.4,0,0.8-0.4,0.8-0.8v-8.4c0-0.4-0.4-0.8-0.8-0.8h-0.5h-7.4h-0.6c-0.4,0-0.8,0.4-0.8,0.8v8.4
			C26,32.1,26.3,32.4,26.8,32.4z"/>
	</g>
	<g>
		<path class="st3" d="M157.3,32.3c-0.3,0-0.6,0.2-0.7,0.5l-7.3,19.4c-0.1,0.3-0.3,0.3-0.5,0.1l-4.7-6.7c-0.2-0.2-0.3-0.7-0.3-0.9
			V32c0-0.3-0.2-0.5-0.5-0.5h-2.5c-0.3,0-0.5,0.2-0.5,0.5v12.7c0,0.3-0.1,0.7-0.3,0.9l-6,8.5c-0.2,0.2-0.1,0.6,0.1,0.7L136,56
			c0.2,0.2,0.6,0.1,0.7-0.1l5.1-7.1c0.2-0.2,0.4-0.2,0.6,0l4.7,6.5c0.2,0.2,0.4,0.4,0.6,0.4c0.2,0,0.5,0,0.8,0h2.3
			c0.3,0,0.6,0,0.7,0c0.1,0,0.3-0.2,0.4-0.5l8.3-22.5c0.1-0.3-0.1-0.5-0.3-0.5L157.3,32.3L157.3,32.3z"/>
		<path class="st3" d="M73.8,24.6c-0.3,0-0.7,0.2-0.9,0.4L62,35.6c-0.2,0.2-0.2,0.5,0,0.7l1.8,1.7c0.2,0.2,0.5,0.2,0.7,0l10-9.6
			c0.2-0.2,0.6-0.4,0.9-0.4h5.9c0.3,0,0.7,0.2,0.9,0.4l10,9.6c0.2,0.2,0.5,0.2,0.7,0l1.8-1.7c0.2-0.2,0.2-0.5,0-0.7L83.9,25
			c-0.2-0.2-0.6-0.4-0.9-0.4H73.8z"/>
		<path class="st3" d="M80.2,46.2c0-0.3,0.2-0.5,0.5-0.5h11.2c0.3,0,0.5-0.2,0.5-0.5v-2.4c0-0.3-0.2-0.5-0.5-0.5H80.7
			c-0.3,0-0.5-0.2-0.5-0.5v-3.6c0-0.3,0.2-0.5,0.5-0.5h6.7c0.3,0,0.5-0.2,0.5-0.5v-2.4c0-0.3-0.2-0.5-0.5-0.5H69.3
			c-0.3,0-0.5,0.2-0.5,0.5v2.4c0,0.3,0.2,0.5,0.5,0.5h6.8c0.3,0,0.5,0.2,0.5,0.5v3.6c0,0.3-0.2,0.5-0.5,0.5H64.9
			c-0.3,0-0.5,0.2-0.5,0.5v2.4c0,0.3,0.2,0.5,0.5,0.5h11.2c0.3,0,0.5,0.2,0.5,0.5v5.7c0,0.3-0.2,0.5-0.5,0.5H64.2
			c-0.3,0-0.5,0.2-0.5,0.5v2.4c0,0.3,0.2,0.5,0.5,0.5h28.4c0.3,0,0.5-0.2,0.5-0.5V53c0-0.3-0.2-0.5-0.5-0.5H80.7
			c-0.3,0-0.5-0.2-0.5-0.5V46.2z"/>
		<path class="st3" d="M137.9,28.5c0-0.3,0.2-0.5,0.5-0.5h7.2c0.3,0,0.5,0.2,0.5,0.5v18c0,0.3,0.2,0.5,0.5,0.5h2.5
			c0.3,0,0.5-0.2,0.5-0.5V25.1c0-0.3-0.2-0.5-0.5-0.5h-14.3c-0.3,0-0.5,0.2-0.5,0.5v21.3c0,0.3,0.2,0.5,0.5,0.5h2.5
			c0.3,0,0.5-0.2,0.5-0.5V28.5H137.9z"/>
		<path class="st3" d="M164.3,25.1c0-0.3-0.2-0.5-0.5-0.5h-2.5c-0.3,0-0.5,0.2-0.5,0.5v1.3c0,0.3-0.2,0.5-0.5,0.5h-7.8
			c-0.3,0-0.5,0.2-0.5,0.5v2.3c0,0.3,0.2,0.5,0.5,0.5h7.8c0.3,0,0.5,0.2,0.5,0.5V52c0,0.3-0.2,0.5-0.5,0.5h-2.5
			c-0.3,0-0.5,0.2-0.5,0.5v2.3c0,0.3,0.2,0.5,0.5,0.5h6.1c0.3,0,0.5-0.2,0.5-0.5V30.8c0-0.3,0.2-0.5,0.5-0.5h1.5
			c0.3,0,0.5-0.2,0.5-0.5v-2.3c0-0.3-0.2-0.5-0.5-0.5h-1.5c-0.3,0-0.5-0.2-0.5-0.5v-1.4H164.3z"/>
		<path class="st3" d="M183.3,44.7c0,0.3,0.2,0.5,0.5,0.5h7.1c0.3,0,0.5,0.2,0.5,0.5v6.2c0,0.3-0.2,0.5-0.5,0.5h-7.1
			c-0.3,0-0.5,0.2-0.5,0.5v2.3c0,0.3,0.2,0.5,0.5,0.5h18.8c0.3,0,0.5-0.2,0.5-0.5V53c0-0.3-0.2-0.5-0.5-0.5h-7.1
			c-0.3,0-0.5-0.2-0.5-0.5v-6.2c0-0.3,0.2-0.5,0.5-0.5h7.1c0.3,0,0.5-0.2,0.5-0.5v-2.3c0-0.3-0.2-0.5-0.5-0.5h-18.8
			c-0.3,0-0.5,0.2-0.5,0.5V44.7z"/>
		<path class="st3" d="M196.2,32.8c-0.2-0.2-0.2-0.5,0-0.6l4.9-3.7c0.2-0.2,0.4-0.5,0.4-0.8v-2.3c0-0.3-0.2-0.5-0.5-0.5h-17.3
			c-0.3,0-0.5,0.2-0.5,0.5v2.3c0,0.3,0.2,0.5,0.5,0.5h11.5c0.3,0,0.5,0.1,0.4,0.1c0,0.1-0.3,0.3-0.5,0.4l-12.6,9.4
			c-0.2,0.2-0.3,0.5-0.1,0.7l1.5,1.9c0.2,0.2,0.5,0.3,0.7,0.1l7.8-5.9c0.2-0.2,0.6-0.2,0.8,0l7.8,5.9c0.2,0.2,0.6,0.1,0.7-0.1
			l1.5-1.8c0.2-0.2,0.1-0.5-0.1-0.7L196.2,32.8z"/>
		<g>
			<path class="st3" d="M128.9,53c0-0.3-0.2-0.5-0.5-0.5h-24c-0.3,0-0.5-0.2-0.5-0.5v-4.5c0-0.3,0.2-0.5,0.5-0.5h23.5
				c0.3,0,0.5-0.2,0.5-0.5v-13c0-0.3-0.2-0.5-0.5-0.5h-3.2c-0.3,0-0.5-0.2-0.4-0.5l1.4-5.8c0.1-0.3-0.1-0.5-0.4-0.5h-3.4
				c-0.3,0-0.8,0-1,0h-15.3c-0.3,0-0.5-0.2-0.4-0.5l0.1-0.6c0-0.3-0.2-0.5-0.4-0.5h-2.5c-0.3,0-0.6,0.2-0.6,0.5l-0.7,3.9
				c-0.1,0.3,0.1,0.5,0.4,0.5h2.5c0.3,0,0.8,0,1,0h15.9c0.3,0,0.5,0.2,0.4,0.5l-0.5,2.4c-0.1,0.3-0.3,0.5-0.6,0.5H101
				c-0.3,0-0.5,0.2-0.5,0.5v21.9c0,0.3,0.2,0.5,0.5,0.5h27.6c0.3,0,0.5-0.2,0.5-0.5V53H128.9z M115.8,36.8c0-0.3,0.2-0.5,0.5-0.5
				h8.1c0.3,0,0.5,0.2,0.5,0.5v6.3c0,0.3-0.2,0.5-0.5,0.5h-8.1c-0.3,0-0.5-0.2-0.5-0.5V36.8z M103.9,36.8c0-0.3,0.2-0.5,0.5-0.5h7.3
				c0.3,0,0.5,0.2,0.5,0.5v6.3c0,0.3-0.2,0.5-0.5,0.5h-7.3c-0.3,0-0.5-0.2-0.5-0.5V36.8z"/>
		</g>
		<path class="st3" d="M171.1,52.2c-0.3,0-0.5,0.2-0.5,0.5V55c0,0.3,0.2,0.5,0.5,0.5h8.8c0.3,0,0.5-0.2,0.5-0.5v-2.3
			c0-0.3-0.2-0.5-0.5-0.5H171.1z"/>
		<path class="st3" d="M71.3,50.4c0,0.3-0.2,0.5-0.5,0.5h-2.4c-0.3,0-0.5-0.2-0.5-0.5V48c0-0.3,0.2-0.5,0.5-0.5h2.4
			c0.3,0,0.5,0.2,0.5,0.5V50.4z"/>
		<path class="st3" d="M88.9,50.4c0,0.3-0.2,0.5-0.5,0.5H86c-0.3,0-0.5-0.2-0.5-0.5V48c0-0.3,0.2-0.5,0.5-0.5h2.4
			c0.3,0,0.5,0.2,0.5,0.5V50.4z"/>
		<g>
			<path class="st3" d="M176.7,45.5c-0.3,0-0.4-0.2-0.3-0.5l2.9-8.2c0.1-0.3-0.1-0.5-0.3-0.5h-2.8c-0.3,0-0.6,0.2-0.7,0.5l-4,11.6
				c-0.1,0.3,0.1,0.5,0.3,0.5h8.3c0.3,0,0.5-0.2,0.5-0.5V46c0-0.3-0.2-0.5-0.5-0.5H176.7z"/>
			<path class="st2" d="M175.2,34.1c0.1-0.3,0.3-0.7,0.4-1l3.2-8.1c0.1-0.3,0-0.5-0.3-0.5h-2.9c-0.3,0-0.6,0.2-0.7,0.5l-4,10.7
				c-0.1,0.3,0.1,0.5,0.3,0.5h2.7c0.3,0,0.6-0.2,0.7-0.5L175.2,34.1z"/>
		</g>
	</g>
</g>
</svg>
