<?xml version="1.0" encoding="utf-8"?>
<!-- Generator: Adobe Illustrator 21.1.0, SVG Export Plug-In . SVG Version: 6.00 Build 0)  -->
<svg version="1.1" id="图层_1" xmlns="http://www.w3.org/2000/svg" xmlns:xlink="http://www.w3.org/1999/xlink" x="0px" y="0px"
	 viewBox="0 0 217 80" style="enable-background:new 0 0 217 80;" xml:space="preserve">
<style type="text/css">
	.st0{fill:#FFFFFF;}
	.st1{fill:#20A647;}
	.st2{fill:#006934;}
</style>
<path class="st0" d="M217,0H0v80h217V0L217,0z"/>
<g>
	<g>
		<path class="st1" d="M83.2,22.8c-0.6,0-1-0.1-1.3-0.4c-0.2-0.2-0.4-0.7-0.4-1.3c0-0.6,0.1-0.9,0.4-1.2c0.2-0.2,0.7-0.4,1.3-0.4
			h21.7c0.6,0,1.1,0.1,1.3,0.4c0.2,0.2,0.3,0.6,0.3,1.2s-0.1,1-0.3,1.3c-0.2,0.2-0.7,0.4-1.3,0.4h-3.3v7.7h4.8
			c0.6,0,1.1,0.1,1.3,0.3c0.2,0.2,0.3,0.6,0.3,1.1c0,0.6-0.1,1-0.3,1.2c-0.2,0.3-0.7,0.4-1.3,0.4h-4.8v10.1c0,0.6-0.2,1.1-0.5,1.3
			c-0.4,0.2-0.8,0.3-1.2,0.3c-0.5,0-0.9-0.1-1.3-0.4c-0.4-0.2-0.5-0.7-0.5-1.3v-9.9h-7.8c-0.1,1.4-0.3,2.7-0.6,3.8
			c-0.3,1.1-0.7,2.1-1.2,3s-1.1,1.7-1.9,2.4c-0.7,0.7-1.6,1.5-2.5,2.2c-0.6,0.4-1.1,0.6-1.6,0.6s-0.9-0.3-1.2-0.8
			c-0.3-0.5-0.4-1-0.3-1.4s0.4-0.8,0.9-1.2c0.8-0.6,1.4-1.1,2-1.6s1-1.1,1.4-1.8s0.7-1.4,0.9-2.2c0.2-0.8,0.4-1.8,0.5-2.9H82
			c-0.6,0-1.1-0.1-1.3-0.4c-0.2-0.3-0.3-0.7-0.3-1.2s0.1-0.9,0.3-1.1c0.2-0.2,0.7-0.3,1.3-0.3h4.8V23h-3.6
			C83.2,23,83.2,22.8,83.2,22.8z M90.3,30.5H98v-7.7h-7.7V30.5z"/>
		<path class="st1" d="M115.2,31.4c-0.4,0.4-0.8,0.5-1.2,0.5c-0.4,0-0.9-0.3-1.4-0.9c-0.2-0.2-0.6-0.4-1-0.8s-0.9-0.7-1.3-1.1
			s-0.7-0.8-0.8-1.2c-0.1-0.4,0-0.8,0.4-1.3c0.6-0.8,1.5-0.8,2.6-0.1c0.4,0.3,0.8,0.6,1.3,1s0.9,0.7,1.3,1c0.4,0.4,0.7,0.8,0.8,1.3
			C115.9,30.4,115.7,30.9,115.2,31.4L115.2,31.4z M115.8,36.5c-0.4,1.5-0.8,2.9-1.2,4.3c-0.4,1.3-1,2.7-1.6,4
			c-0.3,0.6-0.6,0.9-1.1,1.1c-0.5,0.2-1,0.1-1.4-0.1c-0.5-0.3-0.7-0.6-0.8-1c-0.1-0.4,0.1-1,0.5-1.7c0.6-1,1-2.1,1.4-3.4
			c0.4-1.2,0.8-2.5,1.1-3.9c0.2-0.7,0.4-1.1,0.7-1.4c0.3-0.2,0.8-0.3,1.3-0.2c0.6,0.1,1,0.3,1.2,0.7C116,35.1,116.1,35.7,115.8,36.5
			z M116.4,24.6c-0.4,0.4-0.8,0.5-1.2,0.5c-0.4,0-0.9-0.3-1.4-0.8c-0.4-0.3-0.8-0.7-1.3-1.1s-0.8-0.7-1.1-0.9
			c-0.5-0.4-0.7-0.8-0.8-1.1c-0.1-0.4,0.1-0.8,0.4-1.3c0.3-0.4,0.7-0.7,1.2-0.7c0.4,0,0.9,0.1,1.4,0.5c0.4,0.3,0.7,0.5,0.9,0.7
			c0.3,0.2,0.5,0.4,0.7,0.6s0.4,0.3,0.5,0.5c0.2,0.1,0.3,0.3,0.5,0.4c0.4,0.4,0.7,0.8,0.8,1.3C117.1,23.6,116.9,24.1,116.4,24.6
			L116.4,24.6z M124.8,24.6c-1,0-1.6,0.2-2,0.7c-0.4,0.4-0.6,1.2-0.6,2.2v6.3c0,1.9,0.9,2.8,2.6,2.8h2.6V42c0,0.3-0.1,0.5-0.2,0.6
			s-0.5,0-1.1-0.2c-0.7-0.2-1.1-0.2-1.4-0.1c-0.3,0.1-0.5,0.5-0.6,0.9c-0.2,0.6-0.1,1,0.1,1.4s0.6,0.6,1.3,0.7
			c0.9,0.2,1.7,0.3,2.3,0.3c0.6,0,1.1-0.1,1.4-0.4c0.4-0.2,0.6-0.6,0.8-1.2c0.1-0.5,0.2-1.2,0.2-2.1v-5.4h2.6c1,0,1.7-0.2,2.1-0.6
			c0.4-0.4,0.6-1.1,0.6-2.2v-6.3c0-1-0.2-1.7-0.5-2.2c-0.4-0.4-1-0.7-2-0.7h-3.1c0.1-0.1,0.1-0.2,0.2-0.3l0.1-0.1
			c0.3-0.7,0.3-1.2,0-1.6h5c0.6,0,1-0.1,1.2-0.3c0.2-0.2,0.3-0.6,0.3-1.1s-0.1-0.9-0.3-1.2c-0.2-0.3-0.6-0.4-1.2-0.4h-14.9
			c-1,0-1.7,0.2-2.1,0.7s-0.7,1.2-0.7,2.3V30c0,1.7,0,3.2,0,4.4s-0.1,2.3-0.2,3.3c-0.1,0.9-0.2,1.8-0.4,2.5
			c-0.2,0.7-0.4,1.4-0.7,2.1c-0.2,0.3-0.3,0.6-0.4,0.9c-0.1,0.3-0.1,0.5-0.1,0.7s0.1,0.4,0.2,0.6c0.1,0.2,0.3,0.4,0.5,0.5
			c0.4,0.3,0.8,0.4,1.2,0.3c0.4-0.1,0.7-0.4,1.1-1.1c0.4-0.8,0.7-1.7,0.9-2.6c0.2-0.9,0.4-2,0.6-3.1c0.1-1.1,0.2-2.4,0.3-3.8
			c0.1-1.4,0.1-2.9,0.1-4.5v-6.8c0-0.3,0-0.5,0.1-0.6s0.2-0.1,0.3-0.1h6.7c0,0.1-0.1,0.1-0.1,0.2s-0.1,0.1-0.1,0.2
			c-0.3,0.6-0.6,1.1-0.9,1.5C126.6,24.6,124.8,24.6,124.8,24.6z M125.2,39.4c0.2-0.6,0.3-1.1,0.3-1.4c-0.1-0.4-0.3-0.6-0.9-0.8
			c-0.5-0.2-0.8-0.2-1.1,0c-0.3,0.2-0.5,0.5-0.8,1c-0.2,0.5-0.4,1-0.5,1.3c-0.2,0.4-0.3,0.7-0.5,1.1c-0.2,0.3-0.4,0.7-0.6,1
			c-0.2,0.4-0.5,0.8-0.8,1.2c-0.3,0.5-0.5,1-0.5,1.4s0.2,0.7,0.5,1c0.4,0.3,0.8,0.4,1.2,0.3c0.4-0.1,0.7-0.4,1-0.8
			c0.5-0.9,1-1.7,1.5-2.6C124.5,41.1,124.9,40.2,125.2,39.4z M132.5,29.2h-7.3v-1.4c0-0.2,0-0.3,0.1-0.4c0.1,0,0.2-0.1,0.3-0.1h6.4
			c0.3,0,0.4,0.2,0.4,0.5v1.4H132.5z M132.5,33.3c0,0.4-0.1,0.5-0.4,0.5h-6.4c-0.3,0-0.4-0.2-0.4-0.5v-1.4h7.3v1.4H132.5z
			 M136.1,42.2c-0.2-0.5-0.5-0.9-0.7-1.2c-0.2-0.4-0.4-0.7-0.6-1c-0.2-0.3-0.4-0.7-0.6-1c-0.2-0.3-0.5-0.7-0.8-1.2s-0.7-0.7-1.1-0.7
			c-0.4,0-0.7,0.1-1,0.4c-0.2,0.2-0.3,0.4-0.4,0.6c-0.1,0.2-0.1,0.4-0.1,0.6c0,0.2,0.1,0.4,0.2,0.6c0.1,0.2,0.2,0.3,0.3,0.5
			c0.2,0.3,0.4,0.6,0.6,0.9c0.2,0.3,0.4,0.6,0.6,0.9c0.2,0.3,0.4,0.7,0.6,1c0.2,0.4,0.4,0.8,0.7,1.2c0.3,0.6,0.6,0.9,0.8,1
			c0.3,0.1,0.6,0.1,1.1-0.1c0.5-0.2,0.8-0.6,0.8-1C136.5,43.3,136.4,42.8,136.1,42.2z"/>
		<path class="st1" d="M149.7,20c0-0.6,0.1-1.1,0.4-1.3c0.3-0.2,0.7-0.3,1.3-0.3s1,0.1,1.3,0.3c0.3,0.2,0.4,0.7,0.4,1.3v3.6h7
			c0.7,0,1.3,0,1.7,0.1s0.8,0.2,1,0.4c0.2,0.2,0.4,0.6,0.5,1s0.1,1,0.1,1.7v8.7c0,0.6,0,1.1-0.1,1.6c-0.1,0.4-0.2,0.7-0.5,1
			c-0.2,0.2-0.6,0.4-1,0.5s-1,0.1-1.7,0.1H153v5.9c0,0.5-0.1,0.9-0.4,1.2c-0.2,0.3-0.7,0.4-1.4,0.4s-1.2-0.1-1.4-0.4
			c-0.2-0.2-0.3-0.7-0.3-1.3v-5.9h-6.9c-0.7,0-1.2,0-1.7-0.1c-0.4-0.1-0.8-0.3-1-0.5s-0.4-0.6-0.5-1s-0.1-0.9-0.1-1.5v-8.7
			c0-0.6,0-1.2,0.1-1.6s0.2-0.7,0.5-1c0.2-0.2,0.6-0.4,1-0.5s1-0.1,1.7-0.1h6.9V20H149.7z M143.7,27c-0.3,0-0.5,0-0.5,0.1
			c-0.1,0.1-0.1,0.3-0.1,0.7v6.3c0,0.5,0,0.7,0.1,0.8s0.3,0.2,0.6,0.2h5.9V27H143.7z M153.2,27v8.2h6.1c0.4,0,0.6-0.1,0.7-0.2
			c0.1-0.1,0.1-0.4,0.1-0.8v-6.3c0-0.4-0.1-0.6-0.2-0.7c-0.1-0.1-0.4-0.2-0.8-0.2H153.2z"/>
		<path class="st1" d="M192.7,42c0,1.1-0.2,1.9-0.7,2.4c-0.4,0.5-1.2,0.7-2.4,0.7h-19.4c-1.1,0-1.9-0.2-2.3-0.7
			c-0.4-0.5-0.6-1.3-0.6-2.4V22.6c0-1.1,0.2-1.9,0.6-2.3c0.4-0.5,1.1-0.7,2.3-0.7h19.5c1.1,0,1.9,0.2,2.4,0.7
			c0.4,0.5,0.7,1.3,0.7,2.3V42H192.7z M171.2,22.6c-0.2,0-0.4,0.1-0.5,0.2s-0.2,0.3-0.2,0.7v17.4c0,0.8,0.3,1.2,1,1.2h17.4
			c0.2,0,0.4-0.1,0.6-0.3c0.1-0.2,0.2-0.5,0.2-0.9V23.4c0-0.3-0.1-0.5-0.2-0.6c-0.2-0.1-0.4-0.2-0.8-0.2
			C188.7,22.6,171.2,22.6,171.2,22.6z M173.5,27.6c-0.7,0-1.1-0.1-1.3-0.3c-0.2-0.2-0.3-0.6-0.3-1.2s0.1-1,0.3-1.2s0.7-0.3,1.3-0.3
			h13.1c0.7,0,1.1,0.1,1.4,0.3c0.2,0.2,0.3,0.6,0.3,1.2s-0.1,1-0.3,1.2s-0.7,0.3-1.4,0.3h-5.5v2.7h4.5c0.6,0,1.1,0.1,1.3,0.3
			c0.2,0.2,0.4,0.6,0.4,1.1c0,0.6-0.1,0.9-0.4,1.1c-0.2,0.2-0.7,0.3-1.3,0.3H185c0.4,0.4,0.7,0.8,1,1.1s0.6,0.7,0.9,1.2
			c0.3,0.3,0.4,0.7,0.4,1s-0.1,0.6-0.4,0.9h0.2c0.7,0,1.1,0.1,1.3,0.4c0.2,0.2,0.3,0.6,0.3,1.2c0,0.6-0.1,0.9-0.3,1.1
			c-0.2,0.2-0.7,0.3-1.3,0.3h-13.9c-0.7,0-1.1-0.1-1.3-0.3s-0.3-0.6-0.3-1.1c0-0.6,0.1-0.9,0.3-1.2c0.2-0.2,0.7-0.4,1.3-0.4h4.8
			v-4.2h-3.7c-0.7,0-1.1-0.1-1.4-0.3s-0.3-0.6-0.3-1.1c0-0.6,0.1-0.9,0.3-1.1s0.7-0.3,1.4-0.3h3.7v-2.7
			C178,27.6,173.5,27.6,173.5,27.6z M182.9,35.2c-0.4-0.4-0.6-0.8-0.5-1.2c0-0.3,0.2-0.6,0.4-0.9h-1.6v4.2h3.6
			c-0.1-0.1-0.1-0.1-0.2-0.2s-0.1-0.1-0.2-0.2c-0.2-0.2-0.3-0.4-0.4-0.5c-0.1-0.1-0.2-0.2-0.3-0.4c-0.1-0.1-0.2-0.2-0.3-0.4
			C183.2,35.6,183.1,35.4,182.9,35.2z"/>
	</g>
	<g>
		<path class="st2" d="M49.8,14.5L49.8,14.5c-3.4,0-6.6,0.7-9.8,1.9c-6.3,2.6-11.2,7.5-13.8,13.8s-2.6,13.2,0,19.5
			C28.8,56.1,33.7,61,40,63.6c3.1,1.3,6.4,1.9,9.8,1.9c3.4,0,6.6-0.7,9.8-1.9c6.3-2.6,11.2-7.5,13.8-13.8l0.7-1.6l-1.6-0.7l-12-5
			l-1.6-0.7l-0.7,1.6c-0.9,2.2-2.7,4-4.9,4.9C52.2,48.8,51,49,49.8,49s-2.4-0.2-3.5-0.7c-2.2-0.9-4-2.7-4.9-4.9s-0.9-4.7,0-7
			c0.9-2.2,2.7-4,4.9-4.9c1.1-0.5,2.3-0.7,3.5-0.7s2.4,0.2,3.5,0.7c2.2,0.9,4,2.7,4.9,4.9l0.7,1.6l1.6-0.7l12-5l1.6-0.7L73.4,30
			c-2.6-6.3-7.5-11.2-13.8-13.8C56.4,15.1,53.1,14.5,49.8,14.5L49.8,14.5L49.8,14.5z"/>
		<path class="st1" d="M54,50c-2.8,1.1-5.7,1.1-8.3,0s-4.7-3.1-5.9-5.9c-1.1-2.8-1.1-5.7,0-8.3s3.1-4.7,5.9-5.9
			c2.8-1.1,5.7-1.1,8.3,0s4.7,3.1,5.9,5.9l12-5c-2.5-6.1-7.3-10.6-12.9-12.9s-12.2-2.5-18.2,0c-6.1,2.5-10.6,7.3-12.9,12.9
			S25.4,43,27.9,49c2.4,6.2,7.1,10.7,12.8,13c5.6,2.3,12.2,2.5,18.2,0c6.1-2.5,10.6-7.3,12.9-12.9l-12-5C58.8,46.7,56.7,48.8,54,50z
			"/>
	</g>
	<g>
		<path d="M80.4,56.1c0-1.6,0.6-2.8,1.8-3.5c1-0.6,2.2-1,3.6-1c1.6,0,2.9,0.4,3.9,1.2s1.5,1.8,1.5,3.2c0,1.1-0.2,2-0.7,2.6
			c-0.4,0.6-1.1,1.1-1.9,1.5c-0.8,0.3-1.8,0.5-2.8,0.5c-1.6,0-2.9-0.4-3.9-1.2C80.9,58.7,80.4,57.6,80.4,56.1z M82.4,56.1
			c0,1.1,0.3,1.9,1,2.5c0.6,0.5,1.4,0.8,2.4,0.8s1.8-0.3,2.4-0.8s1-1.4,1-2.5s-0.3-1.9-1-2.4s-1.4-0.8-2.4-0.8s-1.8,0.3-2.4,0.8
			C82.7,54.2,82.4,55,82.4,56.1z"/>
		<path d="M92.7,57.9l1.9-0.2c0.1,0.6,0.4,1,0.9,1.3s1.2,0.5,2.1,0.5s1.6-0.1,2-0.4c0.4-0.3,0.6-0.6,0.6-1c0-0.3-0.2-0.6-0.6-0.8
			c-0.3-0.1-0.9-0.3-2-0.5c-1.4-0.3-2.4-0.5-3-0.7s-1-0.5-1.3-0.8s-0.4-0.7-0.4-1.1c0-0.4,0.1-0.7,0.4-1.1c0.2-0.3,0.6-0.6,1-0.8
			c0.3-0.2,0.7-0.3,1.2-0.4c0.5-0.1,1.1-0.2,1.7-0.2c0.9,0,1.7,0.1,2.4,0.3c0.7,0.2,1.2,0.5,1.5,0.8s0.5,0.8,0.7,1.3l-1.9,0.2
			c-0.1-0.4-0.3-0.8-0.8-1c-0.4-0.2-1-0.4-1.8-0.4c-0.9,0-1.5,0.1-1.9,0.3s-0.6,0.5-0.6,0.8c0,0.2,0.1,0.4,0.2,0.5
			c0.2,0.2,0.4,0.3,0.7,0.4c0.2,0.1,0.8,0.2,1.7,0.4c1.4,0.3,2.3,0.5,2.9,0.7c0.5,0.2,1,0.4,1.3,0.8c0.3,0.3,0.5,0.7,0.5,1.2
			s-0.2,0.9-0.6,1.4c-0.4,0.4-0.9,0.8-1.6,1s-1.5,0.4-2.4,0.4c-1.5,0-2.6-0.2-3.4-0.7C93.4,59.4,92.9,58.8,92.7,57.9z"/>
		<path d="M112,57.3l1.9,0.2c-0.2,1-0.7,1.8-1.6,2.3c-0.9,0.6-1.9,0.8-3.2,0.8c-1.6,0-2.8-0.4-3.8-1.1c-1-0.8-1.4-1.9-1.4-3.3
			c0-0.9,0.2-1.7,0.6-2.4s1-1.2,1.9-1.6c0.8-0.3,1.8-0.5,2.7-0.5c1.2,0,2.3,0.2,3.1,0.7c0.8,0.5,1.3,1.1,1.5,2l-1.9,0.2
			c-0.2-0.6-0.5-1-1-1.3s-1-0.4-1.7-0.4c-1,0-1.8,0.3-2.4,0.8s-0.9,1.4-0.9,2.5c0,1.2,0.3,2,0.9,2.5s1.4,0.8,2.3,0.8
			c0.8,0,1.4-0.2,1.9-0.5C111.6,58.5,111.9,58,112,57.3z"/>
		<path d="M115.6,60.4V48.6h1.9v4.2c0.9-0.8,2.1-1.2,3.4-1.2c0.9,0,1.6,0.1,2.2,0.4c0.6,0.3,1.1,0.6,1.3,1c0.3,0.4,0.4,1.1,0.4,1.9
			v5.4H123V55c0-0.7-0.2-1.3-0.6-1.6s-1-0.5-1.8-0.5c-0.6,0-1.1,0.1-1.6,0.3s-0.9,0.5-1.1,0.9s-0.3,0.9-0.3,1.6v4.7H115.6z"/>
		<path d="M127.9,50.3v-1.7h1.9v1.7H127.9z M127.9,60.4v-8.6h1.9v8.6H127.9z"/>
		<path d="M132.8,60.4v-8.6h1.8V53c0.8-0.9,2.1-1.4,3.7-1.4c0.7,0,1.3,0.1,1.9,0.3c0.6,0.2,1,0.4,1.3,0.7s0.5,0.7,0.6,1.1
			c0.1,0.3,0.1,0.7,0.1,1.4v5.3h-1.9v-5.2c0-0.6-0.1-1-0.2-1.3c-0.2-0.3-0.4-0.5-0.8-0.7c-0.4-0.2-0.8-0.3-1.4-0.3
			c-0.8,0-1.5,0.2-2.1,0.6c-0.6,0.4-0.9,1.1-0.9,2.2v4.7C134.9,60.4,132.8,60.4,132.8,60.4z"/>
		<path d="M152.6,59.4c-0.7,0.5-1.4,0.8-2.1,1c-0.7,0.2-1.4,0.3-2.1,0.3c-1.3,0-2.2-0.2-2.9-0.7s-1-1-1-1.8c0-0.4,0.1-0.8,0.4-1.1
			c0.3-0.3,0.6-0.6,1-0.8s0.9-0.4,1.4-0.5c0.4-0.1,1-0.1,1.7-0.2c1.6-0.1,2.7-0.3,3.5-0.5c0-0.2,0-0.3,0-0.4c0-0.6-0.2-1-0.6-1.3
			c-0.5-0.3-1.2-0.5-2.2-0.5c-0.9,0-1.6,0.1-2,0.4c-0.4,0.2-0.8,0.7-1,1.3l-1.9-0.2c0.2-0.6,0.5-1.1,0.9-1.5s1-0.7,1.7-0.9
			s1.6-0.3,2.6-0.3s1.8,0.1,2.4,0.3c0.6,0.2,1.1,0.4,1.4,0.6c0.3,0.3,0.5,0.6,0.6,1c0.1,0.2,0.1,0.7,0.1,1.3v1.9
			c0,1.3,0,2.2,0.1,2.6c0.1,0.4,0.2,0.7,0.5,1h-2C152.8,60.1,152.7,59.8,152.6,59.4z M152.5,56.1c-0.7,0.2-1.8,0.4-3.2,0.5
			c-0.8,0.1-1.4,0.2-1.7,0.3s-0.6,0.3-0.8,0.5s-0.3,0.4-0.3,0.7c0,0.4,0.2,0.7,0.6,1c0.4,0.3,1,0.4,1.7,0.4s1.4-0.1,2-0.4
			c0.6-0.2,1-0.6,1.3-1c0.2-0.3,0.3-0.8,0.3-1.5L152.5,56.1L152.5,56.1z"/>
		<path d="M158,60.4v-1.7h2.2v1.7H158z"/>
		<path d="M163.6,60.4v-8.6h1.8V53c0.8-0.9,2.1-1.4,3.7-1.4c0.7,0,1.3,0.1,1.9,0.3c0.6,0.2,1,0.4,1.3,0.7s0.5,0.7,0.6,1.1
			c0.1,0.3,0.1,0.7,0.1,1.4v5.3h-2v-5.2c0-0.6-0.1-1-0.2-1.3c-0.2-0.3-0.4-0.5-0.8-0.7c-0.4-0.2-0.8-0.3-1.4-0.3
			c-0.8,0-1.5,0.2-2.1,0.6c-0.6,0.4-0.9,1.1-0.9,2.2v4.7C165.6,60.4,163.6,60.4,163.6,60.4z"/>
		<path d="M183.8,57.7l2,0.2c-0.3,0.9-0.9,1.6-1.8,2c-0.9,0.5-2,0.7-3.3,0.7c-1.7,0-3-0.4-4-1.2s-1.5-1.9-1.5-3.2
			c0-1.4,0.5-2.6,1.5-3.4c1-0.8,2.3-1.2,3.9-1.2c1.5,0,2.8,0.4,3.8,1.2s1.5,1.9,1.5,3.3c0,0.1,0,0.2,0,0.4h-8.6
			c0.1,0.9,0.4,1.7,1.1,2.2c0.6,0.5,1.4,0.8,2.4,0.8c0.7,0,1.3-0.1,1.8-0.4C183.1,58.7,183.5,58.3,183.8,57.7z M177.4,55.3h6.4
			c-0.1-0.7-0.3-1.3-0.7-1.6c-0.6-0.6-1.4-0.8-2.4-0.8c-0.9,0-1.6,0.2-2.3,0.7C177.8,54,177.4,54.6,177.4,55.3z"/>
		<path d="M192.5,59.1l0.3,1.3c-0.5,0.1-1,0.1-1.5,0.1c-0.7,0-1.3-0.1-1.6-0.3c-0.4-0.2-0.7-0.4-0.8-0.7c-0.2-0.3-0.2-0.8-0.2-1.7
			V53h-1.4v-1.1h1.4v-2.1l1.9-0.9v3h2V53h-2v5c0,0.4,0,0.7,0.1,0.8s0.2,0.2,0.3,0.3c0.2,0.1,0.4,0.1,0.7,0.1
			C191.8,59.2,192.1,59.2,192.5,59.1z"/>
	</g>
</g>
</svg>
