<?xml version="1.0" encoding="utf-8"?>
<!-- Generator: Adobe Illustrator 21.1.0, SVG Export Plug-In . SVG Version: 6.00 Build 0)  -->
<svg version="1.1" id="图层_1" xmlns="http://www.w3.org/2000/svg" xmlns:xlink="http://www.w3.org/1999/xlink" x="0px" y="0px"
	 viewBox="0 0 217 80" style="enable-background:new 0 0 217 80;" xml:space="preserve">
<style type="text/css">
	.st0{fill:#FFFFFF;}
	.st1{fill:none;}
	.st2{fill:#323333;}
	.st3{fill:url(#SVGID_1_);}
	.st4{fill:#2560A5;}
	.st5{fill:#21529B;}
</style>
<g>
	<rect x="1.4" y="1.4" class="st0" width="214.2" height="77.2"/>
	<path class="st1" d="M214.2,2.8v74.3H2.8V2.8H214.2 M217,0H0v80h217V0L217,0z"/>
</g>
<g>
	<g>
		<g>
			<path class="st2" d="M106,44.4c0,0,1.5,1.6,2.3,2.8c-0.1,0.3-0.3,0.5-0.6,0.5H86.3l-0.2-1h10.3v-5.1h-6.7l-0.2-1h6.9v-4.3h-4.7
				c-1.3,2.2-2.8,4-4.3,5.2l-0.3-0.4c1.6-2.1,3.3-5.7,4.3-9.7c-0.3,0.2-0.7,0.3-1.1,0.3H90V18.1l2.2,1.3h10.3l1-1.6l2.2,2.4
				c-0.1,0.3-0.5,0.5-1,0.7v9.7c0,0.2-1,0.8-1.7,0.8h-0.3V30H92v0.9V31l2.3,1.4c-0.1,0.4-0.4,0.6-0.9,0.5c-0.3,0.9-0.7,1.6-1.1,2.4
				h4.2v-4.4l2.9,0.4c-0.1,0.5-0.3,0.9-0.9,1v3h4.7l1.2-2.2c0,0,1.4,1.5,2.2,2.7c-0.1,0.4-0.3,0.5-0.7,0.5h-7.5v4.3h4.4l1.2-2.3
				c0,0,1.4,1.6,2.2,2.7c-0.1,0.4-0.3,0.5-0.7,0.5h-7.1v5.1h6.3L106,44.4z M92,20.4v3.7h10.7v-3.7H92z M102.7,29v-3.9H92V29H102.7z"
				/>
			<path class="st2" d="M122.9,37.5c-1.7,1.9-4.1,4.3-7,6.8c0,0.4-0.2,0.8-0.5,1l-1.1-3.2c0.8-0.3,1.9-1,3.2-1.7v-9.2H115l-0.2-1
				h2.7v-8.3h-2.7l-0.2-1h5.1l1.1-2.2c0,0,1.3,1.5,2.1,2.6c0,0.4-0.3,0.5-0.6,0.5h-3v8.3h0.7l1-2.1c0,0,1.2,1.5,1.8,2.6
				c-0.1,0.4-0.3,0.5-0.6,0.5h-2.9v8.1c1.1-0.7,2.2-1.4,3.4-2.2L122.9,37.5z M136.5,29.4c-0.2,0.3-0.4,0.4-0.8,0.3
				c-1.1,1.4-2.7,3.3-4,4.7c1.4,4,3.4,6.3,5.5,8.1l-0.1,0.4c-0.8,0.2-1.4,1.2-1.7,2.6c-3-3.7-4.8-8.1-5.7-17.1v16.8
				c0,2-0.3,3.2-2.8,3.6c-0.1-0.8-0.2-1.5-0.5-1.8c-0.4-0.4-0.9-0.8-2-1v-0.5c0,0,2.4,0.3,2.9,0.3c0.4,0,0.6-0.2,0.6-0.7v-7.5
				c-1.4,1.8-3.2,4.1-5.4,6.7c0,0.4-0.1,0.8-0.4,1l-1.6-3.1c1.3-0.8,4.3-3.1,7.4-5.7V25.3h-6.1l-0.2-1h6.3v-6.9l2.8,0.4
				c0,0.5-0.2,0.8-0.8,0.9v5.5h3.7l1-1.7c-0.3,0.4-0.7,0.5-1.2,0.1c-0.3-1.3-1.4-2.9-2.3-3.8l0.2-0.3c3.3,0.5,3.9,2.8,3.4,3.8
				l0.2-0.3c0,0,1.4,1.5,2.2,2.6c-0.1,0.4-0.3,0.5-0.6,0.5H130c0.3,3.3,0.9,6,1.6,8.3c1-1.9,2-4.3,2.8-6.2L136.5,29.4z M122.9,27.7
				c5.2,3.7,3.3,8.8,1.5,6.6c-0.1-2.1-1-4.7-1.8-6.5L122.9,27.7z"/>
			<path class="st2" d="M162.7,21.5c-0.1,0.3-0.5,0.6-1,0.7v25.1c0,0.2-1,1-1.7,1h-0.3v-2.9h-10.8v2c0,0.3-0.7,1.1-1.6,1.1h-0.4
				V19.4l2.2,1.4h10.4l1.1-1.7L162.7,21.5z M148.9,21.7v10.6h10.8V21.7H148.9z M159.7,44.4V33.3h-10.8v11.1H159.7z"/>
			<path class="st2" d="M178.2,23c0,0,1.2,1.5,1.8,2.5c-0.1,0.4-0.3,0.5-0.6,0.5h-2.8v6.1c1-0.5,2-1.1,3.1-1.6l0.1,0.4
				c-0.9,0.8-1.9,1.8-3.2,2.8V45c0,2.2-0.3,3.4-2.7,3.8c0-0.9-0.2-1.6-0.5-2c-0.3-0.5-0.9-0.8-1.9-1v-0.5c0,0,2.2,0.2,2.6,0.2
				c0.4,0,0.5-0.2,0.5-0.7v-9.3c-0.6,0.5-1.3,1.1-2,1.6c0,0.4-0.3,0.8-0.5,1l-0.9-3.2c0.7-0.3,2-0.9,3.5-1.6V26h-3.2l-0.2-1h3.4
				v-7.8l2.8,0.4c-0.1,0.5-0.3,0.8-0.9,0.9V25h0.5L178.2,23z M192.6,31.9c-0.2,0.3-0.4,0.4-0.9,0.5c-0.6,3.5-1.5,6.9-3,9.8
				c1.5,1.8,3.2,3.2,5,4.2l-0.1,0.3c-0.8,0.1-1.4,0.8-1.7,2.1c-1.7-1.3-3.1-2.8-4.3-4.8c-1.3,1.9-2.9,3.6-5,4.9l-0.2-0.5
				c1.8-1.6,3.3-3.6,4.4-5.8c-1.5-2.8-2.5-6.3-3.2-10.6h-1.2v15.9c0,0.2-0.6,0.9-1.5,0.9h-0.3V17.9l2.2,1.4h6.6l1-1.4l1.9,2.2
				c-0.1,0.2-0.4,0.4-0.9,0.5c-0.1,4.2-0.5,6.6-1.3,7.5c-0.6,0.6-1.4,0.8-2.4,0.8c0-0.6-0.1-1.2-0.4-1.5c-0.3-0.4-1.2-0.6-2-0.9V26
				c0.9,0.1,2.4,0.3,2.9,0.3c0.4,0,0.6-0.1,0.7-0.2c0.4-0.5,0.6-2.5,0.8-5.8h-7.1V31h7.3l1.1-1.6L192.6,31.9z M184.1,32
				c0.7,3.4,1.9,6.3,3.5,8.7c1-2.7,1.7-5.6,2.2-8.7H184.1z"/>
		</g>
		<g>
			<path class="st2" d="M87.2,58.5c0-2.6,1.5-4.2,3.6-4.2s3.6,1.6,3.6,4.2c0,2.6-1.5,4.3-3.6,4.3S87.2,61.1,87.2,58.5z M93,58.5
				c0-1.9-0.9-3.1-2.3-3.1s-2.2,1.2-2.2,3.1c0,1.9,0.9,3.2,2.2,3.2C92.2,61.6,93,60.4,93,58.5z"/>
			<path class="st2" d="M109.7,54.4h2.1c2.5,0,4,1.4,4,4.1c0,2.7-1.4,4.1-3.9,4.1h-2.2V54.4z M111.8,61.5c1.8,0,2.7-1,2.7-3.1
				c0-2-0.9-3-2.7-3H111v6.1H111.8z"/>
			<path class="st2" d="M134.8,60.3h-2.9l-0.7,2.3h-1.3l2.7-8.2h1.5l2.7,8.2h-1.4L134.8,60.3z M134.5,59.2l-0.3-1.1
				c-0.3-0.9-0.5-1.8-0.8-2.7l0,0c-0.2,0.9-0.5,1.8-0.8,2.7l-0.3,1.1H134.5z"/>
			<path class="st2" d="M151.6,54.4h1.3v8.2h-1.3V54.4z"/>
			<path class="st2" d="M168.6,54.4h1.3v7.1h3.5v1.1h-4.8V54.4z"/>
			<path class="st2" d="M188.8,59.5l-2.5-5.1h1.4l0.9,2.2c0.3,0.6,0.5,1.2,0.8,1.8l0,0c0.3-0.6,0.5-1.2,0.8-1.8l1-2.2h1.3l-2.5,5.1
				v3.1h-1.3v-3.1H188.8z"/>
		</g>
	</g>
	<g>
		<g>
			
				<linearGradient id="SVGID_1_" gradientUnits="userSpaceOnUse" x1="57.6079" y1="59.8237" x2="34.7298" y2="20.1977" gradientTransform="matrix(1 0 0 -1 0 80)">
				<stop  offset="0" style="stop-color:#1A489B"/>
				<stop  offset="9.343082e-02" style="stop-color:#1E52A0"/>
				<stop  offset="0.4891" style="stop-color:#2E79B4"/>
				<stop  offset="0.8051" style="stop-color:#3791C0"/>
				<stop  offset="1" style="stop-color:#3B9AC4"/>
			</linearGradient>
			<path class="st3" d="M46.2,62.9c-12.6,0-22.9-10.3-22.9-22.9s10.3-22.9,22.9-22.9S69,27.4,69,40S58.8,62.9,46.2,62.9z M46.2,27.8
				C39.4,27.8,34,33.3,34,40s5.5,12.2,12.2,12.2S58.4,46.7,58.4,40S52.9,27.8,46.2,27.8z"/>
		</g>
		<path class="st4" d="M34,40v19.3c3.1,2,6.8,3.2,10.7,3.5V52.1V27.9C38.7,28.7,34,33.8,34,40z"/>
		<path class="st5" d="M34,42c0-6.2,4.6-11.3,10.6-12.1v-2C38.6,28.7,34,33.8,34,40"/>
	</g>
</g>
</svg>
