<?xml version="1.0" encoding="utf-8"?>
<!-- Generator: Adobe Illustrator 17.0.0, SVG Export Plug-In . SVG Version: 6.00 Build 0)  -->
<!DOCTYPE svg PUBLIC "-//W3C//DTD SVG 1.1//EN" "http://www.w3.org/Graphics/SVG/1.1/DTD/svg11.dtd">
<svg version="1.1" id="图层_1" xmlns="http://www.w3.org/2000/svg" xmlns:xlink="http://www.w3.org/1999/xlink" x="0px" y="0px"
	 width="190.56px" height="207.243px" viewBox="0 0 190.56 207.243" enable-background="new 0 0 190.56 207.243"
	 xml:space="preserve">
<g id="XMLID_2_">
	<g id="XMLID_3_">
		<defs>
			<path id="XMLID_4_" d="M95.28-0.183l64.341,37.148v74.296L95.28,148.408l-64.341-37.148V36.965L95.28-0.183z M95.28,9.812
				l-55.686,32.15v64.301l55.686,32.15l55.685-32.15V41.963L95.28,9.812z"/>
		</defs>
		<use xlink:href="#XMLID_4_"  overflow="visible" fill="#EB5B16"/>
		<clipPath id="XMLID_10_">
			<use xlink:href="#XMLID_4_"  overflow="visible"/>
		</clipPath>
		<g id="XMLID_7_" clip-path="url(#XMLID_10_)">
			<defs>
				<rect id="XMLID_8_" x="-409.641" y="-65.39" width="1009.842" height="663.61"/>
			</defs>
			<use xlink:href="#XMLID_8_"  overflow="visible" fill="#EB5B16"/>
			<clipPath id="XMLID_11_">
				<use xlink:href="#XMLID_8_"  overflow="visible"/>
			</clipPath>
			<rect id="XMLID_9_" x="30.218" y="-0.904" clip-path="url(#XMLID_11_)" fill="#EB5B16" width="130.125" height="150.034"/>
		</g>
	</g>
	<g>
		<g>
			<defs>
				<path id="SVGID_1_" d="M170.857,207.022v-25.07h1.31c0.437,0,0.689,0.21,0.756,0.63l0.227,3.779
					c1.142-1.445,2.473-2.608,3.994-3.49c1.52-0.882,3.213-1.323,5.077-1.323c1.377,0,2.591,0.218,3.641,0.655
					c1.05,0.437,1.919,1.067,2.608,1.89c0.689,0.823,1.209,1.814,1.562,2.973c0.353,1.159,0.529,2.469,0.529,3.931v16.025h-2.394
					v-16.025c0-2.352-0.538-4.195-1.613-5.531c-1.075-1.335-2.721-2.003-4.938-2.003c-1.646,0-3.175,0.424-4.586,1.273
					c-1.411,0.848-2.671,2.012-3.78,3.49v18.796H170.857z M163.046,173.309c0,0.302-0.063,0.584-0.189,0.844
					c-0.126,0.26-0.29,0.491-0.491,0.693c-0.202,0.202-0.437,0.361-0.706,0.479c-0.269,0.118-0.554,0.176-0.857,0.176
					c-0.302,0-0.588-0.059-0.857-0.176c-0.269-0.118-0.504-0.277-0.706-0.479c-0.201-0.202-0.361-0.433-0.479-0.693
					c-0.118-0.26-0.176-0.542-0.176-0.844c0-0.302,0.059-0.592,0.176-0.869c0.118-0.277,0.277-0.516,0.479-0.718
					c0.202-0.202,0.437-0.361,0.706-0.479c0.269-0.118,0.554-0.176,0.857-0.176c0.302,0,0.588,0.059,0.857,0.176
					c0.269,0.118,0.504,0.277,0.706,0.479c0.202,0.202,0.365,0.441,0.491,0.718C162.983,172.717,163.046,173.007,163.046,173.309z
					 M161.988,181.952v25.07h-2.394v-25.07H161.988z M140.294,205.687c0.974,0,1.869-0.105,2.684-0.315
					c0.815-0.21,1.57-0.504,2.268-0.882c0.697-0.378,1.348-0.827,1.953-1.348c0.605-0.521,1.201-1.083,1.789-1.688v-6.526
					c-2.385,0.067-4.439,0.248-6.16,0.542c-1.722,0.294-3.141,0.693-4.258,1.197c-1.117,0.504-1.94,1.104-2.469,1.801
					c-0.529,0.697-0.794,1.491-0.794,2.381c0,0.84,0.139,1.566,0.416,2.18c0.277,0.613,0.643,1.117,1.096,1.512
					c0.454,0.395,0.983,0.684,1.587,0.869C139.009,205.594,139.638,205.687,140.294,205.687z M150.372,207.022
					c-0.504,0-0.815-0.235-0.932-0.705l-0.353-3.2c-0.689,0.672-1.373,1.277-2.053,1.814c-0.68,0.538-1.39,0.991-2.129,1.361
					c-0.739,0.37-1.537,0.651-2.394,0.844c-0.857,0.193-1.797,0.29-2.822,0.29c-0.857,0-1.688-0.126-2.494-0.378
					c-0.806-0.252-1.52-0.638-2.142-1.159c-0.622-0.521-1.121-1.189-1.499-2.003s-0.567-1.793-0.567-2.935
					c0-1.058,0.302-2.041,0.907-2.948c0.605-0.907,1.549-1.697,2.834-2.368c1.285-0.672,2.94-1.209,4.964-1.613
					c2.024-0.403,4.456-0.638,7.294-0.706v-2.62c0-2.318-0.5-4.103-1.499-5.354c-0.999-1.251-2.482-1.877-4.447-1.877
					c-1.209,0-2.238,0.168-3.087,0.504c-0.848,0.336-1.566,0.705-2.154,1.109c-0.588,0.403-1.067,0.773-1.436,1.109
					c-0.37,0.336-0.68,0.504-0.932,0.504c-0.336,0-0.588-0.151-0.756-0.454l-0.428-0.731c1.31-1.31,2.688-2.301,4.132-2.973
					c1.445-0.672,3.082-1.008,4.913-1.008c1.344,0,2.52,0.214,3.527,0.643c1.008,0.428,1.844,1.042,2.507,1.839
					c0.663,0.798,1.163,1.764,1.499,2.898c0.336,1.134,0.504,2.398,0.504,3.792v16.327H150.372z M107.11,207.022v-36.661h2.394
					v15.874c1.159-1.428,2.482-2.566,3.968-3.414c1.487-0.848,3.154-1.272,5.001-1.272c1.377,0,2.591,0.218,3.641,0.655
					c1.05,0.437,1.919,1.067,2.608,1.89c0.689,0.823,1.209,1.814,1.562,2.973c0.353,1.159,0.529,2.469,0.529,3.931v16.025h-2.394
					v-16.025c0-2.352-0.537-4.195-1.613-5.531c-1.075-1.335-2.721-2.003-4.938-2.003c-1.646,0-3.175,0.424-4.586,1.273
					c-1.411,0.848-2.671,2.012-3.78,3.49v18.796H107.11z M98.77,201.025c0.168,0,0.311,0.059,0.428,0.176l1.008,1.083
					c-0.739,0.79-1.545,1.499-2.419,2.129c-0.873,0.63-1.827,1.167-2.86,1.612c-1.033,0.445-2.167,0.79-3.401,1.033
					c-1.235,0.244-2.591,0.365-4.069,0.365c-2.469,0-4.733-0.432-6.79-1.298c-2.058-0.865-3.821-2.091-5.291-3.679
					c-1.47-1.587-2.616-3.506-3.439-5.757c-0.823-2.251-1.235-4.754-1.235-7.509c0-2.704,0.424-5.174,1.272-7.408
					c0.848-2.234,2.041-4.153,3.578-5.757c1.537-1.604,3.376-2.847,5.518-3.729c2.142-0.882,4.506-1.323,7.093-1.323
					c1.293,0,2.478,0.097,3.553,0.29c1.075,0.193,2.079,0.47,3.011,0.831c0.932,0.361,1.81,0.81,2.633,1.348
					c0.823,0.537,1.629,1.159,2.419,1.865l-0.781,1.134c-0.134,0.202-0.344,0.302-0.63,0.302c-0.151,0-0.344-0.088-0.58-0.265
					c-0.235-0.176-0.533-0.395-0.895-0.655c-0.361-0.26-0.798-0.546-1.31-0.857c-0.512-0.311-1.121-0.596-1.827-0.857
					c-0.706-0.26-1.52-0.479-2.444-0.655c-0.924-0.176-1.974-0.265-3.15-0.265c-2.167,0-4.157,0.374-5.972,1.121
					c-1.814,0.747-3.376,1.814-4.687,3.2s-2.331,3.066-3.061,5.039c-0.731,1.974-1.096,4.187-1.096,6.639
					c0,2.52,0.361,4.771,1.083,6.753c0.722,1.982,1.722,3.658,2.998,5.027c1.277,1.369,2.784,2.419,4.523,3.15
					c1.739,0.731,3.624,1.096,5.657,1.096c1.277,0,2.415-0.084,3.414-0.252c0.999-0.168,1.919-0.42,2.759-0.756
					c0.84-0.336,1.621-0.747,2.343-1.235c0.722-0.487,1.436-1.058,2.142-1.713c0.084-0.067,0.164-0.122,0.239-0.164
					C98.581,201.046,98.669,201.025,98.77,201.025z M59.892,207.425c-2.234,0-3.956-0.634-5.165-1.902
					c-1.209-1.268-1.814-3.019-1.814-5.253v-14.438h-2.62c-0.336,0-0.626-0.109-0.869-0.327c-0.244-0.218-0.365-0.546-0.365-0.983
					v-2.469l4.157-0.68l1.31-7.055c0.067-0.336,0.222-0.596,0.466-0.781c0.244-0.185,0.55-0.277,0.92-0.277h3.225v8.138h6.803v4.435
					h-6.803v14.009c0,0.806,0.202,1.436,0.605,1.89c0.403,0.454,0.941,0.68,1.613,0.68c0.386,0,0.71-0.046,0.97-0.139
					c0.26-0.092,0.487-0.189,0.68-0.29c0.193-0.101,0.365-0.197,0.517-0.29c0.151-0.092,0.302-0.139,0.453-0.139
					c0.185,0,0.336,0.046,0.453,0.139c0.118,0.092,0.244,0.231,0.378,0.416l1.864,3.024c-0.907,0.756-1.948,1.327-3.124,1.713
					C62.369,207.232,61.152,207.425,59.892,207.425z M44.371,181.171v25.851h-6.223v-25.851H44.371z M30.74,207.022h-6.828v-15.924
					H6.828v15.924H0v-36.434h6.828v15.672h17.083v-15.672h6.828V207.022z"/>
			</defs>
			<use xlink:href="#SVGID_1_"  overflow="visible" fill-rule="evenodd" clip-rule="evenodd" fill="#FFFFFF"/>
			<clipPath id="SVGID_2_">
				<use xlink:href="#SVGID_1_"  overflow="visible"/>
			</clipPath>
			<g clip-path="url(#SVGID_2_)">
				<defs>
					<rect id="SVGID_3_" x="-197.792" y="-192.257" width="973.001" height="604.924"/>
				</defs>
				<use xlink:href="#SVGID_3_"  overflow="visible" fill="#FFFFFF"/>
				<clipPath id="SVGID_4_">
					<use xlink:href="#SVGID_3_"  overflow="visible"/>
				</clipPath>
				<rect x="-1.05" y="169.312" clip-path="url(#SVGID_4_)" fill="#FFFFFF" width="192.66" height="39.164"/>
			</g>
		</g>
		<g>
			<defs>
				<path id="SVGID_5_" d="M45.337,173.713c0,0.538-0.109,1.042-0.328,1.512c-0.218,0.47-0.508,0.882-0.869,1.235
					c-0.361,0.353-0.785,0.634-1.272,0.844c-0.487,0.21-1.008,0.315-1.562,0.315c-0.538,0-1.046-0.105-1.524-0.315
					c-0.479-0.21-0.895-0.491-1.247-0.844c-0.353-0.353-0.634-0.764-0.844-1.235c-0.21-0.47-0.315-0.974-0.315-1.512
					c0-0.554,0.105-1.075,0.315-1.562c0.21-0.487,0.491-0.907,0.844-1.26c0.353-0.353,0.769-0.634,1.247-0.844
					c0.479-0.21,0.987-0.315,1.524-0.315c0.554,0,1.075,0.105,1.562,0.315c0.487,0.21,0.911,0.491,1.272,0.844
					c0.361,0.353,0.651,0.773,0.869,1.26C45.228,172.638,45.337,173.158,45.337,173.713z"/>
			</defs>
			<clipPath id="SVGID_6_">
				<use xlink:href="#SVGID_5_"  overflow="visible"/>
			</clipPath>
			<g clip-path="url(#SVGID_6_)">
				<defs>
					<rect id="SVGID_7_" x="-197.792" y="-192.257" width="973.001" height="604.924"/>
				</defs>
				<clipPath id="SVGID_8_">
					<use xlink:href="#SVGID_7_"  overflow="visible"/>
				</clipPath>
				<rect x="36.325" y="168.682" clip-path="url(#SVGID_8_)" fill="#EB5B16" width="10.062" height="9.986"/>
			</g>
		</g>
	</g>
	<g>
		<path fill="#EB5B16" d="M90.373,86.949c0,2.357-0.653,4.092-1.96,5.207c-1.307,1.115-2.853,1.672-4.638,1.672
			c-1.785,0-3.331-0.557-4.638-1.672c-1.307-1.115-1.96-2.85-1.96-5.207V56.452c0-2.357,0.653-4.093,1.96-5.207
			c1.307-1.115,2.853-1.672,4.638-1.672c1.141,0,2.185,0.228,3.131,0.683c0.273-0.994,0.618-1.949,1.034-2.863
			c0.974-2.142,2.231-4.021,3.767-5.623c-0.661-0.339-1.344-0.637-2.051-0.892c-1.944-0.701-3.905-1.051-5.881-1.051
			c-1.976,0-3.937,0.35-5.881,1.051c-1.944,0.701-3.682,1.72-5.212,3.057c-1.594,1.401-2.869,3.153-3.825,5.255
			c-0.956,2.102-1.434,4.522-1.434,7.262v30.497c0,2.866,0.478,5.319,1.434,7.357c0.956,2.038,2.231,3.726,3.825,5.064
			c1.53,1.401,3.267,2.452,5.212,3.153c1.944,0.701,3.905,1.051,5.881,1.051c1.976,0,3.936-0.35,5.881-1.051
			c1.944-0.701,3.713-1.752,5.307-3.153c1.53-1.338,2.773-3.026,3.729-5.064c0.956-2.038,1.434-4.491,1.434-7.357v-9.527h-9.754
			V86.949z"/>
		<path fill="#EB5B16" d="M100.187,56.452c0-2.357,0.653-4.093,1.96-5.207c1.307-1.115,2.853-1.672,4.638-1.672
			c1.785,0,3.331,0.557,4.638,1.672c1.307,1.115,1.96,2.851,1.96,5.207v30.497c0,2.357-0.653,4.092-1.96,5.207
			c-1.307,1.115-2.853,1.672-4.638,1.672c-1.141,0-2.185-0.228-3.131-0.684c-0.273,0.994-0.618,1.949-1.034,2.863
			c-0.974,2.142-2.231,4.021-3.767,5.623c0.661,0.339,1.344,0.637,2.051,0.892c1.944,0.701,3.905,1.051,5.881,1.051
			c1.976,0,3.937-0.35,5.881-1.051c1.944-0.701,3.681-1.72,5.211-3.058c1.594-1.401,2.869-3.153,3.825-5.255
			c0.956-2.102,1.434-4.523,1.434-7.262V56.452c0-2.866-0.478-5.319-1.434-7.357c-0.956-2.038-2.231-3.726-3.825-5.064
			c-1.53-1.401-3.267-2.452-5.211-3.153c-1.944-0.701-3.905-1.051-5.881-1.051c-1.976,0-3.936,0.35-5.881,1.051
			c-1.944,0.701-3.713,1.752-5.307,3.153c-1.53,1.338-2.773,3.026-3.729,5.064c-0.956,2.038-1.434,4.491-1.434,7.357v9.527h9.754
			V56.452z"/>
	</g>
</g>
</svg>
