<?xml version="1.0" encoding="utf-8"?>
<!-- Generator: Adobe Illustrator 17.0.0, SVG Export Plug-In . SVG Version: 6.00 Build 0)  -->
<!DOCTYPE svg PUBLIC "-//W3C//DTD SVG 1.1//EN" "http://www.w3.org/Graphics/SVG/1.1/DTD/svg11.dtd">
<svg version="1.1" id="图层_1" xmlns="http://www.w3.org/2000/svg" xmlns:xlink="http://www.w3.org/1999/xlink" x="0px" y="0px"
	 width="332.11px" height="129.072px" viewBox="0 0 332.11 129.072" enable-background="new 0 0 332.11 129.072"
	 xml:space="preserve">
<g id="XMLID_52_">
	<defs>
		<path id="XMLID_53_" d="M55.763,0.345l55.553,32.074v64.147L55.763,128.64L0.21,96.566V32.419L55.763,0.345z M55.763,8.975
			L7.683,36.734v55.518l48.079,27.759l48.079-27.759V36.734L55.763,8.975z"/>
	</defs>
	<clipPath id="XMLID_2_">
		<use xlink:href="#XMLID_53_"  overflow="visible"/>
	</clipPath>
	<g id="XMLID_56_" clip-path="url(#XMLID_2_)">
		<defs>
			<rect id="XMLID_57_" x="-380.189" y="-55.955" width="871.904" height="572.965"/>
		</defs>
		<clipPath id="XMLID_3_">
			<use xlink:href="#XMLID_57_"  overflow="visible"/>
		</clipPath>
		<rect id="XMLID_58_" x="-0.413" y="-0.278" clip-path="url(#XMLID_3_)" fill="#4A4949" width="112.351" height="129.54"/>
	</g>
</g>
<g>
	<g>
		<defs>
			<path id="SVGID_1_" d="M312.179,85.102V59.806h1.322c0.441,0,0.695,0.212,0.763,0.636l0.229,3.814
				c1.152-1.458,2.496-2.631,4.03-3.521c1.534-0.89,3.242-1.335,5.123-1.335c1.39,0,2.614,0.22,3.674,0.661
				c1.059,0.441,1.936,1.076,2.631,1.907c0.695,0.831,1.22,1.83,1.576,3c0.356,1.169,0.534,2.491,0.534,3.966v16.169h-2.415V68.933
				c0-2.373-0.542-4.233-1.627-5.58c-1.085-1.347-2.746-2.021-4.983-2.021c-1.661,0-3.203,0.428-4.627,1.284
				c-1.424,0.856-2.695,2.03-3.814,3.521v18.966H312.179z M304.298,51.086c0,0.305-0.064,0.589-0.191,0.852
				c-0.127,0.263-0.292,0.496-0.496,0.699c-0.203,0.203-0.441,0.364-0.712,0.483c-0.271,0.119-0.559,0.178-0.864,0.178
				c-0.305,0-0.593-0.059-0.864-0.178c-0.271-0.119-0.509-0.28-0.712-0.483c-0.203-0.203-0.364-0.436-0.483-0.699
				c-0.119-0.263-0.178-0.547-0.178-0.852c0-0.305,0.059-0.597,0.178-0.877c0.119-0.28,0.28-0.521,0.483-0.725
				c0.203-0.203,0.441-0.364,0.712-0.483c0.271-0.119,0.559-0.178,0.864-0.178c0.305,0,0.593,0.059,0.864,0.178
				c0.271,0.119,0.508,0.28,0.712,0.483c0.203,0.203,0.369,0.445,0.496,0.725C304.234,50.488,304.298,50.781,304.298,51.086z
				 M303.23,59.806v25.297h-2.415V59.806H303.23z M281.34,83.755c0.983,0,1.886-0.106,2.708-0.318
				c0.822-0.212,1.585-0.509,2.288-0.89c0.703-0.381,1.36-0.835,1.97-1.36c0.61-0.525,1.212-1.093,1.805-1.703v-6.585
				c-2.407,0.068-4.479,0.25-6.216,0.547c-1.737,0.297-3.17,0.699-4.297,1.208s-1.958,1.114-2.491,1.818
				c-0.534,0.703-0.801,1.504-0.801,2.403c0,0.847,0.14,1.581,0.419,2.199s0.648,1.127,1.106,1.525
				c0.458,0.398,0.992,0.691,1.602,0.877C280.044,83.662,280.679,83.755,281.34,83.755z M291.51,85.102
				c-0.508,0-0.822-0.237-0.941-0.712l-0.356-3.229c-0.695,0.678-1.386,1.288-2.072,1.83c-0.686,0.542-1.403,1-2.148,1.373
				c-0.746,0.373-1.551,0.657-2.415,0.852c-0.864,0.195-1.814,0.292-2.847,0.292c-0.864,0-1.703-0.127-2.517-0.381
				c-0.814-0.254-1.534-0.644-2.161-1.169s-1.131-1.199-1.513-2.021c-0.381-0.822-0.572-1.809-0.572-2.962
				c0-1.068,0.305-2.059,0.915-2.975c0.61-0.915,1.563-1.712,2.86-2.39c1.297-0.678,2.966-1.22,5.008-1.627
				c2.042-0.407,4.496-0.644,7.36-0.712v-2.644c0-2.339-0.504-4.14-1.513-5.402c-1.008-1.263-2.504-1.894-4.487-1.894
				c-1.22,0-2.258,0.17-3.114,0.508c-0.856,0.339-1.581,0.712-2.174,1.119c-0.593,0.407-1.076,0.78-1.449,1.119
				c-0.373,0.339-0.686,0.508-0.941,0.508c-0.339,0-0.593-0.153-0.763-0.458l-0.432-0.737c1.322-1.322,2.712-2.322,4.169-3
				c1.458-0.678,3.11-1.017,4.958-1.017c1.356,0,2.542,0.216,3.559,0.648c1.017,0.432,1.86,1.051,2.53,1.856
				c0.669,0.805,1.174,1.78,1.513,2.924c0.339,1.144,0.508,2.419,0.508,3.826v16.475H291.51z M247.857,85.102V48.111h2.415v16.017
				c1.17-1.441,2.504-2.589,4.004-3.445c1.5-0.856,3.182-1.284,5.047-1.284c1.39,0,2.614,0.22,3.674,0.661
				c1.059,0.441,1.937,1.076,2.631,1.907c0.695,0.831,1.22,1.83,1.576,3c0.356,1.169,0.534,2.491,0.534,3.966v16.169h-2.415V68.933
				c0-2.373-0.542-4.233-1.627-5.58c-1.085-1.347-2.746-2.021-4.983-2.021c-1.661,0-3.203,0.428-4.627,1.284
				s-2.695,2.03-3.814,3.521v18.966H247.857z M239.442,79.052c0.169,0,0.314,0.059,0.432,0.178l1.017,1.093
				c-0.746,0.797-1.559,1.513-2.441,2.148c-0.881,0.636-1.843,1.178-2.886,1.627c-1.042,0.449-2.186,0.797-3.432,1.042
				c-1.246,0.246-2.614,0.369-4.106,0.369c-2.492,0-4.775-0.437-6.852-1.309c-2.076-0.873-3.856-2.11-5.339-3.712
				c-1.483-1.602-2.64-3.538-3.47-5.809s-1.246-4.797-1.246-7.576c0-2.729,0.428-5.22,1.284-7.475
				c0.856-2.254,2.059-4.191,3.61-5.809c1.551-1.619,3.407-2.873,5.568-3.763c2.161-0.89,4.547-1.335,7.157-1.335
				c1.305,0,2.5,0.097,3.585,0.292c1.085,0.195,2.097,0.475,3.038,0.839c0.941,0.364,1.826,0.818,2.657,1.36
				c0.831,0.542,1.644,1.169,2.441,1.881l-0.788,1.144c-0.136,0.203-0.347,0.305-0.636,0.305c-0.153,0-0.347-0.089-0.585-0.267
				c-0.237-0.178-0.538-0.398-0.903-0.661c-0.364-0.263-0.805-0.551-1.322-0.864c-0.517-0.314-1.131-0.602-1.843-0.864
				s-1.534-0.483-2.466-0.661c-0.932-0.178-1.991-0.267-3.178-0.267c-2.186,0-4.195,0.377-6.025,1.131
				c-1.83,0.754-3.407,1.83-4.729,3.229c-1.322,1.398-2.352,3.093-3.089,5.085s-1.106,4.225-1.106,6.699
				c0,2.542,0.364,4.814,1.093,6.814c0.729,2,1.737,3.691,3.025,5.072s2.809,2.441,4.564,3.178c1.754,0.737,3.657,1.106,5.708,1.106
				c1.288,0,2.436-0.085,3.445-0.254c1.008-0.17,1.936-0.424,2.784-0.763c0.847-0.339,1.636-0.754,2.364-1.246
				c0.729-0.491,1.449-1.068,2.161-1.729c0.085-0.068,0.165-0.123,0.242-0.165C239.251,79.073,239.34,79.052,239.442,79.052z
				 M200.213,85.509c-2.254,0-3.991-0.64-5.212-1.92c-1.22-1.28-1.83-3.047-1.83-5.301V63.721h-2.644
				c-0.339,0-0.631-0.11-0.877-0.33c-0.246-0.22-0.369-0.551-0.369-0.992v-2.491l4.195-0.686l1.322-7.119
				c0.068-0.339,0.224-0.602,0.47-0.788s0.555-0.28,0.928-0.28h3.254v8.212h6.864v4.474h-6.864v14.136
				c0,0.814,0.203,1.449,0.61,1.907c0.407,0.458,0.949,0.686,1.627,0.686c0.39,0,0.716-0.047,0.979-0.14
				c0.263-0.093,0.492-0.191,0.686-0.292c0.195-0.102,0.369-0.199,0.521-0.292c0.153-0.093,0.305-0.14,0.458-0.14
				c0.186,0,0.339,0.047,0.458,0.14c0.119,0.093,0.246,0.233,0.381,0.419l1.881,3.051c-0.915,0.763-1.966,1.339-3.152,1.729
				C202.713,85.314,201.484,85.509,200.213,85.509z M184.552,59.018v26.085h-6.28V59.018H184.552z M170.798,85.102h-6.89V69.035
				h-17.237v16.068h-6.89V48.34h6.89v15.814h17.237V48.34h6.89V85.102z"/>
		</defs>
		<clipPath id="SVGID_2_">
			<use xlink:href="#SVGID_1_"  overflow="visible"/>
		</clipPath>
		<g clip-path="url(#SVGID_2_)">
			<defs>
				<rect id="SVGID_3_" x="-59.795" y="-317.778" width="981.777" height="610.38"/>
			</defs>
			<clipPath id="SVGID_4_">
				<use xlink:href="#SVGID_3_"  overflow="visible"/>
			</clipPath>
			<rect x="138.722" y="47.052" clip-path="url(#SVGID_4_)" fill="#4A4949" width="194.398" height="39.517"/>
		</g>
	</g>
	<g>
		<defs>
			<path id="SVGID_5_" d="M185.527,51.492c0,0.542-0.11,1.051-0.331,1.525c-0.22,0.475-0.513,0.89-0.877,1.246
				c-0.364,0.356-0.792,0.64-1.284,0.852c-0.492,0.212-1.017,0.318-1.576,0.318c-0.542,0-1.055-0.106-1.538-0.318
				c-0.483-0.212-0.903-0.496-1.259-0.852c-0.356-0.356-0.64-0.771-0.852-1.246c-0.212-0.475-0.318-0.983-0.318-1.525
				c0-0.559,0.106-1.085,0.318-1.576c0.212-0.491,0.496-0.915,0.852-1.271c0.356-0.356,0.775-0.64,1.259-0.852
				c0.483-0.212,0.996-0.318,1.538-0.318c0.559,0,1.085,0.106,1.576,0.318c0.492,0.212,0.92,0.496,1.284,0.852
				c0.364,0.356,0.657,0.78,0.877,1.271C185.417,50.408,185.527,50.933,185.527,51.492z"/>
		</defs>
		<clipPath id="SVGID_6_">
			<use xlink:href="#SVGID_5_"  overflow="visible"/>
		</clipPath>
		<g clip-path="url(#SVGID_6_)">
			<defs>
				<rect id="SVGID_7_" x="-59.795" y="-317.778" width="981.777" height="610.38"/>
			</defs>
			<clipPath id="SVGID_8_">
				<use xlink:href="#SVGID_7_"  overflow="visible"/>
			</clipPath>
			<rect x="176.434" y="46.416" clip-path="url(#SVGID_8_)" fill="#EB5B16" width="10.152" height="10.076"/>
		</g>
	</g>
</g>
<g>
	<path fill="#EB5B16" d="M51.837,75.686c0,2.047-0.568,3.555-1.703,4.523c-1.135,0.968-2.478,1.452-4.029,1.452
		c-1.55,0-2.893-0.484-4.028-1.452s-1.703-2.476-1.703-4.523V49.195c0-2.047,0.568-3.555,1.703-4.523s2.478-1.452,4.028-1.452
		c0.991,0,1.898,0.198,2.719,0.594c0.237-0.863,0.536-1.693,0.898-2.487c0.846-1.861,1.938-3.493,3.273-4.884
		c-0.574-0.294-1.167-0.553-1.781-0.775c-1.689-0.609-3.392-0.913-5.108-0.913c-1.717,0-3.419,0.304-5.108,0.913
		s-3.198,1.494-4.527,2.656c-1.384,1.217-2.492,2.739-3.322,4.565c-0.831,1.826-1.246,3.928-1.246,6.308v26.491
		c0,2.49,0.415,4.62,1.246,6.391c0.831,1.771,1.938,3.237,3.322,4.399c1.329,1.217,2.838,2.13,4.527,2.739
		c1.689,0.609,3.392,0.913,5.108,0.913c1.717,0,3.419-0.304,5.108-0.913c1.689-0.609,3.226-1.522,4.61-2.739
		c1.329-1.162,2.409-2.628,3.239-4.399c0.831-1.771,1.246-3.901,1.246-6.391V67.41h-8.472V75.686z"/>
	<path fill="#4A4949" d="M60.362,49.195c0-2.047,0.568-3.555,1.703-4.523c1.135-0.968,2.478-1.452,4.028-1.452
		c1.551,0,2.893,0.484,4.028,1.452c1.135,0.968,1.703,2.476,1.703,4.523v26.491c0,2.047-0.568,3.555-1.703,4.523
		c-1.135,0.968-2.478,1.452-4.028,1.452c-0.991,0-1.898-0.198-2.719-0.594c-0.237,0.863-0.536,1.693-0.898,2.487
		c-0.846,1.861-1.938,3.493-3.273,4.884c0.574,0.294,1.167,0.553,1.781,0.775c1.689,0.609,3.392,0.913,5.108,0.913
		c1.717,0,3.419-0.304,5.108-0.913c1.689-0.609,3.198-1.494,4.527-2.656c1.384-1.217,2.492-2.739,3.323-4.565
		c0.831-1.826,1.246-3.928,1.246-6.308V49.195c0-2.49-0.415-4.62-1.246-6.391c-0.831-1.771-1.938-3.237-3.323-4.399
		c-1.329-1.217-2.838-2.13-4.527-2.739c-1.689-0.609-3.392-0.913-5.108-0.913c-1.717,0-3.419,0.304-5.108,0.913
		c-1.689,0.609-3.226,1.522-4.61,2.739c-1.329,1.162-2.409,2.628-3.239,4.399c-0.831,1.771-1.246,3.901-1.246,6.391v8.276h8.472
		V49.195z"/>
</g>
</svg>
