<?xml version="1.0" encoding="utf-8"?>
<!-- Generator: Adobe Illustrator 17.0.0, SVG Export Plug-In . SVG Version: 6.00 Build 0)  -->
<!DOCTYPE svg PUBLIC "-//W3C//DTD SVG 1.1//EN" "http://www.w3.org/Graphics/SVG/1.1/DTD/svg11.dtd">
<svg version="1.1" id="图层_1" xmlns="http://www.w3.org/2000/svg" xmlns:xlink="http://www.w3.org/1999/xlink" x="0px" y="0px"
	 width="332.11px" height="129.072px" viewBox="0 0 332.11 129.072" enable-background="new 0 0 332.11 129.072"
	 xml:space="preserve">
<g id="XMLID_52_">
	<defs>
		<path id="XMLID_53_" d="M56.099,0l55.889,32.268v64.536l-55.889,32.268L0.21,96.804V32.268L56.099,0z M56.099,8.682L7.729,36.609
			v55.854l48.371,27.927l48.371-27.927V36.609L56.099,8.682z"/>
	</defs>
	<clipPath id="XMLID_2_">
		<use xlink:href="#XMLID_53_"  overflow="visible"/>
	</clipPath>
	<g id="XMLID_56_" clip-path="url(#XMLID_2_)">
		<defs>
			<rect id="XMLID_57_" x="-382.494" y="-56.641" width="877.187" height="576.437"/>
		</defs>
		<clipPath id="XMLID_3_">
			<use xlink:href="#XMLID_57_"  overflow="visible"/>
		</clipPath>
		<rect id="XMLID_58_" x="-0.417" y="-0.627" clip-path="url(#XMLID_3_)" fill="#4A4949" width="113.032" height="130.325"/>
	</g>
</g>
<g>
	<g>
		<defs>
			<path id="SVGID_1_" d="M311.357,86.451v-25.07h1.31c0.437,0,0.689,0.21,0.756,0.63l0.227,3.78
				c1.142-1.445,2.473-2.608,3.994-3.49c1.52-0.882,3.213-1.323,5.077-1.323c1.377,0,2.591,0.218,3.641,0.655
				c1.05,0.437,1.919,1.067,2.608,1.89c0.689,0.823,1.209,1.814,1.562,2.973c0.353,1.159,0.529,2.469,0.529,3.931v16.025h-2.394
				V70.426c0-2.352-0.537-4.195-1.612-5.531c-1.075-1.335-2.721-2.003-4.939-2.003c-1.646,0-3.175,0.424-4.586,1.272
				c-1.411,0.848-2.671,2.012-3.779,3.49v18.797H311.357z M303.546,52.739c0,0.302-0.063,0.584-0.189,0.844
				c-0.126,0.26-0.29,0.491-0.491,0.693c-0.202,0.202-0.437,0.361-0.706,0.479c-0.269,0.118-0.554,0.176-0.857,0.176
				c-0.302,0-0.588-0.059-0.857-0.176c-0.269-0.118-0.504-0.277-0.706-0.479c-0.202-0.202-0.361-0.432-0.479-0.693
				c-0.118-0.26-0.176-0.542-0.176-0.844c0-0.302,0.059-0.592,0.176-0.869c0.118-0.277,0.277-0.516,0.479-0.718
				c0.202-0.201,0.437-0.361,0.706-0.479c0.269-0.118,0.554-0.176,0.857-0.176c0.302,0,0.588,0.059,0.857,0.176
				c0.269,0.118,0.504,0.277,0.706,0.479c0.202,0.202,0.365,0.441,0.491,0.718C303.483,52.146,303.546,52.436,303.546,52.739z
				 M302.488,61.381v25.07h-2.394v-25.07H302.488z M280.794,85.116c0.974,0,1.869-0.105,2.683-0.315
				c0.815-0.21,1.57-0.504,2.268-0.882c0.697-0.378,1.348-0.827,1.953-1.348c0.605-0.521,1.201-1.084,1.789-1.688v-6.526
				c-2.385,0.067-4.439,0.248-6.16,0.542c-1.722,0.294-3.141,0.693-4.258,1.197s-1.94,1.104-2.469,1.801
				c-0.529,0.697-0.794,1.491-0.794,2.381c0,0.84,0.139,1.566,0.416,2.179s0.642,1.117,1.096,1.512
				c0.454,0.395,0.983,0.684,1.587,0.869C279.509,85.024,280.138,85.116,280.794,85.116z M290.872,86.451
				c-0.504,0-0.815-0.235-0.932-0.705l-0.353-3.2c-0.689,0.672-1.373,1.277-2.053,1.814s-1.39,0.991-2.129,1.361
				c-0.739,0.37-1.537,0.651-2.394,0.844c-0.857,0.193-1.797,0.29-2.822,0.29c-0.857,0-1.688-0.126-2.494-0.378
				c-0.806-0.252-1.52-0.638-2.142-1.159s-1.121-1.188-1.499-2.003c-0.378-0.815-0.567-1.793-0.567-2.935
				c0-1.058,0.302-2.041,0.907-2.948c0.605-0.907,1.549-1.696,2.835-2.368c1.285-0.672,2.939-1.209,4.964-1.612
				c2.024-0.403,4.455-0.638,7.294-0.706v-2.62c0-2.318-0.5-4.103-1.499-5.354c-0.999-1.251-2.482-1.877-4.447-1.877
				c-1.21,0-2.238,0.168-3.087,0.504c-0.848,0.336-1.566,0.706-2.154,1.109c-0.588,0.403-1.067,0.773-1.436,1.109
				c-0.369,0.336-0.68,0.504-0.932,0.504c-0.336,0-0.588-0.151-0.756-0.453l-0.428-0.731c1.31-1.31,2.688-2.301,4.132-2.973
				c1.445-0.672,3.082-1.008,4.913-1.008c1.344,0,2.52,0.214,3.527,0.643c1.008,0.428,1.844,1.041,2.507,1.839
				c0.664,0.798,1.163,1.764,1.499,2.898c0.336,1.134,0.504,2.398,0.504,3.792v16.327H290.872z M247.61,86.451V49.791h2.394v15.874
				c1.159-1.428,2.482-2.566,3.969-3.414c1.487-0.848,3.154-1.272,5.001-1.272c1.377,0,2.591,0.218,3.641,0.655
				c1.05,0.437,1.919,1.067,2.608,1.89s1.209,1.814,1.562,2.973c0.353,1.159,0.529,2.469,0.529,3.931v16.025h-2.394V70.426
				c0-2.352-0.538-4.195-1.613-5.531c-1.075-1.335-2.721-2.003-4.938-2.003c-1.646,0-3.175,0.424-4.586,1.272
				c-1.411,0.848-2.671,2.012-3.78,3.49v18.797H247.61z M239.27,80.455c0.168,0,0.311,0.059,0.428,0.176l1.008,1.083
				c-0.739,0.79-1.545,1.499-2.419,2.129c-0.874,0.63-1.827,1.167-2.86,1.613c-1.033,0.445-2.167,0.79-3.402,1.033
				c-1.235,0.244-2.591,0.365-4.069,0.365c-2.469,0-4.733-0.433-6.79-1.298c-2.058-0.865-3.821-2.091-5.291-3.679
				c-1.47-1.587-2.616-3.507-3.439-5.757s-1.235-4.754-1.235-7.508c0-2.704,0.424-5.174,1.272-7.408
				c0.848-2.234,2.041-4.153,3.578-5.757c1.537-1.604,3.376-2.847,5.518-3.729c2.142-0.882,4.506-1.323,7.093-1.323
				c1.293,0,2.478,0.097,3.553,0.29c1.075,0.193,2.079,0.47,3.011,0.832c0.932,0.361,1.81,0.811,2.633,1.348
				c0.823,0.538,1.629,1.159,2.419,1.865l-0.781,1.134c-0.134,0.202-0.344,0.302-0.63,0.302c-0.151,0-0.344-0.088-0.579-0.264
				c-0.235-0.176-0.533-0.395-0.895-0.655c-0.361-0.26-0.798-0.546-1.31-0.857c-0.512-0.311-1.121-0.596-1.827-0.857
				c-0.706-0.26-1.52-0.479-2.444-0.655c-0.924-0.176-1.974-0.265-3.15-0.265c-2.167,0-4.157,0.374-5.972,1.121
				c-1.814,0.748-3.376,1.814-4.686,3.2c-1.31,1.386-2.331,3.066-3.061,5.039c-0.731,1.974-1.096,4.187-1.096,6.639
				c0,2.52,0.361,4.771,1.083,6.753c0.722,1.982,1.722,3.658,2.998,5.027c1.277,1.369,2.784,2.419,4.523,3.149
				c1.739,0.731,3.624,1.096,5.657,1.096c1.277,0,2.415-0.084,3.414-0.252c0.999-0.168,1.919-0.42,2.759-0.756
				c0.84-0.336,1.621-0.747,2.343-1.235c0.722-0.487,1.436-1.058,2.142-1.713c0.084-0.067,0.164-0.122,0.239-0.164
				C239.081,80.476,239.169,80.455,239.27,80.455z M200.392,86.854c-2.234,0-3.956-0.634-5.165-1.902
				c-1.209-1.268-1.814-3.019-1.814-5.253V65.261h-2.62c-0.336,0-0.626-0.109-0.869-0.327c-0.244-0.218-0.365-0.546-0.365-0.983
				v-2.469l4.158-0.68l1.31-7.055c0.067-0.336,0.222-0.596,0.466-0.781c0.244-0.185,0.55-0.277,0.92-0.277h3.225v8.139h6.803v4.434
				h-6.803V79.27c0,0.806,0.202,1.436,0.605,1.89c0.403,0.453,0.941,0.68,1.613,0.68c0.386,0,0.71-0.046,0.97-0.139
				c0.26-0.092,0.487-0.189,0.68-0.29c0.193-0.101,0.365-0.197,0.516-0.29c0.151-0.092,0.302-0.139,0.454-0.139
				c0.185,0,0.336,0.046,0.454,0.139c0.118,0.092,0.243,0.231,0.378,0.416l1.865,3.024c-0.907,0.756-1.949,1.327-3.124,1.713
				C202.87,86.661,201.652,86.854,200.392,86.854z M184.871,60.6v25.851h-6.223V60.6H184.871z M171.24,86.451h-6.828V70.527h-17.083
				v15.924H140.5V50.017h6.828V65.69h17.083V50.017h6.828V86.451z"/>
		</defs>
		<clipPath id="SVGID_2_">
			<use xlink:href="#SVGID_1_"  overflow="visible"/>
		</clipPath>
		<g clip-path="url(#SVGID_2_)">
			<defs>
				<rect id="SVGID_3_" x="-57.292" y="-312.828" width="973.002" height="604.924"/>
			</defs>
			<clipPath id="SVGID_4_">
				<use xlink:href="#SVGID_3_"  overflow="visible"/>
			</clipPath>
			<rect x="139.45" y="48.741" clip-path="url(#SVGID_4_)" fill="#4A4949" width="192.66" height="39.164"/>
		</g>
	</g>
	<g>
		<defs>
			<path id="SVGID_5_" d="M185.837,53.142c0,0.537-0.109,1.041-0.328,1.512c-0.218,0.47-0.508,0.882-0.869,1.235
				c-0.361,0.353-0.785,0.634-1.272,0.844c-0.487,0.21-1.008,0.315-1.562,0.315c-0.538,0-1.046-0.105-1.524-0.315
				c-0.479-0.21-0.895-0.491-1.247-0.844c-0.353-0.353-0.634-0.764-0.844-1.235c-0.21-0.47-0.315-0.974-0.315-1.512
				c0-0.554,0.105-1.075,0.315-1.562c0.21-0.487,0.491-0.907,0.844-1.26c0.353-0.353,0.769-0.634,1.247-0.844
				c0.479-0.21,0.987-0.315,1.524-0.315c0.554,0,1.075,0.105,1.562,0.315c0.487,0.21,0.911,0.491,1.272,0.844
				c0.361,0.353,0.651,0.773,0.869,1.26C185.728,52.067,185.837,52.587,185.837,53.142z"/>
		</defs>
		<clipPath id="SVGID_6_">
			<use xlink:href="#SVGID_5_"  overflow="visible"/>
		</clipPath>
		<g clip-path="url(#SVGID_6_)">
			<defs>
				<rect id="SVGID_7_" x="-57.292" y="-312.828" width="973.002" height="604.924"/>
			</defs>
			<clipPath id="SVGID_8_">
				<use xlink:href="#SVGID_7_"  overflow="visible"/>
			</clipPath>
			<rect x="176.825" y="48.111" clip-path="url(#SVGID_8_)" fill="#EB5B16" width="10.062" height="9.986"/>
		</g>
	</g>
</g>
<g>
	<path fill="#EB5B16" d="M51.837,75.686c0,2.047-0.568,3.555-1.703,4.523c-1.135,0.968-2.478,1.452-4.029,1.452
		c-1.55,0-2.893-0.484-4.028-1.452s-1.703-2.476-1.703-4.523V49.195c0-2.047,0.568-3.555,1.703-4.523s2.478-1.452,4.028-1.452
		c0.991,0,1.898,0.198,2.719,0.594c0.237-0.863,0.536-1.693,0.898-2.487c0.846-1.861,1.938-3.493,3.273-4.884
		c-0.574-0.294-1.167-0.553-1.781-0.775c-1.689-0.609-3.392-0.913-5.108-0.913c-1.717,0-3.419,0.304-5.108,0.913
		s-3.198,1.494-4.527,2.656c-1.384,1.217-2.492,2.739-3.322,4.565c-0.831,1.826-1.246,3.928-1.246,6.308v26.491
		c0,2.49,0.415,4.62,1.246,6.391c0.831,1.771,1.938,3.237,3.322,4.399c1.329,1.217,2.838,2.13,4.527,2.739
		c1.689,0.609,3.392,0.913,5.108,0.913c1.717,0,3.419-0.304,5.108-0.913c1.689-0.609,3.226-1.522,4.61-2.739
		c1.329-1.162,2.409-2.628,3.239-4.399c0.831-1.771,1.246-3.901,1.246-6.391V67.41h-8.472V75.686z"/>
	<path fill="#4A4949" d="M60.362,49.195c0-2.047,0.568-3.555,1.703-4.523c1.135-0.968,2.478-1.452,4.028-1.452
		c1.551,0,2.893,0.484,4.028,1.452c1.135,0.968,1.703,2.476,1.703,4.523v26.491c0,2.047-0.568,3.555-1.703,4.523
		c-1.135,0.968-2.478,1.452-4.028,1.452c-0.991,0-1.898-0.198-2.719-0.594c-0.237,0.863-0.536,1.693-0.898,2.487
		c-0.846,1.861-1.938,3.493-3.273,4.884c0.574,0.294,1.167,0.553,1.781,0.775c1.689,0.609,3.392,0.913,5.108,0.913
		c1.717,0,3.419-0.304,5.108-0.913c1.689-0.609,3.198-1.494,4.527-2.656c1.384-1.217,2.492-2.739,3.323-4.565
		c0.831-1.826,1.246-3.928,1.246-6.308V49.195c0-2.49-0.415-4.62-1.246-6.391c-0.831-1.771-1.938-3.237-3.323-4.399
		c-1.329-1.217-2.838-2.13-4.527-2.739c-1.689-0.609-3.392-0.913-5.108-0.913c-1.717,0-3.419,0.304-5.108,0.913
		c-1.689,0.609-3.226,1.522-4.61,2.739c-1.329,1.162-2.409,2.628-3.239,4.399c-0.831,1.771-1.246,3.901-1.246,6.391v8.276h8.472
		V49.195z"/>
</g>
</svg>
